<svg xmlns="http://www.w3.org/2000/svg" xmlns:xlink="http://www.w3.org/1999/xlink" xml:space="preserve" id="Camada_1" x="0" y="0" version="1.1" viewBox="0 0 262.2 299"><style>.st2{fill:#012442}.st3{fill:#3ec63e}.st9{fill:#fff}.st11{fill:#4d8faa}</style><g id="Camada_4"><circle cx="130.7" cy="174.7" r="123.3" style="fill:#f29b3b"/><defs><circle id="SVGID_1_" cx="130.2" cy="175.5" r="123.3"/></defs><clipPath id="SVGID_2_"><use xlink:href="#SVGID_1_" style="overflow:visible"/></clipPath><g style="clip-path:url(#SVGID_2_)"><path d="M217.5 301c-12.5 0-23.7-7.9-26.6-19.4-9.3-37.2-33-47.3-34-47.7.4.2.6.2.6.2l19.8-46.6c5.2 1.9 51.2 19.9 66.9 83 3.4 13.5-5.9 26.8-20.6 29.9-2 .4-4.1.6-6.1.6" class="st2"/><path d="M218.7 296.4c-10.1 0-18.9-6.4-21.1-15.6-10.2-40.8-42.2-55.1-42.5-55.3-5.3-2.1-9.5-6.4-11.6-11.7-1.9-4.9-1.6-10.4.7-15.1 3.5-7.2 11.3-11.8 19.8-11.8 3 0 6 .6 8.8 1.7 2.1.9 51.9 21.9 67.2 83 1.3 5 .4 10.3-2.4 14.7-3.2 4.9-8.2 8.4-14 9.5-1.7.5-3.3.6-4.9.6" class="st3"/><path d="M163.9 190.4c2.6 0 5.1.5 7.4 1.5 2 .8 50.3 21.2 65.1 80.7 2.2 9-3.9 17.9-13.7 19.9-1.3.3-2.7.4-4.1.4-8.3 0-15.8-5.2-17.7-13-10.6-42.7-44.2-57.5-44.5-57.7-9.2-3.8-13.3-13.6-9.2-22 3.1-6.1 9.8-9.8 16.7-9.8m0-7c-9.8 0-18.8 5.4-22.9 13.8-2.8 5.6-3.1 12-.9 17.8 2.4 6.2 7.3 11.2 13.5 13.7 1.2.5 30.9 14.6 40.5 52.9 2.7 10.8 12.8 18.3 24.5 18.3 1.8 0 3.7-.2 5.5-.6 6.7-1.3 12.6-5.3 16.3-11.1 3.3-5.2 4.3-11.5 2.8-17.4-15.7-62.8-67.1-84.5-69.3-85.4-3.1-1.3-6.5-2-10-2M34.9 301.8c-2 0-4.1-.2-6.1-.6-14.7-3.1-23.9-16.4-20.6-29.9C24 208.2 73.8 186.6 79 184.7l19.8 46.6c-1.2 1.1-2.3 2.2-3.3 3.4-1 .4-24.8 10.5-34 47.7-2.9 11.6-14.1 19.4-26.6 19.4" class="st2"/><path d="M33.7 297.3c-1.6 0-3.2-.2-4.8-.5-5.8-1.2-10.8-4.6-14-9.5-2.8-4.4-3.7-9.7-2.4-14.7 15.2-61.2 66.8-83 69-83.9.4-.2.9-.3 1.3-.3 1.1 0 2.1.5 2.8 1.4l20.1 26.7.1.1c.9.8 1.3 2 1.1 3.2s-1 2.2-2.1 2.6c-.4.2-39.8 18.2-50 59.3-2.3 9.2-11 15.6-21.1 15.6" class="st3"/><path d="m82.8 191.9 20.3 26.9.3.3c-1.4.6-41.4 19.1-52 61.7-1.9 7.7-9.4 13-17.7 13-1.4 0-2.7-.1-4.1-.4-9.8-2-15.9-11-13.7-19.9 14.8-59.5 64.9-80.7 66.9-81.6m0-7c-.9 0-1.8.2-2.7.5-2.2.9-55.4 23.4-71.1 86.3-1.5 5.9-.4 12.2 2.9 17.4 3.7 5.7 9.5 9.7 16.2 11.1 1.8.4 3.6.6 5.5.6 11.8 0 21.9-7.5 24.5-18.3 9.9-39.7 47.6-56.8 48-57 3.5-1.5 5.2-5.7 3.6-9.2-.4-.8-.9-1.6-1.5-2.2l-19.9-26.4c-1.2-1.8-3.3-2.8-5.5-2.8" class="st2"/><path id="peito" d="M193.5 301s7.6-85.6-43.8-112.2L93.2 191c-45.1 15.9-42.6 110-42.6 110z" class="st3"/><path d="M36.7 229.4c64.6 58.2 163.5 31.5 182.7 4.8-13.7-24.2-45.9-49-63.9-41.9-9.9-9.7-64.6 3.4-72.5-.2-2.5 1.9-18-1.4-46.3 37.3" style="fill:#2ba52b"/><path d="M63.7 249.7c-1.7-1-3.9-.5-4.9 1.3-.2.3-.3.6-.4.9-2.8 10.7-5.1 25.2-5.1 44 .1 1.9 1.7 3.4 3.6 3.3 1.9.1 3.6-1.4 3.6-3.3 0-18 2.2-32 4.9-42.2.4-1.5-.3-3.2-1.7-4M191.8 253.7c-1.5.8-2.2 2.5-1.8 4.1 2.6 10.2 4.8 24.1 4.9 42.2.1 1.9 1.7 3.4 3.6 3.3 1.9.1 3.6-1.4 3.6-3.3 0-18.8-2.3-33.3-5.1-44-.5-1.9-2.5-3.1-4.4-2.6-.2 0-.4.1-.8.3" class="st2"/></g></g><g id="Camada_3"><path d="M237.9 133.6v-1.1c0-10.2 4.2-15.4 5.2-25.5 1.5-14.9-3.9-37.9-22.9-33.9-17.9 3.9-34.9 11.2-50 21.5 10-14.9 17.1-31.6 20.9-49.1 3.9-18.9-19.1-24.3-34-22.9-10.1 1-15.4 5.1-25.5 5.1h-1c-8.5 0-15.4-4.1-25.5-5.1C90 21.1 67 26.5 71 45.4c4 18.5 11.6 36 22.5 51.4C77.6 85.2 59.4 77.1 40.2 73c-18.9-3.9-24.3 19.1-22.8 34 1 10.1 5.2 15.4 5.2 25.5v1.1c0 8.5-4.2 15.4-5.2 25.5C15.9 174 21.3 197 40.3 193c32.7-6.8 54.6-24.9 54.6-24.9v-.3h.3c-11.8 16-20 34.3-24.2 53.7-3.9 18.9 19.1 24.4 34 22.9 10.1-1 15.4-5.2 25.5-5.2h1.1c8.5 0 15.5 4.2 25.5 5.2 14.9 1.5 37.9-3.9 34-22.9-3.9-18.2-11.4-35.5-22.1-50.8 15.4 10.8 32.8 18.4 51.2 22.3 18.8 4 24.3-19 22.8-33.9-1-10.1-5.1-17-5.1-25.5" style="fill:#9c35d8"/><path d="M161.8 22.3c14.5 0 32.7 6.1 29.2 23.1-3.8 17.6-10.9 34.3-20.9 49.2 15.1-10.4 32.1-17.7 50-21.5 1.4-.3 2.7-.4 4.1-.5 15.6 0 20.1 20.7 18.7 34.4-1 10.1-5.2 15.4-5.2 25.5v1.1c0 8.5 4.2 15.4 5.2 25.5 1.4 13.7-3.1 34.4-18.7 34.4-1.4 0-2.8-.2-4.1-.5-18.4-3.9-35.8-11.5-51.2-22.3 10.7 15.3 18.2 32.6 22.1 50.8 3.5 17-14.7 23.1-29.2 23.1-1.6 0-3.2-.1-4.8-.2-10.1-1-17-5.2-25.5-5.2h-1.1c-10.2 0-15.4 4.2-25.5 5.2-1.5.2-3.1.2-4.8.2-14.5 0-32.7-6.1-29.2-23.1 4.1-19.4 12.4-37.7 24.2-53.7h-.3v.3S73 186.1 40.2 193c-1.4.3-2.7.4-4.1.5-15.6 0-20.1-20.7-18.7-34.4 1-10.1 5.2-17 5.2-25.5v-1.1c0-10.2-4.2-15.4-5.2-25.5-1.4-13.7 3.1-34.4 18.7-34.4 1.4 0 2.8.2 4.1.5 19.2 4.1 37.4 12.2 53.2 23.7C82.6 81.4 74.9 63.9 71 45.4c-3.5-17 14.6-23.1 29.2-23.1 1.6 0 3.2.1 4.8.2 10.1 1 17 5.1 25.5 5.1h1c10.2 0 15.5-4.1 25.5-5.1 1.7-.1 3.3-.2 4.8-.2m0-8.6c-1.9 0-3.8.1-5.6.3-4.5.5-8.9 1.5-13.2 2.9-3.8 1.2-6.9 2.1-11 2.2h-2c-3.2-.1-6.4-1-10.2-2.1-4.6-1.4-9.3-2.5-14.1-3-1.8-.2-3.7-.3-5.6-.3-5.3 0-23.5.9-33 12.6-4.7 5.8-6.3 13-4.7 20.9 1.9 9.2 4.8 18.1 8.4 26.8-9.3-4.1-19-7.3-28.9-9.4C40 64.2 38 64 36 64c-6.8-.1-13.4 2.9-17.9 8-8.6 9.6-10.5 25.3-9.5 35.9.5 4.5 1.5 8.9 2.9 13.2 1.2 3.8 2.1 6.9 2.2 11v2c-.1 3.2-1 6.4-2.1 10.2q-2.25 6.9-3 14.1c-1 10.6.8 26.3 9.5 35.9 4.5 5.2 11 8.1 17.9 8 2 0 4-.2 5.9-.6 10.1-2.1 19.9-5.3 29.3-9.5-3.9 9-6.8 18.3-8.8 27.8-1.7 7.9 0 15.2 4.7 20.9 9.5 11.7 27.6 12.6 33 12.6 1.9 0 3.8-.1 5.6-.3 4.5-.5 8.9-1.5 13.2-2.9 3.8-1.2 6.9-2.1 11-2.2h1.8c3.2.1 6.4 1 10.2 2.1q6.9 2.25 14.1 3c1.8.2 3.7.3 5.6.3 5.3 0 23.5-.9 33-12.6 4.7-5.8 6.3-13 4.7-20.9-1.9-9.3-4.8-18.3-8.5-27 8.8 3.8 18 6.7 27.4 8.7 1.9.4 3.9.6 5.9.6 6.8.1 13.4-2.9 17.9-8 8.6-9.6 10.5-25.3 9.5-35.9q-.9-7.2-3-14.1c-1.1-3.7-2-7-2.1-10.2V132c.1-4.1 1-7.1 2.2-11 1.4-4.3 2.4-8.7 2.9-13.2 1.1-10.6-.8-26.3-9.5-35.9-4.5-5.1-11-8.1-17.9-8-2 0-4 .2-5.9.6-9.2 1.9-18.3 4.8-27 8.5 3.5-8.4 6.2-17 8.1-25.9 1.6-7.9 0-15.2-4.7-20.9-9.3-11.6-27.4-12.5-32.8-12.5" class="st2"/><path d="M232.9 148.7c-1.3-4.7-2.7-9.5-2.7-15.1v-1.1c0-6.7 1.5-11.8 2.9-16.2 1.1-3.3 1.9-6.7 2.3-10.1.8-8.3-1-19.5-6-24-1.3-1.2-3.4-2.5-7.6-1.6-16.9 3.6-33 10.5-47.2 20.3-3.5 2.4-8.3 1.6-10.7-1.9-1.8-2.6-1.9-6.1 0-8.8 9.5-14.1 16.2-29.8 19.7-46.4.9-4.2-.4-6.3-1.6-7.6-4.5-5-15.8-6.9-24-6-3.4.4-6.8 1.2-10.1 2.3-4.4 1.4-9.5 2.9-16.2 2.9h-1.1c-5.6 0-10.4-1.4-15.1-2.7-3.7-1.2-7.4-2-11.2-2.5-8.3-.8-19.5 1-24 6-1.2 1.3-2.5 3.4-1.6 7.6 3.7 17.4 10.9 33.9 21.2 48.5 2.4 3.5 1.6 8.3-1.9 10.7-2.7 1.9-6.3 1.8-8.9-.1C73.9 92 56.8 84.4 38.7 80.6c-4.2-.9-6.3.4-7.6 1.6-5 4.5-6.9 15.8-6 24 .4 3.4 1.2 6.8 2.3 10.1 1.4 4.4 2.9 9.5 2.9 16.2v1.1c0 5.6-1.4 10.4-2.7 15.1-1.2 3.7-2 7.4-2.5 11.3-.8 8.3 1 19.5 6 24 1.3 1.2 3.4 2.5 7.6 1.6 18.1-3.9 35.1-11.5 50-22.3 1.5-1.9 3.7-3 6.1-3h.3c4.2 0 7.7 3.4 7.7 7.7 0 1.7-.6 3.4-1.6 4.7a131.8 131.8 0 0 0-22.7 50.5c-.9 4.2.4 6.3 1.6 7.6 4.5 5 15.8 6.9 24 6 3.4-.4 6.8-1.2 10.1-2.3 4.4-1.4 9.5-2.9 16.2-2.9h1.1c5.6 0 10.4 1.4 15.1 2.7 3.7 1.2 7.4 2 11.3 2.5 8.3.8 19.5-1 24-6 1.2-1.3 2.5-3.4 1.6-7.6-3.7-17.2-10.7-33.5-20.7-48-2.5-3.5-1.6-8.3 1.8-10.7 2.7-1.9 6.2-1.9 8.9 0 14.5 10.2 31 17.3 48.3 21.1 4.2.9 6.3-.4 7.6-1.6 5-4.5 6.9-15.8 6-24-.5-3.9-1.3-7.7-2.5-11.3m-114.3-10.1H41.9c-3.7 0-3.7-5.8 0-5.8h76.7c3.8 0 3.7 5.8 0 5.8m13.1 76.1c0 3.7-5.8 3.7-5.8 0v-54.2c0-3.7 5.8-3.7 5.8 0zm0-86.9c0 3.7-5.8 3.7-5.8 0V51.1c0-3.7 5.8-3.7 5.8 0zm82.9 10.8h-62.1c-3.7 0-3.7-5.8 0-5.8h62.1c3.7 0 3.6 5.8 0 5.8" style="fill:#770baa"/><circle cx="131.1" cy="133" r="54.2" style="fill:#f7c434"/><circle cx="131.1" cy="133" r="54.2" style="fill:none;stroke:#012442;stroke-width:8;stroke-linecap:round;stroke-miterlimit:10"/><ellipse cx="171.8" cy="88.7" class="st9" rx="25.1" ry="24.4"/><path d="M171.8 116c-14.1 0-26.3-10.4-27.9-24.4-.8-7.1 1.3-14.2 5.8-19.8 4.7-5.8 11.6-9.5 19.1-10.3 15.4-1.6 29.2 9.3 30.8 24.2.8 7.1-1.3 14.2-5.8 19.8-4.7 5.8-11.6 9.5-19.1 10.3-1 .1-1.9.2-2.9.2m0-48.9c-6.8 0-13.2 3-17.5 8.3-3.5 4.4-5.2 9.9-4.6 15.5 1.3 11.8 12.3 20.4 24.5 19.1 5.9-.6 11.4-3.5 15.2-8.2 3.5-4.4 5.2-9.9 4.6-15.5-1.3-10.9-11-19.2-22.2-19.2" class="st2"/><ellipse cx="91.1" cy="88.7" class="st9" rx="25.1" ry="24.4"/><path d="M91 116c-14.1 0-26.3-10.4-27.9-24.4-.8-7.1 1.3-14.2 5.8-19.8C73.6 66 80.5 62.3 88 61.5c15.4-1.6 29.2 9.3 30.8 24.2.8 7.1-1.3 14.2-5.8 19.8-4.7 5.8-11.6 9.5-19.1 10.3-.9.1-1.9.2-2.9.2m0-48.9c-6.8 0-13.2 3-17.6 8.3-3.5 4.4-5.2 9.9-4.6 15.5 1.3 11.8 12.3 20.4 24.5 19.1 5.9-.6 11.4-3.5 15.2-8.2 3.6-4.4 5.2-9.9 4.6-15.5C112 75.4 102.3 67.1 91 67.1" class="st2"/><path d="M105.4 87.2c-1-8.1-8.3-13.8-16.3-12.9-.7.1-1.5.2-2.2.4l2.2 13.4-12.3-4.7c-.9 2.1-1.2 4.4-1 6.7 1 8 8.2 13.8 16.3 12.9 8-.6 14-7.6 13.3-15.6zM186.1 87.2c-1-8.1-8.3-13.8-16.3-12.9-.7.1-1.5.2-2.2.4l2.2 13.4-12.3-4.7c-.9 2.1-1.2 4.4-1 6.7 1 8 8.2 13.8 16.3 12.9 8-.6 14-7.6 13.3-15.6z" class="st2"/><path d="m214.3 106.3-3.2-.7c-10.6-2.2-21.5-3.3-32.3-3.1h-.2c-12.3.1-24.6 1-36.8 2.8-3.2-1.1-6.5-1.7-9.9-1.7-3.1 0-6.1.5-9.1 1.5-9.8-1.8-19.8-2.7-29.8-2.6h-.2c-12.9.1-25.8 1.1-38.6 3.1l-4.3.7c-1.4.2-2.6.9-3.5 2-.8 1-1.1 2.3-.7 3.6l1.4 4.2c.1.3 9.9 28.8 40.9 28.8 11.4 0 27.1-2.6 37-14.9 2.7-3.4 4.7-7.2 6-11.3h.6c.8 0 1.6.1 2.4.4 3.1 6.5 14.3 25.8 39.6 25.8 11.4 0 27.1-2.6 37-14.9 3.7-4.5 6.1-9.9 6.9-15.7l.3-3.3c.7-2.2-1-4.2-3.5-4.7" class="st2"/><path d="M178.8 107.1h-.2c-12.3 0-24.6 1-36.7 2.9l-.7.1-.7-.3c-2.7-1-5.6-1.6-8.6-1.6-2.6 0-5.2.5-7.7 1.5l-.8.3-.9-.2c-9.7-1.9-19.6-2.8-29.5-2.7h-.2c-12.5.1-25.1 1-37.5 3l-4 .7 1.3 4c1.8 4.8 4.5 9.2 7.9 13 6.9 8.1 17 12.6 27.6 12.4 10.1 0 23.9-2.2 32.4-12.8 2.7-3.3 4.6-7.1 5.6-11.3l.2-1 1.2-.4c.6-.2 1.2-.4 1.8-.5.8-.2 1.7-.2 2.5-.2 2 0 4 .4 5.9 1.1l1 .4.3.8c2.1 4.9 5.2 9.4 9 13.3 6.8 7 16.2 10.8 25.9 10.6 10.1 0 23.9-2.2 32.4-12.8 3.2-3.9 5.2-8.5 6-13.5l.3-3.2-3-.7c-10.1-2-20.4-3.1-30.8-2.9m-59.3 10.2c-6.4 15.9-23.4 17.3-32.4 17.3-11.2 0-20.8-5.3-27-16.8l-1.8-3.3 3.7-.5c10-1.4 20.1-2.2 30.3-2.2h.1c8.4-.1 16.9.6 25.2 2l3.1.6zm87.3-.1c-6.7 16-23.6 18.4-33 18.4-11.8 0-21.9-6.4-28.4-17.9l-1.9-3.3 3.8-.5c10.5-1.5 21.2-2.2 31.8-2.3h.2c8.5-.1 17.1.6 25.5 2l3.2.6z" class="st3"/><path d="M131.7 171.5c-13.8 0-24.8-7.2-25.5-7.7-3.7-2.5-4.9-7.8-2.7-12s6.8-5.5 10.5-3.1c.8.5 18.8 12.1 33.4-.8 2.9-2.6 7.4-2.4 10 .5.3.3.6.7.8 1 2.6 3.9 2 9-1.3 12.3-7 6.3-15.9 9.8-25.2 9.8" style="fill:#e02d5c"/><path d="M152.1 146c2.5 0 4.7 1.3 6.1 3.4 2.6 3.9 2 9-1.3 12.3-6.9 6.3-15.8 9.8-25.2 9.8-13.8 0-24.8-7.2-25.5-7.7-3.7-2.5-4.9-7.8-2.7-12 1.2-2.6 3.8-4.2 6.6-4.3 1.4 0 2.7.4 3.8 1.2.5.3 8.2 5.3 17.5 5.3 5.9 0 11.6-2.1 15.9-6.1 1.3-1.2 3-1.8 4.8-1.9m-.1-4.6c-2.8 0-5.6 1.1-7.7 3-3.5 3.2-8.1 5-12.9 5-8.1 0-15-4.5-15.1-4.6-1.9-1.3-4.1-1.9-6.3-1.9-4.5.1-8.6 2.7-10.6 6.7-3.3 6.3-1.4 14.3 4.2 18.1 1.3.9 13 8.5 28 8.5 10.4 0 20.5-3.9 28.1-11 5.2-4.8 6.1-12.7 2.1-18.5-2.1-3.3-5.7-5.3-9.8-5.3" class="st2"/><path d="M131.6 164.9c-7.8-.1-15.4-2.7-21.8-7.2-1-.8-1.2-2.2-.4-3.3.7-1 2.1-1.2 3.1-.5 0 0 .1 0 .1.1.7.6 18.1 14 36.9 0 1-.7 2.4-.5 3.1.5v.1c.7 1 .5 2.5-.5 3.3-5.8 4.4-13 6.9-20.5 7" class="st2"/><path d="m73.9 116.6-3 8.7c2.1 1.7 4.5 3.1 7.1 4l4.6-13.4c-3 .2-6 .4-8.7.7M106.5 116.3c-4.1-.4-8.5-.6-13-.6l-4.7 15.1c4.6 0 9.2-.8 13.6-2.2zM160.4 116.6l-3 8.7c2.1 1.7 4.5 3.1 7.1 4l4.6-13.4c-3 .2-6 .4-8.7.7M193 116.3c-4.1-.4-8.5-.6-13-.6l-4.7 15.1c4.6 0 9.2-.8 13.6-2.2z" class="st11"/></g></svg>