<svg xmlns="http://www.w3.org/2000/svg" viewBox="0 0 262.17 298.96"><defs><clipPath id="clip-path"><path d="M-477.15-467.56a30.38 30.38 0 0 0 29.53-22.67 5.89 5.89 0 0 0-5.89-7.19l-47.49.16a5.89 5.89 0 0 0-5.85 7.22 30.37 30.37 0 0 0 29.7 22.48" class="cls-1"/></clipPath><clipPath id="clip-path-2"><path d="M-448.12-488.47a28.5 28.5 0 0 0 1.19-5.81 4.07 4.07 0 0 0-4.13-4.39l-52.41.17a4.07 4.07 0 0 0-4.09 4.43 28 28 0 0 0 1.23 5.8Z" class="cls-1"/></clipPath><clipPath id="clip-path-3"><path d="M-475.93-467.46c-14 0-19.94-6.78-19.94-6.78 4.65-3.29 11.83-5.42 19.9-5.46 7 0 14.66 1.55 19.27 4.11 0 0-5.19 8.08-19.23 8.13" class="cls-1"/></clipPath><clipPath id="clip-path-4"><path d="M-451-498.67a4.05 4.05 0 0 1 4.1 4.39c-.13 1.35-2.16 10.1-10.32 19.41-1.66 2-7.21 7.37-18.67 7.41h-.11c-2.34 0-10.63-.56-15.32-3.45-6.75-4.16-12.54-9.81-15-17.36a22.6 22.6 0 0 1-1.24-5.8 4.23 4.23 0 0 1 4.1-4.42l52.4-.18m0-7.27h-.06l-52.39.18A11.55 11.55 0 0 0-515-494.14a27.3 27.3 0 0 0 1.63 8.16c2.76 8.38 8.85 15.5 18.1 21.23 7.32 4.51 18.82 4.56 19.3 4.56h.07c14.36 0 21.78-6.95 24.35-10 9-10.28 11.75-20.36 12-23.38a11.12 11.12 0 0 0-2.94-8.65 11.72 11.72 0 0 0-8.58-3.71" class="cls-1"/></clipPath><clipPath id="clip-path-5"><circle cx="130.94" cy="171.96" r="123.33" style="fill:none"/></clipPath><style>.cls-1,.cls-12,.cls-15,.cls-21{fill:none}.cls-1{clip-rule:evenodd}.cls-9{fill:#012442}.cls-10{fill:#39d88c}.cls-12,.cls-15,.cls-21{stroke:#012442;stroke-linecap:round}.cls-12,.cls-21{stroke-miterlimit:10}.cls-12,.cls-15{stroke-width:8px}.cls-15{stroke-linejoin:round}.cls-17{fill:#edebc0}.cls-18{fill:#fff}.cls-19{fill:#cecece}.cls-20{fill:#ffdf5a}.cls-21{stroke-width:7px}</style></defs><g id="Camada_4" data-name="Camada 4"><circle cx="131.23" cy="170.96" r="123.33" style="fill:#f23b36"/><g style="clip-path:url(#clip-path-5)"><path d="M218.24 297.5c-12.47 0-23.73-7.85-26.62-19.44-9.27-37.2-33-47.33-34-47.74.39.16.6.22.6.22L178 184c5.19 1.85 51.16 19.87 66.89 83 3.35 13.45-5.85 26.84-20.57 29.91a29.5 29.5 0 0 1-6.08.59" class="cls-9"/><path d="M219.44 289.42c-8.31 0-15.82-5.23-17.74-12.95-10.65-42.72-44.16-57.53-44.5-57.67-9.17-3.76-13.28-13.62-9.16-22s14.89-12.15 24.07-8.39c2 .84 50.29 21.24 65.1 80.66 2.24 9-3.9 17.9-13.71 19.95a20 20 0 0 1-4.06.4" class="cls-10"/><path d="M35.65 298.33a29.5 29.5 0 0 1-6.1-.63C14.84 294.64 5.63 281.24 9 267.79c15.73-63.1 65.65-84.74 70.84-86.59l19.82 46.57a44 44 0 0 0-3.35 3.39c-1 .41-24.76 10.53-34 47.74-2.94 11.58-14.2 19.43-26.66 19.43" class="cls-9"/><path d="M34.44 290.26a20 20 0 0 1-4.06-.42c-9.81-2-15.95-11-13.71-19.94 14.81-59.42 64.88-80.66 66.92-81.5l20.31 26.92.3.28c-1.38.6-41.39 19.06-52 61.7-1.94 7.7-9.45 12.96-17.76 12.96" class="cls-10"/><path id="peito" d="M194.23 297.51s7.64-85.63-43.81-112.23L94 187.53c-45.06 15.92-42.6 110-42.6 110Z" class="cls-10"/><path d="M35.49 228.85c64.56 58.23 165.52 28.49 184.73 1.84-13.73-24.22-45.94-49-63.87-41.91-9.9-9.69-64.63 3.36-72.5-.25-2.57 1.91-26.85 10.9-48.36 40.32" style="fill:#23ad68"/><path d="M64.4 246.19a3.6 3.6 0 0 0-5.33 2.18c-2.8 10.7-5.11 25.23-5.11 44a3.5 3.5 0 0 0 3.64 3.34 3.5 3.5 0 0 0 3.64-3.33c0-18 2.23-32 4.88-42.18a3.6 3.6 0 0 0-1.66-4ZM192.59 246.18a3.59 3.59 0 0 0-1.8 4.08c2.63 10.18 4.84 24.09 4.85 42.16a3.5 3.5 0 0 0 3.64 3.33 3.51 3.51 0 0 0 3.64-3.34c0-18.8-2.32-33.31-5.11-44a3.59 3.59 0 0 0-5.14-2.26Z" class="cls-9"/></g></g><g id="Camada_3" data-name="Camada 3"><path d="m239.05 93.77-.63-.25c-4.58-1.85-9.24-3.49-13.95-5a237 237 0 0 0-26.19-6.45c-4.12-.78-8.27-1.52-12.42-2.08l-3.44-.42q-3.34-.4-6.7-.75c-17.45-1.81-34.94-2.06-52.44-3-3.35-.18-6.71-.34-10.07-.46-16.4 7-33.88 9.57-51.53 11.36-4.52.46-9 .84-13.58 1.19-3 1.47-15.39-.14-18.37 1.23-5.8 2.66-2.05 8.09-8 9.76q-.12 2.37-.12 4.77v24.5c0 107.1 49 113.91 109 113.91 59.92 0 109-5.21 109-113.91v-24.5c-.07-3.3-.24-6.62-.56-9.9" class="cls-10"/><path d="M239.54 97.58v30.65c0 108.7-49 113.91-108.95 113.91h0c-59.93 0-108.95-10.82-108.95-113.91V97.58" class="cls-12"/><path d="M239.37 97c0 15.59-50.08 23.78-109.51 23.78C56.68 120.78 22.25 111 22.25 97c0-10.3 50.08-18.65 109.51-18.65S239.37 86.7 239.37 97Z" class="cls-12"/><path d="M218.2 57a135 135 0 0 0-13.88-1.68 29.3 29.3 0 0 0 1.23-11.35c-.65-4.87-7.27-8.85-11.21-11.83-7.73-5.84-13.85-2.45-21.91 1.34 2.47-7.53 1.4-13.42.7-14.65-2.63-4.56-10.74-7.24-15.63-9.15-11.41-4.45-29 7.75-29.95 7.68l-.12 1v-1c-.94.07-18.55-12.13-30-7.68-4.89 1.91-13 4.59-15.62 9.15-.71 1.23-1.77 7.12.69 14.65-8.06-3.79-14.18-7.18-21.9-1.34-4 3-10.57 7-11.22 11.83a29.5 29.5 0 0 0 1.23 11.35A135 135 0 0 0 36.77 57c-6.23 2.83-11.42 17.09-11.29 21.85.1 3.83 6.49 15 13.16 17.61 9.26 3.56 53.88 8 78.73 9.08v.23c1.46 0 3.19 0 5.12-.06s3.51.07 5 .06v-.22c26.77-1 79.59-5.51 88.9-9.09 6.67-2.57 13.06-13.78 13.16-17.61.07-4.8-5.11-19.06-11.35-21.85" style="fill:#db45a1"/><path d="M221.72 76.59c-10.6 2.37-21.26 4.48-32 6-4.23.61-8.47 1.15-12.71 1.7l-.77.1-7.92 1.06c-5.5.71-11 1.36-16.56 1.65-11 .58-22.12-.23-33.15-.17s-22.19.24-33.3-.59A203 203 0 0 1 51 81.25c-8.41-2.11-16.2-5.91-24.32-8.85a22.5 22.5 0 0 0-1.24 6.41c.1 3.83 6.49 15 13.16 17.61 9.26 3.56 53.88 8 78.73 9.08v.23c1.46 0 3.19 0 5.12-.06s3.51.07 5 .06v-.22c26.77-1 79.59-5.51 88.9-9.09 6.67-2.57 13.06-13.78 13.16-17.61a16.4 16.4 0 0 0-.55-4c-2.42.66-4.82 1.24-7.24 1.78" style="fill:#a32b75"/><path d="M220.1 57a135 135 0 0 0-13.88-1.68 29.3 29.3 0 0 0 1.23-11.35c-.65-4.87-7.27-8.85-11.22-11.83-7.72-5.84-13.84-2.45-21.9 1.34 2.47-7.53 1.4-13.42.69-14.65-2.62-4.56-10.73-7.24-15.62-9.15-11.41-4.45-29 7.75-30 7.68l-.12 1v-1c-.94.07-18.55-12.13-30-7.68-4.89 1.91-13 4.59-15.62 9.15C83 20 82 25.91 84.44 33.44c-8.06-3.79-14.18-7.18-21.9-1.34-3.95 3-10.57 7-11.22 11.83a29.3 29.3 0 0 0 1.23 11.35A135 135 0 0 0 38.67 57c-6.23 2.83-11.42 17.09-11.29 21.85.1 3.83 5.49 13.13 12.21 15.56 46.81 16.88 151.42 7.84 176.74 1 6.87-1.85 15-12.75 15.06-16.58.13-4.78-5.06-19.04-11.29-21.83Z" class="cls-12"/><path d="M52.55 55.28s12.63 9.53 19.57 9.89c0 0 1.49 11.23 5.2 16.71M83.87 33.43c4.3 2.29 4.23 3 11.12 5.76 0 0-.41 11.23 3.3 16.71M52.43 79.92s1.48 15.24 8.92 19.26M104 101.92c7.08-6.16 3.28-17.43-1.94-23.87M206.45 55.28s-9.78 8.51-16.72 8.87c0 0-1.48 11.23-5.2 16.71M175.14 33.43c-4.3 2.29-1.38 1.94-8.28 4.73 0 0 .42 11.23-3.3 16.72M206.58 79.92s-1.49 15.24-8.92 19.26M156 101.92c-7.07-6.16-3.28-17.43 1.95-23.87M126.48 17.32s2.07 13.44-6.1 19.06M131.06 17.32s-2.08 13.44 6.1 19.06M108.08 84.51s10.44 1.12 11.92-11.72-6-19.25-6-19.25M152.49 85.54S142 86.65 140.56 73.82s5.94-19.26 5.94-19.26" class="cls-15"/><path d="M90 192.83c1.07 7.85 7.19 14.75 15 18.74s17.1 5.3 26.12 5c9.39-.33 24.26-2.43 32.18-6.86 7.39-4.14 17.74-14.83 8.36-26-6.23-7.43-19.94-1.76-28.52-3.44-11.13-2.17-20.88-8.81-32.78-8.43-12.71.34-21.87 9.89-20.36 20.99" style="fill:#68522a"/><path d="M125.54 214.31a6.9 6.9 0 0 0 .3-2.1v-4.11a8.33 8.33 0 0 0-16.66 0v4.11a6.7 6.7 0 0 0 .4 2.34c5.3-.23 10.61-.24 15.96-.24" class="cls-17"/><path d="M112.16 214.45a3.48 3.48 0 0 1-.67-2.24v-4.11a6 6 0 0 1 12.05 0v4.11a3.6 3.6 0 0 1-.57 2.1h2.61a6.9 6.9 0 0 1 2.24.36 9.3 9.3 0 0 0 .33-2.46v-4.11a10.64 10.64 0 1 0-21.27 0v4.11a8.8 8.8 0 0 0 .33 2.45c1.65-.1 3.3-.16 4.95-.21" class="cls-9"/><path d="M161.24 214.73a7 7 0 0 0 .31-2.1v-4.12a8.33 8.33 0 0 0-16.66 0v4.12a6.7 6.7 0 0 0 .39 2.33c5.31-.22 10.62-.24 15.96-.23" class="cls-17"/><path d="M147.86 214.87a3.52 3.52 0 0 1-.67-2.24v-4.12a6 6 0 0 1 12.05 0v4.12a3.6 3.6 0 0 1-.57 2.1h2.61a6.8 6.8 0 0 1 2.24.36 9 9 0 0 0 .33-2.46v-4.12a10.64 10.64 0 1 0-21.27 0v4.12a8.8 8.8 0 0 0 .33 2.44c1.65-.07 3.3-.15 4.95-.2" class="cls-9"/><path d="M97.22 176a7 7 0 0 0-.31 2.1v4.12a8.33 8.33 0 1 0 16.66 0v-4.12a6.5 6.5 0 0 0-.4-2.33c-5.3.23-10.61.28-15.95.23" class="cls-17"/><path d="M110.6 175.9a3.52 3.52 0 0 1 .66 2.24v4.12a6 6 0 0 1-12 0v-4.12a3.66 3.66 0 0 1 .56-2.1h-2.6a6.8 6.8 0 0 1-2.24-.36 9 9 0 0 0-.34 2.46v4.12a10.64 10.64 0 0 0 21.28 0v-4.12a9.2 9.2 0 0 0-.33-2.44c-1.69.09-3.34.15-4.99.2" class="cls-9"/><path d="M116.19 175.67a6.7 6.7 0 0 0-.31 2.1v4.12a8.33 8.33 0 1 0 16.66 0v-4.12a6.5 6.5 0 0 0-.4-2.33c-5.3.22-10.61.24-15.95.23" class="cls-17"/><path d="M129.56 175.53a3.46 3.46 0 0 1 .67 2.24v4.12a6 6 0 0 1-12 0v-4.12a3.6 3.6 0 0 1 .56-2.1h-2.6a6.8 6.8 0 0 1-2.24-.36 9 9 0 0 0-.34 2.46v4.12a10.64 10.64 0 0 0 21.28 0v-4.12a9.2 9.2 0 0 0-.33-2.44c-1.69.09-3.34.15-5 .2" class="cls-9"/><path d="M148.13 179.56a6.9 6.9 0 0 0-.31 2.1v4.11a8.33 8.33 0 1 0 16.66 0v-4.11a6.5 6.5 0 0 0-.4-2.34c-5.3.23-10.61.24-15.95.24" class="cls-17"/><path d="M161.51 179.42a3.48 3.48 0 0 1 .66 2.24v4.11a6 6 0 1 1-12 0v-4.11a3.64 3.64 0 0 1 .56-2.11h-2.6a7.4 7.4 0 0 1-2.24-.36 8.9 8.9 0 0 0-.34 2.46v4.11a10.64 10.64 0 1 0 21.28 0v-4.11a9.2 9.2 0 0 0-.33-2.45q-2.5.15-4.99.22" class="cls-9"/><path d="M89.84 193.85c1.08 7.85 7.23 14.75 15.08 18.74s17.2 5.3 26.28 5c9.45-.34 24.41-2.43 32.38-6.86 7.44-4.14 17.86-14.83 8.41-26-6.27-7.43-20.06-1.77-28.69-3.44-11.21-2.17-21-8.81-33-8.43-12.77.34-21.99 9.88-20.46 20.99Z" class="cls-12"/><ellipse cx="189.47" cy="45.77" class="cls-18" rx="7.38" ry="6.24" transform="rotate(-70.7 189.474 45.773)"/><ellipse cx="174.33" cy="60.35" class="cls-18" rx="4.61" ry="3.9" transform="rotate(-70.7 174.331 60.354)"/><path d="M128.44 132.64a12.23 12.23 0 0 1-12.21-12.22v-20a12.22 12.22 0 1 1 24.43 0v20a12.23 12.23 0 0 1-12.22 12.22" class="cls-19"/><path d="M128.44 92.25a8.25 8.25 0 0 1 8.22 8.22v20a8.22 8.22 0 0 1-16.43 0v-20a8.24 8.24 0 0 1 8.21-8.22m0-8a16.23 16.23 0 0 0-16.21 16.22v20a16.22 16.22 0 0 0 32.43 0v-20a16.24 16.24 0 0 0-16.22-16.22" class="cls-9"/><path d="M66.75 132.64a12.23 12.23 0 0 1-12.22-12.22v-20a12.22 12.22 0 0 1 24.44 0v20a12.23 12.23 0 0 1-12.22 12.22" class="cls-19"/><path d="M66.75 92.25a8.25 8.25 0 0 1 8.25 8.22v20a8.22 8.22 0 0 1-16.44 0v-20a8.25 8.25 0 0 1 8.22-8.22m0-8a16.24 16.24 0 0 0-16.22 16.22v20a16.22 16.22 0 0 0 32.44 0v-20a16.24 16.24 0 0 0-16.25-16.22Z" class="cls-9"/><path d="M188.14 132.64a12.23 12.23 0 0 1-12.22-12.22v-20a12.22 12.22 0 0 1 24.44 0v20a12.23 12.23 0 0 1-12.22 12.22" class="cls-19"/><path d="M188.14 92.25a8.25 8.25 0 0 1 8.22 8.22v20a8.22 8.22 0 0 1-16.44 0v-20a8.25 8.25 0 0 1 8.22-8.22m0-8a16.24 16.24 0 0 0-16.22 16.22v20a16.22 16.22 0 0 0 32.44 0v-20a16.24 16.24 0 0 0-16.22-16.22" class="cls-9"/><circle cx="66.52" cy="153.02" r="30.53" class="cls-10"/><path d="M36.1 150.51c-.07.83-.11 1.66-.11 2.51a30.53 30.53 0 1 0 61.06 0c0-.85 0-1.68-.11-2.51Z" class="cls-20"/><circle cx="66.55" cy="153.79" r="30.53" class="cls-21"/><path d="M37.56 152.18h56.66" class="cls-21"/><path d="M49.53 151.14a17 17 0 0 0-.29 3.14 17.63 17.63 0 0 0 35.25 0 18 18 0 0 0-.28-3.14Z" class="cls-9"/><circle cx="190.64" cy="153.02" r="30.53" class="cls-10"/><path d="M160.22 150.51c-.07.83-.11 1.66-.11 2.51a30.53 30.53 0 0 0 61.06 0c0-.85 0-1.68-.11-2.51Z" class="cls-20"/><circle cx="190.67" cy="153.79" r="30.53" class="cls-21"/><path d="M161.68 152.18h56.66" class="cls-21"/><path d="M173.65 151.14a17 17 0 0 0-.29 3.14 17.63 17.63 0 0 0 35.26 0 18 18 0 0 0-.29-3.14Z" class="cls-9"/></g></svg>