<svg xmlns="http://www.w3.org/2000/svg" id="Camada_1" data-name="Camada 1" viewBox="0 0 262.17 298.96"><defs><clipPath id="clip-path"><circle cx="131.13" cy="175.2" r="123.33" style="fill:none"/></clipPath><style>.cls-12,.cls-5,.cls-8{fill:none}.cls-4{fill:#fcfae8}.cls-12,.cls-5,.cls-6,.cls-8{stroke:#012442}.cls-12,.cls-5,.cls-6{stroke-miterlimit:10}.cls-5{stroke-width:8px}.cls-11,.cls-6{fill:#e02d5c}.cls-6{stroke-width:7px}.cls-7{fill:#3ec63e}.cls-8{stroke-linecap:round;stroke-linejoin:round}.cls-12,.cls-8{stroke-width:6px}.cls-9{fill:#18aa18}.cls-14{fill:#f7c434}.cls-17{fill:#fff}.cls-18{fill:#012442}</style></defs><circle cx="131.04" cy="175.2" r="123.33" style="fill:#00a4ff"/><g style="clip-path:url(#clip-path)"><path d="m172.91 209.09-42.28 1.14-42.28-1.14c-47 5.87-59.87 42.08-59.87 42.08 36.35 55.18 93.08 55.72 103.15 55.72 8.72 0 65.46-1.32 102.15-56.72 0 0-13.91-35.17-60.87-41.08" class="cls-4"/><path d="m172.91 209.09-42.28 1.14-42.28-1.14c-47 5.87-59.87 42.08-59.87 42.08 36.35 55.18 93.08 55.72 103.15 55.72 8.72 0 65.46-1.32 102.15-56.72 0 0-13.91-35.17-60.87-41.08Z" class="cls-5"/><path d="M200.63 247.11a139.8 139.8 0 0 1-3.15-29.41v-1.38a86.6 86.6 0 0 0-23.48-6.89c-.07 2.07-.07 57.56-13.2 77.39-3.59 5.42-59 5.89-64.6-2s-8.2-47.33-9.34-56.74a110.4 110.4 0 0 1-.5-18.9 83 83 0 0 0-26.83 8.1 132 132 0 0 1-2.93 21.64c-2.5 11.24-6.7 22.62-13.33 32.21 35.07 35.36 78.35 35.76 87 35.76 7.07 0 45.74-.87 79.68-30.77a135.5 135.5 0 0 1-9.32-29.01Z" class="cls-6"/></g><path d="M143.87 67.5c-6.37-4.62-8.58-13.58-5-20.33s12.52-10.58 20.33-8.67c-.5-6.5 4.22-12.61 10.26-15.88s13.17-4.17 20.14-4.62c3.93-.22 8.09-.26 11.53 1.53s5.71 6.06 3.81 9.28A18.06 18.06 0 0 1 223.35 32a15.25 15.25 0 0 1 3.79 17.1c6.41-1.18 13.45 2.45 15.8 8.15s-.26 12.79-5.86 15.94c7-.72 14 5 14.24 11.6s-6.5 12.63-13.57 12.21c5.46-.47 10.82 4 11 9.09s-4.94 9.83-10.42 9.65c4.82 5.24 3 14.07-2.8 18.38s-14.23 4.5-21.06 1.84-12.25-7.76-16.7-13.28" class="cls-7"/><path d="M143.87 67.5c-6.37-4.62-8.58-13.58-5-20.33s12.52-10.58 20.33-8.67c-.5-6.5 4.22-12.61 10.26-15.88s13.17-4.17 20.14-4.62c3.93-.22 8.09-.26 11.53 1.53s5.71 6.06 3.81 9.28A18.06 18.06 0 0 1 223.35 32a15.25 15.25 0 0 1 3.79 17.1c6.41-1.18 13.45 2.45 15.8 8.15s-.26 12.79-5.86 15.94c7-.72 14 5 14.24 11.6s-6.5 12.63-13.57 12.21c5.46-.47 10.82 4 11 9.09s-4.94 9.83-10.42 9.65c4.82 5.24 3 14.07-2.8 18.38s-14.23 4.5-21.06 1.84-12.25-7.76-16.7-13.28" class="cls-8"/><path d="M145.54 51.14a20.3 20.3 0 0 1 12.13-6c8.67-1.29 20.36 1.43 23 10.31a1.09 1.09 0 0 0 1.3.69c4.45-1.51 9.87-2.19 13.87.74s4.81 7.78 4.67 12.11a1 1 0 0 0 1.33 1c4.63-1.67 9.74-1.2 13.3 2.23a12.31 12.31 0 0 1 3 12.53c-.27.9.75 1.43 1.55 1.11 5.83-2.34 12.34 2.45 13.26 7.84 1.06 6.21-4.43 11.88-7.77 16.7a1 1 0 0 0 .37 1.35c7.56 5.19 1.68 13.1-4.91 16.41a25 25 0 0 1-5.19-1.41c-6.83-2.66-12.25-7.76-16.7-13.28l-53.88-55.31a16.3 16.3 0 0 1-2.65-2.45 23.8 23.8 0 0 1 3.32-4.57" class="cls-9"/><path d="M119.38 68.67c6.38-4.62 8.59-13.58 5-20.33s-12.53-10.58-20.33-8.67c.5-6.5-4.22-12.61-10.26-15.88s-13.19-4.17-20.16-4.58c-3.93-.22-8.1-.26-11.53 1.53S56.42 26.8 58.31 30a18.06 18.06 0 0 0-18.4 3.11 15.25 15.25 0 0 0-3.79 17.11c-6.41-1.18-13.45 2.45-15.8 8.15s.26 12.79 5.86 15.94c-7-.73-14.06 5-14.24 11.6s6.5 12.66 13.57 12.28c-5.46-.47-10.82 4-11 9.09s5 9.83 10.43 9.64c-4.82 5.25-3 14.08 2.8 18.39s14.23 4.5 21.06 1.84 12.25-7.76 16.7-13.28" class="cls-7"/><path d="M119.38 68.67c6.38-4.62 8.59-13.58 5-20.33s-12.53-10.58-20.33-8.67c.5-6.5-4.22-12.61-10.26-15.88s-13.19-4.17-20.16-4.58c-3.93-.22-8.1-.26-11.53 1.53S56.42 26.8 58.31 30a18.06 18.06 0 0 0-18.4 3.11 15.25 15.25 0 0 0-3.79 17.11c-6.41-1.18-13.45 2.45-15.8 8.15s.26 12.79 5.86 15.94c-7-.73-14.06 5-14.24 11.6s6.5 12.66 13.57 12.28c-5.46-.47-10.82 4-11 9.09s5 9.83 10.43 9.64c-4.82 5.25-3 14.08 2.8 18.39s14.23 4.5 21.06 1.84 12.25-7.76 16.7-13.28" class="cls-8"/><path d="M117.72 52.31a20.3 20.3 0 0 0-12.13-6c-8.67-1.29-20.36 1.43-23 10.31a1.07 1.07 0 0 1-1.29.69c-4.46-1.51-9.88-2.19-13.87.74s-4.81 7.77-4.67 12.11a1 1 0 0 1-1.34.95c-4.63-1.67-9.73-1.2-13.3 2.23a12.33 12.33 0 0 0-3 12.53c.27.9-.75 1.43-1.55 1.11-5.83-2.34-12.35 2.45-13.26 7.84-1.06 6.21 4.43 11.88 7.77 16.7a1 1 0 0 1-.38 1.35c-7.54 5.13-1.7 13.05 4.93 16.37a26 26 0 0 0 5.19-1.41c6.83-2.66 12.25-7.76 16.7-13.28l53.86-55.22a16 16 0 0 0 2.62-2.45 23.8 23.8 0 0 0-3.28-4.57" class="cls-9"/><path d="M219.57 101.92c-10.11-24.47-31.84-44.44-86.45-44.44-53.57 0-81.06 13.88-88.72 41.62-6.55 23.72-14.08 59.55-11.25 100.52C35.42 232.36 79.09 260 133.77 260s95.72-28.73 97.4-60.42c2.44-46.05-5.09-81.88-11.6-97.66" class="cls-4"/><path d="M133.77 239.27c-54.17 0-100.53-30.77-100.53-84.21a306 306 0 0 0-.09 40c2.27 35.06 45.94 64.71 100.62 64.71S229.49 229 231.17 195a375 375 0 0 0-.1-39.47c0 49.76-43.42 83.74-97.3 83.74" style="fill:#dddaca"/><path d="M219.57 101.92c-10.11-24.47-31.84-44.44-86.45-44.44-53.57 0-81.06 13.88-88.72 41.62-6.55 23.72-14.08 59.55-11.25 100.52C35.42 232.36 79.09 260 133.77 260s95.72-28.73 97.4-60.42c2.44-46.05-5.09-81.88-11.6-97.66Z" class="cls-5"/><path d="M190.5 157a31.2 31.2 0 0 0-18.06-4.4c-5.14.37-12.87 2.39-20.57 9.84-5.31 5.14-9.05 7.45-10.42 8s-4.42 1.2-11.36 1.2h-.88c-10.71 0-17.66 4-21.6 7.32a31.2 31.2 0 0 0-9.85 15.75 36.11 36.11 0 0 0 13.18 38.3 40.6 40.6 0 0 0 12.65 6.28 60.3 60.3 0 0 0 17.23 2.4 80.5 80.5 0 0 0 27.84-5.18c3.69-1.41 22.48-9.36 34.18-29.1a39 39 0 0 0 4.95-13.79A36.1 36.1 0 0 0 190.5 157" class="cls-11"/><path d="M189.5 156a31.2 31.2 0 0 0-18.06-4.4c-5.14.37-12.87 2.39-20.57 9.84-5.31 5.14-9.05 7.45-10.42 8s-4.42 1.2-11.36 1.2h-.88c-10.71 0-17.66 4-21.6 7.32a31.2 31.2 0 0 0-9.85 15.75 36.11 36.11 0 0 0 13.18 38.3 40.6 40.6 0 0 0 12.65 6.28 60.3 60.3 0 0 0 17.23 2.4 80.5 80.5 0 0 0 27.84-5.18c3.69-1.41 22.48-9.36 34.18-29.1a39 39 0 0 0 4.95-13.79A36.1 36.1 0 0 0 189.5 156Z" class="cls-12"/><path d="m86.37 76.77 9.12 18.47a5.88 5.88 0 0 0 4.45 3.23l20.38 3a5.91 5.91 0 0 1 3.28 10.08l-14.75 14.35a5.88 5.88 0 0 0-1.7 5.23l3.48 20.3a5.91 5.91 0 0 1-8.57 6.23l-18.24-9.59a5.94 5.94 0 0 0-5.5 0l-18.23 9.59a5.9 5.9 0 0 1-8.57-6.23l3.48-20.3a5.9 5.9 0 0 0-1.7-5.23l-14.75-14.38a5.91 5.91 0 0 1 3.27-10.08l20.39-3a5.9 5.9 0 0 0 4.45-3.23l9.11-18.47a5.91 5.91 0 0 1 10.6.03" style="fill:#00c9ff"/><path d="m87.37 76.77 9.12 18.47a5.88 5.88 0 0 0 4.45 3.23l20.38 3a5.91 5.91 0 0 1 3.28 10.08l-14.75 14.35a5.88 5.88 0 0 0-1.7 5.23l3.48 20.3a5.91 5.91 0 0 1-8.57 6.23l-18.24-9.59a5.94 5.94 0 0 0-5.5 0l-18.23 9.59a5.9 5.9 0 0 1-8.57-6.23l3.48-20.3a5.9 5.9 0 0 0-1.7-5.23l-14.75-14.38a5.91 5.91 0 0 1 3.27-10.08l20.39-3a5.9 5.9 0 0 0 4.45-3.23l9.11-18.47a5.91 5.91 0 0 1 10.6.03Z" class="cls-12"/><path d="m183 75.68 9.11 18.48a5.94 5.94 0 0 0 4.45 3.23l20.39 3a5.91 5.91 0 0 1 3.27 10.08l-14.75 14.38a5.94 5.94 0 0 0-1.7 5.23l3.49 20.3a5.91 5.91 0 0 1-8.58 6.23L180.42 147a5.88 5.88 0 0 0-5.5 0l-18.23 9.58a5.91 5.91 0 0 1-8.58-6.23l3.48-20.3a5.88 5.88 0 0 0-1.7-5.23l-14.75-14.38a5.91 5.91 0 0 1 3.28-10.08l20.38-3a5.91 5.91 0 0 0 4.45-3.23l9.12-18.48a5.91 5.91 0 0 1 10.63.03" class="cls-14"/><path d="m183 75.68 9.11 18.48a5.94 5.94 0 0 0 4.45 3.23l20.39 3a5.91 5.91 0 0 1 3.27 10.08l-14.75 14.38a5.94 5.94 0 0 0-1.7 5.23l3.49 20.3a5.91 5.91 0 0 1-8.58 6.23L180.42 147a5.88 5.88 0 0 0-5.5 0l-18.23 9.58a5.91 5.91 0 0 1-8.58-6.23l3.48-20.3a5.88 5.88 0 0 0-1.7-5.23l-14.75-14.38a5.91 5.91 0 0 1 3.28-10.08l20.38-3a5.91 5.91 0 0 0 4.45-3.23l9.12-18.48a5.91 5.91 0 0 1 10.63.03Z" class="cls-12"/><circle cx="129.8" cy="156.08" r="36.62" class="cls-11"/><path d="M160.14 143.19a22.6 22.6 0 0 1 .51 4.74c0 14.41-13.81 26.1-30.85 26.1S99 162.34 99 147.93a22.6 22.6 0 0 1 .52-4.74 33.35 33.35 0 1 0 60.67 0Z" style="fill:#ad1a4f"/><circle cx="129.8" cy="156.08" r="36.62" style="fill:none;stroke:#012442;stroke-miterlimit:10;stroke-width:7px"/><circle cx="138.08" cy="141.94" r="11.28" class="cls-17"/><circle cx="129.8" cy="153.23" r="5.41" class="cls-17"/><path d="M186.13 192.74a19.6 19.6 0 0 0 1.73-7.11A16.5 16.5 0 0 0 178.4 170a11.5 11.5 0 0 0-6.76-1.06c-3.13.55-5.75 2.74-7.79 5.17s-8.9 10.45-15.76 14.11-16.55 4.43-19.71 4.77-6.43 1.29-8.64 3.57a11.54 11.54 0 0 0-2.89 6.2 16.49 16.49 0 0 0 7.68 16.58 20.8 20.8 0 0 0 6.87 2.53c16 3 32.33-5.64 32.33-5.64a52.64 52.64 0 0 0 22.4-23.49" class="cls-17"/><path d="M186.13 192.74a19.6 19.6 0 0 0 1.73-7.11A16.5 16.5 0 0 0 178.4 170a11.5 11.5 0 0 0-6.76-1.06c-3.13.55-5.75 2.74-7.79 5.17s-8.9 10.45-15.76 14.11-16.55 4.43-19.71 4.77-6.43 1.29-8.64 3.57a11.54 11.54 0 0 0-2.89 6.2 16.49 16.49 0 0 0 7.68 16.58 20.8 20.8 0 0 0 6.87 2.53c16 3 32.33-5.64 32.33-5.64a52.64 52.64 0 0 0 22.4-23.49ZM125.39 192.1l14.96 28.11M140.08 188.84l14.96 28.11M155.89 182.57l14.97 28.11M166.9 173.04l15.96 29.11" class="cls-12"/><path d="M84.07 116.91 94.54 109a15.63 15.63 0 1 0 2.09 14.22ZM180.32 114.71l10.47-7.92a15.64 15.64 0 1 0 2.09 14.21Z" class="cls-18"/><path d="M178.9 49c0 9.59-21.41 13.33-47.82 13.33S83.25 58.63 83.25 49s21.41-9.59 47.83-9.59 47.82.04 47.82 9.59Z" class="cls-6"/><path d="M155.85 46.61v-14.2c0-9.61-8.43-17.48-18.73-17.48h-11.75c-10.3 0-18.73 7.87-18.73 17.48v14.2s6.94 1.87 24.58 1.87 24.63-1.87 24.63-1.87Z" class="cls-6"/><path d="M133.81 257.46a384 384 0 0 0-44.61-22.75 4.7 4.7 0 0 0-2.32-.54 2.63 2.63 0 0 0-2.26 2.22c-1.43 5.67-.46 13.73 2.75 19.05A6.3 6.3 0 0 1 88.5 258c.12 1.3-.8 2.52-1.62 3.7-4.11 5.89-6.33 10.22-6.48 16.73a1.79 1.79 0 0 0 .64 1.67 5 5 0 0 0 3.08.39A174.2 174.2 0 0 0 132 269.37" class="cls-14"/><path d="M133.81 257.46a384 384 0 0 0-44.61-22.75 4.7 4.7 0 0 0-2.32-.54 2.63 2.63 0 0 0-2.26 2.22c-1.43 5.67-.46 13.73 2.75 19.05A6.3 6.3 0 0 1 88.5 258c.12 1.3-.8 2.52-1.62 3.7-4.11 5.89-6.33 10.22-6.48 16.73a1.79 1.79 0 0 0 .64 1.67 5 5 0 0 0 3.08.39A174.2 174.2 0 0 0 132 269.37" class="cls-12"/><path d="M129.42 258.53A385 385 0 0 1 174 235.78a4.8 4.8 0 0 1 2.32-.54 2.64 2.64 0 0 1 2.26 2.23c1.42 5.66.46 13.73-2.76 19a6.5 6.5 0 0 0-1.13 2.53c-.11 1.3.81 2.53 1.63 3.71 4.1 5.89 6.33 10.22 6.47 16.72a1.76 1.76 0 0 1-.63 1.67 4.94 4.94 0 0 1-3.08.39 174.3 174.3 0 0 1-47.9-11.1" class="cls-14"/><path d="M129.42 257.46A385 385 0 0 1 174 234.71a4.7 4.7 0 0 1 2.32-.54 2.63 2.63 0 0 1 2.26 2.22c1.42 5.67.46 13.73-2.76 19.05a6.5 6.5 0 0 0-1.13 2.54c-.11 1.3.81 2.52 1.63 3.7 4.1 5.89 6.33 10.22 6.47 16.73a1.76 1.76 0 0 1-.63 1.67 5 5 0 0 1-3.08.39 174.3 174.3 0 0 1-47.9-11.1" class="cls-12"/><ellipse cx="131.04" cy="264.14" class="cls-14" rx="14.97" ry="14.63"/><ellipse cx="131.04" cy="264.14" class="cls-12" rx="14.97" ry="14.63"/></svg>