<svg xmlns="http://www.w3.org/2000/svg" viewBox="0 0 262.17 298.96"><defs><clipPath id="clip-path"><circle cx="130.19" cy="175.47" r="123.33" style="fill:none"/></clipPath><style>.cls-4{fill:#012442}.cls-8{fill:#781aba}.cls-9{fill:#fff;stroke:#012442;stroke-miterlimit:10;stroke-width:7px}.cls-10{fill:#f7c434}</style></defs><g id="Camada_4" data-name="Camada 4"><circle cx="130.7" cy="174.74" r="123.33" style="fill:#f29b3b"/><g style="clip-path:url(#clip-path)"><path d="M34.9 301.84a29.7 29.7 0 0 1-6.1-.63c-14.71-3.06-23.92-16.45-20.56-29.91 15.76-63.1 65.64-84.74 70.83-86.59l19.82 46.57a44 44 0 0 0-3.35 3.39c-1 .41-24.76 10.53-34 47.74-2.92 11.59-14.18 19.43-26.64 19.43" class="cls-4"/><path d="M236.47 272.58c-14.82-59.42-63.06-79.83-65.11-80.66a19.66 19.66 0 0 0-15.73.37 65 65 0 0 0-6-3.5L93.24 191a38.2 38.2 0 0 0-8.06 4l-2.33-3.08c-2 .83-52.12 22.07-66.93 81.49-2.23 9 3.91 17.89 13.71 19.94a20.3 20.3 0 0 0 4.07.42c8.08 0 15.38-5 17.55-12.33-.81 11.68-.61 19.65-.61 19.65l152.85-.09a180 180 0 0 0-1.88-19c2.63 6.61 9.51 11 17.08 11a20.3 20.3 0 0 0 4.07-.42c9.8-2.11 15.94-11.04 13.71-20" style="fill:#b2b2d3"/></g></g><g id="Camada_3" data-name="Camada 3"><path d="M219.87 111.83C209.6 84.41 187.5 62 132 62c-54.48 0-82.43 15.54-90.22 46.62-5.12 20.45-10.83 58.94-11.88 91.9-.15 1.06-.23 29.26-.23 29.26 0 13.13 11.18 23.88 24.85 23.88h1a25.06 25.06 0 0 0 21.78-12.41l3 .84v3c0 13.13 11.18 23.88 24.85 23.88h1a24.81 24.81 0 0 0 24-17.61l2.14-.07a24.93 24.93 0 0 0 23.18 15.33h1c13.66 0 24.85-10.74 24.85-23.88l3-.88a25.05 25.05 0 0 0 21.41 11.85h1c13.67 0 24.85-10.75 24.85-23.88v-28.3c0-1.15-5.13-72.17-11.71-89.7" style="fill:#00c9ff"/><path d="M236.14 201.25c0-.71-5.21-72.76-12-91-13.48-36-42.76-52.71-92.12-52.71-28 0-49.14 4-64.71 12.17-15.85 8.29-25.62 20.7-29.92 37.86-5.16 20.58-10.94 59.09-12 92.85v.58c-.09 1.11-.1 3.12-.12 6.81 0 7.55-.08 1.28-.1 22 0 15.65 13.16 28.38 29.35 28.38h1a29.84 29.84 0 0 0 20.71-8.31c2.37 13.58 14.45 23.57 28.93 23.57h1a29.82 29.82 0 0 0 25.44-14.26 30 30 0 0 0 23.85 11.91h1c13.51 0 25.17-8.88 28.45-21.38a29.83 29.83 0 0 0 20.84 8.47h1c16.19 0 29.35-12.73 29.35-28.38v-28.56ZM206.8 249.2h-1a20.63 20.63 0 0 1-17.57-9.7 4.5 4.5 0 0 0-5.11-2l-3 .89a4.51 4.51 0 0 0-3.23 4.31c0 10.69-9.13 19.38-20.35 19.38h-1a20.5 20.5 0 0 1-19-12.51 4.51 4.51 0 0 0-4.32-2.81l-2.15.07a4.48 4.48 0 0 0-4.18 3.26 20.28 20.28 0 0 1-19.64 14.34h-1c-11.22 0-20.35-8.69-20.35-19.38v-3a4.51 4.51 0 0 0-3.29-4.33l-3-.84a4.2 4.2 0 0 0-1.21-.17 4.5 4.5 0 0 0-4.01 2.29 20.55 20.55 0 0 1-17.88 10.2h-1c-11.22 0-20.35-8.69-20.35-19.37 0-26.89.12-26.07.22-28.86v-.26c1-32.79 6.83-71.33 11.75-90.95C53.51 80.27 80.79 66.54 132 66.54c59.27 0 76.15 26.75 83.69 46.87 6.3 16.8 11.44 87.61 11.49 88.25v28.16c-.03 10.69-9.18 19.38-20.38 19.38" class="cls-4"/><path d="M219.87 71.83C209.6 44.41 187.5 22 132 22c-54.51 0-82.46 15.58-90.25 46.66-5.12 20.45-10.83 58.94-11.88 91.9-.15 1.06-.23 29.26-.23 29.26 0 13.13 11.18 23.88 24.85 23.88h1a25.06 25.06 0 0 0 21.81-12.45l3 .84v3c0 13.13 11.18 23.88 24.85 23.88h1a24.81 24.81 0 0 0 24-17.61l2.14-.07a24.93 24.93 0 0 0 23.18 15.33h1c13.66 0 24.85-10.74 24.85-23.88l3-.88a25.05 25.05 0 0 0 21.41 11.85h1c13.67 0 24.85-10.75 24.85-23.88v-28.3c0-1.15-5.13-72.17-11.71-89.7" style="fill:#9c35d8"/><path d="M236.14 161.25c0-.71-5.21-72.76-12-91-13.48-36-42.76-52.71-92.12-52.71-28 0-49.14 4-64.71 12.17C51.46 38 41.69 50.41 37.39 67.57c-5.16 20.58-10.94 59.09-12 92.85v.58c-.09 1.11-.1 3.12-.12 6.81 0 7.55-.08 1.28-.1 22 0 15.65 13.16 28.38 29.35 28.38h1a29.84 29.84 0 0 0 20.71-8.31c2.37 13.58 14.45 23.57 28.93 23.57h1a29.82 29.82 0 0 0 25.44-14.26 30 30 0 0 0 23.85 11.91h1c13.51 0 25.17-8.88 28.45-21.38a29.83 29.83 0 0 0 20.84 8.47h1c16.19 0 29.35-12.73 29.35-28.38v-28.56ZM206.8 209.2h-1a20.63 20.63 0 0 1-17.57-9.7 4.5 4.5 0 0 0-5.11-2l-3 .89a4.51 4.51 0 0 0-3.23 4.31c0 10.69-9.13 19.38-20.35 19.38h-1a20.5 20.5 0 0 1-19-12.51 4.51 4.51 0 0 0-4.32-2.81l-2.15.07a4.48 4.48 0 0 0-4.18 3.26 20.28 20.28 0 0 1-19.64 14.34h-1c-11.22 0-20.35-8.69-20.35-19.38v-3a4.51 4.51 0 0 0-3.29-4.33l-3-.84a4.2 4.2 0 0 0-1.21-.17 4.5 4.5 0 0 0-4.01 2.29 20.55 20.55 0 0 1-17.88 10.2h-1c-11.22 0-20.35-8.69-20.35-19.37 0-26.89.12-26.07.22-28.86v-.26c1-32.79 6.83-71.33 11.75-90.95C53.51 40.27 80.79 26.54 132 26.54c59.27 0 76.15 26.75 83.69 46.87 6.3 16.8 11.44 87.61 11.49 88.25v28.16c-.03 10.69-9.18 19.38-20.38 19.38" class="cls-4"/><path d="M82.7 115s-.53 38.09-48.53 29.05A259 259 0 0 1 38.35 114c4.77-23 44.35 1 44.35 1M91 123.39s-1.56 48 37.05 48 37-52.69 37-52.69Z" class="cls-8"/><path d="M157.49 110.88a38.6 38.6 0 0 1 1 8.68c0 18.88-13.58 34.18-30.33 34.18s-30.32-15.3-30.32-34.18a38 38 0 0 1 1-8.68h58.67m5.56-7H93.26L92 109.3a45.2 45.2 0 0 0-1.17 10.26c0 22.71 16.74 41.18 37.32 41.18s37.33-18.47 37.33-41.18a45.8 45.8 0 0 0-1.17-10.26l-1.26-5.42Z" class="cls-4"/><ellipse cx="51.71" cy="97.16" class="cls-9" rx="31.75" ry="31.95" transform="rotate(-47.13 51.713 97.163)"/><path id="olho" d="M28 98.59a14.52 14.52 0 0 0 15.83 12.9 14.3 14.3 0 0 0 12.83-15.74 14.5 14.5 0 0 0-15.83-12.91A14.3 14.3 0 0 0 28 98.59" class="cls-4"/><path d="M98.82 110.88a38 38 0 0 0-1 8.68c0 18.88 13.57 34.18 30.32 34.18s30.33-15.3 30.33-34.18a38.6 38.6 0 0 0-1-8.68Z" class="cls-10"/><path d="M178.62 113.48s1.12 39.13 48.08 31.3c0 0 1.48-9.39-3.74-32.35s-44.34 1.05-44.34 1.05" class="cls-8"/><path d="M103.39 115.53a5.85 5.85 0 0 1-2.9-9.56 35.07 35.07 0 0 1 27.07-12.06 40.25 40.25 0 0 1 28.37 11.78 5.84 5.84 0 0 1-2.77 9.88l-9.27 2.11a5.86 5.86 0 0 0-3.44 2.28l-7.66 10.62a5.85 5.85 0 0 1-9.36.16l-8.51-11a5.8 5.8 0 0 0-3.16-2.08Z" class="cls-10"/><path d="M127.56 93.91a40.25 40.25 0 0 1 28.37 11.78 5.84 5.84 0 0 1-2.77 9.88l-9.27 2.11a5.86 5.86 0 0 0-3.44 2.28l-7.66 10.62a5.84 5.84 0 0 1-9.35.16l-8.52-11a5.8 5.8 0 0 0-3.16-2.08l-8.37-2.15a5.85 5.85 0 0 1-2.9-9.56 35.07 35.07 0 0 1 27.07-12.06m0-7a41.93 41.93 0 0 0-32.32 14.43 12.85 12.85 0 0 0 6.41 21l8 2L117.9 135a12.85 12.85 0 0 0 20.56-.35l7.41-10.27 8.84-2a12.83 12.83 0 0 0 6.09-21.73 47.18 47.18 0 0 0-33.24-13.75Z" class="cls-4"/><ellipse cx="206.71" cy="97.16" class="cls-9" rx="31.95" ry="31.75" transform="rotate(-42.87 206.717 97.164)"/><path id="olho-2" d="M230.41 98.59a14.52 14.52 0 0 1-15.83 12.9 14.29 14.29 0 0 1-12.81-15.74 14.5 14.5 0 0 1 15.83-12.91 14.3 14.3 0 0 1 12.81 15.75" class="cls-4" data-name="olho"/></g></svg>