<svg xmlns="http://www.w3.org/2000/svg" xmlns:xlink="http://www.w3.org/1999/xlink" xml:space="preserve" id="Camada_1" x="0" y="0" version="1.1" viewBox="0 0 262.2 299"><style>.st2{fill:#012442}.st3{fill:#ffbb71}.st5{fill:#00c9ff}.st6{fill:#e02d5c}.st8{fill:#fff}.st9{fill:#0098ff}</style><g id="Camada_3"><circle cx="131.2" cy="171" r="123.3" style="fill:#52d89b"/><defs><circle id="SVGID_1_" cx="130.9" cy="171" r="123.3"/></defs><clipPath id="SVGID_2_"><use xlink:href="#SVGID_1_" style="overflow:visible"/></clipPath><g style="clip-path:url(#SVGID_2_)"><path d="M223.2 296.5c-12.5 0-23.7-7.9-26.6-19.4-9.3-37.2-33-47.3-34-47.7.4.2.6.2.6.2L183 183c5.2 1.9 51.2 19.9 66.9 83 3.4 13.5-5.9 26.8-20.6 29.9-2 .4-4 .6-6.1.6" class="st2"/><path d="M224.4 288.4c-8.3 0-15.8-5.2-17.7-13-10.6-42.7-44.2-57.5-44.5-57.7-9.2-3.8-13.3-13.6-9.2-22s14.9-12.1 24.1-8.4c2 .8 50.3 21.2 65.1 80.7 2.2 9-3.9 17.9-13.7 20-1.3.3-2.7.4-4.1.4" class="st3"/><path d="M40.7 297.3c-2 0-4.1-.2-6.1-.6-14.7-3.1-23.9-16.5-20.6-29.9 15.7-63.1 65.7-84.7 70.8-86.6l19.8 46.6c-1.2 1.1-2.3 2.2-3.3 3.4-1 .4-24.8 10.5-34 47.7-2.9 11.6-14.2 19.4-26.6 19.4" class="st2"/><path d="M39.4 289.3c-1.4 0-2.7-.1-4.1-.4-9.8-2-16-11-13.7-19.9 14.8-59.4 64.9-80.7 66.9-81.5l20.3 26.9.3.3c-1.4.6-41.4 19.1-52 61.7-1.8 7.6-9.3 12.9-17.7 12.9" class="st3"/><path id="peito" d="M203.9 294.2s7.6-85.6-43.8-112.2l-56.4 2.2c-45.1 15.9-42.6 110-42.6 110z" class="st3"/><path d="M69.4 245.2c-1.7-1-3.9-.5-4.9 1.2-.2.3-.3.6-.4.9-2.8 10.7-5.1 25.2-5.1 44 .1 1.9 1.7 3.4 3.6 3.3 1.9.1 3.5-1.4 3.6-3.3 0-18 2.2-32 4.9-42.2.4-1.5-.3-3.1-1.7-3.9" class="st2"/><path d="M58.9 233.8c9.8-.8 24.7-8.5 34-5.1 8.6 3.1 20.1 17.5 36 25.4s38.7 9.1 53.2-1c21.6-15 23.5-28.3 35.6-33.1 1.3-.5-24.2-28.5-40.6-34.6-3.3-1.2-6.7-6.7-10-6.3-2.2-1.6-4.6-3-7-4.2l-56.4 2.2c-4.5 1.6-8.6 4-12.2 7l-.4 1.5c-1.6.6-35.2 18.2-54 47.2 4.8 2.5 15.3 1.5 21.8 1" style="fill:#d3914f"/><path d="M197.6 245.2c-1.5.8-2.2 2.5-1.8 4.1 2.6 10.2 4.8 24.1 4.9 42.2.1 1.9 1.7 3.4 3.6 3.3 1.9.1 3.5-1.4 3.6-3.3 0-18.8-2.3-33.3-5.1-44-.5-1.9-2.5-3.1-4.4-2.6-.2 0-.5.1-.8.3" class="st2"/></g><path d="M246.1 199c-2.2-5.2-4.6-9.1-5.1-14.1-18.9-15.2 3.7-55.2 3.7-55.2 0-81.7-50-121.1-111.1-121.1S22.5 58.6 22.5 119.7v18.9c0 3.5.2 7 .5 10.3-2 10.4-5 21.1-9.4 28.2-11.7 18.8 6.3 28.2 18 22.7 0 0 .6 21.2 19.4 27.8 7.4-1.8 14.3-5.9 21.3-8.6 8.6-3.3 17.9-4.5 26.5-.5 5.5 2.5 9.4 7 13 11.8.9.8 1.9 1.6 2.8 2.5 17 5.7 51.8 14 68.8 6.9 15.1-6.3 15-16.6 14.4-20.4 7.4-2.9 14.3-6.8 20.6-11.7l1.7 2.4c3.3 3.4 7.8 5.4 12.5 5.5 7.9-.1 17.4-7.1 13.5-16.5" class="st5"/><path d="M157.4 248.2c-17.5 0-36.8-5.1-48.6-18.5-5.1-5.8-13.8-12-20.4-12.7-2.6-.3-6.6 1.9-10.8 4.1-6.4 3.4-14.3 7.6-23.6 7.4-11-.3-18.8-3.5-23.3-9.7-3.3-4.5-4-9.7-3.9-13.6-6.4.7-13-1.5-17.1-6.1-2.6-2.9-7.7-11.1.5-24.2 3.5-5.7 6.5-14.6 8.8-26.3-.3-3.4-.5-6.8-.5-10.1v-18.9C18.5 56.2 70.1 4.5 133.6 4.5c30 0 58.1 10.1 79.2 28.4 21.6 18.8 34.3 45 35.8 73.8.2 3.6-.4 23.5-1.3 27.5-2 9-4 15.5-5.6 20.7-2.4 8.1-3.6 12.1-2.8 17.3v.3c.3 2.8 5 12.7 7.5 18 1.4 2.8 2.5 5.3 3.2 6.9 2 4.7 1.5 9.6-1.2 13.7-3.3 4.9-9.7 8.2-15.9 8.2-5.6-.1-11.1-2.4-15-6.3-4.9 3.4-10.2 6.4-15.7 8.8-.1 5.6-2.5 15.5-17 21.5-7.1 3.1-16.9 4.9-27.4 4.9M88 209c.4 0 .8 0 1.2.1 10.5 1.1 21 10.2 25.6 15.4 15.7 17.9 49.6 18.8 67 11.6 11.8-4.9 12.6-12.2 12-16.1l-.5-3.2 3-1.2c7-2.8 13.7-6.5 19.7-11.1l3.2-2.5 4 5.5c2.5 2.5 5.9 4 9.5 4.1 3.5 0 7.4-2 9.2-4.7 1.3-1.9 1.4-3.9.5-6.2-.6-1.4-1.7-3.8-3-6.5-4.4-9.2-7.9-16.6-8.3-20.6-1.1-6.9.6-12.4 3.1-20.7 1.5-5.1 3.4-11.4 5.4-20.1.6-2.8 1.3-21.7 1.1-25.4-1.4-26.7-13.1-50.9-33-68.2-19.6-17.1-45.9-26.5-74-26.5-59.1 0-107.1 48.1-107.1 107.1v18.9c0 3.3.2 6.6.5 9.9l-.1.4-.1.6c-2.5 13-5.8 23-10 29.6-3.8 6.1-4.2 11.3-1.3 14.6 3.1 3.5 9.4 4.6 14.2 2.3l8.1-3.8-2.6 8.6c0 .1-2.2 7.7 1.8 13.2 2.9 4 8.6 6.2 17 6.4 7.2.2 13.8-3.3 19.7-6.4 4.9-2.7 9.6-5.1 14.2-5.1m155.4-75.6" class="st2"/><path d="M31.5 203.7c-.6 0-1.1-.1-1.7-.4-2-.9-2.9-3.3-1.9-5.3l4.3-9.2c-6.1-7.1-6.2-16-6.2-16.5 0-2.2 1.8-4 4-4s4 1.8 4 4c0 .1.2 7.8 5.7 12.7l2.2 2-6.7 14.4c-.7 1.5-2.2 2.3-3.7 2.3M197.4 227.2c-1.9 0-3.6-1.4-3.9-3.3-.8-5.1-2.1-12.7-5.8-16.4-.9-1-1.3-2.3-1-3.6s1.2-2.4 2.4-2.9c1.9-.8 3.8-1.7 5.6-2.8 1.9-1.1 4.4-.5 5.5 1.5 1.1 1.9.5 4.4-1.5 5.5-.7.4-1.4.8-2.1 1.1 2.9 5.2 4 11.7 4.7 16.3.4 2.2-1.1 4.2-3.3 4.6zM82.4 218.1c-1.3 0-2.6-.7-3.4-1.9-1.2-1.9-.6-4.3 1.2-5.5.6-.4 15.6-9.8 24.9-11.5l1.2-.2 1.1.4c.2.1 18.9 7.6 31.8 6.5 2.2-.2 4.1 1.5 4.3 3.7s-1.5 4.1-3.7 4.3c-13 1.1-29.7-4.9-34.3-6.6-6.6 1.7-17.3 7.8-21 10.2-.6.4-1.4.6-2.1.6" class="st2"/><path d="M208.5 32.4c-4.8-3.1-9-7-12.5-11.5-1.5-1.9-2.9-3.9-4.4-5.7-14.6-1.6-27.7 9-29.2 23.6s9 27.7 23.6 29.2c14.6 1.6 27.7-9 29.2-23.6.3-2.7.2-5.4-.4-8-2-1.3-4.2-2.6-6.3-4" class="st6"/><path d="M191.2 72.4c-1 0-1.9 0-2.9-.1-17.5-1.7-30.2-14.6-30.2-30.6 0-10 3.3-19 9.2-24.8 4.7-4.6 10.7-6.9 17.5-6.8 11.2.2 14.7 5.8 17.2 9.9.9 1.4 1.6 2.6 2.5 3.3 1.3 1.1 2.8 1.7 4.5 2.4 4.4 1.8 10 3.9 12.2 15.2 1.4 7.2-.9 14.8-6.5 20.9-6 6.7-14.8 10.6-23.5 10.6m-6.9-54.3q-6.75 0-11.4 4.5c-4.3 4.2-6.8 11.2-6.8 19.1 0 11.8 9.7 21.3 23 22.6 7.2.7 14.7-2.3 19.8-7.8 3.9-4.3 5.5-9.2 4.5-14-1.4-7-3.6-7.9-7.3-9.3-2.1-.8-4.4-1.8-6.8-3.7-1.8-1.6-3-3.5-4.1-5.2-2.2-3.5-3.8-6-10.6-6.2z" class="st2"/><path d="M156 28.2s-2.4 14.9 9.4 24.3 30.5 8.6 42.3 21.9-11.7 32.1-14.9 32.1S138 80.6 138 80.6s-3.9-35.2 18-52.4" class="st5"/><path d="M207.7 77.4c-.8 0-1.7-.3-2.2-1-6.1-6.9-14.7-9.8-22.9-12.6-6.6-2.2-13.5-4.5-19-8.9C151 44.7 149.1 29.2 149 28.5c-.2-1.6 1-3.1 2.7-3.3 1.6-.2 3.1 1 3.3 2.6 0 .2 1.7 13.8 12.3 22.3 4.7 3.7 10.7 5.8 17.1 7.9 9 3 18.3 6.2 25.5 14.3 1.1 1.2 1 3.1-.3 4.2-.5.6-1.2.9-1.9.9" class="st2"/><path d="M218.6 15.8c-1-1.3-2.9-1.5-4.2-.5-6.9 5.5-13.1 11.6-18.7 18.4 1.3.8 2 2.1 3.3 3 .4.3 1.3.1 1.7.4 5.5-6.5 11.4-10.3 17.4-15.1 1.3-1 1.5-4.9.5-6.2" style="fill:#39b579"/><path d="M201.1 40.6c-.5 0-.9-.2-1.3-.5-.8-.7-1-2-.2-2.8 5.1-6 11.5-11.1 17.2-15.7l1.8-1.4c0-.5-.5-1.9-1.6-3.1-.6-.7-1.9-1.1-2.3-1-6.7 5.3-13 11.3-18.5 17.9-.7.8-2 1-2.8.2-.8-.7-1-2-.2-2.8 5.7-6.8 12.2-13 19.2-18.5 2.3-1.9 6-.4 7.7 1.5 1.3 1.5 2.8 4 2.5 6.2-.1 1.1-.6 2-1.4 2.6l-1.9 1.5c-5.6 4.4-11.9 9.4-16.7 15.1-.3.6-.9.8-1.5.8m17.7-20.5q-.15 0 0 0" class="st2"/><path d="M207.1 44.9c-.3 0-.5-.1-.8-.2-17.3-7.4-18.8-17.4-18.9-17.8-.1-1.1.6-2.1 1.7-2.2s2.1.6 2.2 1.7c0 .2 1.6 8.3 16.5 14.7 1 .4 1.5 1.6 1.1 2.6-.2.7-1 1.2-1.8 1.2" class="st2"/><ellipse cx="89" cy="40.3" class="st8" rx="11.5" ry="10.3" transform="rotate(-37.58 88.968 40.253)"/><ellipse cx="62.6" cy="61.9" class="st8" rx="7.2" ry="6.5" transform="rotate(-37.58 62.637 61.898)"/><circle cx="175.1" cy="105" r="30.4" class="st8"/><path d="M173 139.4c-19 0-34.4-15.4-34.4-34.4S154 70.6 173 70.6 207.4 86 207.4 105 192 139.4 173 139.4m0-60.8c-14.6 0-26.4 11.8-26.4 26.4s11.8 26.4 26.4 26.4 26.4-11.8 26.4-26.4-11.8-26.4-26.4-26.4" class="st2"/><circle cx="84.1" cy="105" r="30.4" class="st8"/><path d="M82 139.4c-19 0-34.4-15.4-34.4-34.4S63.1 70.6 82 70.6c19 0 34.4 15.4 34.4 34.4S101 139.4 82 139.4m0-60.8c-14.6 0-26.4 11.8-26.4 26.4s11.8 26.4 26.4 26.4 26.4-11.8 26.4-26.4S96.6 78.6 82 78.6" class="st2"/><ellipse cx="75.9" cy="154" class="st9" rx="11.8" ry="8.2"/><ellipse cx="181.2" cy="154" class="st9" rx="11.8" ry="8.2"/><path d="M124.8 152.9v19.5c0 6.6 6.1 12 13.7 12h3.6c7.5 0 13.7-5.4 13.7-12v-19.5z" class="st6"/><path d="M140.3 187.4c-10.2 0-18.5-7.4-18.5-16.6v-18h6v18c0 5.7 5.7 10.6 12.5 10.6s12.5-4.8 12.5-10.6v-18h6v18c-.1 9.2-8.3 16.6-18.5 16.6" class="st2"/><path d="M127.3 156.5c-9.1 0-15.3-.4-15.8-.4-1.7-.1-2.9-1.5-2.8-3.2s1.5-2.9 3.2-2.8c.3 0 27 1.7 52-2 1.6-.2 3.2.9 3.4 2.5s-.9 3.2-2.5 3.4c-13.6 2-27.4 2.5-37.5 2.5" class="st2"/><path d="M139.6 169.1c-1.7 0-3-1.3-3-3v-11.5c0-1.7 1.3-3 3-3s3 1.3 3 3v11.5c0 1.6-1.3 3-3 3M82.7 104.8l13.1-12.3c-6.8-7.2-18.2-7.6-25.4-.8s-7.6 18.2-.8 25.4 18.2 7.6 25.4.8c1.3-1.2 2.4-2.6 3.2-4.1zM173.7 104.8l13.1-12.3c-6.8-7.2-18.2-7.6-25.4-.8s-7.6 18.2-.8 25.4 18.2 7.6 25.4.8c1.3-1.2 2.4-2.6 3.2-4.1z" class="st2"/></g></svg>