<svg xmlns="http://www.w3.org/2000/svg" xml:space="preserve" id="Camada_1" x="0" y="0" version="1.1" viewBox="0 0 262.2 299"><style>.st1{fill:#52d89b}.st2{fill:#31a86c}.st3{fill:#012442}.st4{fill:#e02d5c}.st5{fill:#ffdf5a}</style><g id="Camada_3"><circle cx="131.1" cy="171.3" r="123.3" style="fill:#af4e81"/><path d="m173.3 197.3-42.3 1.2-42.3-1.1c-47 5.9-59.9 42.1-59.9 42.1 36.4 55.2 93.1 55.7 103.1 55.7 8.7 0 65.5-1.3 102.1-56.7.2-.1-13.7-35.4-60.7-41.2" class="st1"/><path d="M49 218.4S72.5 258 131.4 258s82.4-41.7 82.4-41.7-97-52.2-164.8 2.1" class="st2"/><path d="M232.2 243.4c-1.6 0-3.2-1-3.8-2.6-.5-1.3-12.7-32.9-56.3-38.5l-42.1 1.1h-.1l-42-1.1c-43.6 5.6-53.1 35.9-53.2 36.2-.6 2.1-2.9 3.3-5 2.7s-3.3-2.9-2.7-5c.4-1.5 11.2-35.8 60.2-41.9h.6l42.2 1.1 42.5-1.2h.3c48.8 6.1 62.6 42.2 63.1 43.7.8 2.1-.3 4.4-2.4 5.1-.4.3-.9.4-1.3.4" class="st3"/><path d="M233.7 114.4c0 58.4-34.4 129.6-103.6 129.6-64.3 0-102.7-69.3-102.7-127.7S71.7 22.8 130 22.8s103.7 33.3 103.7 91.6" class="st1"/><path d="M131 248.1c-27.8 0-56.2-15.5-78-42.4-20.4-25.3-32.7-57.9-32.7-87.2 0-28.8 11.5-54.6 32.3-72.7 20-17.4 47.4-26.9 77.3-26.9 30.1 0 57.5 9 77.3 25.4 21.2 17.6 32.4 42.2 32.4 71.3.1 59.9-48.4 132.5-108.6 132.5m-1-221.3c-27.9 0-53.5 8.9-72 25-19.3 16.8-29.6 39.9-29.6 66.7 0 27.5 11.5 58.2 30.9 82.2 20.2 25.1 46.4 39.5 71.8 39.5 25.5 0 50.6-14.5 70.7-40.9 18.8-24.6 30-55.9 30-83.8 0-26.6-10.2-49.1-29.5-65.1-18.4-15.3-44.1-23.6-72.3-23.6" class="st3"/><path d="M126.3 98.7c-9.1 0-17.7-.4-25.7-1-34.9-2.5-69.5-10.3-72.4-13.2L26.8 83l.6-2c.2-.7 5.3-17 20.5-33.2 14-14.9 39.5-32.4 81.6-31.1 23.2.7 55.6 6.3 78.9 28.9 14.1 13.7 18.1 27.1 18.2 27.7l.8 2.7-2.4 1.4c-29.8 16.7-66.9 21.3-98.7 21.3M35.3 80c18.4 5.6 119.2 27 183.7-7.4-1.8-4.3-6.3-13.3-15.7-22.3-17.1-16.5-42.7-25.7-74-26.6-31.6-.9-57.2 8.7-76.1 28.7-10.4 11-15.8 22.3-17.9 27.6" class="st3"/><path d="M30.8 82.1c2.4 2.3 120.5 32.9 192.5-7.8 0 0-14.9-51.7-93.9-54S30.8 82.1 30.8 82.1" class="st4"/><path d="M126.3 98.7c-9.1 0-17.7-.4-25.7-1-34.9-2.5-69.5-10.3-72.4-13.2L26.8 83l.6-2c.2-.7 5.3-17 20.5-33.2 14-14.9 39.5-32.4 81.6-31.1 23.2.7 55.6 6.3 78.9 28.9 14.1 13.7 18.1 27.1 18.2 27.7l.8 2.7-2.4 1.4c-29.8 16.7-66.9 21.3-98.7 21.3M35.3 80c18.4 5.6 119.2 27 183.7-7.4-1.8-4.3-6.3-13.3-15.7-22.3-17.1-16.5-42.7-25.7-74-26.6-31.6-.9-57.2 8.7-76.1 28.7-10.4 11-15.8 22.3-17.9 27.6" class="st3"/><path d="m63.8 96.3 50.3 23.5c3.9 1.8 5.6 7 3.5 11.1-5.2 10.2-17.9 25.5-45.1 15.4-24.5-9-21.8-32.5-18.3-45.1 1.2-4.4 5.7-6.7 9.6-4.9" class="st5"/><path d="M82.2 154.2c-4.2 0-8.3-.8-12.2-2.7-10.9-5.3-18.1-14-20.8-25.3-2.7-10.8-.7-20.8.7-25.9.9-3.2 3.1-5.9 6-7.2 2.7-1.3 5.8-1.2 8.5 0l50.3 23.5c2.7 1.3 4.7 3.6 5.7 6.5 1.1 3.1.8 6.5-.6 9.4-5 9.6-21.5 21.7-37.6 21.7M60 99.2c-.5 0-1 .1-1.3.3-1 .5-1.8 1.5-2.2 2.7-1.4 5.2-7.3 31.5 16.5 43 15.6 7.6 36.3-7.7 40.5-15.9.6-1.2.7-2.6.3-3.9-.4-1.1-1.1-2-2.1-2.4L61.3 99.5c-.4-.2-.9-.3-1.3-.3" class="st3"/><path d="M91.4 109.8c-4.6-2.4-9.3-4.7-13.9-7.2-2.6 3.9-4.3 10.4-4.3 17.9 0 11.9 4.4 21.6 9.8 21.6 4.4 0 8.1-3.7 9.3-12.6l-9-6.3 9.2-4.7c-.3-2.9-.6-5.8-1.1-8.7" class="st3"/><path d="M47.3 92.7c-1.4 2.1-.9 4.9 1.2 6.4.2.2.5.3.7.4l69.5 31.1c.6.3 1.1.4 1.7.5 2.8-4.3 4.8-9 5.9-13.9.5-2-.5-4.1-2.3-5.1L62.9 78.7c-1.8-1-4-.7-5.4.7-4.2 4-7 8.6-10.2 13.3" class="st3"/><path d="M192.3 96.3 142 119.8c-3.9 1.8-5.6 7-3.5 11.1 5.2 10.2 17.9 25.5 45.1 15.4 24.5-9 21.8-32.5 18.3-45.1-1.2-4.4-5.7-6.7-9.6-4.9" class="st5"/><path d="M173.9 154.2c-16.1 0-32.6-12.1-37.5-21.7-1.5-2.9-1.7-6.3-.6-9.4 1-2.9 3.1-5.2 5.7-6.5l50.3-23.5c2.7-1.3 5.8-1.3 8.5 0 2.9 1.3 5.1 4 6 7.2 1.4 5.1 3.3 15.1.7 25.9-2.8 11.3-10 20-20.8 25.3-3.9 1.9-8.1 2.7-12.3 2.7m20.9-54.7L144.5 123c-1 .4-1.7 1.3-2.1 2.4-.4 1.3-.4 2.7.3 3.9 3.4 6.7 17.6 17.9 31.2 17.9 3.2 0 6.3-.6 9.3-2.1 23.8-11.5 17.9-37.8 16.5-43-.4-1.2-1.2-2.3-2.2-2.7-.7-.2-1.7-.4-2.7.1" class="st3"/><path d="M164.7 109.8c4.6-2.4 9.3-4.7 13.9-7.2 2.6 3.9 4.3 10.4 4.3 17.9 0 11.9-4.4 21.6-9.8 21.6-4.4 0-8.1-3.7-9.3-12.6l9-6.3-9.2-4.7c.3-2.9.6-5.8 1.1-8.7" class="st3"/><path d="M208.8 92.7c1.4 2.1.9 5-1.2 6.4-.2.2-.5.3-.7.4l-69.6 31.1c-.6.3-1.1.4-1.7.5-2.8-4.3-4.8-9-5.9-13.9-.5-2 .5-4.1 2.3-5.1l61.3-33.5c1.8-1 4-.7 5.4.7 4 4.1 6.9 8.7 10.1 13.4" class="st3"/><path d="M96.3 223.3c1 1.8 1.8 3.8 2.4 5.8.3.2.5 1.4.8 1.6 4.7 3.6 10.3 5.7 15.9 7.6.8-3.3.9-6.6.4-9.9-1-4.6-3.6-8.8-6-12.9-2-3.4-4-7.3-2.8-11 1.2-3.9 5.3-6.2 9.1-7.6s8.1-2.6 10.8-5.7c3.8-4.4 2.9-11 1.8-16.8-11.3-.1-22.4 2.3-32.7 6.9-6.4 2.9-13.1 7.6-14.2 14.5-.8 5.3 1.8 10.5 5 14.8s6.9 8 9.5 12.7" class="st2"/><path d="M220.9 87.5c-9.4 0-17.1-7.8-17.1-17.4s7.7-17.4 17.1-17.4S238 60.6 238 70.1s-7.7 17.4-17.1 17.4m0-28.7c-6.1 0-11.1 5.1-11.1 11.4s5 11.4 11.1 11.4S232 76.4 232 70.1s-5-11.3-11.1-11.3" class="st3"/><ellipse cx="220.9" cy="70.1" class="st4" rx="14.1" ry="14.3"/><path d="M220.9 88c-9.7 0-17.6-8-17.6-17.9s7.9-17.9 17.6-17.9 17.6 8 17.6 17.9S230.6 88 220.9 88m0-28.7c-5.8 0-10.6 4.9-10.6 10.9S215 81 220.9 81s10.6-4.9 10.6-10.9-4.8-10.8-10.6-10.8" class="st3"/><path d="M247.7 91.3c-.4-2.5-1.7-4.9-4.1-7.7-3-3.4-16.3-11.9-20-6.5-1.5 2.1-.2 8.8-1.2 11.7-1.2 4-3.6 7.5-4.4 11.6-1.8 8.8 3.1 18.2 10.8 22.8 5.1 3.1 11.6 4.3 17.2 2.2 0-2.5-3.3-3.3-4.8-5.2-3.8-4.8-2.9-10.2-1.7-12.2s2.9-3.6 4.2-5.4c3.1-4.1 4.6-7.7 4-11.3" class="st4"/><path d="M239.9 130.1c-4.3 0-8.9-1.3-13-3.7-9.4-5.7-14.5-16.6-12.4-26.5.6-2.7 1.6-5.1 2.7-7.4.7-1.6 1.4-3 1.8-4.6.2-.8.2-2.8.2-4.3 0-3.2 0-6.3 1.4-8.4.9-1.3 2.7-3 6.1-3.2 6.9-.4 16.8 6.4 19.4 9.4 2.7 3 4.3 5.9 4.9 8.8.1.2.1.4.2.7.8 5.5-2.1 10.4-4.8 13.9-.6.8-1.2 1.5-1.8 2.2-.8 1-1.6 1.9-2.2 2.8-.4.8-1.5 4.6 1.4 8.4.2.3.9.7 1.4 1.1 1.6 1.1 4.1 2.9 4.1 6.2v2.4l-2.3.9c-2.1.9-4.5 1.3-7.1 1.3m-13.4-51c-.2.8-.2 3-.2 4.4 0 2.4 0 4.6-.5 6.5-.6 1.9-1.4 3.6-2.1 5.3-.9 2.1-1.8 4-2.2 6-1.5 7 2.4 15 9.2 19.1 2.6 1.6 5.5 2.5 8.3 2.7-.2-.2-.3-.4-.5-.6-4.7-6.1-3.8-12.9-2-16.1.9-1.6 2-2.8 3-4 .5-.6 1.1-1.2 1.5-1.8 2.6-3.5 3.7-6.1 3.6-8.3 0-.1-.1-.3-.1-.5-.3-1.7-1.3-3.6-3.3-5.8-2.1-2.4-10-7.3-13.8-7.1-.4.1-.7.1-.9.2m.1-.1" class="st3"/><path d="M219.4 142.2s-.5 10.2 6.5 15.8c2.7 2.1 5 4.2 6.8 5.9 3.6 3.3 5.3 5.8 5.3 13 .2 2.1-3.6 12.9-8 15.2-3.9 2.6-8.8 3.3-13.3 1.9-5.2-1.8-6.7-3.8-9.8-4" class="st1"/><path d="M221.4 198.3c-1.9 0-3.9-.3-5.8-.9-2.7-.9-4.5-1.9-5.9-2.6-1.5-.8-2.2-1.2-3.1-1.2-1.9-.1-3.4-1.8-3.3-3.7s1.8-3.4 3.7-3.3c2.4.2 4.1 1.1 5.9 2 1.3.7 2.7 1.4 4.8 2.2 3.4 1.1 7.2.5 10.2-1.5l.3-.2c2.7-1.4 6-9.7 6.1-11.9v-.2c0-6.3-1.4-7.8-4.2-10.5-1.4-1.3-3.7-3.4-6.6-5.8-8.3-6.6-7.8-18.2-7.8-18.7.1-1.9 1.7-3.4 3.7-3.3 1.9.1 3.4 1.7 3.3 3.6 0 .1-.3 8.6 5.2 12.9 2.5 2 4.9 4.1 7.1 6.1 4.3 4 6.3 7.3 6.4 15.4.2 3.8-4.1 15.2-9.7 18.4-3 2.2-6.6 3.2-10.3 3.2m13.1-21" class="st3"/><ellipse cx="224.1" cy="178.3" class="st3" rx="7.7" ry="4.5" transform="rotate(-68.278 224.06 178.34)"/><path d="M41.1 142.2s.5 10.2-6.5 15.8c-2.7 2.1-5 4.2-6.8 5.9-3.5 3.3-5.3 5.8-5.3 13-.2 2.1 3.5 12.9 8 15.2 3.9 2.6 8.8 3.3 13.3 1.9 5.2-1.8 6.7-3.8 9.8-4" class="st1"/><path d="M39.1 198.3c-3.7 0-7.3-1.1-10.4-3.1-5.6-3.2-9.8-14.5-9.7-18.4.1-8.1 2.1-11.4 6.4-15.5 2.1-2 4.5-4.1 7-6.1 5.5-4.4 5.2-12.9 5.2-12.9-.1-1.9 1.4-3.6 3.4-3.6 1.9-.1 3.6 1.4 3.6 3.3 0 .5.5 12.1-7.8 18.7-3 2.4-5.2 4.4-6.6 5.7-2.8 2.6-4.2 4.2-4.2 10.5v.2c.1 2.3 3.5 10.5 6.1 11.9l.3.2c3.1 2 6.8 2.6 10.3 1.5 2-.7 3.5-1.5 4.7-2.1 1.8-1 3.5-1.9 5.9-2 1.9-.1 3.6 1.3 3.7 3.3.1 1.9-1.3 3.6-3.3 3.7-.9.1-1.6.4-3.1 1.2-1.4.8-3.2 1.7-5.9 2.6-1.7.6-3.7.9-5.6.9m-16.6-21.4" class="st3"/><ellipse cx="36.4" cy="178.3" class="st3" rx="4.5" ry="7.7" transform="rotate(-21.721 36.427 178.307)"/><path d="M109 190c4.2-.9 1.5-1.2 5.7-1.8 3.7-1.8 7.5-6 10.6-8.6 3.3-4.1 4.8-8.8 2.6-15.3-2.5-7.7-8.5-16.4-18-16.2h-.2c-12.5 1.6-23 2.3-38.8 17.5-6.4 6.3-10.7 15.1-10.4 24.1.2 6.5 2.9 12.8 6.3 18.3 2 3.2 7.3 7.3 8.4 10.9 1 3.2.9 9-1 11.7-1.4-.3-2.8-.9-4-1.7-3.2 2.9-.1-.1-.1-.1-7.4-4.7-14.6-13.8-16.1-14.4-6.7-2.7-18.2-.4-18.2 11.3 0 7.1 5.1 10.6 9.9 15.8 6.8 7.3 14.9 13.7 24.4 16.7 7.1 2.3 14.8 2.4 21.9.1.6-.4 1.1-.8 1.7-1.2 5.4-4.1 9.1-11.4 11.4-17.6 2.6-7.1-2.7-13.8-5.1-20.6-4.8-8.4-6.7-14.6-5.5-18.3 2.1-5.8 8.4-9.3 14.5-10.6" class="st1"/><ellipse cx="48.6" cy="224.2" class="st3" rx="6.3" ry="3.7" transform="rotate(-44.561 48.635 224.178)"/><path d="M96 215.7c-1.1 0-2.1-.6-2.6-1.6-4.1-7.7-7.7-15.8-5.6-23.4.4-1.6 2.1-2.5 3.7-2.1s2.5 2.1 2.1 3.7c-1.5 5.5 1.6 12.4 5.1 19 .8 1.5.2 3.3-1.2 4.1q-.9.3-1.5.3" class="st3"/><path d="M79.4 266.8c-3.2 0-6.6-.6-10-1.6-9-2.9-17.6-8.8-25.7-17.5-6.8-7.4-10-14.3-9.7-20.9.4-8.3 7.2-17.4 16.4-17.2 2.7 0 8.3.1 11.1 5.7 3.2 6.2 7.5 11.9 12.2 16 .5-1.7.4-3.8-.2-5.5-.6-1.9-3.3-5.5-5.2-8.1-1.1-1.5-2.2-3-3-4.2-4.3-6.9-6.6-13.5-6.8-19.8-.3-9.7 3.5-19.3 10.2-26.3 5.9-6.1 12.7-11 21.9-15.7 1.3-.7 2.4-1.2 3.3-1.7 5.7-3 6.2-3.1 12.3-3.1h4.3c9.5-.1 17.8 8.4 19.3 19.9 1.2 9.7-2.8 22.4-18.4 26.2-7.6 1.9-12.8 5.1-14 8.8-1.6 4.9 1.3 10.5 4 14.4 3.6 5.2 5.1 8.8 7.2 15.1 3.5 10.4-1.2 22.8-11 29.5-5.9 3.9-12 6-18.2 6M50 215.5c-5.4 0-9.8 6.1-10.1 11.4-.2 5 2.4 10.4 8.1 16.6 7.4 8 15.2 13.3 23.1 15.9 8.3 2.6 15.5 1.5 23.2-3.8 7.5-5.1 11.2-14.9 8.7-22.7-1.9-5.8-3.2-8.9-6.4-13.5-5.1-7.2-6.7-13.8-4.8-19.6 2.5-7.8 12.5-11.4 18.3-12.8 11.7-2.8 14.8-12 13.8-19.6-.9-7.1-5.8-14.6-13.1-14.6h-4.6000000000000005c-4.8 0-4.8 0-9.5 2.4-.9.5-2 1.1-3.4 1.7-8.7 4.4-15 8.9-20.4 14.6-5.7 5.8-8.8 13.8-8.5 21.9.2 5.2 2.1 10.8 5.9 16.8.6 1 1.6 2.3 2.7 3.8 2.4 3.2 5.1 6.9 6.1 9.8 1 3.3 1.3 7.6-.6 11.1.4.3.9.5 1.3.8 1.4.8 1.9 2.7 1.1 4.1s-2.7 1.9-4.1 1.1c-11.4-6.5-18.3-18.3-20.8-23-1-2-2.8-2.4-5.9-2.4zM115.2 76h-.3c-3.1-.3-6.1-.6-9.2-.9-1.6-.2-2.8-1.7-2.6-3.3s1.7-2.8 3.3-2.6q4.5.6 9 .9c1.7.1 2.9 1.6 2.7 3.2-.1 1.6-1.4 2.7-2.9 2.7M94.6 73.5h-.4c-17.1-2.4-33.7-7.1-49.5-14.1-1.5-.7-2.2-2.4-1.5-4 .7-1.5 2.4-2.2 4-1.5C62.4 60.6 78.5 65.2 95 67.5c1.6.2 2.8 1.7 2.6 3.4-.2 1.5-1.5 2.6-3 2.6M149.4 55.1c-1.5 0-2.8-1.1-3-2.6-.2-1.6 1-3.1 2.6-3.3 15.1-1.8 30-5.4 44.3-10.6 1.6-.6 3.3.2 3.9 1.8s-.2 3.3-1.8 3.9c-14.7 5.4-30.1 9.1-45.6 11-.2-.2-.3-.2-.4-.2M134 56.1h-1.9c-1.7-.1-3-1.4-2.9-3.1s1.4-2.9 3.1-2.9c2 .1 4 0 6.2-.1 1.7-.1 3 1.2 3.1 2.9s-1.2 3-2.9 3.1c-1.6.1-3.2.1-4.7.1" class="st3"/><path d="M161.6 225.3c-1 1.8-1.8 3.8-2.4 5.8-.3.2-.5 3.4-.8 3.6-4.7 3.6-9.6 4.4-15.9 4.6-.8-2.9-.9-6-.4-8.9 1-4.6 3.6-8.8 6-12.9 2-3.4 4-7.3 2.9-11-1.2-3.9-5.3-6.2-9.1-7.6s-8.1-2.6-10.8-5.7c-3.8-4.4-2.9-11-1.8-16.8 11.3-.1 22.4 2.3 32.7 6.9 6.4 2.9 13.1 7.6 14.2 14.5.8 5.3-1.8 10.5-5 14.8s-7 8-9.6 12.7" class="st2"/><path d="M148.9 191c-4.2-.9-1.4-1.2-5.7-1.8-3.7-1.8-7.5-6-10.6-8.6-3.3-4.1-4.8-8.8-2.6-15.3 2.5-7.7 8.5-16.4 18-16.2h.2c12.5 1.6 23 2.3 38.8 17.5 6.4 6.3 10.6 15.1 10.4 24.1-.2 6.5-2.9 12.8-6.3 18.3-2 3.2-7.3 7.3-8.4 10.9-1 3.2-.9 9 1 11.7 1.4-.3 2.8-.9 4-1.7 3.2 2.9.1-.1.1-.1 7.4-4.7 14.6-13.8 16.1-14.4 6.6-2.6 18.2-.4 18.2 11.4 0 7.1-5.1 10.6-9.9 15.8-6.8 7.3-14.9 13.7-24.4 16.7-7.1 2.3-14.8 2.4-21.9.1-.6-.4-1.1-.8-1.7-1.2-5.4-4.1-9.1-11.4-11.4-17.6-2.6-7.1 2.7-13.8 5.1-20.6 4.8-8.4 6.7-14.6 5.5-18.3-2.1-5.9-8.4-9.4-14.5-10.7" class="st1"/><ellipse cx="209.2" cy="225.2" class="st3" rx="3.7" ry="6.3" transform="rotate(-45.436 209.242 225.24)"/><path d="M161.9 216.7c-.5 0-1-.1-1.4-.4-1.5-.8-2-2.6-1.2-4.1 3.5-6.6 6.6-13.4 5.1-19-.4-1.6.5-3.2 2.1-3.7 1.6-.4 3.2.5 3.7 2.1 2.1 7.6-1.5 15.7-5.6 23.4-.6 1.2-1.6 1.7-2.7 1.7" class="st3"/><path d="M178.5 267.8c-6.3 0-12.3-2.1-18.4-6.2-9.8-6.7-14.4-19.1-11-29.5 2.1-6.2 3.6-9.9 7.2-15.1 2.7-3.9 5.6-9.5 4-14.4-1.2-3.7-6.4-6.9-14-8.8-15.5-3.8-19.6-16.5-18.4-26.2 1.5-11.5 9.7-20.1 19.3-19.9h4.3c6.1 0 6.5.1 12.3 3.1.9.5 2 1.1 3.3 1.7 9.3 4.7 16 9.6 22 15.7 6.7 7 10.5 16.5 10.2 26.3-.2 6.3-2.5 12.9-6.8 19.8-.7 1.2-1.8 2.7-3 4.2-2 2.7-4.5 6-5.1 8-.6 1.7-.7 3.8-.2 5.6 4.7-4.2 9.1-9.8 12.2-16.1 2.9-5.6 8.4-5.7 11.1-5.7h.3c9 0 15.7 9 16.1 17.2.3 6.7-2.9 13.5-9.7 20.9-8.1 8.8-16.7 14.7-25.7 17.5-3.4 1.3-6.7 1.9-10 1.9m-31.5-114c-7.3 0-12.2 7.5-13.1 14.6-1 7.6 2.2 16.7 13.8 19.6 5.8 1.4 15.8 4.9 18.3 12.8 1.9 5.8.2 12.4-4.8 19.6-3.2 4.6-4.5 7.7-6.4 13.5-2.6 7.8 1.1 17.5 8.7 22.7 7.7 5.3 14.9 6.5 23.2 3.8 8-2.5 15.8-7.9 23.1-15.9 5.7-6.2 8.4-11.6 8.1-16.6-.2-5.3-4.7-11.4-10.1-11.4h-.2c-3.1.1-4.9.4-5.9 2.4-5 9.9-12.8 18.5-20.8 23-1.4.8-3.3.3-4.1-1.1s-.3-3.3 1.1-4.1c.4-.2.8-.5 1.2-.8-1.9-3.6-1.7-7.9-.6-11.1.9-2.9 3.6-6.5 6-9.7 1.1-1.5 2.1-2.9 2.7-3.8 3.7-6 5.7-11.6 5.9-16.8.2-8.1-2.9-16.1-8.5-21.9-5.4-5.6-11.7-10.1-20.4-14.6-1.3-.7-2.4-1.3-3.4-1.8-4.6-2.4-4.6-2.4-9.5-2.4h-4.4zM104.6 192.6c-.3 0-.5-.1-.8-.2-1-.4-1.5-1.6-1-2.6 0-.1 3.2-7.7 0-14.5-.5-1 0-2.2 1-2.7s2.2 0 2.7 1c4 8.5.2 17.4 0 17.8-.4.8-1.1 1.2-1.9 1.2" class="st3"/><path d="M147.2 193.6c-.8 0-1.5-.4-1.8-1.2-.2-.4-4-9.3 0-17.8.5-1 1.7-1.4 2.7-1 1 .5 1.4 1.7 1 2.7-3.2 6.9 0 14.5 0 14.5.4 1 0 2.2-1 2.6-.3.2-.6.2-.9.2" class="st3"/></g></svg>