<svg xmlns="http://www.w3.org/2000/svg" xml:space="preserve" id="Camada_1" x="0" y="0" version="1.1" viewBox="0 0 262.2 299"><style>.st1{fill:#52d89b}.st3{fill:#012442}.st4{fill:#fff}.st5{fill:#af4e81}</style><circle cx="131.1" cy="174.6" r="123.3" style="fill:#f9b800"/><path d="m173.3 200.6-42.3 1.1-42.3-1.1c-47 5.9-59.9 43.1-59.9 43.1 39.3 57.9 93.1 54.7 103.1 54.7 8.7 0 70-4.1 102.1-56.7.2 0-13.7-35.2-60.7-41.1" class="st1"/><path d="M49 219.7s23.5 39.7 82.4 39.7 82.4-41.7 82.4-41.7-97-52.3-164.8 2" style="fill:#3cb57c"/><path d="M172.8 197.7h-.3l-42.5 1.1-42.2-1.1h-.6c-49 6.1-59.8 40.5-60.2 41.9-.1.2-.2.6-.3 1 1.7 2.5 3.5 5.1 5.1 7.7q.45-.75.6-1.2c.4-1.3 12.1-35.9 55.5-41.5l42.1 1.1 42.1-1.1c43.5 5.6 55.8 37.1 56.3 38.5.6 1.6 1.7 4.1 1.7 4.3.4-.7 4.7-6.3 5.7-7.3-1.2-3.3-15.6-37.5-63-43.4" class="st3"/><path d="M233.7 117.8c0 58.3-34.4 129.6-103.6 129.6-64.3 0-102.7-69.3-102.7-127.7S71.7 16.1 130 16.1s103.7 43.4 103.7 101.7" class="st1"/><path d="M131 251.5c-27.8 0-56.2-15.5-78-42.4-20.4-25.3-32.7-57.9-32.7-87.2C20.4 61.3 69.6 12.2 130 12.2c60.5 0 109.6 49.2 109.6 109.6 0 29.4-11.8 62-31.6 87.2-21.5 27.4-48.8 42.5-77 42.5m-1-231.3c-56 0-101.6 45.6-101.6 101.6 0 27.5 11.5 58.2 30.9 82.2 20.2 25.1 46.4 39.5 71.8 39.5 55.8 0 100.7-66.5 100.7-121.7-.1-56-45.7-101.6-101.8-101.6" class="st3"/><path d="M112.8 160.1c-8.5 16.8-34.3 9.6-51 1.1-16.8-8.5-23.5-28.9-15.1-45.7s29-23.5 45.8-15c16.7 8.5 28.8 42.9 20.3 59.6M143.9 160.1c8.5 16.8 34.3 9.6 51.1 1.1s23.5-29 15-45.8-29-23.5-45.8-15c-16.8 8.6-28.8 43-20.3 59.7" class="st3"/><circle cx="64.4" cy="120.4" r="9.4" class="st4"/><circle cx="75.4" cy="141.4" r="5.8" class="st4"/><circle cx="193.4" cy="120.4" r="9.4" class="st4"/><circle cx="182.4" cy="141.4" r="5.8" class="st4"/><path d="M154.4 213.3c1.6-1.2 2.9-2.8 3.9-4.5 2.7-4.7 2.4-10.5-.8-14.9-1.1-1.5-2.6-2.7-4.3-3.4-2.5-.6-5.1-.4-7.4.8-2.4 1-10.2 4.1-16.4 4.1s-13.3-3.2-15.6-4.1c-2.3-1.1-4.9-1.4-7.4-.8-1.8.7-3.3 1.8-4.3 3.4-3.2 4.4-3.5 10.2-.8 14.9q1.5 2.55 3.9 4.5c10.1 8.4 24.8 8.4 24.8 8.4 8.8-.1 17.4-3.1 24.4-8.4" class="st4"/><path d="M129.9 225.6c-.8 0-16.3-.1-27.4-9.3-1.9-1.5-3.5-3.4-4.8-5.5-3.5-6.1-3.1-13.7 1-19.3 1.5-2.2 3.7-3.8 6.2-4.8l.4-.1c3.4-.9 6.9-.5 10.1 1l.4.2c2.4 1 8.6 3.6 13.6 3.6 5.3 0 12.5-2.8 14.7-3.8 3.1-1.5 6.7-1.8 10.1-1l.4.1c2.5.9 4.7 2.6 6.2 4.8 4 5.6 4.4 13.2 1 19.2-1.3 2.2-2.9 4.1-4.9 5.6l-.1.1c-7.6 5.9-17.2 9.2-26.9 9.2m-22.3-31.3c-.9.4-1.7 1-2.3 1.8-2.3 3.2-2.5 7.3-.6 10.7.7 1.2 1.7 2.4 2.9 3.4 8.9 7.3 22.2 7.5 22.3 7.5 7.9-.1 15.7-2.7 22.1-7.5 1.2-.9 2.1-2 2.9-3.3 1.9-3.3 1.6-7.5-.6-10.6-.6-.9-1.4-1.5-2.3-1.9-1.5-.3-3.1-.2-4.4.5l-.2.1c-3.1 1.3-11.2 4.4-17.9 4.4-6.6 0-13.7-3-16.7-4.2l-.7-.3c-1.5-.8-3-.9-4.5-.6" class="st3"/><path d="M109 189.4h6v26.1h-6zM120.5 192.7h6v26.1h-6zM134 194.3h6v26.1h-6zM145.6 192.7h6v26.1h-6zM96.2 88.5c-.7 0-1.3-.2-2-.5-6.9-3.9-15.9-4.8-24.7-2.5-2.1.6-4.3-.7-4.9-2.9-.5-2.1.7-4.3 2.9-4.9 10.8-2.8 21.9-1.6 30.6 3.3 1.9 1.1 2.6 3.5 1.5 5.4-.6 1.3-2 2.1-3.4 2.1M161 88.5c-1.4 0-2.8-.7-3.5-2-1.1-1.9-.4-4.4 1.5-5.4 8.6-4.9 19.8-6.1 30.6-3.3 2.1.5 3.4 2.7 2.9 4.9-.5 2.1-2.7 3.4-4.9 2.9-8.8-2.3-17.8-1.3-24.7 2.5-.6.2-1.2.4-1.9.4" class="st3"/><ellipse cx="77" cy="182.7" class="st5" rx="11.8" ry="8.2"/><ellipse cx="182.3" cy="182.7" class="st5" rx="11.8" ry="8.2"/><path d="M175.3 42.5c4-1.3 13-8.9 19.6-7.9 4.2.6 10.8 5.1 12.7 10.7s-4.3 20.9-4.3 20.9" class="st1"/><path d="M203.3 70.3q-.75 0-1.5-.3c-2-.8-3-3.2-2.2-5.2 2.7-6.7 5.1-15.6 4.3-18.1-1.4-4.1-6.7-7.6-9.5-8.1-3.1-.5-8.4 2.6-11.8 4.7-2.3 1.4-4.3 2.5-6 3.1-2.1.7-4.4-.5-5-2.6-.7-2.1.5-4.4 2.6-5 .9-.3 2.7-1.4 4.3-2.3 5-2.9 11.2-6.6 17.1-5.7 5.8.8 13.6 6.4 15.9 13.4 2.2 6.6-2.8 19.8-4.4 23.7-.7 1.4-2.2 2.4-3.8 2.4" class="st3"/><path d="M86.7 44.2c-3.9-1.6-12.2-10-18.8-9.6-4.3.3-11.2 4.1-13.6 9.6s2.5 21.2 2.5 21.2" class="st1"/><path d="M56.7 69.3c-1.7 0-3.3-1.1-3.8-2.8-1.3-4-5.1-17.7-2.3-24 3-6.7 11.2-11.6 17.1-11.9s11.8 3.8 16.5 7.2c1.6 1.1 3.3 2.4 4.2 2.7 2 .8 3 3.2 2.2 5.2s-3.2 3-5.2 2.2c-1.7-.7-3.6-2-5.8-3.6-3.3-2.3-8.3-5.9-11.3-5.7-2.9.2-8.5 3.3-10.2 7.2-1.1 2.4.5 11.5 2.7 18.4.7 2.1-.5 4.4-2.6 5-.7.1-1.1.1-1.5.1" class="st3"/></svg>