<svg xmlns="http://www.w3.org/2000/svg" viewBox="0 0 262.17 298.96"><defs><clipPath id="clip-path"><circle cx="130.19" cy="175.47" r="123.33" style="fill:none"/></clipPath><clipPath id="clip-path-2"><path d="M131.15 298.06a123.37 123.37 0 0 0 108.63-180.91c-1.51-2.86-3.13-25.79-4.86-28.78-21.95-38-60.66-64.12-104.68-64-41.18.19-69.57 17.52-91.86 48.63-1.86 2.59-11.62 35.26-13.28 38a123.35 123.35 0 0 0 106.05 187.06" style="fill:none;clip-rule:evenodd"/></clipPath><style>.cls-5{fill:#012442}.cls-6{fill:#f9d9f6}.cls-11{fill:#fff}.cls-14{fill:#f7c434}</style></defs><g id="Camada_4" data-name="Camada 4"><circle cx="130.7" cy="174.74" r="123.33" style="fill:#39d88c"/><g style="clip-path:url(#clip-path)"><path d="M217.49 301c-12.47 0-23.73-7.85-26.61-19.44-9.28-37.2-33-47.32-34-47.74.38.16.59.23.59.23l19.83-46.57c5.19 1.85 51.15 19.87 66.88 83 3.36 13.45-5.85 26.84-20.56 29.91a29.7 29.7 0 0 1-6.13.61" class="cls-5"/><path d="M218.69 292.94c-8.31 0-15.82-5.24-17.74-13-10.65-42.72-44.16-57.53-44.49-57.67-9.18-3.76-13.29-13.62-9.17-22s14.9-12.15 24.07-8.38c2 .84 50.29 21.24 65.11 80.66 2.23 9-3.91 17.89-13.72 19.94a20 20 0 0 1-4.06.45" class="cls-6"/><path d="M34.9 301.84a29.7 29.7 0 0 1-6.1-.63c-14.71-3.06-23.92-16.45-20.56-29.91 15.76-63.1 65.64-84.74 70.83-86.59l19.82 46.57a44 44 0 0 0-3.35 3.39c-1 .41-24.76 10.53-34 47.74-2.92 11.59-14.18 19.43-26.64 19.43" class="cls-5"/><path d="M33.7 293.77a20.3 20.3 0 0 1-4.07-.42c-9.8-2.05-15.94-11-13.71-19.94C30.73 214 80.8 192.76 82.85 191.92l20.3 26.92.31.27c-1.39.6-41.39 19.06-52 61.7-1.95 7.72-9.46 12.96-17.76 12.96" class="cls-6"/><path id="peito" d="M193.49 301s7.63-85.63-43.82-112.23L93.24 191c-45.06 15.92-42.6 110-42.6 110Z" class="cls-6"/><path d="M36.74 229.36c64.57 58.23 163.52 31.49 182.73 4.84-13.73-24.22-45.93-49-63.87-41.91-9.89-9.68-64.63 3.36-72.5-.25-2.57 1.96-18.1-1.34-46.36 37.32" style="fill:#f2c0f0"/><path d="M63.65 249.7a3.61 3.61 0 0 0-5.33 2.18c-2.79 10.7-5.1 25.23-5.11 44a3.5 3.5 0 0 0 3.64 3.34 3.49 3.49 0 0 0 3.64-3.33c0-18 2.24-32 4.88-42.18a3.6 3.6 0 0 0-1.66-4ZM191.84 249.69a3.61 3.61 0 0 0-1.8 4.08c2.64 10.18 4.84 24.09 4.85 42.16a3.49 3.49 0 0 0 3.64 3.33 3.5 3.5 0 0 0 3.64-3.34c0-18.8-2.31-33.31-5.1-44a3.59 3.59 0 0 0-5.14-2.26Z" class="cls-5"/></g></g><g id="Camada_3" data-name="Camada 3"><path d="M218.79 88.21a111 111 0 0 0-7.33-13.13 66 66 0 0 0-17.19-19.72c-14.6-12.36-33.52-19.65-57.48-20.47-2.51-.15-5-.24-7.62-.24-30.12 0-52.61 9.62-68.81 26.38a64.8 64.8 0 0 0-10 12.38 110 110 0 0 0-8.79 15.67C11.62 159.39 15 217.89 15 217.89 44.79 297 115.1 299.26 130 298.6c2.64.24 85.27 3.27 116.77-80.89-.05 0 2.73-59.53-27.98-129.5" style="fill:#770baa"/><path d="M130.47 124.87c-3.87-6.27-86-48.3-84.2 41.44 1.83 88.8 78.86 107.69 84.06 108.86v.06h.28v-.06c5.2-1.17 82.23-20.06 84.06-108.86 1.85-89.74-80.33-47.71-84.2-41.44" style="fill:#451b63"/><path d="M214.37 155.74c-2.23-20-4.34-31.23-9.89-46.37-8.62-23.49-27.15-38.66-73.73-38.66-45.69 0-69.13 13.32-75.66 40-5.59 22.77-8.87 27.76-9.59 45.08-.89 20.94 16.76 39.7 42.4 49.9l-3 15.58a9.41 9.41 0 0 0 7.44 11l6.81 1.31a9.42 9.42 0 0 0 11-7.45l2.24-11.66a2.22 2.22 0 0 1 2.49-1.77l.73.09a2.24 2.24 0 0 1 2 2.19v12.92a9.41 9.41 0 0 0 9.42 9.34h6.94a9.41 9.41 0 0 0 9.34-9.42l-.05-12.61a2.22 2.22 0 0 1 2-2.21 2.22 2.22 0 0 1 2.43 1.79l2.19 11.38a9.41 9.41 0 0 0 11 7.45l6.81-1.31a9.42 9.42 0 0 0 7.45-11l-2.88-15c26.49-10.31 44.42-29.88 42.11-50.57" style="fill:#fce7d9"/><path d="m140.29 183.64-4.71-14.13a5.38 5.38 0 0 0-10.11 0l-4.79 14.35a5.22 5.22 0 0 0 3.3 6.6 5.13 5.13 0 0 0 3.91-.26 5.53 5.53 0 0 1 5-.11 5.18 5.18 0 0 0 4.66.16 5.38 5.38 0 0 0 2.74-6.61" class="cls-5"/><path d="M130.75 70.71c46.58 0 65.11 15.17 73.73 38.66a151.7 151.7 0 0 1 8.23 33.16 103.4 103.4 0 0 1 2 23.78c-1.83 88.8-78.86 107.69-84.06 108.86v.06h-.28v-.06c-5.2-1.17-82.23-20.06-84.06-108.86v-1.61a35.7 35.7 0 0 1-.76-9c.72-17.32 4-22.31 9.59-45.08 6.53-26.63 30-39.95 75.66-39.95m0-8c-24.19 0-42.6 3.58-56.3 10.94-14.16 7.61-23.29 19.42-27.13 35.11-1.7 6.92-3.17 12.1-4.46 16.68-2.9 10.29-4.82 17.08-5.36 30a43.8 43.8 0 0 0 .77 10.11v1c.45 21.57 5.19 41.05 14.11 57.88a112 112 0 0 0 29.69 35.51 124.7 124.7 0 0 0 45.47 22.86 8 8 0 0 0 2.79.5h.28a8 8 0 0 0 2.79-.5 124.8 124.8 0 0 0 45.47-22.86 112.1 112.1 0 0 0 29.7-35.51c8.91-16.83 13.65-36.31 14.1-57.88a112.8 112.8 0 0 0-2.08-25.36 158.7 158.7 0 0 0-8.6-34.5c-11.14-30.37-36.2-43.91-81.24-43.91Z" class="cls-5"/><path d="M130.75 70.71c46.58 0 65.11 15.17 73.73 38.66 5.55 15.14 7.66 26.37 9.89 46.37 2.31 20.69-15.62 40.23-42.12 50.5l2.88 15a9.42 9.42 0 0 1-7.45 11l-6.81 1.31a9.6 9.6 0 0 1-1.76.16 9.42 9.42 0 0 1-9.22-7.61l-2.19-11.38a2.21 2.21 0 0 0-2.16-1.8h-.31a2.22 2.22 0 0 0-2 2.21l.05 12.61a9.41 9.41 0 0 1-9.34 9.42H127a9.41 9.41 0 0 1-9.38-9.34V214.9a2.24 2.24 0 0 0-2-2.19l-.73-.09a1.5 1.5 0 0 0-.3 0 2.21 2.21 0 0 0-2.19 1.79l-2.24 11.66a9.42 9.42 0 0 1-9.22 7.61 9.6 9.6 0 0 1-1.77-.16l-6.81-1.31a9.41 9.41 0 0 1-7.44-11l3-15.58c-25.64-10.2-43.29-29-42.4-49.9.72-17.32 4-22.31 9.59-45.08 6.53-26.63 30-39.95 75.66-39.95m0-8c-24.19 0-42.6 3.58-56.3 10.94-14.16 7.61-23.29 19.42-27.13 35.11-1.7 6.92-3.17 12.1-4.46 16.68-2.9 10.29-4.82 17.08-5.36 30-.92 21.9 14.77 42.56 41.34 55l-1.79 9.28a17.4 17.4 0 0 0 13.79 20.35l6.81 1.31a17.4 17.4 0 0 0 14.8-4.06 17.43 17.43 0 0 0 14.53 7.87h7.01a17.27 17.27 0 0 0 12.25-5.18 17 17 0 0 0 1.87-2.22 17.4 17.4 0 0 0 11 3.9 17 17 0 0 0 3.27-.31l6.81-1.31A17.4 17.4 0 0 0 183 219.71l-1.65-8.62c27.52-12.65 43.45-34.22 41-56.23-2.17-19.54-4.28-31.74-10.33-48.24-11.14-30.37-36.2-43.91-81.24-43.91Z" class="cls-5"/><ellipse cx="86.48" cy="94.87" class="cls-11" rx="8.19" ry="6.62" transform="rotate(-3.29 86.66 95.014)"/><ellipse cx="105.06" cy="107.09" class="cls-11" rx="5.12" ry="4.14" transform="rotate(-3.29 105.128 107.219)"/><path d="M15 231.89a4 4 0 0 1-4-3.76c-.14-2.43-3.12-70.25 26.85-140.62v-.11A116 116 0 0 1 47 71.24a69 69 0 0 1 10.52-13c17.7-18.28 41.81-27.56 71.65-27.56 2.55 0 5.18.08 7.81.24 23.91.83 44 8 59.82 21.37A70.1 70.1 0 0 1 214.89 73a118 118 0 0 1 7.51 13.48v.11c30.73 70 28.38 138.83 28.26 141.3a4 4 0 0 1-8-.37c0-.59 2.34-69.47-27.57-137.66a108 108 0 0 0-7-12.61L208 77a61.7 61.7 0 0 0-16.2-18.49l-.11-.09c-14.41-12.21-32.92-18.78-55-19.53h-.11c-2.48-.15-5-.23-7.37-.23-27.61 0-49.8 8.47-65.94 25.16l-.08.09a60.6 60.6 0 0 0-9.38 11.61l-.1.14a107 107 0 0 0-8.44 15C16.06 159.22 19 227.09 19 227.66a4 4 0 0 1-3.76 4.23Z" class="cls-5" style="clip-path:url(#clip-path-2)"/><path d="M214.54 158.23c-17.58 13-42.19 21.91-69.94 24.12a9.84 9.84 0 0 1-5.12 12 9.59 9.59 0 0 1-8.7-.3 1.6 1.6 0 0 0-.92.21 9.6 9.6 0 0 1-7.31.48 9.72 9.72 0 0 1-6.14-12.29v-.15C88 179.88 63 170.47 45.48 156.8c-.25 20.51 17.21 38.81 42.42 48.84l-3 15.58a9.41 9.41 0 0 0 7.44 11l6.81 1.31a9.42 9.42 0 0 0 11-7.45l2.24-11.66a2.22 2.22 0 0 1 2.49-1.77l.73.09a2.24 2.24 0 0 1 2 2.19v12.92a9.41 9.41 0 0 0 9.42 9.34h6.94a9.41 9.41 0 0 0 9.34-9.42l-.05-12.61a2.22 2.22 0 0 1 2-2.21 2.22 2.22 0 0 1 2.43 1.79l2.19 11.38a9.41 9.41 0 0 0 11 7.45l6.81-1.31a9.42 9.42 0 0 0 7.45-11l-2.88-15c25.42-9.87 42.95-28.26 42.28-48.03" style="fill:#efc6ab"/><path d="M140.64 151.41c-10.84-5.26-18.87-.36-18.95-.31l-5.47-8.37c.51-.34 12.73-8.12 28.79-.31Z" class="cls-5"/><path d="M100.26 197.17a6.8 6.8 0 0 1-3.18-.79l-21.42-11.26-21.42 11.27a6.9 6.9 0 0 1-3.17.78 6.82 6.82 0 0 1-6.72-8l4.09-23.85-17.33-16.86a6.83 6.83 0 0 1 3.78-11.64l24-3.48 10.71-21.7a6.82 6.82 0 0 1 12.23 0l10.71 21.7 23.94 3.48a6.81 6.81 0 0 1 3.78 11.63l-17.33 16.9L107 189.2a6.82 6.82 0 0 1-6.72 8Z" class="cls-14"/><path d="M75.66 112.34a2.28 2.28 0 0 1 2.08 1.3L89 136.36a2.31 2.31 0 0 0 1.74 1.27l25.09 3.65a2.31 2.31 0 0 1 1.28 3.95l-18.19 17.69a2.34 2.34 0 0 0-.66 2.06l4.28 25a2.32 2.32 0 0 1-2.29 2.71 2.24 2.24 0 0 1-1.07-.27l-22.44-11.81a2.3 2.3 0 0 0-2.16 0L52.15 192.4a2.3 2.3 0 0 1-1.08.27 2.33 2.33 0 0 1-2.29-2.67l4.29-25a2.32 2.32 0 0 0-.67-2.06l-18.15-17.71a2.32 2.32 0 0 1 1.29-3.95l25.08-3.65a2.31 2.31 0 0 0 1.75-1.27l11.21-22.72a2.3 2.3 0 0 1 2.08-1.3m0-9a11.25 11.25 0 0 0-10.15 6.31l-9.66 19.58-21.61 3.14A11.32 11.32 0 0 0 28 151.68l15.6 15.24-3.69 21.52a11.32 11.32 0 0 0 11.16 13.23 11.44 11.44 0 0 0 5.27-1.3l19.32-10.16L95 200.37a11.31 11.31 0 0 0 16.42-11.93l-3.69-21.52 15.63-15.24a11.32 11.32 0 0 0-6.27-19.31l-21.61-3.14-9.66-19.58a11.25 11.25 0 0 0-10.15-6.31Z" class="cls-5"/><path d="m77.74 132.8 5.36 10.86a2.31 2.31 0 0 0 1.75 1.27l12 1.74a2.32 2.32 0 0 1 1.28 4l-8.67 8.45a2.32 2.32 0 0 0-.67 2.06l2 11.94a2.32 2.32 0 0 1-3.37 2.44l-10.72-5.64a2.35 2.35 0 0 0-2.16 0l-10.72 5.64a2.31 2.31 0 0 1-3.36-2.44l2-11.94a2.34 2.34 0 0 0-.66-2.06l-8.68-8.45a2.32 2.32 0 0 1 1.29-4l12-1.74a2.31 2.31 0 0 0 1.74-1.27l5.36-10.86a2.32 2.32 0 0 1 4.23 0" class="cls-5"/><path d="M211.32 196a6.8 6.8 0 0 1-3.17-.79L186.73 184l-21.42 11.26a6.81 6.81 0 0 1-9.89-7.19l4.09-23.85-17.33-16.89a6.81 6.81 0 0 1 3.82-11.65l23.94-3.48 10.71-21.7a6.82 6.82 0 0 1 12.23 0l10.71 21.7 23.95 3.48a6.82 6.82 0 0 1 3.78 11.63L214 164.2l4 23.86a6.82 6.82 0 0 1-6.72 8Z" class="cls-14"/><path d="M186.73 111.2a2.29 2.29 0 0 1 2.08 1.29L200 135.22a2.29 2.29 0 0 0 1.74 1.27l25.08 3.65a2.32 2.32 0 0 1 1.29 4L210 161.78a2.31 2.31 0 0 0-.67 2.05l4.29 25a2.33 2.33 0 0 1-2.29 2.71 2.3 2.3 0 0 1-1.08-.27l-22.43-11.79a2.29 2.29 0 0 0-2.16 0l-22.43 11.79a2.32 2.32 0 0 1-3.37-2.44l4.29-25a2.34 2.34 0 0 0-.67-2.05l-18.15-17.69a2.31 2.31 0 0 1 1.28-4l25.09-3.65a2.31 2.31 0 0 0 1.74-1.27l11.22-22.73a2.28 2.28 0 0 1 2.08-1.29m0-9a11.25 11.25 0 0 0-10.15 6.31l-9.66 19.58-21.61 3.14a11.32 11.32 0 0 0-6.32 19.36l15.63 15.24-3.63 21.51a11.32 11.32 0 0 0 16.42 11.94l19.33-10.16 19.32 10.16a11.44 11.44 0 0 0 5.27 1.3 11.33 11.33 0 0 0 11.16-13.24l-3.69-21.51 15.63-15.24a11.32 11.32 0 0 0-6.27-19.31l-21.61-3.14-9.66-19.58a11.25 11.25 0 0 0-10.15-6.31Z" class="cls-5"/><path d="m187.88 132.8 5.36 10.86a2.31 2.31 0 0 0 1.75 1.27l12 1.74a2.32 2.32 0 0 1 1.28 4l-8.67 8.45a2.32 2.32 0 0 0-.67 2.06l2.07 11.9a2.32 2.32 0 0 1-3.37 2.44l-10.72-5.64a2.35 2.35 0 0 0-2.16 0L174 175.52a2.31 2.31 0 0 1-3.36-2.44l2-11.94a2.34 2.34 0 0 0-.66-2.06l-8.68-8.45a2.32 2.32 0 0 1 1.29-4l12-1.74a2.31 2.31 0 0 0 1.74-1.27l5.36-10.86a2.32 2.32 0 0 1 4.19.04" class="cls-5"/></g></svg>