<svg xmlns="http://www.w3.org/2000/svg" id="Camada_11" data-name="Camada 11" viewBox="0 0 262.17 298.96"><defs><clipPath id="clip-path"><circle cx="131.09" cy="175.63" r="123.33" style="fill:none"/></clipPath><style>.cls-12{fill:none}.cls-2{fill:#e02d5c}.cls-4{fill:#012442}.cls-5{fill:#f4ba37}.cls-6{fill:#f29938}.cls-7{fill:#fff}.cls-9{stroke-miterlimit:10;fill:#4dddff;stroke:#012442}.cls-12,.cls-9{stroke-width:7px}.cls-10{fill:#c12152}.cls-12{stroke-linecap:round;stroke-linejoin:round;stroke:#fff}.cls-14{fill:#f7c434}</style></defs><circle cx="131.09" cy="175.63" r="123.33" class="cls-2"/><g style="clip-path:url(#clip-path)"><path d="M218.38 301.18c-12.47 0-23.72-7.86-26.61-19.44-9.27-37.21-33-47.33-34-47.74a6 6 0 0 0 .59.22l19.83-46.56c5.19 1.84 51.15 19.87 66.88 83 3.36 13.46-5.85 26.85-20.56 29.91a29.7 29.7 0 0 1-6.13.61" class="cls-4"/><path d="M219.58 293.1c-8.31 0-15.81-5.23-17.74-13-10.65-42.71-44.16-57.53-44.49-57.66-9.18-3.77-13.28-13.63-9.17-22s14.9-12.14 24.08-8.38c2 .84 50.29 21.24 65.1 80.66 2.23 9-3.91 17.9-13.71 19.94a20.3 20.3 0 0 1-4.07.44" class="cls-5"/><path d="M35.79 302a30.4 30.4 0 0 1-6.1-.63C15 298.31 5.77 284.92 9.13 271.47c15.73-63.11 65.64-84.74 70.87-86.59l19.82 46.56s-3.73 3.55-3.35 3.39c-1 .41-24.76 10.54-34 47.74C59.51 294.15 48.25 302 35.79 302" class="cls-4"/><path d="M34.59 293.93a19.6 19.6 0 0 1-4.07-.42c-9.8-2-15.94-11-13.71-19.94 14.81-59.42 64.88-80.65 66.93-81.49L104.05 219l.3.28c-1.39.59-41.39 19.06-52 61.69-1.94 7.73-9.45 12.96-17.76 12.96" class="cls-5"/><path id="peito" d="M194.38 301.19S202 215.55 150.56 189l-56.43 2.2c-45.06 15.92-42.59 110.06-42.59 110.06Z" class="cls-5"/><path d="M35.63 232.53c64.57 58.22 165.52 28.48 184.73 1.83-13.73-24.22-45.93-49-63.87-41.9-9.89-9.69-64.63 3.36-72.5-.25-2.57 1.91-26.84 10.89-48.36 40.32" class="cls-6"/><path d="M64.54 249.87a3.6 3.6 0 0 0-5.33 2.13c-2.79 10.7-5.1 25.23-5.11 44a3.49 3.49 0 0 0 3.64 3.33 3.49 3.49 0 0 0 3.64-3.33c0-18 2.24-32 4.89-42.17a3.62 3.62 0 0 0-1.66-4ZM192.74 249.86a3.57 3.57 0 0 0-1.8 4.07c2.63 10.18 4.83 24.09 4.84 42.16a3.49 3.49 0 0 0 3.64 3.33 3.5 3.5 0 0 0 3.65-3.33c0-18.8-2.32-33.32-5.11-44a3.58 3.58 0 0 0-5.14-2.26Z" class="cls-4"/></g><path d="M219.88 85.88c-10.39-24-32.73-43.61-88.89-43.61-55.08 0-83.35 13.62-91.23 40.84-6.76 23.27-14.47 58.44-11.56 98.65 2.33 32.12 47.23 59.29 103.45 59.29s98.43-28.2 100.16-59.29c2.51-45.23-5.23-80.4-11.93-95.88" class="cls-5"/><path d="M131.65 222.29c-55.69 0-103.36-28.2-103.36-77.16a251 251 0 0 0-.09 36.63c2.33 32.12 47.23 59.29 103.45 59.29s98.43-28.2 100.16-59.29a308 308 0 0 0-.1-36.16c0 45.55-44.65 76.69-100.06 76.69M99.14 92.32c9.36 8.14 21 14.73 33.43 14.1 7.74-.4 15.09-3.6 21.69-7.67a84.35 84.35 0 0 0 30.42-32.88c1.28-2.5 2.46-5.45 1.38-8-1.38-3.29-5.54-4.21-9.08-4.67-19.52-2.57-39-5.14-58.61-7.38-10.81-1.27-37.69-5.15-42.21 9.18-4.05 12.78 14.72 30.12 22.98 37.32" class="cls-6"/><circle cx="199.44" cy="173.72" r="12.5" class="cls-6"/><rect width="39.67" height="58.71" x="51.22" y="100.47" class="cls-4" rx="19.84"/><circle cx="71" cy="117.32" r="9.1" class="cls-7"/><rect width="39.67" height="58.71" x="170.17" y="97.06" class="cls-4" rx="19.84"/><circle cx="189.96" cy="113.91" r="9.1" class="cls-7"/><path d="M219.88 85.88c-10.39-24-32.73-43.61-88.89-43.61-55.08 0-83.35 13.62-91.23 40.84-6.76 23.27-14.47 58.44-11.56 98.65 2.33 32.12 47.23 59.29 103.45 59.29s98.43-28.2 100.16-59.29c2.51-45.23-5.23-80.4-11.93-95.88Z" style="fill:none;stroke:#032442;stroke-miterlimit:10;stroke-width:8px"/><path d="M13.53 143h85.78s-3.88 28.31-31.6 34.77c-14.31 3.28-50.59 5.45-54.18-34.77Z" class="cls-9"/><path d="M58.54 146.61 49 169.39s11.88 1.64 21.6-2l8.08-20.75Z" class="cls-7"/><path d="M163.82 142.24h85.78S245.73 170.55 218 177c-14.31 3.34-50.59 5.51-54.18-34.76Z" class="cls-9"/><path d="m208.83 145.9-9.51 22.78s11.87 1.64 21.59-2L229 145.9Z" class="cls-7"/><path d="M172.54 34c-1.88-6.12-6.94-9.68-11.76-9.46s-9.34 3.69-12.81 8.32c-.63-8.89-4.8-17.16-10.63-21.08a15 15 0 0 0-7.77-2.57 14.8 14.8 0 0 0-10 2.49c-5.83 3.92-10 12.19-10.63 21.08-3.47-4.63-8-8.1-12.8-8.32s-9.89 3.34-11.77 9.46S84 47 86.23 52.88C93 71.09 123 87 128.7 85.93c5.44 1 35.21-14.76 42-33 2.21-5.82 3.7-12.85 1.84-18.93" class="cls-2"/><path d="M127.73 63.07c-15.63.9-29.47-7.51-39-19.36-1.76-2.18-3.43-4.36-5-6.6-.66 5.25.67 10.91 2.49 15.77C93 71.09 123 87 128.7 85.93c5.44 1 35.21-14.76 42-33 1.93-5.14 3.31-11.17 2.36-16.67C161.79 51 146.09 62 127.73 63.07" class="cls-10"/><path d="M172.54 34c-1.88-6.12-6.94-9.68-11.76-9.46s-9.34 3.69-12.81 8.32c-.63-8.89-4.8-17.16-10.63-21.08a15 15 0 0 0-7.77-2.57 14.8 14.8 0 0 0-10 2.49c-5.83 3.92-10 12.19-10.63 21.08-3.47-4.63-8-8.1-12.8-8.32s-9.89 3.34-11.77 9.46S84 47 86.23 52.88C93 71.09 123 87 128.7 85.93c5.44 1 35.21-14.76 42-33 2.21-5.82 3.7-12.85 1.84-18.93" style="fill:none;stroke-width:8px;stroke:#012442;stroke-linecap:round;stroke-linejoin:round"/><path d="M131 23.4a31.74 31.74 0 0 1 4.58 17.22" class="cls-12"/><path d="M115.3 181c-11.6 18.45-28.6 36.76-31.65 58.84-.08 19.17 26 26.9 41.52 17a17.1 17.1 0 0 1 17.86-.2c15.68 9.2 39.61 5.56 37.37-15.3-3-22.88-17.47-43.15-31.66-60.71-6.02-8.93-27.54-7.21-33.44.37" class="cls-2"/><path d="M138.49 177.87a206 206 0 0 0-20.91 8c-5 7.83-9.87 15.91-15.69 23 5.86 8.57 15.22 15.27 30.18 15.27s24.47-7.47 30.32-17c-1.43-1.83-2.94-3.61-4.46-5.42-6.61-7.94-12.37-16.34-19.44-23.85" class="cls-10"/><path d="M115.31 181a389 389 0 0 0-25 39.09c-3.43 6.15-6.78 12.73-6.68 19.77.17 12 10.91 22 22.65 24.62 7.62 1.7 16.48-2.47 22.32-8.67a7.06 7.06 0 0 1 10.32.13c4.19 4.51 9.53 8.29 14.77 8.82 6.91.69 14.4-.4 19.65-4.95s7.31-11.65 7-18.45-2.7-13.34-5.47-19.56a167 167 0 0 0-26.2-41.15 17.3 17.3 0 0 0-4.77-4.25c-4.18-2.22-9.66-1-13.55-1.59a15.77 15.77 0 0 0-15.04 6.19Z" style="fill:none;stroke-miterlimit:10;stroke-width:8px;stroke:#012442"/><path d="M99.53 156.94a41.5 41.5 0 0 0-1.06 9.35c0 20.34 14.63 36.82 32.67 36.82s32.68-16.48 32.68-36.82a41 41 0 0 0-1.07-9.35Z" class="cls-14"/><path d="M156.55 249.73c6.33-2.67 7.56-9.43 6.69-15.6" class="cls-12"/><path d="M162.75 156.94a41 41 0 0 1 1.07 9.35c0 20.34-14.63 36.82-32.68 36.82s-32.67-16.48-32.67-36.82a41.5 41.5 0 0 1 1.06-9.35zm5.56-7H94l-1.26 5.41a49 49 0 0 0-1.24 10.94c0 24.16 17.79 43.82 39.67 43.82s39.68-19.66 39.68-43.82a48.4 48.4 0 0 0-1.25-10.94l-1.26-5.41Z" class="cls-4"/><path d="M131 184.27a9.73 9.73 0 0 1-7.74-3.79l-9.17-11.84a2.87 2.87 0 0 0-1.51-1l-9-2.31a9.71 9.71 0 0 1-6.42-5.08 12 12 0 0 1-.07-9.95c3.63-8.77 17.16-25.15 33.41-25.15 12.57 0 24.19 8.17 34.51 24.3a10.86 10.86 0 0 1 1 9.94 10 10 0 0 1-7.19 6l-10 2.28a2.84 2.84 0 0 0-1.65 1.09L139 180.21a9.81 9.81 0 0 1-8 4.06" class="cls-14"/><path d="M130.51 128.65c14.38 0 25 12.42 31.57 22.69 2.69 4.2.87 9.53-4 10.64l-10 2.28a6.3 6.3 0 0 0-3.7 2.46l-8.26 11.44a6.29 6.29 0 0 1-10.08.17l-9.17-11.83a6.25 6.25 0 0 0-3.41-2.24l-9-2.32c-4.58-1.17-5.93-5.93-4.13-10.3 3.09-7.45 15.55-23 30.18-23m0-7c-8.17 0-16.5 3.63-24.11 10.51-6.57 5.95-10.78 12.58-12.53 16.85a15.47 15.47 0 0 0 .13 12.81 13.15 13.15 0 0 0 8.68 6.91l8.82 2.28 9 11.64a13.19 13.19 0 0 0 10.5 5.15 13.33 13.33 0 0 0 10.78-5.51l8.14-11.28 9.72-2.22a13.52 13.52 0 0 0 9.66-8.1 14.37 14.37 0 0 0-1.3-13.12c-11-17.19-23.61-25.91-37.46-25.91Z" class="cls-4"/><path d="M136.48 139.56c2.6 0 11.2 7.3 14.17 13.13" class="cls-12"/></svg>