<svg xmlns="http://www.w3.org/2000/svg" id="Camada_5" data-name="Camada 5" viewBox="0 0 262.17 298.96"><defs><clipPath id="clip-path"><path d="M254.47 91a123.33 123.33 0 0 0-246.66.91c.06 14.54 0 68.92 0 83.79a123.33 123.33 0 0 0 246.66-.91c-.06-14.59.05-68.97 0-83.79" style="fill:none;clip-rule:evenodd"/></clipPath><style>.cls-9{fill:none}.cls-2{fill:#e02d5c}.cls-4{fill:#3ec63e}.cls-5{fill:#012442}.cls-6,.cls-8{fill:#fff;stroke-miterlimit:10}.cls-6,.cls-8,.cls-9{stroke:#012442}.cls-6{stroke-width:4px}.cls-8{stroke-width:7px}.cls-9{stroke-linecap:round;stroke-linejoin:round;stroke-width:6px}.cls-10{fill:#17a535}.cls-14{fill:#f7c434}</style></defs><circle cx="131.01" cy="174.75" r="123.33" class="cls-2"/><g style="clip-path:url(#clip-path)"><path d="M134.24 335.09c-26.06 0-52-5.32-73.1-15-20.42-9.34-34.54-21.8-39.79-35.09-6.54-16.57-.17-62.78 1.93-76.55 4.34-28.33 11.92-61.78 19.08-72.64 16.15-24.53 42.58-34.53 91.23-34.53 57.59 0 77.29 18.61 89 36.81 10.43 16.24 24 72.25 21.55 145.9-.93 27.24-52.28 51.1-109.9 51.1" class="cls-4"/><path d="M133.59 104.32c54.62 0 74.38 16.62 86.45 35.43 9.66 15 23.53 70.68 21.08 144.18-.86 25.63-52.2 48.16-106.88 48.16S34 308.91 24.14 283.93c-9.42-23.83 8.14-127.32 20.72-146.43 13.41-20.36 35.15-33.18 88.73-33.18m0-6c-26.32 0-46.52 3.08-61.73 9.42a67.86 67.86 0 0 0-32 26.46c-3.41 5.18-7 15.07-10.67 29.4-3.3 12.86-6.44 28.64-8.86 44.43a417 417 0 0 0-4.68 45.42c-.6 15.5.36 26.19 2.92 32.69 5.53 14 20.21 27 41.33 36.7 21.46 9.84 47.86 15.25 74.35 15.25 27 0 54.75-5.46 76.07-15 23.24-10.38 36.31-24.22 36.81-39 2.48-74.3-11.39-131-22-147.62-12.12-18.89-32.47-38.19-91.5-38.19Z" class="cls-5"/><path d="M135.43 217.08c-29.32 0-56.57-9.85-67.81-24.5l-.12-.17c-5.11-7.71-6.61-17.9-4.11-27.94 2.41-9.73 8.3-17.76 16.13-22a20.2 20.2 0 0 1 9.32-2.08c5.51 0 11.38 1.62 18.17 3.49 8.11 2.24 17.31 4.77 27.52 4.77 8 0 15.14-2.13 22-4.19 6-1.82 11.74-3.53 17.43-3.53a23.7 23.7 0 0 1 14.16 4.51c8.79 6.22 13.61 13.88 14.33 22.78.32 3.94.25 17.88-14 31.88-10.95 10.78-30.29 16.98-53.02 16.98" class="cls-5"/><path d="M88.84 143.36c11.63 0 26.75 8.26 45.69 8.26 15.71 0 28-7.72 39.43-7.72a20.75 20.75 0 0 1 12.43 4c22.67 16 11.54 38.7 0 50.07-11.35 11.17-30.85 16.15-50.95 16.15-26.59 0-54.22-8.71-65.43-23.33-9.48-14.3-4.36-37.33 11-45.68a17.2 17.2 0 0 1 7.88-1.71m0-6a23 23 0 0 0-10.57 2.35l-.18.09c-8.58 4.67-15 13.4-17.61 23.95-2.7 10.85-1 21.91 4.52 30.32l.24.34c13.6 17.73 45.05 25.67 70.19 25.67 23.86 0 43.45-6.35 55.15-17.87 3.84-3.77 16.23-17.39 14.86-34.26-.55-6.75-3.69-16.57-15.58-25A26.73 26.73 0 0 0 174 137.9c-6.14 0-12 1.77-18.3 3.65-6.65 2-13.53 4.07-21.13 4.07-9.81 0-18.79-2.47-26.72-4.66-6.71-1.85-13-3.6-19-3.6Z" class="cls-5"/><path d="M162.32 148.86c1.23 17.17 6.36 19.08 12.84 19.37 5.87.26 12-2 14.12-11.75 1.53-7-5.72-11.8-12.85-11.4-6.55.37-9.59.68-14.11 3.78ZM79.17 145.32c-2.74 1.69-4.74 4.33-4.27 7.51 1.83 12.46 6.53 14 12.3 14.26 7 .31 13.68-2.32 15.09-18.48.23-2.68-7-5.61-12.18-5.61-5.74 0-7.77.36-10.94 2.32Z" class="cls-6"/><path d="M44.86 149.27C58.27 128.92 80 116.1 133.59 116.1c54.62 0 74.38 16.62 86.45 35.42 8.63 13.44 20.6 59.25 21.32 121.22.79-67.92-12.15-118.72-21.32-133-12.07-18.81-31.83-35.43-86.45-35.43-53.58 0-75.32 12.82-88.73 33.18-10.6 16.09-24.72 92-23.29 129.82 1.24-39.97 13.71-103.48 23.29-118.04" style="fill:#7ced7c"/><path d="M103.4 152.29c1.23 17.18 6.36 19.08 12.84 19.37 7 .31 13.68-2.32 15.09-18.48.23-2.68-9.5-4.94-12.18-4.77-8.05.53-8.78-.01-15.75 3.88ZM133.28 152.29c1.23 17.18 6.36 19.08 12.84 19.37 7 .31 13.68-2.32 15.09-18.48.23-2.68-9.5-4.94-12.19-4.77-8.02.53-8.77-.01-15.74 3.88Z" class="cls-6"/><path d="M49 103.37a74 74 0 0 1 9.91 13.37c4.63 8 4.56 10.54 5.13 16.5a135 135 0 0 1 22-7c-4.17-10.13-6.6-17.92-3.73-31a17.8 17.8 0 0 1 3.84-7.73 37.44 37.44 0 0 0 9-24.32c0-21.18-17.79-38.36-39.73-38.36S15.7 42 15.7 63.2c0 17 11.5 31.47 27.42 36.47a13.7 13.7 0 0 1 5.88 3.7" class="cls-4"/><ellipse cx="55.05" cy="64.84" class="cls-8" rx="25.65" ry="24.93"/><path id="olho" d="M44.51 65.49a10 10 0 0 0 11 8.74 9.86 9.86 0 0 0 9-10.73 10 10 0 0 0-11-8.73 9.85 9.85 0 0 0-9 10.72" class="cls-5"/><path d="M86.66 124.67c-6.39-14.62-6.39-29.6 4.32-43.52 1.07-2.14 2.14-5.35 3.21-7.5 4.28-11.77 0-24.62-7.49-34.25a41.43 41.43 0 0 0-46-10.71C27.82 34 18.18 44.75 16 58.67c-2.1 12.84 3.25 25.69 12.89 34.25a45.7 45.7 0 0 0 8.56 6.43c12.62 6.16 23.55 17.13 26.16 32.2" class="cls-9"/><circle cx="51.88" cy="221.53" r="11.46" class="cls-10"/><circle cx="91.7" cy="269.19" r="7.89" class="cls-10"/><circle cx="51.95" cy="256.9" r="5.15" class="cls-10"/><circle cx="219.95" cy="191.44" r="5.15" class="cls-10"/><path d="M180 98.46c2.36 10.78.32 18-3.14 25.81a74.4 74.4 0 0 1 14 6c2.29 1.28 4.5 2.69 6.66 4.18a47.9 47.9 0 0 1 5.9-14.54 74.8 74.8 0 0 1 9.9-13.37 13.8 13.8 0 0 1 5.89-3.7c15.91-5 27.42-19.43 27.42-36.47 0-21.18-17.79-38.36-39.74-38.36s-39.74 17.18-39.74 38.36a37.4 37.4 0 0 0 9 24.33 17.75 17.75 0 0 1 3.85 7.76" class="cls-4"/><ellipse cx="207.31" cy="68.06" class="cls-8" rx="25.65" ry="24.93"/><path d="M178.23 122.49c3.75-7.08 3.75-16.72 1.61-24.21-4.28-8.57-10.71-16.06-11.78-25.7s-.87-22.9 12.85-34.25c7.6-6.3 16.06-8.57 24.62-9.64a42.87 42.87 0 0 1 31.05 12.85c15 17.13 13.92 43.89-5.35 55.67-15 9.63-31 17.13-34.17 34.28" class="cls-9"/><path d="M133.59 242.7a119.6 119.6 0 0 1-22.31-2.08c-19.89-3.76-32.14-11.2-32.65-11.52a3.75 3.75 0 0 1 3.93-6.38c.46.28 46.83 27.92 104.12-.17a3.75 3.75 0 1 1 3.3 6.73 127.3 127.3 0 0 1-56.39 13.42" style="fill:#2ca32c"/><path id="olho-2" d="M198.65 68.71a10 10 0 0 0 11 8.73 9.85 9.85 0 0 0 9-10.72 10 10 0 0 0-11-8.74 9.87 9.87 0 0 0-9 10.73" class="cls-5" data-name="olho"/><path d="M160.33 179.56a5.09 5.09 0 0 0-2.88-5.85c-5.08-2.28-11.7 3.64-14.71 4.61-9.58 3.48-15.91.86-21.37-2.13-3.18-1.74-6-3.29-9.17-3.38a4.27 4.27 0 0 0-4.35 3.46c-.73 4.54 2.85 11.16 5.07 13.6 7.94 8.51 19.58 12 29.65 8.93 8.6-2.61 16.18-9.38 17.76-19.24" class="cls-2"/><path d="m137.47 186.37.6-.08a1.5 1.5 0 0 0-.6.08M129.78 186.37a1.6 1.6 0 0 0-.61-.08ZM159.91 193.12a27 27 0 0 1-15.78 12.58 30.8 30.8 0 0 1-9 1.33A36.1 36.1 0 0 1 109 195.3a20 20 0 0 1-1.64-2.11c-4.3 6.36-13.56 9.48-22 9.07 28.25 15.83 68.43 15.83 96.69 0-8.58.37-17.85-2.76-22.14-9.14" class="cls-2"/><path d="M79.17 145.32c-2.74 1.69-4.74 4.33-4.27 7.51 1.83 12.46 6.53 14 12.3 14.26 7 .31 13.68-2.32 15.09-18.48.23-2.68-7-5.61-12.18-5.61-5.74 0-7.77.36-10.94 2.32Z" class="cls-6"/><path d="M112.2 178.16c3.16.09 6 1.64 9.17 3.38a30 30 0 0 0 8.41 3.35 21 21 0 0 0 3.43.43 22 22 0 0 0 4.22-.25 28.4 28.4 0 0 0 5.31-1.4c3-1 9.63-6.88 14.71-4.6a4.87 4.87 0 0 1 2.48 2.42c.16-.63.3-1.27.4-1.93a5.09 5.09 0 0 0-2.88-5.85c-5.08-2.28-11.7 3.64-14.71 4.61-9.58 3.48-15.91.86-21.37-2.13-3.18-1.74-6-3.29-9.17-3.38a4.27 4.27 0 0 0-4.35 3.46 11 11 0 0 0 .33 4.33 4.31 4.31 0 0 1 4.02-2.44" style="fill:#f45687"/><path d="m91.59 104.62 39.84-69.13 40.49 69.93s-36.92 21.01-80.33-.8" style="fill:#662483"/><path d="m117.1 62.51-6.55 11.38a60.75 60.75 0 0 0 36.63-4.8l-5.61-9.68a44.27 44.27 0 0 1-24.47 3.1M98.28 90.88l-4.93 10.68c17.2 6.54 59.81 6.54 69.89-13.26l-4.7-8.13C141.09 92.48 118 97.57 98.28 90.88" class="cls-14"/><path d="m91.59 104.62 39.84-69.13 40.49 69.93s-36.92 21.01-80.33-.8" class="cls-9"/><path d="M132.38 51.05a6.23 6.23 0 0 1-5.92-4.18.27.27 0 0 0-.27-.18.2.2 0 0 0-.11 0 6.2 6.2 0 0 1-2.72.62 6.36 6.36 0 0 1-5.31-2.95 6.24 6.24 0 0 1-.35-6 .24.24 0 0 0 0-.23.27.27 0 0 0-.17-.15 6.29 6.29 0 0 1 0-11.84.3.3 0 0 0 .17-.16.24.24 0 0 0 0-.23 6.22 6.22 0 0 1 .35-6 6.25 6.25 0 0 1 8-2.34.3.3 0 0 0 .12 0 .28.28 0 0 0 .26-.19 6.28 6.28 0 0 1 11.84 0 .3.3 0 0 0 .27.19.3.3 0 0 0 .12 0 6.24 6.24 0 0 1 8 2.34 6.22 6.22 0 0 1 .35 6 .3.3 0 0 0 0 .23.3.3 0 0 0 .17.16 6.28 6.28 0 0 1 0 11.84.27.27 0 0 0-.17.15.3.3 0 0 0 0 .23 6.24 6.24 0 0 1-.35 6 6.34 6.34 0 0 1-5.31 2.95 6.2 6.2 0 0 1-2.71-.62.25.25 0 0 0-.12 0 .28.28 0 0 0-.27.18 6.21 6.21 0 0 1-5.87 4.18" class="cls-14"/><path d="M132.38 16a3.24 3.24 0 0 1 3.1 2.18 3.28 3.28 0 0 0 3.09 2.19 3.4 3.4 0 0 0 1.41-.32 3.27 3.27 0 0 1 4.37 4.37 3.28 3.28 0 0 0 1.87 4.5 3.29 3.29 0 0 1 0 6.19 3.28 3.28 0 0 0-1.87 4.5A3.27 3.27 0 0 1 140 44a3.4 3.4 0 0 0-1.41-.31 3.27 3.27 0 0 0-3.09 2.18 3.29 3.29 0 0 1-6.19 0 3.27 3.27 0 0 0-3.1-2.18 3.3 3.3 0 0 0-1.4.31 3.27 3.27 0 0 1-4.38-4.37 3.28 3.28 0 0 0-1.86-4.5 3.29 3.29 0 0 1 0-6.19 3.28 3.28 0 0 0 1.86-4.5 3.27 3.27 0 0 1 4.38-4.37 3.3 3.3 0 0 0 1.4.32 3.28 3.28 0 0 0 3.1-2.19 3.24 3.24 0 0 1 3.07-2.2m0-6a9.18 9.18 0 0 0-7.53 3.84 9.25 9.25 0 0 0-9.33 4.23 9.16 9.16 0 0 0-1.31 6.41 9.31 9.31 0 0 0 0 15.07 9.3 9.3 0 0 0 9.15 10.76 9 9 0 0 0 1.49-.12 9.3 9.3 0 0 0 15.06 0 9.29 9.29 0 0 0 10.65-10.64 9.31 9.31 0 0 0 0-15.07 9.28 9.28 0 0 0-10.65-10.64 9.16 9.16 0 0 0-7.53-3.84" class="cls-5"/></g></svg>