<svg xmlns="http://www.w3.org/2000/svg" xmlns:xlink="http://www.w3.org/1999/xlink" xml:space="preserve" id="Camada_1" x="0" y="0" version="1.1" viewBox="0 0 262.2 299"><style>.st2{fill:#012442}.st3{fill:#f9d9f6}.st7{fill:#af1545}.st9{fill:#fff}</style><g id="Camada_4"><circle cx="130.7" cy="174.7" r="123.3" style="fill:#2ecc56"/><defs><circle id="SVGID_1_" cx="130.2" cy="175.5" r="123.3"/></defs><clipPath id="SVGID_2_"><use xlink:href="#SVGID_1_" style="overflow:visible"/></clipPath><g style="clip-path:url(#SVGID_2_)"><path d="M217.5 301c-12.5 0-23.7-7.9-26.6-19.4-9.3-37.2-33-47.3-34-47.7.4.2.6.2.6.2l19.8-46.6c5.2 1.9 51.2 19.9 66.9 83 3.4 13.5-5.9 26.8-20.6 29.9-2 .4-4.1.6-6.1.6" class="st2"/><path d="M218.7 292.9c-8.3 0-15.8-5.2-17.7-13-10.6-42.7-44.2-57.5-44.5-57.7-9.2-3.8-13.3-13.6-9.2-22s14.9-12.1 24.1-8.4c2 .8 50.3 21.2 65.1 80.7 2.2 9-3.9 17.9-13.7 19.9-1.4.4-2.7.5-4.1.5" class="st3"/><path d="M34.9 301.8c-2 0-4.1-.2-6.1-.6-14.7-3.1-23.9-16.4-20.6-29.9C24 208.2 73.8 186.6 79 184.7l19.8 46.6c-1.2 1.1-2.3 2.2-3.3 3.4-1 .4-24.8 10.5-34 47.7-2.9 11.6-14.1 19.4-26.6 19.4" class="st2"/><path d="M33.7 293.8c-1.4 0-2.7-.1-4.1-.4-9.8-2-15.9-11-13.7-19.9 14.8-59.4 64.9-80.6 66.9-81.5l20.3 26.9.3.3c-1.4.6-41.4 19.1-52 61.7-1.9 7.6-9.4 12.9-17.7 12.9" class="st3"/><path id="peito" d="M193.5 301s7.6-85.6-43.8-112.2L93.2 191c-45.1 15.9-42.6 110-42.6 110z" class="st3"/><path d="M36.7 229.4c64.6 58.2 163.5 31.5 182.7 4.8-13.7-24.2-45.9-49-63.9-41.9-9.9-9.7-64.6 3.4-72.5-.2-2.5 1.9-18-1.4-46.3 37.3" style="fill:#f2c0f0"/><path d="M63.7 249.7c-1.7-1-3.9-.5-4.9 1.3-.2.3-.3.6-.4.9-2.8 10.7-5.1 25.2-5.1 44 .1 1.9 1.7 3.4 3.6 3.3 1.9.1 3.6-1.4 3.6-3.3 0-18 2.2-32 4.9-42.2.4-1.5-.3-3.2-1.7-4M191.8 249.7c-1.5.8-2.2 2.5-1.8 4.1 2.6 10.2 4.8 24.1 4.9 42.2.1 1.9 1.7 3.4 3.6 3.3 1.9.1 3.6-1.4 3.6-3.3 0-18.8-2.3-33.3-5.1-44-.5-1.9-2.5-3.1-4.4-2.6-.2 0-.4.1-.8.3" class="st2"/></g></g><g id="Camada_3"><path d="M216.4 72.8c-9.8-27.4-31-49.8-84.1-49.8-52.2 0-78.9 15.6-86.4 46.7-6.4 26.6-13.7 66.7-11 112.6 2.3 36.7 44.8 67.7 98 67.7s93.2-32.2 94.8-67.7c2.4-51.7-5-91.8-11.3-109.5" class="st3"/><path d="M216.4 72.8c-9.8-27.4-31-49.8-84.1-49.8-52.2 0-78.9 15.6-86.4 46.7-6.4 26.6-13.7 66.7-11 112.6 2.3 36.7 44.8 67.7 98 67.7s93.2-32.2 94.8-67.7c2.4-51.7-5-91.8-11.3-109.5z" style="fill:none;stroke:#012442;stroke-width:8;stroke-miterlimit:10"/><path d="M190.5 28.4C173 20.6 139 17.2 131.3 18.1c-7.7-1-41.7 4.3-59.1 12.1 0 0-58.4 34.9-55.9 110.1 0 0-5.5 22.3 30.3 23.5 25.4.8 144.2.8 169.6 0 35.7-1.1 30.3-23.5 30.3-23.5-4.1-75.9-56-111.9-56-111.9" style="fill:#e02d5c"/><path d="M244.7 123.8c-3.1 5.8-10.6 11.7-28.6 12.2-25.4.8-144.2.8-169.6 0-20.4-.6-27.4-8.2-29.6-14.5-.7 6.3-.9 12.6-.7 18.9 0 0-5.5 22.3 30.3 23.5 25.4.8 144.2.8 169.6 0 35.7-1.1 30.3-23.5 30.3-23.5-.3-5.8-.9-11.3-1.7-16.6" class="st7"/><defs><path id="SVGID_3_" d="M174.7 26.5c-17.4-7.9-35.7-10.4-43.4-9.4-7.7-1-38 5.2-55.4 13.1 0 0-55.7 33.4-59.6 110 0 0-5.5 22.5 30.3 23.6 25.4.8 144.2.8 169.6 0 35.7-1.1 30.3-23.6 30.3-23.6-4.2-87.8-71.8-113.7-71.8-113.7"/></defs><clipPath id="SVGID_4_"><use xlink:href="#SVGID_3_" style="overflow:visible"/></clipPath><g style="clip-path:url(#SVGID_4_)"><ellipse cx="59.7" cy="76.9" class="st9" rx="33.3" ry="37.7"/><ellipse cx="144.2" cy="151.2" class="st9" rx="47" ry="53.3"/><ellipse cx="198" cy="23" class="st9" rx="47" ry="53.3"/><path d="M98.9 136.8q-1.8 7.05-1.8 14.4c0 29.4 21 53.3 47 53.3s47-23.9 47-53.3c0-4.8-.6-9.7-1.8-14.4z" style="fill:#e3fafc"/></g><path d="M131.3 18.1c59.9 0 111.1 46.2 115 122.2 0 0 5.5 22.3-30.3 23.5-12.7.4-48.7.6-84.8.6s-72.1-.2-84.8-.6c-35.8-1.1-30.3-23.5-30.3-23.5C20.2 64.4 69.3 18.1 131.3 18.1m0-8.6c-16.1-.1-32 3-46.9 9.1-14.5 6-27.7 14.9-38.6 26.2-22.8 23.4-36 56.1-38.1 94.5-1.2 7 .6 14.1 4.8 19.7 6.4 8.4 17.7 12.9 33.7 13.4 11.6.4 45.1.6 85.1.6s73.4-.2 85.1-.6c16-.5 27.4-5 33.7-13.4 4.2-5.6 6-12.8 4.8-19.7-2.1-38.2-15.6-70.9-39-94.6-22.3-22.6-52.8-35.3-84.6-35.2" class="st2"/><g id="boca"><path d="M131.6 231.3c9.1 0 16.7-7.7 18.7-18 .6-2.9-1.3-5.7-3.7-5.7l-30.1.1c-2.4 0-4.3 2.8-3.7 5.7 2.1 10.4 9.7 18 18.8 17.9" class="st2"/><path d="M150 214.7c.4-1.5.6-3.1.8-4.6.1-1.9-1.1-3.5-2.6-3.5l-33.2.1c-1.5 0-2.8 1.6-2.6 3.5.1 1.6.4 3.1.8 4.6z" class="st9"/><path d="M132.4 231.4c-8.9 0-12.6-5.4-12.6-5.4 3.6-2.9 8-4.4 12.6-4.3 4.4 0 9.3 1.2 12.2 3.2 0 0-3.3 6.5-12.2 6.5" style="fill:#ef5b70"/></g><path d="M148.1 206.6c1.5 0 2.8 1.6 2.6 3.5-1 5.6-3.2 10.8-6.6 15.4-2.7 3.8-7.1 6-11.8 5.9-1.5 0-6.7-.4-9.7-2.7-4.6-3.4-8-8.2-9.5-13.8-.4-1.5-.7-3-.8-4.6 0-1.9 1.1-3.5 2.6-3.5zm.1-5.8-33.2.2c-4.1 0-7.3 4.1-7.3 9.2.1 2.2.4 4.4 1 6.5 1.8 6.7 5.9 12.7 11.5 16.9 4.6 3.6 11.9 3.6 12.2 3.6 6.2.1 12-2.9 15.4-7.9 5.7-8.2 7.4-16.2 7.6-18.6s-.4-4.9-1.9-6.9a6.79 6.79 0 0 0-5.3-3" class="st2"/><ellipse cx="192.8" cy="71.7" class="st7" rx="18" ry="30.7" transform="rotate(-71.471 192.787 71.654)"/><path d="M184.3 52c5.2 0 10.3.9 15.2 2.6 16.1 5.4 26.6 17.4 23.4 26.8-2.1 6.3-9.9 9.9-19.6 9.9-5.2 0-10.3-.9-15.2-2.6-16.1-5.4-26.6-17.4-23.4-26.8 2.1-6.4 9.9-9.9 19.6-9.9m0-6c-12.7 0-22.4 5.4-25.3 14-4.3 12.8 7.7 27.9 27.2 34.4 5.5 1.9 11.3 2.9 17.1 2.9 12.7 0 22.4-5.4 25.3-14 4.3-12.8-7.7-27.9-27.2-34.4-5.5-1.9-11.3-2.9-17.1-2.9" class="st2"/><path d="M202.6 94c-4.3-.1-8.5-.5-12.7-1.3-7.1-1.2-17.2-5.4-22.4-13.1-3.7-5.4-.8-8.2 2.2-10.4.7-.5 1.4-1.1 2.1-1.7 2.8-2.8 5-6.1 6.5-9.8 2.6-6.3 3.5-13.3 4-20l.1-.6c.6-7.4 1.3-15.8 6.6-21.9 4.6-5.3 12.1-8.3 20.6-8.3.9 0 1.8 0 2.7.1 8.3.7 14.5 5.4 16.7 8.5 4.5 6.4 7.1 14.7 7.5 24.1.4 8.6-1.1 17.1-2.5 24.4-1.9 9.8-5 20.6-14 25.6-4.1 2.3-8.6 3.8-13.3 4.3-1.3.1-2.7.1-4.1.1" style="fill:#3ec63e"/><path d="M209.5 9.8c.8 0 1.7 0 2.5.1 7.1.6 12.7 4.8 14.5 7.3 4.6 6.5 6.6 14.5 6.9 22.5s-.9 15.9-2.4 23.7c-1.7 9-4.4 19.1-12.5 23.5-3.7 2.1-7.8 3.5-12.1 4-1.3.1-2.6.2-3.9.2-4.1-.1-8.2-.5-12.2-1.3-7.3-1.3-16.1-5.5-20.5-11.8-3.1-4.6.6-5.1 3.9-8.3 3.1-3.1 5.6-6.8 7.2-10.8 2.7-6.6 3.6-13.8 4.2-20.9.6-7.3 1.1-15.3 6-20.9 4.6-5.1 11.7-7.3 18.4-7.3m.1-6c-9.4 0-17.7 3.4-22.9 9.4-6 6.9-6.7 15.8-7.4 23.7v.6c-.5 6.4-1.4 13.2-3.8 19.1-1.3 3.3-3.3 6.3-5.8 8.8l-1.8 1.5c-1.9 1.2-3.5 3-4.5 5.1-1.2 2.9-.6 6.1 1.6 9.4 5.8 8.5 16.8 13 24.4 14.4 4.3.8 8.7 1.3 13.1 1.3 1.5 0 3-.1 4.4-.2 5.1-.6 10-2.2 14.4-4.7 10.1-5.6 13.5-17.1 15.4-27.6 1.4-7.5 2.9-16.2 2.5-25.1-.4-10-3.2-18.9-8-25.7-3.1-4.4-10.6-9.1-18.9-9.8-.8-.2-1.8-.2-2.7-.2" class="st2"/><circle cx="199.5" cy="32.5" r="6.6" class="st2"/><circle cx="219.3" cy="32.5" r="6.6" class="st2"/><path d="M218.7 47c.2 6-4.5 10.9-10.4 11.1-6 .2-10.9-4.5-11.1-10.4V47" style="fill:none;stroke:#012442;stroke-width:6;stroke-linecap:round;stroke-linejoin:round"/><path d="M206.5 81.6c-7.1.4-15-1.2-21.8-3-5-1.3-9.8-3.4-14.1-6.3-1.8 1.4-2.6 2.7-.6 5.7 4.3 6.3 13.1 10.6 20.5 11.8 5.3 1.1 10.7 1.4 16.1 1.1 4.3-.5 8.4-1.9 12.1-4 4.6-2.6 7.5-6.9 9.4-11.9l-.4.1c-6.6 3.7-13.8 5.9-21.2 6.5" style="fill:#319931"/><path d="m99.1 203.5-4.9-4.9 4.9-4.9c2.8-2.9 2.8-7.5 0-10.4-2.9-2.8-7.5-2.8-10.4 0l-4.9 4.9-4.9-4.9c-2.9-2.9-7.5-2.9-10.4 0s-2.9 7.5 0 10.4l4.9 4.9-4.9 4.9c-2.8 2.9-2.8 7.5 0 10.4 2.9 2.9 7.5 2.9 10.3 0l4.9-4.9 4.9 4.9c3 2.8 7.6 2.6 10.4-.4 2.7-2.8 2.7-7.2.1-10M195.4 202.5l-4.9-4.9 4.9-4.9c2.8-2.9 2.8-7.5 0-10.4-2.9-2.8-7.5-2.8-10.4 0l-4.9 4.9-4.9-4.9c-2.9-2.9-7.5-2.9-10.4 0s-2.9 7.5 0 10.4l4.9 4.9-4.9 4.9c-2.8 2.9-2.8 7.5 0 10.4 2.9 2.9 7.5 2.9 10.4 0l4.9-4.9 4.9 4.9c2.8 3 7.4 3.1 10.4.4 3-2.8 3.1-7.4.4-10.4-.1-.2-.3-.3-.4-.4" class="st2"/></g></svg>