<svg xmlns="http://www.w3.org/2000/svg" id="Camada_7" data-name="Camada 7" viewBox="0 0 262.17 298.96"><defs><clipPath id="clip-path"><circle cx="131.09" cy="175.2" r="123.33" style="fill:none"/></clipPath><style>.cls-7{fill:none}.cls-16,.cls-4{fill:#012442}.cls-5{fill:#9e521e}.cls-6{fill:#894416}.cls-14,.cls-16,.cls-7,.cls-9{stroke:#012442;stroke-miterlimit:10}.cls-7{stroke-width:8px}.cls-8{fill:#2ecc56}.cls-14,.cls-9{fill:#fff}.cls-9{stroke-width:6px}.cls-14{stroke-width:4px}.cls-16{stroke-width:7px}.cls-18{fill:#d4f9ff}</style></defs><circle cx="131.09" cy="174.65" r="123.33" style="fill:#00a4ff"/><g style="clip-path:url(#clip-path)"><path d="M223.38 300.74c-12.47 0-23.72-7.85-26.61-19.44-9.27-37.2-33-47.33-34-47.74a6 6 0 0 0 .59.22l19.83-46.56c5.19 1.85 51.15 19.87 66.88 83 3.36 13.45-5.85 26.84-20.56 29.91a30.4 30.4 0 0 1-6.13.61" class="cls-4"/><path d="M224.58 292.66c-8.31 0-15.81-5.23-17.74-13-10.65-42.66-44.16-57.48-44.49-57.66-9.18-3.77-13.28-13.62-9.17-22s14.9-12.14 24.08-8.38c2 .84 50.29 21.24 65.1 80.66 2.23 9-3.91 17.9-13.71 19.94a19.6 19.6 0 0 1-4.07.44" class="cls-5"/><path d="M40.79 301.57a29.7 29.7 0 0 1-6.1-.63C20 297.87 10.77 284.48 14.13 271c15.73-63.08 65.64-84.71 70.87-86.56L104.78 231s-3.73 3.54-3.35 3.38c-1 .42-24.76 10.54-34 47.74-2.92 11.6-14.18 19.45-26.64 19.45" class="cls-4"/><path d="M39.59 293.5a20.3 20.3 0 0 1-4.07-.42c-9.8-2.05-15.94-11-13.71-19.94 14.81-59.42 64.88-80.66 66.93-81.5l20.31 26.92.3.28c-1.39.6-41.39 19.06-52 61.7-1.94 7.72-9.45 12.96-17.76 12.96" class="cls-5"/><path id="peito" d="M204.07 306.4s7.64-93.63-43.81-120.23l-56.43 2.25c-45.06 15.92-42.6 118.05-42.6 118.05Z" class="cls-5"/><path d="M69.54 259.43a3.6 3.6 0 0 0-5.33 2.18c-2.79 10.7-5.1 25.23-5.11 44a3.49 3.49 0 0 0 3.64 3.39 3.49 3.49 0 0 0 3.64-3.33c0-18 2.24-32 4.89-42.17a3.62 3.62 0 0 0-1.66-4ZM197.74 259.42a3.58 3.58 0 0 0-1.8 4.08c2.63 10.18 4.83 24.09 4.84 42.15a3.49 3.49 0 0 0 3.64 3.33 3.5 3.5 0 0 0 3.65-3.33c0-18.8-2.32-33.32-5.11-44a3.59 3.59 0 0 0-5.14-2.26Z" class="cls-4"/><path d="M129.66 305.29c12.31-.55 24-2.72 31.6-13.26 10.15-14 11.23-30.69 8.24-47.24-.52-2.89 1.17-4.9 4-5.24 17.18-2.09 34.93-3.42 52.17-1.46l2.86.36c-20-33.62-49.67-46.15-51.26-46.81a19.84 19.84 0 0 0-10.1-1.27 58 58 0 0 0-6.9-4.2l-56.43 2.25a37.6 37.6 0 0 0-12.12 7.17l-3-4c-1.5.62-28.69 12.15-49 41.55 6 5.22 14.78 5.76 23 5.53 10.65-.29 21.38-2.26 32-.59a4.14 4.14 0 0 1 2.89 5.09c-7.09 17.56-4.78 36.9 9.21 50.36a48 48 0 0 0 21.66 11.92 4.6 4.6 0 0 1 1.18-.16" class="cls-6"/></g><path d="M223 104.67c-10.75-23.91-33.87-43.42-92-43.42-57 0-86.24 13.56-94.39 40.66-7 23.16-15 58.16-12 98.18 2.41 32 48.87 59 107 59s101.85-28.07 103.63-59C238 155.07 230 120.07 223 104.67" class="cls-5"/><path d="M223 104.67c-10.75-23.91-33.87-43.42-92-43.42-57 0-86.24 13.56-94.39 40.66-7 23.16-15 58.16-12 98.18 2.41 32 48.87 59 107 59s101.85-28.07 103.63-59C238 155.07 230 120.07 223 104.67m1.41 79C222.84 209 183.7 232 131.56 232s-93.79-22.12-95.94-48.27c-2.7-32.74 4.48-61.37 10.72-80.31 7.3-22.17 33.52-33.26 84.6-33.26 52.08 0 72.8 16 82.44 35.51 6.21 12.56 13.39 41.19 11.06 78.02Z" class="cls-6"/><path d="M223.12 104.67c-10.75-23.91-33.87-43.42-92-43.42-57 0-86.25 13.56-94.39 40.66-7 23.16-15 58.16-12 98.18 2.41 32 48.87 59 107.05 59s101.84-28.07 103.63-59c2.65-45.02-5.36-80.02-12.29-95.42Z" class="cls-7"/><path d="M247.89 117.17c-4-22.83-7.43-47.13-20.78-66.68C202.6 14.63 90.29 14.63 50.18 35.63c-7.86 4.11-13.43 11-17.54 18.39C22.05 73.67 16 102 12.87 124.11a12.13 12.13 0 0 0 4 10.75l10.26 9.21 9.63-35.51h188.29l9.63 35.51 10.32-9.23a12.17 12.17 0 0 0 4-10.78c-.33-1.94-.68-4.27-1.11-6.89" class="cls-8"/><ellipse cx="187.94" cy="150.46" class="cls-9" rx="24.85" ry="23.22"/><ellipse cx="70.11" cy="150.96" class="cls-9" rx="24.85" ry="23.22"/><path id="olho" d="M55.11 152c.83 7.53 8 13 16.09 12.24s13.93-7.5 13.1-15-8-13-16.09-12.25-13.92 7.49-13.1 15.01" class="cls-4"/><path id="olho-2" d="M173.33 151.35c.83 7.53 8 13 16.09 12.25s13.93-7.51 13.1-15-8-13-16.09-12.24-13.92 7.46-13.1 14.99" class="cls-4" data-name="olho"/><path d="M183.21 202.16c-7.3-29.92-13.58-52.94-55.78-50.85C88 150 82.86 178.61 75.21 205.09c-12.32 42.59 117.38 54.63 108-2.93" style="fill:#c47b49"/><path d="M131.78 154c34.26 0 39.74 23.52 46.07 50.48 1.69 23.23-23.64 34.37-48.92 34.37-26 0-52-11.8-48.4-34.37 3.94-24.8 11.14-50.41 44.66-50.41h2.4c1.45-.07 2.84-.11 4.19-.11m0-8c-1.38 0-2.81 0-4.26.1h-2.33c-17.79 0-31.25 6.53-40 19.4-4.21 6.17-9 15.48-12.53 37.76a30.76 30.76 0 0 0 7.12 25.54c9.66 11.32 28.05 18.08 49.18 18.08 20.06 0 37.95-6.35 47.84-17a33.62 33.62 0 0 0 9.06-26l-.05-.63-.14-.61v-.09c-3.33-14.17-6.47-27.56-13.79-38.05C163.13 152.1 150 146 131.78 146Z" class="cls-4"/><path d="M114.3 160s19-2.56 31 .36c13.45 3.27-1.76 24.15-15.94 24.35S99.79 162.34 114.3 160" class="cls-4"/><path d="m36.76 108.56-9.63 35.51" class="cls-8"/><path d="M32.65 67.73c4.1-7.34 9.67-14.28 17.53-18.4 40.11-21 152.42-21 176.93 14.87 13.35 19.55 16.73 43.85 20.78 66.68a12 12 0 0 0 1.06-6.82c-.28-1.94-.63-4.27-1.06-6.89-4-22.83-7.43-47.13-20.78-66.68C202.6 14.63 90.29 14.63 50.18 35.63c-7.86 4.11-13.43 11-17.53 18.39C22.05 73.67 16 102 12.87 124.11a12 12 0 0 0 1.06 6.79c3.36-20.84 9.19-45.52 18.72-63.17" style="fill:#7af995"/><path d="M247.89 117.17c-4-22.83-7.43-47.13-20.78-66.68C202.6 14.63 90.29 14.63 50.18 35.63c-7.86 4.11-13.43 11-17.54 18.39C22.05 73.67 16 102 12.87 124.11a12.13 12.13 0 0 0 4 10.75l10.26 9.21 9.63-35.51h188.29l9.63 35.51 10.32-9.23a12.17 12.17 0 0 0 4-10.78c-.33-1.94-.68-4.27-1.11-6.89Z" style="fill:none;stroke:#012442;stroke-miterlimit:10;stroke-width:8px;stroke-linecap:round"/><ellipse cx="129.61" cy="166.38" rx="14.91" ry="3.09" style="fill:#fff"/><path d="M112.64 192.23c-20.21 2.8-3.87 30 24.43 30.09 25.57.08 37.73-11.95 37.73-27.66 0-8.38-9.26-21-20.13-18.43-14.53 3.46-15.35 12.3-42.03 16Z" class="cls-7"/><path d="M114.16 192.91c-20.2 2.8-3.86 30 24.44 30.09 25.57.08 37.73-11.95 37.73-27.66 0-8.38-9.26-21-20.13-18.43-14.53 3.46-15.35 12.3-42.04 16" class="cls-4"/><path d="M125 190.48c3.39 10 8.27 10.4 12.31 9.62 4.8-.93 8.8-3.9 5.89-16.2-6.36 1.62-12.14 4.55-18.2 6.58ZM144.17 183.29c3.39 10 6.85 10.4 10.9 9.62 4.38-.85 8.09-3.4 6.49-13.21a2.8 2.8 0 0 0-3.6-2.15 91 91 0 0 0-13.79 5.74ZM117.85 192.76c-2.65.35-9.4.79-11.65 3.46 1.75 9 6 10.09 9.82 10 4.65-.14 8.91-2.36 8.4-14.58-2.16.44-4.34.81-6.57 1.12Z" class="cls-14"/><path d="M160.67 213.93c.89-.53 1.86-1.27 1.87-2.28a2.6 2.6 0 0 0-.64-1.54 9.33 9.33 0 0 0-8.82-3.23 11.22 11.22 0 0 0-7.7 5.51c-1.6-2.65-5.59-3.45-8.4-2-2.12 1.09-4.54 4.22-4.06 6.7.59 3 4.74 2.51 7.3 2.49a40.74 40.74 0 0 0 20.45-5.65" style="fill:#e02d5c"/><path d="m224.37 66.47 11.6-.8 9.91 28.36-7.39 3.18zM34.9 63.9 29 62.19l-9.92 28.36 1.69 4.1z" class="cls-16"/><path d="M243.63 98c-6.87-17.39-14.94-24.8-18.1-29.43a10 10 0 0 0-6.35-4C149.45 50.75 104 50.74 45.29 64.52a9.73 9.73 0 0 0-5.91 3.84c-4.62 6.73-15.76 18.42-19.3 30.18-1.2 4 1.41 13.39 6.08 14.88 12.05 3.81 43.51 13.26 75.36 18.47 4.26.7 8.53-.94 10.63-4.07 2.84-4.24 10.63-14.11 21.67-14.18h.34c.52-.05 13-1 21 14.32 1.61 3.07 5.21 4.92 9.06 4.92a12 12 0 0 0 3.14-.42l69.9-18.93c5.21-1.43 8.06-11.3 6.37-15.53" class="cls-4"/><path d="M217.89 60.57c-64.84-12.84-110.76-14.52-172.28-.07a6.7 6.7 0 0 0-4 2.61c-4 5.82-15.48 23.12-19 34.77-.82 2.74.94 5.55 4.13 6.56 12 3.8 43.22 13.18 74.84 18.35a7.31 7.31 0 0 0 7.23-2.77c3.7-5.52 12.15-15.46 24.43-15.53 0 0 15.12-1.58 24.3 15.88 1.38 2.63 5 3.95 8.29 3l69.91-18.93c3.53-1 5.47-4.11 4.32-7a181 181 0 0 0-17.85-34.19 6.74 6.74 0 0 0-4.32-2.68" style="fill:#4dddff"/><path d="M83.17 114.1q13.47-18.52 26.77-37.17 9.53-13.31 19-26.63a327 327 0 0 0-51.42 3.94c-13.29 17.45-26.64 35.05-36.47 54.52 10.37 3 24 6.66 38.82 9.87ZM184.07 91.45C189.89 80 196.52 68.9 203 57.78c-9.75-1.74-19.11-3.19-28.2-4.34-2.12 3.8-4.36 7.54-6.1 11.53-3.13 7.17-6.13 14.62-10.6 21.15-1.56 2.29-3.49 4.92-6.32 5.8a8.35 8.35 0 0 1-6-.66c-1.66-.72-3-1-4.66-.05-3.31 2-5.5 5.87-7.32 9.05q-1.2 2.11-2.28 4.31c.56 0 1.12-.08 1.69-.08 0 0 15.12-1.58 24.3 15.88 1.38 2.63 5 3.95 8.29 3l5.73-1.55a182.3 182.3 0 0 1 12.54-30.37M224 72.58c.48-1.44 1-2.88 1.47-4.32-1.31-2.12-2.42-3.8-3.23-5a6.74 6.74 0 0 0-4.32-2.7l-3.51-.68C211.76 68 209.2 76 206.79 84.15c-3.08 10.4-6.22 20.8-10.15 30.93l16.17-4.38C216 97.86 219.79 85.16 224 72.58" class="cls-18"/><path d="M217.89 60.57c-64.84-12.84-110.76-14.52-172.28-.07a6.7 6.7 0 0 0-4 2.61c-4 5.82-15.48 23.12-19 34.77-.82 2.74.94 5.55 4.13 6.56 12 3.8 43.22 13.18 74.84 18.35a7.31 7.31 0 0 0 7.23-2.77c3.7-5.52 12.15-15.46 24.43-15.53 0 0 15.12-1.58 24.3 15.88 1.38 2.63 5 3.95 8.29 3l69.91-18.93c3.53-1 5.47-4.11 4.32-7a181 181 0 0 0-17.85-34.19 6.74 6.74 0 0 0-4.32-2.68Z" style="fill:none;stroke:#012442;stroke-miterlimit:10;stroke-width:7px"/></svg>