<svg xmlns="http://www.w3.org/2000/svg" viewBox="0 0 262.17 298.96"><defs><clipPath id="clip-path"><path d="M-163.51-469A30.4 30.4 0 0 0-134-491.66a5.89 5.89 0 0 0-5.9-7.18l-47.49.16a5.89 5.89 0 0 0-5.85 7.21A30.38 30.38 0 0 0-163.51-469" class="cls-1"/></clipPath><clipPath id="clip-path-2"><path d="M-134.48-489.89a28.6 28.6 0 0 0 1.19-5.81 4.07 4.07 0 0 0-4.13-4.4l-52.41.18a4.05 4.05 0 0 0-4.08 4.42 27.2 27.2 0 0 0 1.22 5.8Z" class="cls-1"/></clipPath><clipPath id="clip-path-3"><path d="M-162.29-468.89c-14 .05-19.93-6.77-19.93-6.77 4.64-3.3 11.82-5.43 19.89-5.46 7 0 14.66 1.55 19.27 4.1 0 0-5.19 8.08-19.23 8.13" class="cls-1"/></clipPath><clipPath id="clip-path-4"><path d="M-137.4-500.1a4.07 4.07 0 0 1 4.11 4.4c-.14 1.34-2.17 10.1-10.32 19.4-1.67 2-7.22 7.37-18.68 7.41h-.05c-2.34 0-10.63-.56-15.31-3.44-6.76-4.17-12.55-9.82-15-17.36a23 23 0 0 1-1.25-5.8 4.23 4.23 0 0 1 4.1-4.43zm0-7.27h-.06l-52.39.19a11.54 11.54 0 0 0-11.52 11.62 27.2 27.2 0 0 0 1.63 8.15c2.76 8.38 8.85 15.51 18.11 21.23 7.31 4.51 18.81 4.56 19.29 4.56h.08c14.35 0 21.77-6.95 24.35-10 9-10.27 11.74-20.36 12-23.38a11.17 11.17 0 0 0-2.95-8.65 11.76 11.76 0 0 0-8.58-3.71" class="cls-1"/></clipPath><clipPath id="clip-path-5"><circle cx="130.94" cy="170.96" r="123.33" style="fill:none"/></clipPath><style>.cls-1,.cls-13{fill:none}.cls-1{clip-rule:evenodd}.cls-9{fill:#012442}.cls-10{fill:#c1e0e5}.cls-12{fill:#fff}.cls-13{stroke:#012442;stroke-linecap:round;stroke-miterlimit:10;stroke-width:8px}.cls-15{fill:#5b3310}</style></defs><g id="Camada_4" data-name="Camada 4"><circle cx="131.23" cy="170.96" r="123.33" style="fill:#e02d5c"/><g style="clip-path:url(#clip-path-5)"><path d="M223.24 296.5c-12.47 0-23.73-7.85-26.62-19.44-9.27-37.2-33-47.33-34-47.74.39.16.6.22.6.22L183 183c5.19 1.85 51.16 19.87 66.89 83 3.35 13.45-5.85 26.84-20.57 29.91a29.5 29.5 0 0 1-6.08.59" class="cls-9"/><path d="M224.44 288.42c-8.31 0-15.82-5.23-17.74-12.95-10.65-42.72-44.16-57.53-44.5-57.67-9.17-3.76-13.28-13.62-9.16-22s14.89-12.15 24.07-8.39c2 .84 50.29 21.24 65.1 80.66 2.24 9-3.9 17.9-13.71 19.95a20 20 0 0 1-4.06.4" class="cls-10"/><path d="M40.65 297.33a29.5 29.5 0 0 1-6.1-.63c-14.71-3.06-23.92-16.46-20.55-29.91 15.73-63.1 65.65-84.74 70.84-86.59l19.82 46.57a44 44 0 0 0-3.35 3.39c-1 .41-24.76 10.53-34 47.74-2.94 11.58-14.2 19.43-26.66 19.43" class="cls-9"/><path d="M39.44 289.26a20 20 0 0 1-4.06-.42c-9.81-2-16-11-13.71-19.94 14.81-59.42 64.88-80.66 66.92-81.5l20.31 26.92.3.28c-1.38.6-41.39 19.06-52 61.7-1.94 7.7-9.45 12.96-17.76 12.96" class="cls-10"/><path id="peito" d="M199.23 296.51s7.64-85.63-43.81-112.23L99 186.53c-45.06 15.92-42.6 110-42.6 110Z" class="cls-10"/><path d="M69.4 245.19a3.6 3.6 0 0 0-5.33 2.18c-2.8 10.7-5.11 25.23-5.11 44a3.5 3.5 0 0 0 3.64 3.34 3.5 3.5 0 0 0 3.64-3.33c0-18 2.23-32 4.88-42.18a3.6 3.6 0 0 0-1.66-4ZM197.59 245.18a3.59 3.59 0 0 0-1.8 4.08c2.63 10.18 4.84 24.09 4.85 42.16a3.5 3.5 0 0 0 3.64 3.33 3.51 3.51 0 0 0 3.64-3.34c0-18.8-2.32-33.31-5.11-44a3.59 3.59 0 0 0-5.14-2.26Z" class="cls-9"/><path d="M45.61 222.29c-3.4 3-6.92 6.16-8.65 10.36s-1.05 9.76 2.74 12.27c5.51 3.65 12.65-1.12 19.26-1.23 10.12-.17 16.7 10.18 21.56 19.05S93 281.6 103 280c16-2.57 16.75-31.1 32.84-33.22 8.52-1.11 15.45 6.28 21.37 12.5s14.84 12.32 22.44 8.32 7.95-15.54 14.48-21.34c4.14-3.68 10-4.4 15.47-5.5s11.36-3.23 13.76-8.23-2.23-11.82-7.78-11.82Z" style="fill:#603116"/></g></g><g id="Camada_3" data-name="Camada 3"><path d="M225.91 116.68s-2.54-.16-6.92 0c1.81-8.62 4.67-23.37 3.57-25.25C215.63 79.54 199 73.66 199 73.66c-5.34-.7-11.92.08-18.78 1.65l4.3-1.65s3.05-20.2-3.92-29.08C162.13 21.08 119 2.71 119 2.71s8.94 29.74-4.7 45.2c-19.75 22.39-62.8 24.3-71.8 33.5-4 4-12.91 23.89-12.91 28 0 10.23 11.35 19.52 11.35 19.52l.66-.25a37.8 37.8 0 0 0-8.49 5.83c-6.26 5.37-12.86 20-13.7 23.91-.73 3.51-.27 12.86 8.23 24.51-1.51 3.19-9.18 19.63-8.79 23 .91 7.85 16.35 15.49 16.35 15.49h178.3s19-4.85 26.87-23.86c0 0-1.69-16.58-8.74-25.87l-.63-.1c2.83-3.07 9.47-12.07 12.76-31.61.41-2.33-7.67-19.11-17.85-23.3" class="cls-12"/><path d="M20.22 160.92s40 .12 75.3-15.5c26.07-11.55 68-40.45 122.83-37.94l.64 9.2s-41.34 4.19-75.77 28.46S77.88 183 30.66 182.92c0 0-8.23-12.92-10.44-22M34.43 104.13s22.7 4.18 57.14-8.37c23.91-8.72 53.21-32.27 92.34-32.27l.57 10.17s-49.87 19.59-82 34.65-64.95 23.44-64.95 23.44-10.92-4.19-3.1-27.62" class="cls-10"/><path d="M41.74 131.43s-11.35-9.29-11.35-19.52c0-4.09 9-24 12.91-28 9-9.19 52.05-11.11 71.8-33.5 13.64-15.41 4.7-45.18 4.7-45.18s43.11 18.36 61.55 41.86c7 8.88 3.91 29.08 3.91 29.08" class="cls-13"/><path d="M104.83 108.24c4.82-2.66 7.73-4.49 7.73-4.49M30.09 182.25C20 169.6 19.43 164.64 20.22 160.92c.83-3.94 7.43-18.54 13.69-23.91 9-7.69 12.53-7.4 24.66-10 11.82-2.55 24.14-7.64 34-12.41" class="cls-13"/><path d="M156.52 222.14s46.18-19.29 81.39-24.31l2.48-.27s-2.78 18.82-26.09 26.37c-2.21.72-57.78-1.79-57.78-1.79M124.84 184.51c33-12.33 78.93-41.57 113.07-33.51 2.23.52-5.73 19.18-6.23 21.55-6-2.38-12.76-1-19 .84-34.58 10.18-65.11 32.83-99.8 42.62-19.08 5.39-38.94 6.74-58.64 8.06-7.6.51-15.5 1-22.53-2.16s-18-12.25-8.36-16.68c3.82-1.75 22.79-.67 45.16-4.66 22.71-4.04 34.74-8 56.33-16.06" class="cls-10"/><path d="M218.43 117.9s6.48-21.28 4.92-24c-6.93-11.89-23.61-17.77-23.61-17.77C178.61 73.38 137.91 94 137.91 94M111.22 162.16a264 264 0 0 1-49.52 16c-9.72 2.08-28.74 4.29-33 6.72 0 0-9.48 19.8-9 23.55.87 7.86 16.3 15.5 16.3 15.5h178.3s19-4.85 26.87-23.86c0 0-1.69-16.58-8.74-25.87" class="cls-13"/><path d="M88.22 223.73s35.1-6.09 78.48-31.15c36.65-21.17 63.78-17.19 63.78-17.19s9.84-7.67 14.08-32.9c.4-2.33-7.69-19.11-17.86-23.3 0 0-43.83-2.79-82.18 26" class="cls-13"/><path d="m212.8 111.12 30.61-75.18s.08-.27.13-.41c1.67-4.1-3.23-10-10.95-13.11s-15.32-2.36-17 1.74a4 4 0 0 1-.19.38l-38.3 94.06a112 112 0 0 1 14.71-3.91 135 135 0 0 1 20.99-3.57" style="fill:#dba36b"/><path d="m236 49.56-.61-1.05c-11 8.88-25.87 3.15-30 0L199.88 62a7 7 0 0 1 1.42.6c5.3 3.79 18.66 8.23 29.12.67ZM225 78.5l-.61-1c-11 8.88-25.88 3.15-30 0l-5.45 13.4a7 7 0 0 1 1.42.61c5.3 3.78 18.65 8.23 29.11.66ZM212 111.19l.79-2-.61-1a21.1 21.1 0 0 1-7.85 4c2.57-.44 5.13-.77 7.67-1M200.31 112.84c-7.93.65-15.38-2.58-18.11-4.69l-4.12 10.12a113 113 0 0 1 13.85-3.61c2.78-.66 5.57-1.3 8.38-1.82" class="cls-15"/><path d="M219 26.21c.09-.18.2-.39.26-.54.39-1 5-2.28 11.78.46a19.5 19.5 0 0 1 7.43 5.05c1.26 1.51 1.44 2.57 1.32 2.84s-.13.39-.19.58l-31.35 77c3-.37 6-.63 9-.77l29.88-73.37.17-.53c1.3-3.34.34-7.3-2.64-10.86a27.2 27.2 0 0 0-10.55-7.34c-10.08-4.1-19.62-2.41-22.21 3.93v-.07L172 120.46q5-2 10-3.43ZM247.25 37" class="cls-9"/><path d="M235.8 42.11a28.9 28.9 0 0 1-10.65-2.25 27.5 27.5 0 0 1-10.26-7c-3.08-3.53-4-7.28-2.7-10.57s4.65-5.31 9.31-5.68a27.54 27.54 0 0 1 12.21 2.19c9.84 4 15.41 11.54 13 17.53-1.32 3.25-4.71 5.32-9.31 5.68-.54.08-1.07.1-1.6.1M223 24.6c-1.88 0-3.13.38-3.44.79-.1 1 2.66 4.65 8.59 7.06s10.35 1.72 11.09.9c.05-1.1-2.72-4.72-8.56-7.1A20.7 20.7 0 0 0 223 24.6M205 101.51a192 192 0 0 0-40.64-6.85c-30.2-1.37-68.4.68-70 .77a196 196 0 0 0-37.88 6.08c-14 3.76-20.5 16.22-17 32.53 1.75 8.1 4.28 17.4 9.81 24.9l3.14 3.71.07.08a33.2 33.2 0 0 0 5.66 4.63c8.69 5.61 23.26 6.35 34 5.17a75.4 75.4 0 0 0 12.6-2.46c12.56-3.64 21.22-10.29 25-19.22.33-.79.65-1.62.95-2.48.3.87.62 1.69 1 2.48 3.82 8.93 12.48 15.58 25 19.22a74.4 74.4 0 0 0 12.6 2.46 82 82 0 0 0 8.92.48c6.1 0 17.47-.73 25.08-5.65a33 33 0 0 0 5.68-4.66l3.14-3.69.06-.08c5.52-7.5 8.05-16.79 9.8-24.89 3.46-16.31-3.05-28.77-16.99-32.53" class="cls-9"/><path d="M203.11 108.37a185.2 185.2 0 0 0-39.11-6.62c-30.86-1.39-69.27.76-69.27.76a188 188 0 0 0-36.49 5.86c-10.12 2.72-14.56 11.75-11.89 24.17 1.83 8.49 4.3 17 9.45 23.31a26 26 0 0 0 6.13 5.52c6 3.9 17.79 5.35 29.37 4.08a67.3 67.3 0 0 0 11.39-2.22c10.45-3 17.53-8.28 20.49-15.19 4.51-10.56 4-27 3.32-32.76-.56-4.54 8.35-5.31 8.35-.11 0 5.75-1.22 22.31 3.29 32.87 3 6.91 10 12.16 20.49 15.19a67 67 0 0 0 11.37 2.24c11.58 1.27 23.34-.18 29.37-4.08a26 26 0 0 0 6.13-5.52c5.15-6.33 7.61-14.82 9.45-23.31 2.72-12.44-1.72-21.47-11.84-24.19m-2.24 7.68a8 8 0 0 1 6.08 6.5l-63.53-7.3c.53-4.17 2.45-5.29 13.39-5.13 6.47.09 12.51.51 18 1.11a175.5 175.5 0 0 1 26.06 4.82m-140.4 0a175.5 175.5 0 0 1 26-4.82c5.52-.6 11.56-1 18-1.11 10.94-.16 12.85 1 13.39 5.13l-63.53 7.3a8 8 0 0 1 6.14-6.5m39.82 39.57c-12.5 3.62-28.25 2.53-33.45-.83l-.32-.23 46.27-5.69c-3.27 3.46-8.34 5.54-12.5 6.75m16-13.21-54.99 6.75a34.2 34.2 0 0 1-3.47-7l59.88-6.88a47 47 0 0 1-1.46 7.13Zm2-13.27L56 136.3c-.48-1.79-.9-3.62-1.3-5.45-.16-.73-.29-1.49-.4-2.26l64-7.35c.11 2.44.09 5.14-.05 7.9Zm76.24 25.65c-5.2 3.36-20.94 4.45-33.44.83-4.16-1.21-9.23-3.29-12.5-6.75l46.27 5.69c-.15.07-.25.16-.37.23Zm5.55-5.63-54.95-6.75a46 46 0 0 1-1.46-7.17l59.88 6.88a34.2 34.2 0 0 1-3.55 7.04Zm6.6-18.31c-.4 1.83-.82 3.66-1.3 5.45l-62.25-7.16a96 96 0 0 1-.08-7.9l64 7.35c-.12.77-.26 1.53-.41 2.26Z" style="fill:#2ecc56"/><g id="boca"><path d="M131 207.69a28.64 28.64 0 0 0 27.71-21.8 5.63 5.63 0 0 0-5.53-6.9l-44.56.16a5.63 5.63 0 0 0-5.48 6.94 28.63 28.63 0 0 0 27.86 21.6" class="cls-9"/><path d="M158.18 187.6a27.6 27.6 0 0 0 1.12-5.6 3.87 3.87 0 0 0-3.88-4.22l-49.15.17a3.87 3.87 0 0 0-3.84 4.25 27.3 27.3 0 0 0 1.15 5.58Z" class="cls-12"/><path d="M132.1 207.78c-13.17.05-18.71-6.51-18.71-6.51 4.36-3.17 11.1-5.22 18.67-5.24 6.58 0 13.74 1.48 18.07 3.94 0 .03-4.86 7.76-18.03 7.81" style="fill:#ef5b70"/></g><path d="M155.44 177.79a3.87 3.87 0 0 1 3.86 4.21c-.13 1.29-2 9.7-9.69 18.65-1.56 1.91-6.77 7.08-17.51 7.12-2.2 0-10-.53-14.37-3.31-6.33-4-11.77-9.43-14.08-16.68a22.3 22.3 0 0 1-1.17-5.58 4 4 0 0 1 3.84-4.25l49.15-.17m0-7h-.05l-49.15.17a11 11 0 0 0-10.81 11.18A27 27 0 0 0 97 190c2.59 8 8.31 14.9 17 20.4 6.87 4.34 17.66 4.39 18.11 4.39h.07c13.47-.05 20.44-6.69 22.85-9.62 8.43-9.88 11-19.57 11.29-22.48a10.86 10.86 0 0 0-10.82-11.89Z" class="cls-9"/></g></svg>