<svg xmlns="http://www.w3.org/2000/svg" viewBox="0 0 262.17 298.96"><defs><clipPath id="clip-path"><circle cx="130.19" cy="175.47" r="123.33" style="fill:none"/></clipPath><style>.cls-11,.cls-13,.cls-9{fill:none}.cls-4{fill:#012442}.cls-5{fill:#f9d9f6}.cls-11,.cls-13,.cls-9{stroke:#012442;stroke-miterlimit:10}.cls-13,.cls-9{stroke-width:8px}.cls-11{stroke-width:5px}.cls-13{stroke-linecap:round}.cls-15{fill:#fff}</style></defs><g id="Camada_4" data-name="Camada 4"><circle cx="130.7" cy="174.74" r="123.33" style="fill:#f29b3b"/><g style="clip-path:url(#clip-path)"><path d="M217.49 301c-12.47 0-23.73-7.85-26.61-19.44-9.28-37.2-33-47.32-34-47.74.38.16.59.23.59.23l19.83-46.57c5.19 1.85 51.15 19.87 66.88 83 3.36 13.45-5.85 26.84-20.56 29.91a29.7 29.7 0 0 1-6.13.61" class="cls-4"/><path d="M218.69 292.94c-8.31 0-15.82-5.24-17.74-13-10.65-42.72-44.16-57.53-44.49-57.67-9.18-3.76-13.29-13.62-9.17-22s14.9-12.15 24.07-8.38c2 .84 50.29 21.24 65.11 80.66 2.23 9-3.91 17.89-13.72 19.94a20 20 0 0 1-4.06.45" class="cls-5"/><path d="M34.9 301.84a29.7 29.7 0 0 1-6.1-.63c-14.71-3.06-23.92-16.45-20.56-29.91 15.76-63.1 65.64-84.74 70.83-86.59l19.82 46.57a44 44 0 0 0-3.35 3.39c-1 .41-24.76 10.53-34 47.74-2.92 11.59-14.18 19.43-26.64 19.43" class="cls-4"/><path d="M33.7 293.77a20.3 20.3 0 0 1-4.07-.42c-9.8-2.05-15.94-11-13.71-19.94C30.73 214 80.8 192.76 82.85 191.92l20.3 26.92.31.27c-1.39.6-41.39 19.06-52 61.7-1.95 7.72-9.46 12.96-17.76 12.96" class="cls-5"/><path id="peito" d="M193.49 301s7.63-85.63-43.82-112.23L93.24 191c-45.06 15.92-42.6 110-42.6 110Z" class="cls-5"/><path d="M36.74 229.36c64.57 58.23 163.52 31.49 182.73 4.84-13.73-24.22-45.93-49-63.87-41.91-9.89-9.68-64.63 3.36-72.5-.25-2.57 1.96-18.1-1.34-46.36 37.32" style="fill:#f2c0f0"/><path d="M63.65 249.7a3.61 3.61 0 0 0-5.33 2.18c-2.79 10.7-5.1 25.23-5.11 44a3.5 3.5 0 0 0 3.64 3.34 3.49 3.49 0 0 0 3.64-3.33c0-18 2.24-32 4.88-42.18a3.6 3.6 0 0 0-1.66-4ZM191.84 249.69a3.61 3.61 0 0 0-1.8 4.08c2.64 10.18 4.84 24.09 4.85 42.16a3.49 3.49 0 0 0 3.64 3.33 3.5 3.5 0 0 0 3.64-3.34c0-18.8-2.31-33.31-5.1-44a3.59 3.59 0 0 0-5.14-2.26Z" class="cls-4"/></g></g><g id="Camada_3" data-name="Camada 3"><path d="M219.87 71.83C209.6 44.41 187.5 22 132 22c-54.51 0-82.46 15.58-90.25 46.66-6.65 26.57-14.31 66.71-11.43 112.61C32.62 217.94 77 249 132.63 249s97.33-32.18 99-67.68c2.52-51.68-5.13-91.83-11.76-109.49" class="cls-5"/><path d="M222.83 172.21c-35.58-8-71.61-16.2-108.25-14.75-28.48 1.13-59.58 3.74-84.53 18.75.08 1.68.16 3.36.27 5.06C32.62 217.94 77 249 132.63 249s97.33-32.18 99-67.68c.11-2.34.2-4.64.27-6.93q-4.5-1.16-9.07-2.18" style="fill:#e89ad9"/><path d="M225.68 171.3c-13.77 34.44-50.15 56.24-93.05 56.24-43.88 0-82.71-20.42-96.7-57a44 44 0 0 0-6 3.81c.1 2.28.2 4.57.35 6.89C32.62 217.94 77 249 132.63 249s97.33-32.18 99-67.68c.12-2.49.21-4.94.28-7.37-2.02-.95-4.12-1.84-6.23-2.65" style="fill:#e08cd4"/><path d="M219.87 71.83C209.6 44.41 187.5 22 132 22c-54.51 0-82.46 15.58-90.25 46.66-6.65 26.57-14.31 66.71-11.43 112.61C32.62 217.94 77 249 132.63 249s97.33-32.18 99-67.68c2.52-51.68-5.13-91.83-11.76-109.49Z" class="cls-9"/><rect width="20.68" height="35.45" x="82.95" y="192.43" class="cls-4" rx="10.34"/><path d="m155.89 73.17-23.33-61.71a4.12 4.12 0 0 0-7.68.34l-21 63a16.1 16.1 0 0 0-1.38 6.47c0 11.52 12.45 20.86 27.81 20.86s27.82-9.34 27.82-20.86a16.5 16.5 0 0 0-2.24-8.1" style="fill:#ffe497"/><path d="m155.89 73.17-23.33-61.71a4.12 4.12 0 0 0-7.68.34l-21 63a16.1 16.1 0 0 0-1.38 6.47c0 11.52 12.45 20.86 27.81 20.86s27.82-9.34 27.82-20.86a16.5 16.5 0 0 0-2.24-8.1Z" class="cls-9"/><path d="M107.55 59.6c0 3.09 30.91 16.48 40.69-11.85M113.61 40.17c9.4 5.22 22.27 2.13 26.91-8.68" class="cls-11"/><path d="M186.78 39.19c7.93 9.4 14.31 45.85-12.18 52.26-9.69 2.35-23.08 5.59-30.17 11.11C138.86 106.89 133 116 131 121.49a2.91 2.91 0 0 1-5.41.16c-5.65-13 1.3-28.46 13.82-38.29 7-5.51 8.31-10 11.48-17.25 1.76-4-11.9-37.49-11.63-37.94 4.65-7.82 27.39-12.87 47.52 11.02Z" style="stroke:#012442;stroke-miterlimit:10;stroke-width:8px;fill:#00c9ff"/><path d="M194.24 44.59c13-8.52 23.31-14.06 38.26-18.32 4.9 25.55 3.06 50.6-14.22 61.88" class="cls-5"/><path d="M197.24 42.59c11.32-7.42 25.65-13.26 34-16.92a2.82 2.82 0 0 1 3.9 2.14c3.86 24.12-.81 45.6-15.84 60.34" class="cls-13"/><path d="M66.41 42.59c-13-8.52-19.31-12.06-34.27-16.32-4.9 25.55-3.06 50.6 14.23 61.88" class="cls-5"/><path d="M66.41 42.59c-11.32-7.41-24.88-13.5-33-17a2.81 2.81 0 0 0-3.87 2.15c-3.86 24.13.8 45.63 15.84 60.37" class="cls-13"/><rect width="20.68" height="35.45" x="159.01" y="192.43" class="cls-4" rx="10.34"/><path d="M31.3 175.13s97.79-38.74 199.92 0" class="cls-13"/><path d="M120.43 19.65c-6.47-3.87-23.3-1.52-32.82 5.74-6.39 4.88-20 29.51-9.12 54.65a3.21 3.21 0 0 0 6-.11c4.34-11.09 15.66-26.86 24.73-26.45 3.69-11.18 8.55-22.33 11.21-33.83Z" style="stroke:#012442;stroke-miterlimit:10;stroke-width:8px;fill:#b8e86b"/><circle cx="79.43" cy="124.7" r="24.65" class="cls-4"/><circle cx="74.76" cy="115.67" r="8.41" class="cls-15"/><circle cx="179.43" cy="124.7" r="24.65" class="cls-4"/><circle cx="174.37" cy="115.67" r="8.41" class="cls-15"/></g></svg>