<svg xmlns="http://www.w3.org/2000/svg" viewBox="0 0 262.17 298.96"><defs><style>.cls-1{fill:#e02d5c}.cls-2{fill:#3ec63e}.cls-3{fill:#1b931b}.cls-5{fill:none}.cls-10,.cls-5{stroke:#012442;stroke-miterlimit:10}.cls-5{stroke-width:8px}.cls-8{fill:#ffffb6}.cls-9{fill:#012442}.cls-10{fill:#ffe97b;stroke-width:7px}.cls-11{fill:#fff}</style></defs><g id="Camada_4" data-name="Camada 4"><circle cx="131.09" cy="174.72" r="123.33" class="cls-1"/><path d="m175.46 203-42.28 1.29-42.28-1c-46.94 6-57.72 43.3-57.72 43.3C81.56 304.23 123.45 295 133.51 295c8.72 0 54 6.88 102-51.1-.03-.04-13.07-35.21-60.05-40.9" class="cls-2"/><path d="m172.46 205-42.28 1.29-42.28-1c-46.94 6-57.72 43.3-57.72 43.3C78.56 306.23 120.45 297 130.51 297c8.72 0 54 6.88 102-51.1-.03-.04-13.07-35.21-60.05-40.9" class="cls-3"/><path d="M234.48 244.87s-13-35.17-60-40.87l-42.27 1.3-42.29-1c-46.94 6-61.73 42.3-61.73 42.3" style="fill:none;stroke:#012442;stroke-linecap:round;stroke-miterlimit:10;stroke-width:8px"/></g><g id="Camada_3" data-name="Camada 3"><path d="M131 170.17v-1l-1.09.51-1.08-.51v1L53.1 206.08s7.62 20.52 11 27.09c3.31 6.41 34.11 18.31 64.75 19.62a7.2 7.2 0 0 0 2.17 0c30.64-1.31 61.44-13.21 64.75-19.62 3.39-6.57 11-27.09 11-27.09Z" class="cls-2"/><path d="M100.08 226c7 .49 13.93 1.07 20.93 1.35a180 180 0 0 0 20-.45c12.21-.86 24.71-3.26 37-2.69a34.4 34.4 0 0 1 20 7c3.7-8.6 8.78-22.26 8.78-22.26L131 173v-1l-1.09.52-1.08-.52v1L53.1 208.91s4.75 12.81 8.42 21.42c11.48-3.23 20.89-5.57 38.56-4.33" class="cls-3"/><path d="M131 170.17v-1l-1.09.51-1.08-.51v1L53.1 206.08s7.62 20.52 11 27.09c3.31 6.41 34.11 18.31 64.75 19.62a7.2 7.2 0 0 0 2.17 0c30.64-1.31 61.44-13.21 64.75-19.62 3.39-6.57 11-27.09 11-27.09Z" class="cls-5"/><path d="M144.49 211.79v39.71c0 10.72 10 19.5 22.21 19.5h5.8c12.21 0 22.21-8.78 22.21-19.5v-39.71Z" class="cls-1"/><path d="M144.49 211.79V249c0 12.13 11.3 22.05 25.11 22.05s25.11-9.92 25.11-22.05v-37.21" style="fill:none;stroke:#012442;stroke-miterlimit:10;stroke-width:6px"/><path d="M168.54 214.55v26.63" style="fill:none;stroke:#012442;stroke-linecap:round;stroke-width:6px;stroke-linejoin:round"/><path d="m212 112.88-11.7-44.33 3.56-14.22c9.14-2.74 7.14-10.95 2.53-13.13S183 33.53 183 33.53c-20.65-18.65-42.64-21.08-50.2-21.33s-.48 0-1.36 0h-1.37c-7.56.25-29.55 2.68-50.2 21.33 0 0-18.83 3.38-23.41 5.57S49.82 51.59 59 54.33l3.57 14.22-11.73 44.33s-13.74 39.94-10.69 68.94 72.27-11.49 72.27-11.49l19-43.56 19 43.56s69.22 40.49 72.27 11.49S212 112.88 212 112.88" class="cls-2"/><path d="M102.07 41.38c-3.63-7.56-6.36-17.83.25-25.11 0 0-13.32 12.08-22.47 13.07s-10.32 4.33-10.32 4.33 10.43-1.6 29 10.66c1.16-1.02 2.34-2 3.54-2.95M157.59 40.38c3.63-7.56 6.36-17.83-.26-25.11 0 0 13.33 12.09 22.48 13.07s10.32 4.33 10.32 4.33-10.43-1.6-29 10.66c-1.13-1.01-2.34-2-3.54-2.95M98.47 148.92s15.19-23.34 9.21-59.76-49.78-40.3-49.78-40.3-15.49 57.45 40.57 100.06M165.44 143.68s-15.19-23.35-9.21-59.76S206 43.61 206 43.61s15.5 57.46-40.56 100.07" class="cls-3"/><path d="m212 112.88-11.7-44.33.73-2.92a34.5 34.5 0 0 1 7.1-14c4-4.66 1.92-12.89-1.73-14.63-4.59-2.19-23.4-7.66-23.4-7.66-20.65-18.65-42.64-16.89-50.2-17.14s-.48 0-1.36 0h-1.37c-7.56.25-29.55-1.51-50.2 17.14 0 0-18.83 5.47-23.41 7.66-3.69 1.76-5.73 10.15-1.59 14.78a32.1 32.1 0 0 1 6.92 13.66l.78 3.11-11.73 44.33s-13.74 39.94-10.69 68.94 72.27-11.49 72.27-11.49l19-43.56 19 43.56s69.22 40.49 72.27 11.49S212 112.88 212 112.88Z" class="cls-5"/><path d="M70.68 214.14s2.18 12.17 7.77 13.59c4.33 1.11 7.09-10.12 6.46-15.81 0 0-9.49 0-14.23 2.22" class="cls-8"/><path d="M84.91 211.92c.6 5.43-1.88 15.89-5.87 15.89a2.5 2.5 0 0 1-.6-.08c-5.58-1.42-7.76-13.59-7.76-13.59 4.74-2.22 14.23-2.22 14.23-2.22m3.62-4h-3.62c-1.06 0-10.54.07-15.94 2.59l-2.81 1.32.54 3.06a43 43 0 0 0 2 7c2.15 5.57 5.09 8.87 8.75 9.8a6.6 6.6 0 0 0 1.59.2 7 7 0 0 0 5.29-2.57c3.77-4.2 5.11-13.2 4.6-17.8z" class="cls-9"/><path d="M94.35 214.78s-.2 12.36 5 14.83c4 1.92 8.91-8.56 9.38-14.27.01 0-9.3-1.82-14.38-.56" class="cls-8"/><path d="M108.74 215.34c-.45 5.45-4.9 15.23-8.82 14.46a2.3 2.3 0 0 1-.56-.19c-5.21-2.47-5-14.83-5-14.83 5.08-1.26 14.39.56 14.39.56m4.33-3.27-3.55-.69c-1-.21-10.36-2-16.14-.53l-3 .75v3.11a43 43 0 0 0 .61 7.26c1 5.88 3.29 9.68 6.7 11.29a6 6 0 0 0 1.53.51 7 7 0 0 0 5.68-1.5c4.51-3.41 7.56-12 7.94-16.59l.3-3.61Z" class="cls-9"/><path d="M117.23 217.39s-.2 12.36 5 14.83c4 1.92 8.92-8.56 9.39-14.27 0 .05-9.31-1.82-14.39-.56" class="cls-8"/><path d="M131.62 218c-.45 5.45-4.9 15.23-8.82 14.46a2.1 2.1 0 0 1-.57-.19c-5.2-2.47-5-14.83-5-14.83 5.08-1.26 14.39.56 14.39.56m4.33-3.27-3.55-.73c-1.05-.21-10.36-2-16.14-.53l-3 .75v3.11a43 43 0 0 0 .61 7.26c1 5.88 3.29 9.68 6.7 11.29a6 6 0 0 0 1.52.51 7 7 0 0 0 5.69-1.5c4.5-3.41 7.55-12 7.94-16.59l.3-3.61Z" class="cls-9"/><circle cx="62.51" cy="94.87" r="27.94" class="cls-10"/><path d="M218.71 172.52s-21.61-70.68-80-70.68h-16c-58.36 0-80 70.68-80 70.68C36.34 197.63 46.06 226.46 59 219c1.83-1.05 4.73-5.56 8.34-6.39a215 215 0 0 1 25.85-3.74c14.17-1.37 31 4.93 39.55 4.58 8.3.34 20.63-6 34.48-4.68a219 219 0 0 1 26.91 3.84c3.62.83 6.51 5.34 8.34 6.39 13 7.46 22.73-21.37 16.24-46.48" class="cls-2"/><path d="M218.71 172.52s-14.62-47.78-52.26-64.77l-.39.86a33.4 33.4 0 0 1 6.75 4.51c6 5.2 11.82 13.41 12.07 21.62.28 9.24-9.2 14.07-17.4 11.43l-.28-.11a142.2 142.2 0 0 1-4.12 41 8.59 8.59 0 0 1-4.81 5.68c-4.88 2.18-14.17 2.88-23.35 9.66-3 2.34-4.09 3.91-4 3.95l-.27-.26c-.09.09-.2.36-.27.26-1.85-2.65-3.93-4.21-4.05-3.95-9.18-6.78-18.47-7.48-23.35-9.66a8.56 8.56 0 0 1-4.86-5.74A141.3 141.3 0 0 1 94 146.91c-5.44 2.09-11 2.09-15.07-2.38-9-9.95-1.67-27.89 10-32.47 0-.41.06-.82.11-1.23-33.2 19-46.25 61.69-46.25 61.69C36.34 197.63 46.06 226.46 59 219c1.76-1 4.49-5.18 7.9-6.26-3-3.53-6.6-8.46-7.72-13.25-2.09-8.85 2.34-31 7.54-35.14 0 0-2.44 22.25 1 29.07 6 11.8 19.53 16 19.53 16l-.25.13c2-.23 4.08-.44 6.15-.64 14.17-1.37 31 4.93 39.55 4.58 8.3.34 20.63-6 34.48-4.68 4.35.41 8.66.88 12.72 1.41l-4.42-2.36s13.84-3.39 19.52-16c3.15-7 1-29.06 1-29.06 5.2 4.16 9.63 26.29 7.55 35.14-1.31 5.53-5.87 11.27-9.1 14.79 3.43 1.06 6.18 5.27 7.94 6.28 13.08 7.45 22.81-21.38 16.32-46.49" class="cls-3"/><path d="M218.71 172.52s-21.61-70.68-80-70.68h-16c-58.36 0-80 70.68-80 70.68C36.34 197.63 46.06 226.46 59 219c1.83-1.05.58-3.48 4-4.8 26.14-10.06 54.28 1.33 68.61.73 14.32.6 35.58-10.2 62.52-2.32 3.55 1 6.51 5.34 8.34 6.39 13 7.46 22.73-21.37 16.24-46.48Z" class="cls-5"/><ellipse cx="96.63" cy="128.03" class="cls-9" rx="15.48" ry="8.31" transform="rotate(-37.51 96.617 128.027)"/><ellipse cx="164.39" cy="127.74" class="cls-9" rx="8.31" ry="15.48" transform="rotate(-52.49 164.402 127.738)"/><circle cx="197.8" cy="94.87" r="27.94" class="cls-10"/><path d="M212.91 93.09a15.41 15.41 0 0 0-19.2-12.94L196 94.06l-12.78-4.89a14.5 14.5 0 0 0-1 7 15.3 15.3 0 0 0 16.9 13.35 15.09 15.09 0 0 0 13.79-16.43M77.38 93.09a15.41 15.41 0 0 0-19.2-12.94l2.32 13.91-12.78-4.89a14.5 14.5 0 0 0-1 7 15.3 15.3 0 0 0 16.9 13.35 15.09 15.09 0 0 0 13.76-16.43" class="cls-9"/><ellipse cx="112.12" cy="28.79" class="cls-11" rx="6.22" ry="6.93" transform="rotate(-52.42 112.125 28.787)"/><ellipse cx="127.98" cy="41.83" class="cls-11" rx="3.89" ry="4.33" transform="rotate(-52.42 127.977 41.827)"/></g></svg>