<svg xmlns="http://www.w3.org/2000/svg" viewBox="0 0 262.17 298.96"><defs><clipPath id="clip-path"><circle cx="130.31" cy="174.7" r="123.33" style="fill:none"/></clipPath><style>.cls-11,.cls-12{fill:none}.cls-2{fill:#e02d5c}.cls-4{fill:#012442}.cls-5,.cls-6{fill:#fff}.cls-11,.cls-12,.cls-13,.cls-6{stroke:#012442}.cls-12,.cls-13,.cls-6{stroke-linecap:round;stroke-linejoin:round;stroke-width:8px}.cls-13{fill:#83e8ff}.cls-8{fill:#5ec8e5}.cls-11{stroke-miterlimit:10;stroke-width:6px}.cls-14{fill:#d9fbff}</style></defs><g id="Camada_3" data-name="Camada 3"><circle cx="130.81" cy="173.97" r="123.33" class="cls-2"/><g style="clip-path:url(#clip-path)"><path d="M217.61 300.25c-12.47 0-23.73-7.86-26.61-19.44-9.28-37.2-33-47.33-34-47.74a6 6 0 0 0 .59.22l19.83-46.56c5.18 1.84 51.15 19.87 66.88 83 3.35 13.46-5.85 26.85-20.56 29.92a30.4 30.4 0 0 1-6.13.6" class="cls-4"/><path d="M218.81 292.17c-8.31 0-15.82-5.23-17.74-13-10.65-42.71-44.16-57.53-44.49-57.66-9.18-3.77-13.29-13.62-9.17-22s14.89-12.14 24.07-8.38c2.05.84 50.29 21.24 65.1 80.66 2.24 9-3.9 17.9-13.71 19.94a19.4 19.4 0 0 1-4.06.44" class="cls-5"/><path d="M35 301.08a30.3 30.3 0 0 1-6.1-.63C14.21 297.38 5 284 8.35 270.54 24.08 207.43 74 185.8 79.19 184L99 230.51a46 46 0 0 0-3.35 3.39c-1 .41-24.76 10.54-34 47.74-2.91 11.59-14.17 19.44-26.65 19.44" class="cls-4"/><path d="M33.82 293a19.5 19.5 0 0 1-4.07-.42c-9.81-2-15.94-11-13.71-19.94C30.85 213.22 80.92 192 83 191.15l20.31 26.92.31.28c-1.39.59-41.39 19.06-52 61.7-1.99 7.72-9.49 12.95-17.8 12.95" class="cls-5"/><path id="peito" d="M193.61 300.26s7.63-85.64-43.82-112.23l-56.43 2.24c-45.06 15.93-42.6 110.06-42.6 110.06Z" class="cls-5"/><path d="M63.77 248.94a3.6 3.6 0 0 0-5.33 2.18c-2.79 10.69-5.11 25.22-5.11 44a3.49 3.49 0 0 0 3.67 3.37 3.49 3.49 0 0 0 3.64-3.33c0-18 2.24-32 4.88-42.17a3.59 3.59 0 0 0-1.66-4ZM192 248.93a3.6 3.6 0 0 0-1.8 4.07c2.63 10.18 4.84 24.09 4.85 42.16a3.49 3.49 0 0 0 3.64 3.33 3.49 3.49 0 0 0 3.64-3.33c0-18.8-2.31-33.32-5.1-44a3.59 3.59 0 0 0-5.15-2.26Z" class="cls-4"/></g><path d="M162.74 239.09v38.17l-40.57-29.07z" class="cls-6"/><path d="M86.17 239.09v36.17l40.57-27.07z" class="cls-6"/><path d="M220 51.06c-10.28-27.42-32.37-29.79-87.9-29.79-54.48 0-82.43-4.45-90.22 26.63-6.65 26.56-14.31 86.7-11.43 132.6 2.3 36.68 46.7 67.69 102.3 67.69s97.34-32.19 99-67.69c2.52-51.63-5.13-111.77-11.75-129.44" style="fill:#83e8ff"/><path d="m66.5 86.58-13.33 37.46 73.96 21.13 77.48-22.3L195.22 90l-65.74 36.39zM225.8 170.54c-13.8 34.46-50.15 56.23-93.06 56.23-43.87 0-82.7-20.42-96.69-57a43.4 43.4 0 0 0-6 3.82c.09 2.28.2 4.57.35 6.88 2.3 36.68 46.7 67.69 102.3 67.69s97.34-32.19 99-67.69q.18-3.72.28-7.36-2.98-1.36-6.18-2.57" class="cls-8"/><path d="M220 51.06c-10.28-27.42-32.37-29.79-87.9-29.79-54.48 0-92.43 5.55-100.22 36.63-6.65 26.56-4.31 76.7-1.43 122.6 2.3 36.68 46.7 67.69 102.3 67.69s97.34-32.19 99-67.69c2.52-51.63-5.13-111.77-11.75-129.44Z" style="fill:none;stroke:#012442;stroke-width:8px;stroke-miterlimit:10"/><ellipse cx="79.55" cy="131.03" class="cls-2" rx="24.65" ry="17.55"/><ellipse cx="74.88" cy="124.61" class="cls-5" rx="8.41" ry="5.99"/><path d="M198.7 181.56s-12.87-16.13-18.74-17.3-44.61 5.57-44.61 5.57-38.74-7.92-44.61-5.57-24.65 19.26-24.65 19.26l31.3 3.65 10.43 10.92a2.7 2.7 0 0 0 4.58-1.21c1.54-6.13 4.58-16.17 8.56-18.66l14.39 3.17 13.65-3.17s4.53 9.91 6.28 18.71a2.71 2.71 0 0 0 3.73 2c5.25-2.3 15.82-7.93 23.38-18.52Z" style="fill:#43c0dd"/><ellipse cx="179.55" cy="131.03" class="cls-2" rx="24.65" ry="17.55"/><ellipse cx="174.49" cy="124.61" class="cls-5" rx="8.41" ry="5.99"/><ellipse cx="79.55" cy="130.44" class="cls-11" rx="24.65" ry="18.14"/><ellipse cx="179.55" cy="130.44" class="cls-11" rx="24.65" ry="18.14"/><path d="M198.7 181.56s-12.87-16.13-18.74-17.3-44.61 5.57-44.61 5.57-38.74-7.92-44.61-5.57-24.65 19.26-24.65 19.26" class="cls-12"/><path d="M83.7 168.48s0 22.48 18.78 30.69c0 0 .82-19.95 10.22-32.87l-22-2ZM183.7 168.48s0 22.48-18.79 30.69c0 0-.82-19.95-10.21-32.87l22-2Z" class="cls-6"/><path d="M42.61 126.39s-10.09-22.3-21.83-25.82-15 64 13.13 73.39M220.15 126.39s10.08-22.3 21.82-25.82 15 64-13.13 73.39" class="cls-13"/><path d="M245.8 23.65c-1.37-.9-33.31-21.17-113.75-19.74C51.65 2.49 19.7 22.75 18.33 23.65a4 4 0 0 0-1.81 3.44l1.65 71.61a4 4 0 0 0 2.44 3.59 41.46 41.46 0 0 1 15.48 11.61 4 4 0 0 0 3.21 1.62 4.2 4.2 0 0 0 1-.12 4 4 0 0 0 3-3.31L47.7 81l14.9-9.58a4 4 0 0 0 1.56-4.82L53.81 40.07C86.93 39 119.32 52.8 128.31 57a3.93 3.93 0 0 0 3.82 1.57 3.87 3.87 0 0 0 4-2.07c7.71-4.5 40.5-17.84 72.64-16.36l-9 27.67a4 4 0 0 0 1.82 3.66L216.43 81l4.44 31.06a4 4 0 0 0 3 3.3 3.7 3.7 0 0 0 1 .13 4 4 0 0 0 3.2-1.61 41.5 41.5 0 0 1 15.49-11.62A4 4 0 0 0 246 98.7l1.65-71.61a4 4 0 0 0-1.85-3.44" class="cls-4"/><path d="m63.65 102.47 65.64 31.31a2.6 2.6 0 0 0 2.35-.05l66.48-35a2.62 2.62 0 0 0 1.27-3.14l-4.32-13.17a2.62 2.62 0 0 0-3.75-1.48l-59.83 32.5a2.61 2.61 0 0 1-2.4.06L70.13 85a2.61 2.61 0 0 0-3.63 1.54l-4.21 12.7a2.63 2.63 0 0 0 1.36 3.23" class="cls-4"/><path d="m22.61 60.96 27.91-14.09 3.13 9.35L22.7 70.91zM22.61 38.96l20.91-10.09 3.13 9.35L22.7 48.91zM238.87 67.74l-27.91-14.09-3.13 9.35 30.95 14.69zM238.87 45.74l-20.91-10.09-3.13 9.35 23.95 10.7z" class="cls-14"/><path d="M124.43 248.83v47.82" class="cls-12"/></g></svg>