<svg xmlns="http://www.w3.org/2000/svg" xmlns:xlink="http://www.w3.org/1999/xlink" xml:space="preserve" id="Camada_1" x="0" y="0" version="1.1" viewBox="0 0 262.2 299"><style>.st2{fill:#012442}.st3{fill:#88b7bc}.st5{fill:#00ffda}.st6{fill:none;stroke:#012442;stroke-width:9;stroke-linecap:round;stroke-linejoin:round}.st9{fill:#144060}.st10{fill:none;stroke:#00ffda;stroke-width:10;stroke-miterlimit:10}</style><circle id="Camada_1_1_" cx="130.2" cy="174.1" r="123.3" style="fill:#f29b3b"/><g id="Camada_4"><defs><circle id="SVGID_1_" cx="131.3" cy="175.1" r="123.3"/></defs><clipPath id="SVGID_2_"><use xlink:href="#SVGID_1_" style="overflow:visible"/></clipPath><g style="clip-path:url(#SVGID_2_)"><path d="M218.6 300.6c-12.5 0-23.7-7.9-26.6-19.4-9.3-37.2-33-47.3-34-47.7.2.1.4.2.6.2l19.8-46.6c5.2 1.9 51.1 19.9 66.9 83 3.4 13.5-5.9 26.8-20.6 29.9-2 .4-4 .6-6.1.6" class="st2"/><path d="M219.8 292.5c-8.3 0-15.8-5.2-17.7-13-10.6-42.7-44.2-57.5-44.5-57.7-9.2-3.8-13.3-13.6-9.2-22s14.9-12.1 24.1-8.4c2 .8 50.3 21.2 65.1 80.7 2.2 9-3.9 17.9-13.7 20-1.3.3-2.7.4-4.1.4" class="st3"/><path d="M36 301.5c-2 0-4.1-.2-6.1-.6-14.7-3.1-23.9-16.5-20.5-30 15.7-63.1 65.6-84.7 70.8-86.6l19.8 46.6c-1.2 1.1-2.3 2.2-3.3 3.4-1 .4-24.8 10.5-34 47.7-2.9 11.6-14.2 19.5-26.7 19.5" class="st2"/><path d="M34.8 293.4c-1.4 0-2.7-.1-4.1-.4-9.8-2-15.9-11-13.7-19.9 14.8-59.4 64.9-80.7 66.9-81.5l20.3 26.9.3.3c-1.4.6-41.4 19.1-52 61.7-1.9 7.6-9.4 12.9-17.7 12.9" class="st3"/><path id="peito" d="M194.6 300.6s7.6-85.6-43.8-112.2l-56.4 2.2c-45.1 15.9-42.6 110-42.6 110z" class="st3"/><path d="M37.9 229c64.6 58.2 163.5 31.5 182.7 4.8-13.7-24.2-45.9-49-63.9-41.9-9.9-9.7-64.6 3.4-72.5-.2-2.5 1.9-18.1-1.4-46.3 37.3" style="fill:#659da0"/><path d="M64.8 249.3c-1.7-1-3.9-.5-4.9 1.3-.2.3-.3.6-.4.9-2.8 10.7-5.1 25.2-5.1 44 .1 1.9 1.7 3.5 3.6 3.4 1.9.1 3.5-1.4 3.6-3.3 0-18 2.2-32 4.9-42.2.4-1.6-.3-3.2-1.7-4.1M193 253.3c-1.5.8-2.2 2.5-1.8 4.1 2.6 10.2 4.8 24.1 4.9 42.2.1 1.9 1.7 3.4 3.6 3.3 1.9.1 3.6-1.4 3.6-3.3 0-18.8-2.3-33.3-5.1-44-.5-1.9-2.5-3.1-4.4-2.6-.2 0-.5.1-.8.3" class="st2"/></g><circle cx="127.3" cy="269.4" r="18" class="st5"/><circle cx="127.3" cy="269.4" r="18" class="st6"/></g><g id="Camada_3"><path d="M54.6 87.7c-.6-.8-1.6-5.2-2.5-5.1q-5.55 1.35-11.1 3.3l-2.6 5.3-3.5.6-.8-1c-1-1.3-1.9-1.8-3.4-1.2-4.6 2-6.6 6.3-8.2 9.8-5.3 11.4-8.6 25.8-7.3 47.6.4 7.5 1.8 12.8 4.9 13.1q1.2 0 2.1-.6l4.2 2.5s.8 6.4 1.2 6.7l13.6 9.6c.5.4.4-1.8 1-1.8.4 0 .9-.1 1.3-.3 1-.6 1.7-1.6 1.8-2.7l10-82.9c.3-.9 0-2-.7-2.9M206.6 87.7c.6-.8 1.6-5.2 2.5-5.1q5.55 1.35 11.1 3.3l2.6 5.3 3.5.5.8-1c1-1.3 1.9-1.8 3.4-1.2 4.6 2 6.6 6.3 8.2 9.8 5.3 11.4 8.6 25.8 7.3 47.6-.4 7.5-1.8 12.8-4.9 13.1q-1.2 0-2.1-.6l-4.2 2.5s-.8 6.4-1.2 6.7l-13.6 9.6c-.5.4-.4-1.8-1-1.8-.5 0-.9-.1-1.3-.3-1-.6-1.6-1.6-1.8-2.7l-10-82.9c-.3-.9.1-1.9.7-2.8" class="st2"/><path d="M233.5 157c1-40.3-10.7-62-10.8-62.2l7.2.9c3.5 7.9 10.1 27.2 9.9 57.7L234 157z" class="st5"/><path d="M222.6 143.8c-5.9-61.5-22.9-111.4-92.5-111.4h-2c-51.1 0-86.6 49.9-92.5 111.4-.1.9-1.5 9.3-.9 16.3 1.2 13.7 13 70.5 93.4 70.5h1.9c78.6 0 93.5-51.5 94.7-65.2.8-6.9-2-20.7-2.1-21.6" style="fill:#d6e7f2"/><path d="M130.5 213.3h-1.9c-75.6 0-92.1-30.7-93.9-52-.1 2.2-.2 4.1-.2 5.6 0 22.6 13.7 59.7 94 59.7h1.9c80.4 0 94.7-35.8 94.7-58.2 0-1.5-.1-3.6-.1-5.9-1.7 20.9-18.7 50.8-94.5 50.8" style="fill:#9fc1d1"/><path d="M27.7 157c-1-40.3 10.7-62 10.8-62.2l-7.2.9c-3.5 8-10.1 27.2-9.9 57.7l5.8 3.6z" class="st5"/><path d="M223.6 142.2c-5.9-61.5-21.9-109.9-93.2-109.9h-1.9c-65.7 0-86.6 49.9-92.5 111.4-.1.9-1.6 20.2-1.6 27.2 0 22.6 13.7 59.7 94 59.7h1.9c80.4 0 94.7-35.8 94.7-58.2.2-7.2-1.2-28.6-1.4-30.2" class="st6"/><path d="M129.8 182.4c-25.6.1-51-4.3-75.1-13-1.3-.6-2.1-1.9-2-3.3 0-1.7-.3-41.6 11.7-69.6.2-.6.7-1.1 1.2-1.5.6-.4 14.4-9.6 36.9-13.9 20.7-3.9 52.9-4.8 88.8 12.8.5.3.9 1.6 1.3 2.1.1.2 3.2 5.6 6.5 17 3 10.3 6.8 27.8 8 52.7.1 1.4-.6 2.8-1.9 3.5-.7.3-17.8 7.4-45 11.1-10.1 1.4-20.3 2.1-30.4 2.1" class="st2"/><path d="M90.2 84.1C75 88.7 66 94.7 65.6 95q-.9.6-1.2 1.5c-12 28-11.7 67.9-11.7 69.6-.1 1.4.8 2.7 2 3.3q4.05 1.5 8.1 2.7c6.9-30 17.4-58.9 27.4-88M128.8 181.8c10.1-33.1 19.4-66.4 27.4-100-10.1-2.1-20.4-3.1-30.7-2.9-11.1 33.4-23.8 66.3-31.9 100.6 11.6 1.9 23.4 2.9 35.1 2.9 0-.3 0-.4.1-.6M203.2 130.4c-1.1-5.8-2.4-11.6-4.1-17.3-3.3-11.4-6.4-16.8-6.5-17-.3-.5-.8-1.8-1.3-2.1q-8.25-4.05-17.1-7.2c-7.6 31.9-16.3 63.4-25.8 94.8 4.2-.3 8.1-.8 11.7-1.2 9.6-1.3 19.2-3.2 28.5-5.7 4.4-14.9 9.6-29.5 14.6-44.3" class="st9"/><path d="M108.5 123c0 12.8-12.1 22-22.9 22S65 134.7 65 121.9s9.9-23.2 20.6-23.2 22.9 11.5 22.9 24.3z" class="st10"/><path d="M114.4 150.1h25.5c2.2 0 4 1.7 4.1 4 .2 6.5-1.5 18.8-16.8 18.8-14.3 0-16.7-12-16.9-18.5-.1-2.3 1.7-4.1 4-4.2 0-.1 0-.1.1-.1" class="st5"/><path d="M148.1 123c0 12.8 12.1 22 22.9 22s20.6-10.3 20.6-23.1-9.9-23.2-20.6-23.2c-10.8.1-22.9 11.5-22.9 24.3z" class="st10"/><path d="M127.7 79.7c22.1.1 43.9 5.3 63.6 15.2.5.3 1 .7 1.3 1.2.1.2 3.2 5.6 6.5 17 3 10.3 6.8 27.8 8 52.7.1 1.4-.6 2.8-1.9 3.5-.7.3-17.8 7.4-45 11.1-10.1 1.3-20.2 2-30.3 2-25.6.1-51-4.3-75.1-13-1.3-.6-2.1-1.9-2-3.3 0-1.7-.3-41.6 11.7-69.6.2-.6.7-1.1 1.2-1.5.6-.4 14.4-8.7 36.9-13 8.2-1.5 16.6-2.3 25.1-2.3m0-5.5c-8.8 0-17.6.8-26.2 2.4-18.7 3.5-33.2 10.3-38.8 13.7-1.5.9-2.7 2.3-3.4 4-12.5 29-12.2 70.1-12.1 71.8 0 3.7 2.2 7 5.6 8.4 24.7 8.9 50.8 13.4 77 13.3 10.4 0 20.8-.7 31.1-2.1 27.9-3.7 45.7-11.1 46.4-11.4 3.4-1.5 5.5-5 5.3-8.8-1.2-25.5-5.1-43.5-8.2-54-3.4-11.8-6.7-17.6-7.1-18.2-.8-1.4-2.1-2.6-3.6-3.4-20.5-10.2-43.1-15.6-66-15.7" style="fill:#112138"/><path d="m154.3 41.3-5.6 12c-.6 1.6-2.2 2.7-3.9 2.7h-29.9c-1.6 0-3.1-1-3.8-2.5l-5.9-11.2c-1.1.4-2.2.8-3.3 1.3l6.2 11.9c1.3 2.6 3.9 4.3 6.8 4.4h29.9c3.1-.1 5.8-1.9 7-4.8l5.9-12.9c-1.1-.3-2.2-.7-3.4-.9" class="st3"/></g></svg>