<svg xmlns="http://www.w3.org/2000/svg" viewBox="0 0 262.17 298.96"><defs><clipPath id="clip-path"><circle cx="130.19" cy="175.47" r="123.33" style="fill:none"/></clipPath><style>.cls-4{fill:#012442}.cls-5{fill:#e02d5c}.cls-7{fill:#c1e0e5}.cls-10{fill:#fff}</style></defs><g id="Camada_4" data-name="Camada 4"><circle cx="130.7" cy="174.74" r="123.33" style="fill:#00c9ff"/><g style="clip-path:url(#clip-path)"><path d="M217.49 301c-12.47 0-23.73-7.85-26.61-19.44-9.28-37.2-33-47.32-34-47.74.38.16.59.23.59.23l19.83-46.57c5.19 1.85 51.15 19.87 66.88 83 3.36 13.45-5.85 26.84-20.56 29.91a29.7 29.7 0 0 1-6.13.61" class="cls-4"/><path d="M218.69 292.94c-8.31 0-15.82-5.24-17.74-13-10.65-42.72-44.16-57.53-44.49-57.67-9.18-3.76-13.29-13.62-9.17-22s14.9-12.15 24.07-8.38c2 .84 50.29 21.24 65.11 80.66 2.23 9-3.91 17.89-13.72 19.94a20 20 0 0 1-4.06.45" class="cls-5"/><path d="M34.9 301.84a29.7 29.7 0 0 1-6.1-.63c-14.71-3.06-23.92-16.45-20.56-29.91 15.76-63.1 65.64-84.74 70.83-86.59l19.82 46.57a44 44 0 0 0-3.35 3.39c-1 .41-24.76 10.53-34 47.74-2.92 11.59-14.18 19.43-26.64 19.43" class="cls-4"/><path d="M33.7 293.77a20.3 20.3 0 0 1-4.07-.42c-9.8-2.05-15.94-11-13.71-19.94C30.73 214 80.8 192.76 82.85 191.92l20.3 26.92.31.27c-1.39.6-41.39 19.06-52 61.7-1.95 7.72-9.46 12.96-17.76 12.96" class="cls-5"/><path id="peito" d="M193.49 301s7.63-85.63-43.82-112.23L93.24 191c-45.06 15.92-42.6 110-42.6 110Z" class="cls-5"/><path d="M34.74 232.36c64.57 58.23 165.52 28.49 184.73 1.84-13.73-24.22-45.93-49-63.87-41.91-9.89-9.68-64.63 3.36-72.5-.25-2.57 1.96-26.84 10.9-48.36 40.32" style="fill:#af1545"/><path d="M63.65 249.7a3.61 3.61 0 0 0-5.33 2.18c-2.79 10.7-5.1 25.23-5.11 44a3.5 3.5 0 0 0 3.64 3.34 3.49 3.49 0 0 0 3.64-3.33c0-18 2.24-32 4.88-42.18a3.6 3.6 0 0 0-1.66-4ZM191.84 249.69a3.61 3.61 0 0 0-1.8 4.08c2.64 10.18 4.84 24.09 4.85 42.16a3.49 3.49 0 0 0 3.64 3.33 3.5 3.5 0 0 0 3.64-3.34c0-18.8-2.31-33.31-5.1-44a3.59 3.59 0 0 0-5.14-2.26Z" class="cls-4"/></g></g><g id="Camada_3" data-name="Camada 3"><path d="M218.05 77.55c-10.14-23.64-31.72-42.84-85.66-42.5-52.91.35-80 14-87.36 40.88-6 21.71-12.16 125.51-12.16 125.51s27 39.06 99.72 50.77h.13c72.6-12.64 99.05-52.05 99.05-52.05s-7.34-107.72-13.72-122.61" class="cls-7"/><path d="m132.27 256.48-.36-.05C58.2 244.56 30.5 205.52 29.36 203.86l-.84-1.21.09-1.47c.25-4.25 6.29-104.49 12.31-126.38C45 60 54.7 48.87 69.81 41.67S105.28 31 132.36 30.79h1.51c46.91 0 74.92 14.35 88.1 45.08 6.48 15.12 13.31 112.91 14.06 124l.1 1.45-.81 1.21c-1.12 1.67-28.31 41.08-101.87 53.89l-.35.06Zm-95-56.37c5 6.28 32.79 37.53 95.4 47.78 62.48-11.06 89.85-42.68 94.78-49C225.27 168 219 90.7 214.13 79.23c-7.43-17.31-24-40.26-81.71-39.91-49.83.32-76.29 12.31-83.27 37.74C43.76 96.66 38 187 37.23 200.11Z" class="cls-4"/><path d="m153.58 194.66-.48-74.83-14.77.1.51 78.3c3.92-.91 8.98-2.12 14.74-3.57M182.18 186.86l-2.18-67.2-14.76.09 2.31 71.25c4.74-1.28 9.67-2.67 14.63-4.14M210.6 177.31l-3.76-57.82-14.76.09 4.08 62.89c5.01-1.66 9.84-3.38 14.44-5.16M125.19 199.63l-.51-79.63-14.76.09.49 76.87c4.9 1.14 9.85 2.04 14.78 2.67M67.7 182.42l3.23-62.06-14.76.1-2.87 55.17c4.09 2.06 8.96 4.37 14.4 6.79M96.34 193.19l1.46-73-14.8.09-1.36 67.87c4.73 1.78 9.64 3.49 14.7 5.04" class="cls-4"/><path d="M156.28 111.17h5.4l21.18-.13h5.48l20.72-.13c-1.75-14.72-3.35-24.75-4.52-27.49-11.14-26-36.63-32.1-60-33.32l.4 61.22Z" style="fill:#e3fafc"/><path d="M37.16 189.72s40.67 29.69 92.09 36.28c0 0 44-4.64 97.79-36.67l-1.54-29.65-185.87-6.51Z" style="fill:#90acaf"/><path d="M130 212.31c58.42-8.47 112.66-42.86 112.66-42.86L231.51 111a2.86 2.86 0 0 0-2.83-2.33l-98.83.64h-5.34l-90.08.58a2.86 2.86 0 0 0-2.82 2.49l-7.85 58.47s43.45 33.76 102 41.48a8 8 0 0 0 4.24 0Z" class="cls-7"/><path d="M127.68 215.94a12.8 12.8 0 0 1-2.52-.33c-58.67-7.78-101.63-40.73-103.44-42.13l-1.5-1.17 8.1-60.37a6.21 6.21 0 0 1 6.09-5.36l194.25-1.25a6.17 6.17 0 0 1 6.07 5l11.53 60.69-1.9 1.21c-.55.34-55.44 34.81-113.83 43.32a11.7 11.7 0 0 1-2.7.35ZM27.31 169.36c8.12 5.87 47.94 33 98.85 39.69h.27c.39.08.91.17 1.16.19h.47c.25 0 .76-.12 1.16-.21l.27-.05c50.95-7.39 99.35-35.16 109.44-41.21L228.32 112l-193.48 1.22Z" class="cls-4"/><path d="M51.56 171.79 57.77 122l-11.88.07-6.74 43.21c3.29 1.85 7.45 4.07 12.41 6.51M75.29 182.27l4.21-60.36-12.73.09-4.55 54.71c1.64.64 3.19 1.39 4.78 2.16 2.64 1.13 5.4 2.26 8.29 3.4M102.07 121.82l-13.57.08-2 64.1c4.52 1.37 8.76 3 13.74 4.13ZM126 196.17l-.48-74.46-14.4.1.45 70.81q6.95 1.89 14.43 3.55M214.83 170.74 208 121l11.89-.08 7.3 43.12c-3.3 1.96-7.43 4.2-12.36 6.7M191.24 181.53l-5-60.3 12.72-.09 5.26 54.65c-1.63.67-3.18 1.43-4.75 2.22-2.6 1.16-5.35 2.34-8.23 3.52M163.69 121.42l13.56-.09 2.87 64.07c-4.5 1.42-8.72 3.08-13.69 4.31ZM140.75 196.07l-.48-74.45 14.41-.09.46 70.81q-6.96 1.98-14.39 3.73" class="cls-4"/><path d="m93.27 19.61 3.23-1c.24-.07 6-1.92 13.86-3.56l2.3-.49 1.72 2.84.36-3.23 2.5-.39a92.5 92.5 0 0 1 14.2-1.24 101 101 0 0 1 12.77.92l2.82.36.13 4.78 3.89-4.11 1.77.32c8.32 1.52 14.57 3.24 14.83 3.32l3.5 1-17.38 31.76-44.55.28Z" class="cls-5"/><path d="M131.44 15.82a99 99 0 0 1 12.35.89l.27 10 8.16-8.71c8.27 1.52 14.54 3.26 14.54 3.26l-15.3 26.29-39.88.26-14.06-26.08s5.74-1.85 13.52-3.48l5.56 9.17L117.76 17a90 90 0 0 1 13.68-1.2m0-6.64a95.5 95.5 0 0 0-14.72 1.28l-2.42.38v-.05l-1 .21-1.56.25v.08l-2 .43c-8 1.68-14 3.57-14.2 3.65L89 17.49l2.22 6.42L105.3 50l1.56 4.49h4.76l39.89-.26h4.56l1.61-4.27L173 23.62l2.55-6.8-7-1.93c-.26-.08-6.65-1.84-15.11-3.39l-3.15-.57v-.08l-5.64-.73a106 106 0 0 0-13.19-.94Z" class="cls-4"/><ellipse cx="78.8" cy="75.1" class="cls-10" rx="6.23" ry="6.95" transform="rotate(-52.42 78.8 75.106)"/><ellipse cx="94.69" cy="88.17" class="cls-10" rx="3.9" ry="4.34" transform="rotate(-52.42 94.702 88.172)"/></g></svg>