<svg xmlns="http://www.w3.org/2000/svg" viewBox="0 0 262.17 298.96"><defs><clipPath id="clip-path"><circle cx="130.19" cy="175.47" r="123.33" style="fill:none"/></clipPath><style>.cls-11,.cls-9{fill:none}.cls-4{fill:#012442}.cls-5{fill:#3ec63e}.cls-11,.cls-9{stroke:#012442;stroke-miterlimit:10}.cls-9{stroke-width:6px}.cls-10{fill:#e02d5c}.cls-11{stroke-width:8px}.cls-12{fill:#ffea55}.cls-14{fill:#4d8faa}</style></defs><g id="Camada_4" data-name="Camada 4"><circle cx="130.7" cy="174.74" r="123.33" style="fill:#00c9ff"/><g style="clip-path:url(#clip-path)"><path d="M217.49 301c-12.47 0-23.73-7.85-26.61-19.44-9.28-37.2-33-47.32-34-47.74.38.16.59.23.59.23l19.83-46.57c5.19 1.85 51.15 19.87 66.88 83 3.36 13.45-5.85 26.84-20.56 29.91a29.7 29.7 0 0 1-6.13.61" class="cls-4"/><path d="M218.69 292.94c-8.31 0-15.82-5.24-17.74-13-10.65-42.72-44.16-57.53-44.49-57.67-9.18-3.76-13.29-13.62-9.17-22s14.9-12.15 24.07-8.38c2 .84 50.29 21.24 65.11 80.66 2.23 9-3.91 17.89-13.72 19.94a20 20 0 0 1-4.06.45" class="cls-5"/><path d="M34.9 301.84a29.7 29.7 0 0 1-6.1-.63c-14.71-3.06-23.92-16.45-20.56-29.91 15.76-63.1 65.64-84.74 70.83-86.59l19.82 46.57a44 44 0 0 0-3.35 3.39c-1 .41-24.76 10.53-34 47.74-2.92 11.59-14.18 19.43-26.64 19.43" class="cls-4"/><path d="M33.7 293.77a20.3 20.3 0 0 1-4.07-.42c-9.8-2.05-15.94-11-13.71-19.94C30.73 214 80.8 192.76 82.85 191.92l20.3 26.92.31.27c-1.39.6-41.39 19.06-52 61.7-1.95 7.72-9.46 12.96-17.76 12.96" class="cls-5"/><path id="peito" d="M204.49 301s-2.37-85.63-53.82-112.23L94.24 191c-45.06 15.92-42.6 110-42.6 110Z" class="cls-5"/></g></g><g id="Camada_3" data-name="Camada 3"><path d="M207 234.18v-120c0-35.06-35.48-63.74-78.83-63.74s-78.83 28.68-78.83 63.74v120" class="cls-5"/><path d="M54.38 130.3 201.78 99s-12.54-39.13-25.08-45.39S54.23 95.87 54.23 95.87Z" style="fill:#1b931b"/><path d="M207 234.18v-122c0-35.65-35.48-64.82-78.83-64.82h0c-43.35 0-78.83 29.17-78.83 64.82v122" style="fill:none;stroke:#012442;stroke-linecap:round;stroke-linejoin:round;stroke-width:9px"/><path d="M153.46 240.42a15.5 15.5 0 0 0 3.74-4.4 13 13 0 0 0-1.14-14.37 9.2 9.2 0 0 0-4.39-3.14 10.92 10.92 0 0 0-7.32.89c-2.3 1-10 4.22-16.11 4.36S115 221 112.66 220.15a11 11 0 0 0-7.36-.54 9 9 0 0 0-4.23 3.34 13 13 0 0 0-.46 14.41 16.6 16.6 0 0 0 3.94 4.22c10.24 7.82 24.8 7.46 24.8 7.46a41.48 41.48 0 0 0 24.11-8.62" style="fill:#fff"/><path d="M153.46 240.42a15.5 15.5 0 0 0 3.74-4.4 13 13 0 0 0-1.14-14.37 9.2 9.2 0 0 0-4.39-3.14 10.92 10.92 0 0 0-7.32.89c-2.3 1-10 4.22-16.11 4.36S115 221 112.66 220.15a11 11 0 0 0-7.36-.54 9 9 0 0 0-4.23 3.34 13 13 0 0 0-.46 14.41 16.6 16.6 0 0 0 3.94 4.22c10.24 7.82 24.8 7.46 24.8 7.46a41.48 41.48 0 0 0 24.11-8.62ZM110.12 218.8l.59 25.11M122.84 223.4l.59 25.12M136.28 222.75l.6 25.12M147.84 219.16l.6 25.11" class="cls-9"/><rect width="71.37" height="72.57" x="67.86" y="14.29" class="cls-10" rx="35.68" transform="rotate(-12.99 103.548 50.582)"/><rect width="71.37" height="72.57" x="68.74" y="15.17" class="cls-11" rx="35.68" transform="rotate(-12.99 104.429 51.439)"/><path d="M16.43 86s5.83 35.31 49.66 30.61 125.65-41.52 125.65-41.52S228.61 57.43 213 23Z" class="cls-10"/><path d="M16.43 86s7.84 41.09 50.66 30.61c40.13-9.82 124.65-40.56 124.65-40.56S223 62.57 213 23Z" class="cls-11"/><path d="M205.48 39.2v-.08l-15.35 5.24 11 8a133 133 0 0 0 4.35-13.16M176.29 68.61l4.23-21.29-22.71 7.76zM143.96 79.32l4.23-21.29-22.71 7.76zM111.63 90.03l4.23-21.28-22.71 7.75zM79.3 100.74l4.23-21.28-22.71 7.75zM46.3 106.18l2.87-14.42-13.24 4.52a48.8 48.8 0 0 0 10.37 9.9" class="cls-12"/><path d="M183.71 236.49c-5.91 0-11.62-3.83-16.56-11.26l-.36-.54c-4.32-6.5-8.06-12.12-15.18-14.73a24.18 24.18 0 0 0-20.78 1.67 3 3 0 0 1-3.12-5.13 30.24 30.24 0 0 1 26-2.17c9 3.29 13.41 10 18.11 17l.35.53c5.09 7.65 10.39 10.18 15.74 7.51a9.71 9.71 0 0 0 5-8.54 7.25 7.25 0 0 0-3.78-6.81 5.18 5.18 0 0 0-4.18-.45 2.41 2.41 0 0 0-1.42 1.69 2.67 2.67 0 0 0 .45 2.67 1.9 1.9 0 0 0 2 .19 3 3 0 1 1 2 5.64 7.77 7.77 0 0 1-8.14-1.46 8.91 8.91 0 0 1 2.76-14.26 11.06 11.06 0 0 1 9.32.67 13.25 13.25 0 0 1 7 12.19 15.61 15.61 0 0 1-8.3 13.84 15.24 15.24 0 0 1-6.91 1.75" class="cls-4"/><path d="M73.42 236.49c5.9 0 11.61-3.83 16.56-11.26l.35-.54c4.33-6.5 8.06-12.12 15.19-14.73a24.15 24.15 0 0 1 20.77 1.67 3 3 0 0 0 3.13-5.13 30.24 30.24 0 0 0-26-2.17c-9 3.29-13.41 10-18.11 17l-.36.53c-5.09 7.65-10.38 10.18-15.73 7.51a9.72 9.72 0 0 1-5-8.54 7.27 7.27 0 0 1 3.78-6.81 5.2 5.2 0 0 1 4.19-.45 2.42 2.42 0 0 1 1.41 1.69 2.65 2.65 0 0 1-.44 2.67 1.9 1.9 0 0 1-2 .19 3 3 0 0 0-2 5.64 7.77 7.77 0 0 0 8.14-1.46 8.55 8.55 0 0 0 2.09-8.74 8.46 8.46 0 0 0-4.85-5.52 11 11 0 0 0-9.31.67 13.28 13.28 0 0 0-7 12.19 15.63 15.63 0 0 0 8.3 13.84 15.3 15.3 0 0 0 6.89 1.75M136.89 278.61l4.54-4.53a3 3 0 0 0-4.25-4.25l-4.53 4.54-4.53-4.54a3 3 0 0 0-4.24 4.25l4.53 4.53-4.53 4.53a3 3 0 0 0 0 4.24 3 3 0 0 0 4.24 0l4.53-4.53 4.53 4.53a3 3 0 0 0 4.25-4.24ZM134.55 115.39l4.53-4.53a3 3 0 0 0-4.24-4.24l-4.54 4.53-4.53-4.53a3 3 0 0 0-4.24 4.24l4.53 4.53-4.53 4.53a3 3 0 0 0 2.12 5.12 3 3 0 0 0 2.12-.88l4.53-4.53 4.54 4.53a3 3 0 0 0 2.16.84 3 3 0 0 0 2.12-5.12ZM79 259l4.53-4.53a3 3 0 1 0-4.24-4.24l-4.53 4.53-4.53-4.53a3 3 0 1 0-4.23 4.28l4.5 4.49-4.5 4.57a3 3 0 0 0 2.12 5.13 3 3 0 0 0 2.12-.88l4.53-4.53 4.53 4.53a3 3 0 0 0 4.24-4.25ZM188.55 257.48l4.53-4.53a3 3 0 0 0-4.24-4.25l-4.54 4.54-4.53-4.54a3 3 0 0 0-4.24 4.25l4.53 4.53-4.53 4.52a3 3 0 0 0 2.12 5.12 3 3 0 0 0 2.12-.88l4.53-4.53 4.54 4.53a3 3 0 0 0 2.12.88 3 3 0 0 0 2.12-5.12ZM229 134l-4-1.23c-11.57-3.56-25.26-5.36-40.68-5.36h-.19a242 242 0 0 0-46.33 4.79 29.7 29.7 0 0 0-12.44-2.88 26.1 26.1 0 0 0-11.39 2.64c-10.87-2.95-23.49-4.44-37.51-4.44h-.19a239.5 239.5 0 0 0-48.49 5.26L22.4 134a6.87 6.87 0 0 0-4.4 3.5 8.63 8.63 0 0 0-.76 6.06l1.73 7.2c.12.5 12.38 49.59 51.42 49.59h.05c14.37 0 34.11-4.46 46.57-25.56a67 67 0 0 0 7.55-19.49 7 7 0 0 1 .79-.05 8.7 8.7 0 0 1 3.05.61c3.85 11.2 18 44.39 49.85 44.38h.05c14.37 0 34.11-4.45 46.57-25.55a66.6 66.6 0 0 0 8.71-26.95L234 142c.24-3.68-1.86-7.06-5-8" class="cls-4"/><path d="M184.31 135.41h-.18a230 230 0 0 0-46.21 4.9l-.94.2-.87-.44a24 24 0 0 0-10.76-2.75 20.25 20.25 0 0 0-9.67 2.52l-1 .56-1.07-.31c-10.62-3-23.12-4.58-37.14-4.58h-.2a234.4 234.4 0 0 0-47.1 5.1l-5.06 1.17 1.65 6.87a83.5 83.5 0 0 0 10 22.33c9.16 14.17 20.82 21.35 34.67 21.35 12.67 0 30-3.84 40.75-22a58.2 58.2 0 0 0 7-19.34l.32-1.8 1.49-.72a12 12 0 0 1 2.22-.82 12.5 12.5 0 0 1 3.12-.39 16.3 16.3 0 0 1 7.39 1.95l1.19.6.44 1.4a81.4 81.4 0 0 0 11.3 22.79c8.84 12.11 19.81 18.25 32.6 18.25 12.67 0 30-3.84 40.75-22a58.4 58.4 0 0 0 7.53-23.12l.38-5.44-3.78-1.16c-10.95-3.41-24.02-5.12-38.82-5.12M109.77 153c-8.09 27.28-29.42 29.73-40.69 29.74-14.09 0-26.14-9.18-34-28.84l-2.22-5.6 4.59-.89a207 207 0 0 1 38.06-3.87h.17c11.25 0 22.72 1.17 31.69 3.46l3.88 1Zm109.78-.18c-8.55 27.47-29.66 31.6-41.55 31.61-14.81 0-27.49-10.91-35.71-30.74l-2.29-5.63 4.83-.9a225 225 0 0 1 40-3.9h.2a135.7 135.7 0 0 1 32 3.48l4.08 1Z" style="fill:#f9b800"/><path d="m52.4 151.66-3.72 15a29 29 0 0 0 9 6.94l5.76-23c-3.89.25-7.58.63-11.04 1.06M93.48 151.15a150 150 0 0 0-16.39-1l-5.86 25.9a41.8 41.8 0 0 0 17.06-3.85ZM161.17 151.66l-3.72 15a28.9 28.9 0 0 0 9 6.94l5.76-23c-3.89.25-7.58.63-11.04 1.06M202.24 151.15a149 149 0 0 0-16.38-1l-5.86 25.9a41.8 41.8 0 0 0 17.06-3.85Z" class="cls-14"/></g></svg>