<svg xmlns="http://www.w3.org/2000/svg" viewBox="0 0 262.17 298.96"><defs><clipPath id="clip-path"><circle cx="131.31" cy="175.24" r="123.33" style="fill:none"/></clipPath><style>.cls-11,.cls-13,.cls-6{fill:none}.cls-4{fill:#012442}.cls-5{fill:#495459}.cls-11,.cls-13,.cls-15,.cls-6{stroke:#012442}.cls-13,.cls-15,.cls-6{stroke-linecap:round;stroke-linejoin:round}.cls-6{stroke-width:8px}.cls-7{fill:#fff}.cls-11{stroke-miterlimit:10}.cls-10{fill:#f7c434}.cls-11,.cls-13,.cls-15{stroke-width:6px}.cls-12{fill:#e02d5c}.cls-15{fill:#3ec63e}.cls-16{fill:#7fc8cc}</style></defs><g id="Camada_3" data-name="Camada 3"><circle cx="131.81" cy="174.51" r="123.33" style="fill:#f29b3b"/><g style="clip-path:url(#clip-path)"><path d="M218.61 300.78c-12.47 0-23.73-7.85-26.61-19.43-9.28-37.21-33-47.33-34-47.74l.59.22 19.83-46.56c5.18 1.84 51.15 19.87 66.88 83 3.35 13.46-5.85 26.85-20.56 29.91a29.7 29.7 0 0 1-6.13.6" class="cls-4"/><path d="M219.81 292.71c-8.31 0-15.82-5.23-17.74-13-10.65-42.71-44.16-57.53-44.49-57.67-9.18-3.76-13.29-13.62-9.17-22s14.89-12.14 24.07-8.38c2.05.84 50.29 21.24 65.1 80.66 2.24 9-3.9 17.9-13.71 19.94a20 20 0 0 1-4.06.45M36 301.62a30.3 30.3 0 0 1-6.1-.63C15.21 297.92 6 284.53 9.35 271.08 25.08 208 75 186.33 80.19 184.49L100 231.05a46 46 0 0 0-3.35 3.39c-1 .41-24.76 10.54-34 47.74-2.91 11.58-14.17 19.44-26.65 19.44" class="cls-4"/><path d="M34.82 293.54a19.5 19.5 0 0 1-4.07-.42c-9.81-2-15.94-11-13.71-19.94 14.81-59.42 64.88-80.65 66.96-81.49l20.31 26.92.31.28c-1.39.59-41.39 19.06-52 61.69-1.99 7.73-9.49 12.96-17.8 12.96" class="cls-4"/><path id="peito" d="M194.61 300.8s7.63-85.64-43.82-112.24l-56.43 2.25c-45.06 15.92-42.6 110.06-42.6 110.06Z" class="cls-4"/><path d="M64.77 249.48a3.6 3.6 0 0 0-5.33 2.17c-2.79 10.7-5.11 25.23-5.11 44A3.49 3.49 0 0 0 58 299a3.49 3.49 0 0 0 3.64-3.33c0-18 2.24-32 4.88-42.17a3.59 3.59 0 0 0-1.66-4ZM193 249.47a3.59 3.59 0 0 0-1.8 4.07c2.63 10.18 4.84 24.09 4.85 42.16a3.49 3.49 0 0 0 3.64 3.33 3.49 3.49 0 0 0 3.64-3.33c0-18.8-2.31-33.32-5.1-44a3.59 3.59 0 0 0-5.15-2.26Z" class="cls-4"/></g><ellipse cx="209.76" cy="70.9" class="cls-4" rx="30.97" ry="29.83"/><circle cx="209.67" cy="70.5" r="17.01" class="cls-5"/><path d="M216.84 99.94c13.69-3.09 23.88-14.91 23.88-29 0-16.47-13.86-29.82-31-29.82-15.07 0-27.61 10.36-30.39 24.09" class="cls-6"/><ellipse cx="51.92" cy="73.52" class="cls-4" rx="32.4" ry="31.21"/><circle cx="51.97" cy="73.1" r="17.79" class="cls-5"/><path d="M44.51 103.9c-14.32-3.23-25-15.6-25-30.38 0-17.23 14.5-31.2 32.4-31.2 15.76 0 28.88 10.84 31.79 25.2" class="cls-6"/><path d="M224.84 95.27c-10.67-23.76-33.61-43.14-91.27-43.14-56.55 0-78.91 15.92-93.66 40.4C24.19 118.62 12 149.65 28 190.08c12 30.08 48.53 58.65 106.26 58.65s101.05-27.89 102.83-58.65c2.57-44.73-5.38-79.51-12.25-94.81" class="cls-7"/><path d="M237.09 164.47c-1.78 30.92-45.11 59-102.83 59S40 194.7 28 164.47a106 106 0 0 1-7-27.77c-1.55 15.06.13 31.57 7 49.91 12 31.85 48.53 62.12 106.26 62.12s101.05-29.54 102.83-62.12c.55-10.23.62-20 .31-29.1-.08 2.3-.18 4.61-.31 6.96" style="fill:#daf0f2"/><path d="M224.84 94.69c-12.75-23-33.61-43.3-91.27-43.3-56.57 0-79.51 15.67-93.66 40.55C26.63 115.3 18.1 160.73 28 189.86c10.43 30.53 48.49 58.87 106.22 58.87s95.61-28.66 102.83-58.87a133.06 133.06 0 0 0-12.21-95.17Z" style="fill:none;stroke:#012442;stroke-miterlimit:10;stroke-width:9px"/><path d="m126 182.12-9.63-11.59a8.08 8.08 0 0 1 7.17-11.83h17.9a8.08 8.08 0 0 1 6.85 12.37l-10 11.69c-4.56 4.08-8.05 3.8-12.29-.64M120.55 134.07A39.89 39.89 0 0 1 80.66 174c-22 0-39.9-11.21-39.9-33.24s17.86-49.4 39.9-49.4 39.89 20.64 39.89 42.71" class="cls-4"/><path d="M99.63 138.66c-5.36-1.47-10.79-1.31-16.3-1-9.16.48-18 1.91-27 3.27a26.58 26.58 0 0 0 50.05 0c-2.24-.86-4.46-1.65-6.75-2.27" class="cls-5"/><path d="M87.93 135.08a64.2 64.2 0 0 1 18.38 3.1 26.1 26.1 0 1 0-49.69.81c9.9-3.31 20.93-4.36 31.31-3.91" class="cls-10"/><path d="M110.75 144s-21.48-12.09-58.84 0" class="cls-11"/><path d="M94.83 139.87a16.42 16.42 0 1 0-29-2 79.3 79.3 0 0 1 29 2M145.24 134.07a39.89 39.89 0 0 0 39.9 39.93c22 0 39.89-11.21 39.89-33.24s-17.86-49.4-39.89-49.4-39.9 20.64-39.9 42.71" class="cls-4"/><path d="M166.16 138.66c5.37-1.47 10.79-1.31 16.3-1 9.16.48 18 1.91 27 3.27a26.59 26.59 0 0 1-50.06 0c2.25-.86 4.48-1.65 6.76-2.27" class="cls-5"/><path d="M177.86 135.08a64 64 0 0 0-18.37 3.1 26.09 26.09 0 1 1 49.68.81c-9.9-3.31-20.92-4.36-31.31-3.91" class="cls-10"/><path d="M155 144s21.49-12.09 58.84 0" class="cls-11"/><path d="M171 139.87a16.25 16.25 0 0 1-2.45-8.59 16.42 16.42 0 1 1 31.45 6.55 79.2 79.2 0 0 0-29 2.04" class="cls-4"/><ellipse cx="132.43" cy="166.35" class="cls-7" rx="9.17" ry="3.67"/><path d="M111.79 193.2v26.56c0 9 8.37 16.33 18.6 16.33h4.85c10.22 0 18.59-7.35 18.59-16.33V193.2Z" class="cls-12"/><path d="M111.79 193.2v24.43c0 10.15 9.46 18.46 21 18.46s21-8.31 21-18.46V193.2" class="cls-11"/><path d="M93.87 193.48s36.74 2.4 71.61-2.79M131.92 195.51v15.61" class="cls-13"/><path d="M133.27 70.5a111.5 111.5 0 0 1-30.1-4C93.07 63.56 88 59.71 88 55.1c0-17.54 19.34-31.81 43.11-31.81s43.11 14.27 43.11 31.81c-.05 8.2-19.16 15.4-40.95 15.4" style="fill:#3ec63e"/><path d="M131.06 26.79c21.88 0 39.61 12.67 39.61 28.3 0 4.53-15.52 11.91-37.4 11.91s-41.82-6.24-41.82-11.91c0-15.63 17.73-28.3 39.61-28.3m0-7c-12 0-23.42 3.41-32.08 9.59-9.37 6.7-14.53 15.83-14.53 25.71 0 6.45 5.8 11.29 17.73 14.8A115.6 115.6 0 0 0 133.27 74c10.62 0 21-1.66 29.31-4.68 10-3.65 15.09-8.43 15.09-14.23 0-9.88-5.16-19-14.53-25.71-8.66-6.18-20-9.59-32.08-9.59" class="cls-4"/><path d="M141.29 27.76a83.2 83.2 0 0 1 7.1 19 99 99 0 0 1 4.9 18c10.73-2.54 17.38-6.72 17.38-9.69 0-13.07-12.46-24.07-29.38-27.31" class="cls-12"/><path d="M139.09 24.78s8.87 7.46 15.13 41.74" class="cls-15"/><rect width="6.35" height="21.36" x="127.41" y="13.95" class="cls-4" rx="2.87"/><path d="M96.24 23.28c-10.59 0-16.72-1.16-16.72-7.1s6.13-7.09 16.72-7.09a183 183 0 0 1 20.88 1.29c10.24 1.26 13.53 2.67 13.53 5.8s-3.29 4.54-13.53 5.81a185 185 0 0 1-20.88 1.29" class="cls-16"/><path d="M96.23 11.85c12.6 0 31.66 1.94 31.66 4.33s-19.06 4.33-31.66 4.33-14-1.94-14-4.33 1.36-4.33 14-4.33m0-5.53c-7.28 0-19.48 0-19.48 9.86S89 26 96.23 26a186 186 0 0 0 21.23-1.31c7.48-.92 16-2 16-8.55s-8.48-7.62-16-8.55a186 186 0 0 0-21.23-1.27" class="cls-4"/><path d="M166.42 23.28A185 185 0 0 1 145.53 22C135.29 20.72 132 19.31 132 16.18s3.29-4.54 13.53-5.8a183 183 0 0 1 20.89-1.29c10.58 0 16.71 1.16 16.71 7.09s-6.13 7.1-16.71 7.1" class="cls-16"/><path d="M166.42 11.85c12.59 0 14 1.94 14 4.33s-1.36 4.33-14 4.33-31.65-1.94-31.65-4.33 19-4.33 31.65-4.33m0-5.53a186 186 0 0 0-21.23 1.31c-7.48.93-16 2-16 8.55s8.48 7.63 16 8.55A186 186 0 0 0 166.42 26c7.28 0 19.48 0 19.48-9.86s-12.2-9.86-19.48-9.86Z" class="cls-4"/><path d="M131.35 22.89c-5.51 0-9.68-2.93-9.69-6.81a5.6 5.6 0 0 1 1.74-4 11.34 11.34 0 0 1 7.93-2.83c5.53 0 9.7 2.92 9.71 6.8a5.63 5.63 0 0 1-1.74 4 11.4 11.4 0 0 1-7.93 2.83Z" class="cls-16"/><path d="M131.35 12c3.82 0 6.92 1.82 6.93 4.05s-3.09 4.07-6.92 4.07c-3.82 0-6.92-1.81-6.93-4.05s3.08-4.07 6.91-4.07m0-5.53a14 14 0 0 0-9.89 3.65 8.42 8.42 0 0 0-2.55 6c0 5.45 5.38 9.56 12.46 9.56a14 14 0 0 0 9.9-3.68 8.42 8.42 0 0 0 2.55-6c0-5.46-5.38-9.57-12.46-9.57Z" class="cls-4"/><path d="M120.47 26.76a83.2 83.2 0 0 0-7.1 19 99 99 0 0 0-4.9 18c-10.73-2.54-17.38-6.72-17.38-9.69 0-13.07 12.46-24.07 29.38-27.31" class="cls-10"/><path d="M122.67 24.78s-8.87 7.46-15.13 41.74" class="cls-15"/></g></svg>