<svg xmlns="http://www.w3.org/2000/svg" id="Camada_1" data-name="Camada 1" viewBox="0 0 262.17 298.96"><defs><clipPath id="clip-path"><path d="M-791.94 218.93a30.38 30.38 0 0 0 29.53-22.68 5.88 5.88 0 0 0-5.9-7.18l-47.48.16a5.89 5.89 0 0 0-5.85 7.22 30.38 30.38 0 0 0 29.7 22.48" class="cls-1"/></clipPath><clipPath id="clip-path-2"><path d="M-762.91 198a28.7 28.7 0 0 0 1.18-5.81 4.07 4.07 0 0 0-4.12-4.4l-52.41.18a4.07 4.07 0 0 0-4.09 4.42 27.7 27.7 0 0 0 1.23 5.8Z" class="cls-1"/></clipPath><clipPath id="clip-path-3"><path d="M-790.72 219c-14 0-19.94-6.78-19.94-6.78 4.65-3.3 11.83-5.43 19.89-5.46 7 0 14.66 1.55 19.27 4.1 0 0-5.18 8.08-19.22 8.14" class="cls-1"/></clipPath><clipPath id="clip-path-4"><path d="M-765.83 187.81a4.06 4.06 0 0 1 4.1 4.4c-.13 1.34-2.16 10.1-10.32 19.41-1.66 2-7.21 7.36-18.67 7.41-2.34 0-10.63-.57-15.32-3.45-6.75-4.17-12.54-9.82-15-17.36a22.8 22.8 0 0 1-1.24-5.8 4.23 4.23 0 0 1 4.1-4.42l52.4-.19m0-7.27h-.06l-52.39.19a11.56 11.56 0 0 0-11.53 11.62 27.8 27.8 0 0 0 1.63 8.15c2.77 8.38 8.86 15.51 18.11 21.23 7.31 4.51 18.81 4.57 19.3 4.57h.07c14.36-.05 21.78-7 24.35-10 9-10.27 11.74-20.35 12-23.38a11.13 11.13 0 0 0-2.94-8.65 11.76 11.76 0 0 0-8.58-3.71" class="cls-1"/></clipPath><style>.cls-1{fill:none;clip-rule:evenodd}.cls-7{fill:#fff}.cls-8{fill:#e02d5c}.cls-9{fill:#012442}.cls-10{fill:#57ebff}.cls-14{fill:#7bff81}</style></defs><circle cx="131.09" cy="172.67" r="123.33" style="fill:#23db57"/><ellipse cx="136.7" cy="120.86" class="cls-7" rx="59.48" ry="56.35"/><path d="m175 203.47-42.28 1.3-42.28-1c-46.94 6-57.71 43.3-57.71 43.3 48.38 57.63 90.26 48.39 100.33 48.35 8.71 0 54 6.89 102-51.09-.06.01-13.06-35.16-60.06-40.86" class="cls-8"/><path d="M234 249.34a4 4 0 0 1-3.75-2.6c-.51-1.34-12.87-32.83-56.46-38.26l-42.08 1.3-42.09-1C46.33 214.5 36.93 244 36.55 245.23a4 4 0 0 1-7.67-2.23c.43-1.46 11.09-35.83 60.05-42.13h.3l42.48 1 42.48-1.3h.3c48.83 5.92 62.72 41.91 63.29 43.44a4 4 0 0 1-3.75 5.39Z" class="cls-9"/><path d="M206.38 201.06s-102.2 37.78-148.19 13.41c-1.74-.92-11.5 11.25 5.17 21.09s5.75 3.75 5.75 3.75-8 1.8-4.5 11.64c0 0 .65 10.27 21.17 16.48 20.13 6.1 46.53 11.88 51.13 15.16 0 0 49.35-8.59 61.42-32.5 0 0 5-9.06-1.87-12.34 0 0 12.94-2.66 22.14-7.34s-3.02-29.81-12.22-29.35" class="cls-10"/><path d="M134.09 7A115.48 115.48 0 0 0 18.61 122.43c0 63.77 51.7 117.76 115.48 117.76 63.77 0 115.47-54 115.47-117.76A115.48 115.48 0 0 0 134.09 7m40.06 116.22c0 22.13-17.94 40.86-40.06 40.86C112 164 94 145.3 94 123.17a40.07 40.07 0 0 1 40.07-40.06 40.07 40.07 0 0 1 40.06 40.06Z" style="fill:#ffbb71"/><path d="M224.48 119.66a38.42 38.42 0 0 0-37.08-34.47h-.25a15.53 15.53 0 0 1-14.49-11.44 38.33 38.33 0 0 0-38.39-38.52h-.37a38.34 38.34 0 0 0-38.39 38.52A15.53 15.53 0 0 1 81 85.19h-.25a38.35 38.35 0 0 0 1.07 76.68H82a13.83 13.83 0 0 1 13.49 10.28v.62a38.34 38.34 0 0 0 38.36 39.14h.44a38.34 38.34 0 0 0 38.35-39.14v-.62a13.84 13.84 0 0 1 13.49-10.28h.2a38.35 38.35 0 0 0 38.15-42.21m-50.33 3.51c0 22.13-17.94 40.86-40.06 40.86C112 164 94 145.3 94 123.17a40.07 40.07 0 0 1 40.07-40.06 40.07 40.07 0 0 1 40.06 40.06Z" class="cls-8"/><path d="M134 244.57c-31.8 0-61.82-12.85-84.53-36.18a122.13 122.13 0 0 1-34.95-85.58 119.48 119.48 0 1 1 239 0 122.13 122.13 0 0 1-35 85.58c-22.75 23.33-52.77 36.18-84.52 36.18m0-233.24A111.61 111.61 0 0 0 22.48 122.81a114.18 114.18 0 0 0 32.69 80c21.19 21.77 49.17 33.76 78.79 33.76s57.6-12 78.78-33.76a114.18 114.18 0 0 0 32.69-80A111.6 111.6 0 0 0 134 11.33" class="cls-9"/><path d="M134.09 168C109.79 168 90 147.91 90 123.17a44.07 44.07 0 0 1 88.13 0c.02 24.74-19.75 44.83-44.04 44.83m0-80.92A36.11 36.11 0 0 0 98 123.17c0 20 16.52 36.86 36.07 36.86s36.06-16.88 36.06-36.86a36.11 36.11 0 0 0-36.04-36.06Z" class="cls-9"/><rect width="13.3" height="34.43" x="54.45" y="146.81" class="cls-10" rx="6.65" transform="rotate(47.89 61.104 164.006)"/><path d="M53.28 179.75h-.45a8.65 8.65 0 0 1-5.36-15.05l15.67-14.17a8.66 8.66 0 0 1 11.61 12.84l-15.68 14.16a8.6 8.6 0 0 1-5.79 2.22m15.66-27.46a4.66 4.66 0 0 0-3.12 1.2l-15.67 14.17a4.67 4.67 0 0 0-.33 6.57 4.67 4.67 0 0 0 6.57.33l15.67-14.17a4.65 4.65 0 0 0-3.12-8.1" class="cls-9"/><rect width="13.3" height="34.43" x="203.85" y="78.72" class="cls-10" rx="6.65" transform="rotate(60 210.498 95.934)"/><path d="M201.38 109.87a8.8 8.8 0 0 1-2.27-.3A8.64 8.64 0 0 1 197 93.73l18.3-10.57a8.65 8.65 0 0 1 8.65 15l-18.3 10.56a8.5 8.5 0 0 1-4.27 1.15M219.64 86a4.55 4.55 0 0 0-2.32.63L199 97.19a4.65 4.65 0 0 0 1.13 8.52 4.6 4.6 0 0 0 3.52-.46L222 94.68a4.65 4.65 0 0 0-2.36-8.68" class="cls-9"/><rect width="13.3" height="34.43" x="161.37" y="175.63" class="cls-10" rx="6.65" transform="rotate(-127.59 168.02 192.85)"/><path d="M159.67 207.94a9 9 0 0 1-1.14-.07 8.66 8.66 0 0 1-4.16-15.43l16.74-12.89a8.65 8.65 0 0 1 10.56 13.71l-16.74 12.89a8.62 8.62 0 0 1-5.26 1.79m16.7-26.18a4.6 4.6 0 0 0-2.82 1l-16.74 12.89a4.65 4.65 0 0 0 5.68 7.37l16.74-12.89a4.66 4.66 0 0 0 .85-6.52 4.63 4.63 0 0 0-3.08-1.81 4 4 0 0 0-.63-.04" class="cls-9"/><rect width="13.3" height="34.43" x="43.45" y="84.81" rx="6.65" style="fill:#5affc0" transform="rotate(134.03 50.109 102.026)"/><path d="M57.7 118a8.57 8.57 0 0 1-6-2.42L36.5 100.9a8.65 8.65 0 0 1-.21-12.23A8.58 8.58 0 0 1 42.36 86h.16a8.55 8.55 0 0 1 6 2.42l15.2 14.69A8.65 8.65 0 0 1 57.85 118ZM39.17 91.45a4.65 4.65 0 0 0 .11 6.55l15.19 14.68a4.65 4.65 0 0 0 6.47-6.68l-15.2-14.66a4.67 4.67 0 0 0-6.58.11Z" class="cls-9"/><rect width="13.3" height="34.43" x="203.45" y="133.81" rx="6.65" style="fill:#fcff92" transform="rotate(134.03 210.106 151.024)"/><path d="M217.7 167a8.57 8.57 0 0 1-6-2.42l-15.2-14.68a8.65 8.65 0 0 1-.21-12.23 8.58 8.58 0 0 1 6.07-2.63h.16a8.55 8.55 0 0 1 6 2.42l15.2 14.69a8.65 8.65 0 0 1-5.87 14.85Zm-18.53-26.56a4.65 4.65 0 0 0 .11 6.58l15.19 14.68a4.65 4.65 0 0 0 7.88-3.42 4.65 4.65 0 0 0-1.41-3.27l-15.2-14.68a4.54 4.54 0 0 0-3.31-1.3 4.6 4.6 0 0 0-3.27 1.41Z" class="cls-9"/><rect width="13.3" height="34.43" x="131.37" y="22.5" class="cls-14" rx="6.65" transform="rotate(-149.22 138.018 39.717)"/><path d="M132.58 57.45a8.5 8.5 0 0 1-4.39-1.22 8.66 8.66 0 0 1-3-11.86L136 26.22a8.66 8.66 0 0 1 11.86-3 8.66 8.66 0 0 1 3 11.86l-10.81 18.14a8.62 8.62 0 0 1-5.31 4 9 9 0 0 1-2.16.23M143.45 26a4.64 4.64 0 0 0-4 2.26l-10.83 18.16a4.57 4.57 0 0 0-.51 3.52 4.65 4.65 0 0 0 8.5 1.24L147.42 33a4.66 4.66 0 0 0-1.61-6.37 4.64 4.64 0 0 0-2.36-.63" class="cls-9"/><rect width="13.3" height="34.43" x="99.8" y="183.07" class="cls-14" rx="6.65" transform="rotate(147.1 106.626 200.347)"/><path d="M112.19 217.82a8.64 8.64 0 0 1-7.29-4l-11.44-17.73a8.66 8.66 0 0 1 2.59-12 8.66 8.66 0 0 1 12 2.59l11.44 17.77a8.65 8.65 0 0 1-7.26 13.33Zm-14-30.33a4.65 4.65 0 0 0-1.4 6.43l11.44 17.77a4.65 4.65 0 0 0 7.82-5l-11.43-17.77a4.66 4.66 0 0 0-6.43-1.39ZM136 286.82l-1.37-1c-2.28-1.63-15.42-5.13-26-7.93-8-2.14-16.35-4.35-24-6.66-20.37-6.17-23.46-16.49-23.93-19.39-1.41-4.28-1.26-8 .44-11.07a11.5 11.5 0 0 1 7.1-5.39 4 4 0 0 1 1.83 7.79 3.47 3.47 0 0 0-2 1.52c-.71 1.36-.24 3.42.28 4.91l.23.66v.34c.17.82 2.16 8.08 18.34 13 7.49 2.26 15.73 4.46 23.71 6.57 13.91 3.7 22.71 6.1 26.95 8.2 7.9-1.58 47.21-10.39 57.16-30.09l.08-.14c.59-1.09 1.66-3.92 1.12-5.57a2 2 0 0 0-1.21-1.22 4 4 0 1 1 3.43-7.22 9.9 9.9 0 0 1 5.4 6c1.67 5.2-1.19 10.86-1.71 11.81-12.88 25.35-62.18 34.21-64.28 34.57Z" class="cls-9"/><path d="M162.9 259.85a4 4 0 0 1-3.2-6.37c.41-.54 10.29-13.35 43.36-23.46 6.12-1.87 13.71-5.26 15.1-10.75 1.29-5.11-3.16-11-5-12.86a4 4 0 0 1 5.67-5.65c.4.4 9.71 9.87 7.08 20.42-1.83 7.34-8.74 12.88-20.53 16.49-30.17 9.22-39.23 20.52-39.32 20.63a4 4 0 0 1-3.16 1.55M96.31 252.82a4 4 0 0 1-1.39-.25l-3.39-1.25a4 4 0 1 1 2.75-7.51l3.42 1.26a4 4 0 0 1-1.39 7.75M82 247.53a4 4 0 0 1-1.44-.27c-18.43-7.16-28.25-14.4-30.92-22.81-1.39-4.45-.64-9.21 2.36-13.64a4 4 0 1 1 6.66 4.43c-2.12 3.2-1.78 5.41-1.34 6.79 1.25 4 6.82 10.25 26.18 17.77a4 4 0 0 1-1.5 7.73M110.5 159.34a3 3 0 0 1-3-3V91.26a3 3 0 1 1 6 0v65.08a3 3 0 0 1-3 3M126.34 163.34a3 3 0 0 1-3-3V88.26a3 3 0 0 1 6 0v72.08a3 3 0 0 1-3 3M142.18 163.34a3 3 0 0 1-3-3V88.26a3 3 0 1 1 6 0v72.08a3 3 0 0 1-3 3M158 159.34a3 3 0 0 1-3-3V93.26a3 3 0 0 1 6 0v63.08a3 3 0 0 1-3 3" class="cls-9"/><circle cx="77.85" cy="61.68" r="22.35" class="cls-7"/><path d="M77.85 88a26.35 26.35 0 0 1-.1-52.7h.1a26.34 26.34 0 0 1 26.35 26.28A26.34 26.34 0 0 1 78 88Zm0-44.7h-.07a18.35 18.35 0 0 0 .07 36.7h.07A18.33 18.33 0 0 0 96.2 61.61a18.35 18.35 0 0 0-18.35-18.28Z" class="cls-9"/><circle cx="77.4" cy="61.23" r="7.35" class="cls-9"/><circle cx="187.84" cy="59.14" r="22.35" class="cls-7"/><path d="M187.84 85.5a26.36 26.36 0 0 1-.09-52.71h.09a26.38 26.38 0 0 1 26.35 26.26 26.36 26.36 0 0 1-26.25 26.45Zm0-44.71h-.06a18.36 18.36 0 0 0 .06 36.71h.07a18.35 18.35 0 0 0 18.28-18.42 18.37 18.37 0 0 0-18.35-18.29" class="cls-9"/><circle cx="186.84" cy="59.14" r="7.35" class="cls-9"/><path d="M96.41 122.07h76.3v6h-76.3z" class="cls-9"/></svg>