<svg xmlns="http://www.w3.org/2000/svg" id="Camada_3" data-name="Camada 3" viewBox="0 0 262.17 298.96"><defs><clipPath id="clip-path"><circle cx="131.09" cy="175.2" r="123.33" style="fill:none"/></clipPath><style>.cls-10,.cls-11,.cls-13,.cls-15,.cls-16{fill:none}.cls-4{fill:#012442}.cls-12,.cls-5{fill:#fff}.cls-7{fill:#00c9ff}.cls-8{fill:#9e6638}.cls-14{fill:#f4ca98}.cls-10,.cls-11,.cls-12,.cls-13,.cls-14,.cls-15,.cls-16{stroke:#012442}.cls-10,.cls-11,.cls-14,.cls-15,.cls-16{stroke-linecap:round;stroke-linejoin:round}.cls-10{stroke-width:4px}.cls-11,.cls-12,.cls-13{stroke-width:6px}.cls-12,.cls-13{stroke-miterlimit:10}.cls-14,.cls-15{stroke-width:5px}.cls-16{stroke-width:8px}</style></defs><circle cx="131.09" cy="175.2" r="123.33" style="fill:#e02d5c"/><g style="clip-path:url(#clip-path)"><path d="M218.38 300.74c-12.47 0-23.72-7.85-26.61-19.44-9.27-37.2-33-47.33-34-47.74a6 6 0 0 0 .59.22l19.83-46.56c5.19 1.85 51.15 19.87 66.88 83 3.36 13.45-5.85 26.84-20.56 29.91a30.4 30.4 0 0 1-6.13.61" class="cls-4"/><path d="M219.58 292.66c-8.31 0-15.81-5.23-17.74-13-10.65-42.66-44.16-57.48-44.49-57.66-9.18-3.77-13.28-13.62-9.17-22s14.9-12.14 24.08-8.38c2 .84 50.29 21.24 65.1 80.66 2.23 9-3.91 17.9-13.71 19.94a19.6 19.6 0 0 1-4.07.44" class="cls-5"/><path d="M35.79 301.57a29.7 29.7 0 0 1-6.1-.63C15 297.87 5.77 284.48 9.13 271c15.73-63.08 65.64-84.71 70.87-86.56L99.78 231s-3.73 3.54-3.35 3.38c-1 .42-24.76 10.54-34 47.74-2.92 11.6-14.18 19.45-26.64 19.45" class="cls-4"/><path d="M34.59 293.5a20.3 20.3 0 0 1-4.07-.42c-9.8-2.05-15.94-11-13.71-19.94 14.81-59.42 64.88-80.66 66.93-81.5l20.31 26.92.3.28c-1.39.6-41.39 19.06-52 61.7-1.94 7.72-9.45 12.96-17.76 12.96" class="cls-5"/><path id="peito" d="M194.38 300.75s7.63-85.64-43.82-112.23l-56.43 2.24c-45.06 15.93-42.59 110.06-42.59 110.06Z" class="cls-5"/><path d="M35.86 231.12c64.56 58.22 165.52 28.48 184.73 1.83-13.74-24.22-45.94-49-63.87-41.9-9.9-9.69-64.64 3.36-72.51-.25-2.57 1.9-26.83 10.89-48.35 40.32" style="fill:#b8dee0"/><path d="M64.54 249.43a3.6 3.6 0 0 0-5.33 2.18c-2.79 10.7-5.1 25.23-5.11 44a3.49 3.49 0 0 0 3.64 3.39 3.49 3.49 0 0 0 3.64-3.33c0-18 2.24-32 4.89-42.17a3.62 3.62 0 0 0-1.66-4ZM192.74 249.42a3.58 3.58 0 0 0-1.8 4.08c2.63 10.18 4.83 24.09 4.84 42.15a3.49 3.49 0 0 0 3.64 3.33 3.5 3.5 0 0 0 3.65-3.33c0-18.8-2.32-33.32-5.11-44a3.59 3.59 0 0 0-5.14-2.26Z" class="cls-4"/></g><path d="m81.56 246.5 8.57 22.2a12.23 12.23 0 0 0 11.4 7.81h47.29a12.22 12.22 0 0 0 11.23-7.4l9.14-21.28" class="cls-7"/><path d="M246.91 144.87c0 69.74-52.46 100.23-117.18 100.23S12.54 214.61 12.54 144.87 55.37 18.58 129.73 18.58s117.18 56.54 117.18 126.29" class="cls-5"/><path d="M129.73 18.58c-74.36 0-117.19 56.54-117.19 126.29A116 116 0 0 0 16 173.65c9.83 6.91 19.22 14.44 29.25 21.08 10.27 6.8 20.64 11.07 32.2 15.16 8.48 3 16.84 6.32 25.47 8.86 4.52 1 9 2 13.51 3.16a129 129 0 0 0 30.3 1.52c22.19-1.45 44.46-9.49 63.36-20.77 9.2-5.48 16.18-12.95 24.51-19.48 2.58-2 5.23-3.94 7.92-5.81a113.6 113.6 0 0 0 4.43-32.5c-.04-69.75-43.01-126.29-117.22-126.29" class="cls-7"/><path d="M123.65 36.73C58.73 40.27 10.79 101.43 38.28 165c4.72 12.8 12.56 27.62 22.22 39.21 11 2.83 21.26 7.69 31.71 12 10.74 2.64 21.33 5.88 32.29 7.82 13.85 2.45 27.79.44 41.26-3A235.7 235.7 0 0 0 203.5 208c10-12.11 22.83-34.35 26.28-56.08 10.75-67.71-39.15-118.84-106.13-115.19" class="cls-8"/><path d="M216 88.12c-11.34-13.26-24.47-18.93-40.64-18.73-13.52.16-33.88 9.6-45.94 22.33C117.34 79 101.56 69.58 88 69.39c-13-.2-30 4.93-40.6 18.73-15.07 19.64-16.24 60.23 23.6 71.52-4.87 29.37 6.8 46.21 21.62 55.6 6.57 1.33 13.22 2.27 19.86 3.5a142.8 142.8 0 0 0 52.26-.24c16.64-8.6 30.47-26.09 26.18-60.3 42.81-9.85 41.2-51.2 25.08-70.08" style="fill:#f4ca98"/><path d="M122 156.07c-5.74-6.11-11.45-4.8-13.19-2.68-2.79 3.38 1.71 11.87 16.21 13.28a.88.88 0 0 0 1-.89 15.06 15.06 0 0 0-4.02-9.71" class="cls-4"/><path d="M125.78 149.82c-4.53-4.83-9.9-7.37-15.16-7.23a12.14 12.14 0 0 0-9 4c-2.29 2.78-2.68 6.73-1.05 10.56" class="cls-10"/><path d="M142.9 156.1c5.74-6.11 11.44-4.8 13.19-2.68 2.78 3.38-1.71 11.86-16.21 13.28a.87.87 0 0 1-1-.89 15.06 15.06 0 0 1 4.02-9.71" class="cls-4"/><path d="M137.66 149.8c4.54-4.83 9.91-7.37 15.17-7.23a12.17 12.17 0 0 1 9 4c2.28 2.77 2.67 6.72 1 10.56" class="cls-10"/><path d="M13.6 170.71c4.76 7.66 62.53 52 118 52 55.25 0 108.47-37 114.28-51" class="cls-11"/><path d="M208.19 202.39c18.13-26.12 27.67-59.35 20.88-90.72-6.67-30.82-29.78-56.78-59.35-68.74a103.11 103.11 0 0 0-88.19 5.64c-24.94 13.9-41.87 38.92-47.47 66.28-5.43 26.48-.47 55.09 15.25 77.47a94 94 0 0 0 6.2 7.86" class="cls-11"/><ellipse cx="86.52" cy="115.22" class="cls-12" rx="31.56" ry="30.17"/><ellipse cx="172.44" cy="114.06" class="cls-12" rx="31.56" ry="30.17"/><path d="M157.91 197.43a17.3 17.3 0 0 0 4.33-4.77 14.15 14.15 0 0 0-.9-15.92 10.2 10.2 0 0 0-4.86-3.58c-2.69-.86-5.66-.25-8.28.79s-11.36 4.4-18.28 4.4-14.85-3.35-17.47-4.35-5.59-1.65-8.28-.79a10.3 10.3 0 0 0-4.86 3.58 14.19 14.19 0 0 0-.9 15.92 18.7 18.7 0 0 0 4.34 4.77c11.33 8.91 27.75 8.9 27.75 8.9a47.55 47.55 0 0 0 27.41-8.95" class="cls-5"/><path d="M157.91 197.43a17.3 17.3 0 0 0 4.33-4.77 14.15 14.15 0 0 0-.9-15.92 10.2 10.2 0 0 0-4.86-3.58c-2.69-.86-5.66-.25-8.28.79s-11.36 4.4-18.28 4.4-14.85-3.35-17.47-4.35-5.59-1.65-8.28-.79a10.3 10.3 0 0 0-4.86 3.58 14.19 14.19 0 0 0-.9 15.92 18.7 18.7 0 0 0 4.34 4.77c11.33 8.91 27.75 8.9 27.75 8.9a47.55 47.55 0 0 0 27.41-8.95ZM110.48 172.04v27.77M123.38 175.55v27.78M138.42 177.2v27.78M151.41 175.55v27.78" class="cls-13"/><path d="M153.11 47c.66-9.21-5.42-18.5-14.23-21.74-1.35-.5-2.94-.85-4.2-.14a3.71 3.71 0 0 0-1.57 3.82 10.9 10.9 0 0 0 1.8 4l-7.59-4c-3.38-1.77-6.83-3.57-10.6-4.23s-8 0-10.76 2.57a4.73 4.73 0 0 0-1.44 2.2c-.66 2.6 2 4.75 4.38 6.13-3.09-1.45-6.31-2.92-9.73-3S92 34.33 91 37.54c-.82 2.6.33 5.49 2.21 7.49a24.2 24.2 0 0 0 6.87 4.54" class="cls-8"/><path d="M156.35 47.23c5.65-12.38-27.56-37.92-19.93-15.41-7.3-8.23-46.06-15.11-28.48 2.94-15.63-11.06-29.08 8.37-9.62 15.31" class="cls-11"/><path d="M41.22 89.36a109.6 109.6 0 0 1 14.56-22.23c1.12-1.36 2.28-2.67 3.46-4a33.3 33.3 0 0 0-11.46-11.68c-3.42 2.38-12.42 10.23-20.39 26.2-4.87 9.75-9.11 20.65-10.51 31.6 4.36 1.91 10.89 3 17 3.2 1.97-7.85 3.73-15.56 7.34-23.09" class="cls-14"/><path d="M41.05 69.46a44 44 0 0 1 7.34 4.82" class="cls-15"/><path d="M218.63 85.5a67.8 67.8 0 0 1 10.86 26.87 47 47 0 0 0 15-3.12c-1.39-11-5.64-21.85-10.5-31.6-8-16-17-23.82-20.4-26.2a34 34 0 0 0-10.94 10.82c6.03 7.36 12.14 14.57 15.98 23.23" class="cls-14"/><path d="M220.31 69.46a46 46 0 0 0-6.86 4.42M164 218.5c16.29-8.6 29.82-26.09 25.62-60.3 41.91-9.85 40.38-51.2 24.54-70.08-11.08-13.26-23.93-18.93-39.75-18.73-13.24.16-33.15 9.6-44.95 22.33C117.66 79 102.22 69.58 89 69.39c-12.78-.2-29.39 4.93-39.75 18.73-14.74 19.64-15.89 60.23 23.06 71.52-4.79 29.36 6.69 47.21 21.14 56.6" class="cls-15"/><ellipse cx="178.81" cy="50.79" class="cls-5" rx="13.49" ry="11.58" transform="rotate(-68.37 178.82 50.78)"/><ellipse cx="150.64" cy="77.39" class="cls-5" rx="8.43" ry="7.24" transform="rotate(-68.37 150.647 77.386)"/><path d="m104.28 111.29-17.17 3.6 1-17.8a20 20 0 0 0-4 0c-10.23 1-17.68 9.75-16.64 19.54s10.21 16.91 20.43 15.9 17.7-9.75 16.65-19.53a16 16 0 0 0-.27-1.71M190.71 110.57l-17.17 3.59 1-17.8a19 19 0 0 0-4 0c-10.23 1-17.68 9.74-16.64 19.53s10.2 16.91 20.43 15.91S192 122 191 112.25c-.08-.57-.18-1.13-.29-1.68" class="cls-4"/><path d="M248.46 145c0 70.67-53.16 101.56-118.73 101.56S11 215.71 11 145 54.38 17.09 129.73 17.09c75.19 0 118.73 57.28 118.73 127.91" class="cls-16"/><path d="m81.56 242.5 8.57 26.2a12.23 12.23 0 0 0 11.4 7.81h47.29a12.22 12.22 0 0 0 11.23-7.4l9.14-24.28M103.39 261.69h42.38" class="cls-16"/></svg>