<svg xmlns="http://www.w3.org/2000/svg" id="Camada_9" data-name="Camada 9" viewBox="0 0 262.17 298.96"><defs><clipPath id="clip-path"><circle cx="130.83" cy="175.63" r="123.33" style="fill:none"/></clipPath><style>.cls-4{fill:#012442}.cls-13,.cls-14{stroke:#012442;stroke-miterlimit:10}.cls-13,.cls-6{fill:#fff}.cls-14{fill:#c1e0e5}.cls-9{fill:#7c4a25}.cls-14{stroke-width:5px}.cls-12{fill:#00c9ff}.cls-13{stroke-width:6px}.cls-15{fill:#f7c434}</style></defs><circle cx="131.34" cy="174.9" r="123.33" style="fill:#f29b3b"/><g style="clip-path:url(#clip-path)"><path d="M218.13 301.18c-12.47 0-23.72-7.86-26.61-19.44-9.28-37.21-33-47.33-34-47.74a6 6 0 0 0 .59.22l19.83-46.56c5.19 1.84 51.15 19.87 66.88 83 3.36 13.46-5.85 26.85-20.56 29.91a29.7 29.7 0 0 1-6.13.61" class="cls-4"/><path d="M219.33 293.1c-8.31 0-15.82-5.23-17.74-13-10.65-42.71-44.16-57.53-44.49-57.66-9.18-3.77-13.28-13.63-9.17-22s14.9-12.14 24.07-8.38c2.05.84 50.3 21.24 65.11 80.66 2.23 9-3.91 17.9-13.71 19.94a20.3 20.3 0 0 1-4.07.44M35.54 302a30.4 30.4 0 0 1-6.1-.63c-14.71-3.07-23.92-16.46-20.56-29.91 15.72-63.11 65.64-84.74 70.83-86.59l19.82 46.56s-3.73 3.55-3.35 3.39c-1 .41-24.76 10.54-34 47.74C59.26 294.15 48 302 35.54 302" class="cls-4"/><path d="M34.34 293.93a19.6 19.6 0 0 1-4.07-.42c-9.8-2-15.94-11-13.71-19.94 14.81-59.42 64.88-80.65 66.93-81.49L103.8 219l.3.28c-1.39.59-41.39 19.06-52 61.69-1.95 7.73-9.45 12.96-17.76 12.96" class="cls-4"/><path id="peito" d="M194.13 301.19s7.63-85.64-43.82-112.24l-56.43 2.25c-45.06 15.92-42.59 110.06-42.59 110.06Z" class="cls-4"/><path d="M64.29 249.87A3.6 3.6 0 0 0 59 252c-2.79 10.7-5.1 25.23-5.11 44a3.49 3.49 0 0 0 3.64 3.33 3.49 3.49 0 0 0 3.64-3.33c0-18 2.24-32 4.89-42.17a3.61 3.61 0 0 0-1.67-4ZM192.49 249.86a3.59 3.59 0 0 0-1.81 4.07c2.64 10.18 4.84 24.09 4.85 42.16a3.49 3.49 0 0 0 3.64 3.33 3.49 3.49 0 0 0 3.64-3.33c0-18.8-2.31-33.32-5.1-44a3.58 3.58 0 0 0-5.14-2.26Z" class="cls-4"/></g><path d="M215.93 94.79c-11.51-24.42-30.34-46-82.39-46-51 0-71.77 16.64-84.55 43.06-12 24.81-19.69 73.06-10.71 104 9.41 32.42 43.77 62.51 95.88 62.51s86.31-30.43 92.82-62.51c9.15-45.05-1.85-81.53-11.05-101.06Z" style="fill:none;stroke:#012442;stroke-miterlimit:10;stroke-width:9px"/><path d="M215.93 94.79c-11.51-24.42-30.34-46-82.39-46-51 0-71.77 16.64-84.55 43.06-12 24.81-19.69 73.06-10.71 104 9.41 32.42 43.77 62.51 95.88 62.51s86.31-30.43 92.82-62.51c9.15-45.05-1.85-81.53-11.05-101.06" class="cls-4"/><path d="M201.87 170.58a41.88 41.88 0 0 0-5.32-44.38 43.2 43.2 0 0 0-29.4-15.85 43.65 43.65 0 0 0-36.36 13.5 43 43 0 0 0-3.87-3.35 43.67 43.67 0 0 0-31.23-8.85 43.22 43.22 0 0 0-29.4 15.85 42 42 0 0 0-6 42.78c-6.56 4.81-16.09 16.07-8.77 38.46 9.2 28.11 49.26 44.47 82.32 44.47 32.08 0 74-16.08 82.32-44.47 5.53-19.03-6.32-31.94-14.29-38.16" class="cls-6"/><path d="M137.32 22.19c-1.8 0-3.55.06-5.28.13s-3.48-.13-5.28-.13C43.7 22.19 20.84 77.88 20.84 124v117.52a2.92 2.92 0 0 0 2.88 2.93c10.89 0 14.92-10.47 14.92-10.47 14.39-25.15-5.51-78 .94-109.77 1.31-6.48 6.92-12.5 6.92-12.5s36.43-7.09 85.54-7.62c49.12.53 58.44 3.16 72.53 4.45 14.76 2.15 19.43 12.08 19.94 15.67 4.52 32.12-13.46 84.62.94 109.77 0 0 6.88 10.46 17.77 10.47 1.59 0 1-1.34 1-2.93V124c-.03-46.12-23.84-101.81-106.9-101.81" style="fill:#9e6638"/><path d="M198.18 211.64c-8.09 8.28-18.46 13.61-29.54 16.64-19.07 5.2-39.79 4.54-58.92 0-18.63-4.41-37.41-13.13-50.36-27.6a60.2 60.2 0 0 1-9.65-14.61c-1.4 5.82-1.31 13.26 1.77 22.67 9.2 28.11 49.26 46.37 82.32 46.37 32.08 0 74-18 82.32-46.37a31.5 31.5 0 0 0-1.05-21.74c-4.47 9-9.89 17.48-16.89 24.64" style="fill:#c1e0e5"/><path d="M229.44 234c-14.39-25.15 3.59-82.4-.94-114.52-.58-4.17-4.55-12.38-16.61-14-10.12-1.36-12.2-.93-22.09-1.93 6.85.85 13.76 5.67 20.67 6.91 4.14.74 8.12 3.8 8.71 8 4.52 32.13-13.46 89.37.94 114.53 0 0 6.88 10.46 17.77 10.46a2.73 2.73 0 0 0 1.8-.66 27.5 27.5 0 0 1-10.25-8.79M34.24 234.75c14.39-25.16-3.59-82.41.94-114.53.58-4.17 5.07-11.58 11.56-12.72 12.58-2.21 21.12-3 31-4-6.85.85-17.64 6.44-24.55 7.68-4.14.74-8.12 3.8-8.7 8C40 151.3 58 208.55 43.57 233.71c0 0-4 10.45-14.93 10.46a2.8 2.8 0 0 1-1.8-.67 12.79 12.79 0 0 0 7.4-8.75" class="cls-9"/><path d="M137.52 22.19c83.06 0 105 55.69 105 101.82v117.51c0 1.24-1.94 2.08-3.65 2.08a4.1 4.1 0 0 1-1.34-.21c-10.67-.25-17.38-10.45-17.38-10.45-14.4-25.16 3.58-86.21-.94-118.33a11.42 11.42 0 0 0-8.71-8.92q-3.47-.61-6.93-1.16c-13.08-1.35-24.74-3.74-71.3-4.24a547 547 0 0 0-81.18 6.85 11.46 11.46 0 0 0-6.55 8.24C40 147.5 58 208.55 43.57 233.71c0 0-4 10.45-14.93 10.46a2.8 2.8 0 0 1-.91-.16 17 17 0 0 1-3.82.44 2.92 2.92 0 0 1-2.91-2.93V124C21 77.88 43.9 22.19 127 22.19c1.8 0 3.55.06 5.28.13s3.48-.13 5.28-.13m0-6c-1.62 0-3.31 0-5.28.13-2-.09-3.66-.13-5.28-.13-39.46 0-69.32 12-88.75 35.81C19.06 75.42 15 104.09 15 124v117.52a8.91 8.91 0 0 0 8.87 8.93 22.4 22.4 0 0 0 3.83-.33 7 7 0 0 0 .9 0c11.53 0 18.11-8.51 20.34-13.86 9.28-16.7 6.3-45.12 3.42-72.61-1.89-18.1-3.68-35.21-1.95-47.48A5.47 5.47 0 0 1 53 112.9a543 543 0 0 1 79.27-6.61c38.39.42 52.57 2.1 64 3.44 2.25.27 4.37.52 6.55.75 2.56.41 4.68.76 6.65 1.12a5.47 5.47 0 0 1 3.82 3.85c1.73 12.28-.06 29.38-1.95 47.49-2.9 27.69-5.9 56.33 3.63 73l.09.16.11.16c.33.52 8.29 12.36 21.47 13.12a10.4 10.4 0 0 0 2.26.24c5.41 0 9.65-3.55 9.65-8.08V124c0-20-3.93-48.72-22.67-72-19.22-23.75-48.88-35.81-88.36-35.81Z" class="cls-4"/><path d="M57.58 103.46c-14 0-19.22-10-22.23-18.64L29.3 65.88a2 2 0 0 1-.08-.28 22.87 22.87 0 0 1 6-20.84C43.9 36 81.77 20.12 107.12 16.4c.59-.09 1.19-.15 1.8-.19h1.12a19.2 19.2 0 0 1 12.34 4.5 60.7 60.7 0 0 1 10.6-.95 55 55 0 0 1 9.12.75 19.2 19.2 0 0 1 12.06-4.3h1.1c.61 0 1.22.1 1.8.19C182.42 20.12 220.3 36 229 44.76a22.89 22.89 0 0 1 6 20.85l-.25.94v.14l-5.81 18.06c-4.49 13-11.35 18.71-22.27 18.71h-1.72c-28.83-1.25-46.23-2-57.42-12.64-5.8-5.49-8.73-11.59-9.53-19.82l-1-8.66c-1.74-.16-3.47-.23-5.18-.23-1.56 0-3.1.06-4.6.19l-1 8.81a29.9 29.9 0 0 1-9.49 19.7c-11.19 10.63-28.59 11.39-57.42 12.64-.57-.01-1.15.01-1.73.01" class="cls-4"/><path d="M154.16 19.18h.93c.52 0 1 .08 1.54.15 24.21 3.56 61.94 19.19 70.25 27.52A19.79 19.79 0 0 1 232 65l-.21.8L226 83.83c-4.89 14.13-12.13 16.63-19.41 16.63H205c-28.13-1.22-45.1-2-55.48-11.82-5.18-4.91-7.82-10.44-8.59-17.93l-1.23-11.09a63 63 0 0 0-7.9-.5 55 55 0 0 0-7.32.47l-1.24 11.2c-.76 7.41-3.4 12.94-8.58 17.85-10.38 9.86-27.35 10.6-55.48 11.82h-1.61c-7.28 0-14.5-2.52-19.39-16.63l-.06-.17L32.15 65a19.82 19.82 0 0 1 5.17-18.09c8.31-8.33 46-24 70.24-27.51.51-.08 1-.13 1.54-.16h.94a16.33 16.33 0 0 1 11.44 4.72A58 58 0 0 1 133 22.73a51.3 51.3 0 0 1 10 1 16.3 16.3 0 0 1 11.18-4.51m0-6a22.1 22.1 0 0 0-12.85 4.14 57.5 57.5 0 0 0-8.33-.59 64 64 0 0 0-9.8.77 22.15 22.15 0 0 0-13.2-4.36h-1.29c-.7 0-1.4.11-2.07.21-23.85 3.5-63.75 19.33-73.61 29.21a25.88 25.88 0 0 0-6.78 23.6c0 .19.09.37.15.56l6 18.68v.06l.06.18v.08c4.89 14.09 12.85 20.66 25.06 20.66h1.87C89 105.13 106.8 104.36 118.81 93a32.74 32.74 0 0 0 10.4-21.56l.7-6.28h4.38l.69 6.18c.91 8.88 4.22 15.76 10.41 21.64 12 11.41 29.83 12.18 59.36 13.47h1.85c12.23 0 20.19-6.57 25.08-20.66v-.13l5.82-18.06c0-.09.06-.19.08-.28l.22-.81c0-.09 0-.18.07-.28a25.89 25.89 0 0 0-6.78-23.6c-9.86-9.88-49.77-25.71-73.63-29.21-.67-.1-1.36-.17-2.05-.21h-1.29Z" class="cls-4"/><path d="M57.58 98.71c-14 0-19.22-10-22.23-18.65L29.3 61.13a2 2 0 0 1-.08-.28A22.89 22.89 0 0 1 35.2 40c8.7-8.72 46.57-24.63 71.92-28.35.59-.09 1.19-.15 1.8-.19h1.12a19.23 19.23 0 0 1 12.34 4.5A60 60 0 0 1 133 15a55 55 0 0 1 9.12.75 19.16 19.16 0 0 1 12.06-4.3h1.1c.61 0 1.22.1 1.8.18C182.42 15.37 220.3 31.28 229 40a22.87 22.87 0 0 1 6 20.84s-.25.95-.25.95v.14L228.87 80c-4.49 13-11.35 18.71-22.27 18.71h-1.72c-28.83-1.25-46.23-2-57.42-12.64-5.73-5.45-8.66-11.55-9.5-19.81l-1-8.66c-1.74-.16-3.47-.23-5.18-.23-1.56 0-3.1.06-4.6.19l-1 8.81A29.9 29.9 0 0 1 116.74 86c-11.19 10.66-28.59 11.42-57.42 12.67-.58.02-1.16.04-1.74.04" style="fill:#d6bf85"/><path d="M154.16 14.43h.93c.52 0 1 .08 1.54.15 24.21 3.56 61.94 19.19 70.25 27.52A19.79 19.79 0 0 1 232 60.22l-.21.8L226 79.08c-4.89 14.13-12.13 16.63-19.41 16.63H205c-28.13-1.22-45.1-2-55.48-11.82-5.18-4.91-7.82-10.44-8.59-17.93l-1.23-11.09a63 63 0 0 0-7.9-.5 55 55 0 0 0-7.32.47L123.25 66c-.76 7.41-3.4 12.94-8.58 17.85-10.38 9.86-27.35 10.6-55.48 11.82h-1.61c-7.28 0-14.5-2.52-19.39-16.63l-.06-.18-6-18.68a19.85 19.85 0 0 1 5.17-18.1c8.31-8.32 46-23.95 70.24-27.5.51-.08 1-.13 1.54-.16h.94a16.33 16.33 0 0 1 11.44 4.72A58 58 0 0 1 133 18a52 52 0 0 1 10 1 16.3 16.3 0 0 1 11.18-4.51m0-6a22.1 22.1 0 0 0-12.85 4.14A59 59 0 0 0 133 12a64 64 0 0 0-9.8.78A22.15 22.15 0 0 0 110 8.43h-1.29q-1.06.06-2.07.21C82.83 12.18 42.93 28 33.07 37.89a25.88 25.88 0 0 0-6.78 23.6 5 5 0 0 0 .15.55l6 18.69v.06l.06.18v.08c4.89 14.09 12.85 20.66 25.06 20.66h1.87c29.53-1.28 47.35-2 59.36-13.46a32.74 32.74 0 0 0 10.4-21.56l.7-6.28h1.9c.82 0 1.65 0 2.48.05l.69 6.18c.91 8.88 4.22 15.76 10.41 21.64 12 11.41 29.83 12.18 59.36 13.46h1.85c12.23 0 20.19-6.57 25.08-20.66v-.13l5.82-18.06c0-.09.06-.19.08-.28l.22-.81.07-.28a25.89 25.89 0 0 0-6.78-23.6c-9.8-9.92-49.71-25.74-73.57-29.24-.67-.1-1.36-.17-2.05-.21h-1.29Z" class="cls-4"/><path d="M150.39 45.45s-17.72-5.7-36.14 0V32.17s18.07-8.43 36.14 0Z" style="stroke:#012442;stroke-miterlimit:10;fill:#e02d5c;stroke-width:5px"/><path d="M156.27 24.76c-5.18-.3-9.11 5-8.13 10.46l3.26 29.28c.58 5.65 2.5 8.93 5.64 11.91 7.51 7.13 22.32 7.87 47.21 9 4.54.2 8.31 0 11.86-10.24l5.44-16.9a10.54 10.54 0 0 0-2.7-9.67C213.08 42.76 180 28.21 157 24.84a6 6 0 0 0-.73-.08M108 24.74c5.18-.3 9.12 5 8.13 10.46l-1.5 13.45-1.76 15.86c-.57 5.65-2.5 8.93-5.64 11.91-7.51 7.14-22.34 7.88-47.25 9-4.54.2-8.31 0-11.86-10.25l-5.5-16.95a10.59 10.59 0 0 1 2.71-9.68c5.77-5.78 38.85-20.35 61.87-23.72a6 6 0 0 1 .8-.08" class="cls-12"/><path d="M154.16 29h.37c23.78 3.49 57.37 18.71 62.05 23.4a5.21 5.21 0 0 1 1.29 4.48l-5.63 17.49c-1.52 4.36-2.76 5.86-3.36 6.36-.27.22-.52.43-2 .43h-1.27c-25.33-1.1-40-2-46.09-7.83-2.26-2.15-3.66-4.28-4.13-8.85v-.06L152 33.4v-.41000000000000003a4 4 0 0 1 .8-3.21 2 2 0 0 1 1.45-.8m0-6c-5.25 0-9.17 5.45-8.16 11.08l3.45 31c.61 6 2.65 9.45 6 12.6 7.94 7.55 23.62 8.33 50 9.47h1.53c4.13 0 7.67-1.21 11-10.89l5.76-17.88a11.21 11.21 0 0 0-2.86-10.23c-6.11-6.12-41.09-21.52-65.43-25.09a8 8 0 0 0-.8-.08h-.44ZM110 29a2 2 0 0 1 1.45.8 4 4 0 0 1 .8 3.21v.41000000000000003l-1.58 14.22-1.87 16.77v.06c-.47 4.57-1.87 6.7-4.13 8.85-6.15 5.81-20.78 6.68-46.11 7.81h-1.27c-1.45 0-1.7-.21-2-.43-.6-.5-1.84-2-3.36-6.36l-5.6-17.45a5.18 5.18 0 0 1 1.29-4.48C52.3 47.72 85.89 32.5 109.67 29h.37m0-6h-.44a7 7 0 0 0-.8.08c-24.34 3.57-59.32 19-65.43 25.09a11.21 11.21 0 0 0-2.86 10.23l5.76 17.88c3.35 9.68 6.89 10.89 11 10.89h1.53c26.34-1.14 42-1.92 50-9.47 3.32-3.15 5.36-6.63 6-12.6l1.86-16.77 1.59-14.22c1-5.63-2.91-11.08-8.16-11.08Z" class="cls-4"/><path d="M66.5 48.31c-5.36 2.5-10 4.86-12.58 6.24a3.1 3.1 0 0 0-1.5 3.72l5.14 15.6a3.1 3.1 0 0 0 3.69 2l13.22-3.24a132.7 132.7 0 0 0-7.97-24.32M92.63 42.46a3.11 3.11 0 0 0-3.88-2.77 118 118 0 0 0-15 5.41 145.6 145.6 0 0 1 8.37 25.7l10-2.46a3.1 3.1 0 0 0 2.35-3.27ZM198.4 47.73c5.36 2.5 10 4.86 12.58 6.24a3.09 3.09 0 0 1 1.5 3.72l-5.14 15.6a3.09 3.09 0 0 1-3.69 2l-13.21-3.24a132 132 0 0 1 7.96-24.32M172.27 41.88a3.1 3.1 0 0 1 3.88-2.76 118 118 0 0 1 15 5.4 146 146 0 0 0-8.38 25.7l-10-2.46a3.1 3.1 0 0 1-2.36-3.27Z" class="cls-6"/><ellipse cx="100.21" cy="151.05" class="cls-13" rx="28.56" ry="27.75"/><path id="olho" d="M83.42 153a16.75 16.75 0 0 0 18.5 14.63 16.51 16.51 0 0 0 15.06-18A16.75 16.75 0 0 0 98.48 135a16.52 16.52 0 0 0-15.06 18" class="cls-4"/><path d="m127.85 155.91.42.28a27 27 0 0 0 .34-8.06c-1.66-15.24-15.72-26.29-31.41-24.68a28.9 28.9 0 0 0-14.55 5.72c7.01 4.28 37.44 21.62 45.2 26.74Z" class="cls-14"/><ellipse cx="162.63" cy="149.74" class="cls-13" rx="28.56" ry="27.75"/><path id="olho-2" d="M179.42 151.65a16.76 16.76 0 0 1-18.49 14.63 16.53 16.53 0 0 1-15.07-18 16.75 16.75 0 0 1 18.5-14.63 16.51 16.51 0 0 1 15.06 18" class="cls-4" data-name="olho"/><path d="m135 154.61-.41.27a26.7 26.7 0 0 1-.35-8.06c1.66-15.24 15.72-26.29 31.41-24.67a28.9 28.9 0 0 1 14.55 5.72c-7.02 4.27-37.45 21.62-45.2 26.74Z" class="cls-14"/><path d="M106.47 195.31c-.55 2.35-.84 18.33-.84 20.88 0 16 12.56 24.84 26.77 24.84s26.77-7.79 26.77-23.8c0-2.55-.29-19.57-.84-21.92Z" class="cls-15"/><path d="M157.29 193.23c.55 2.35.85 20.41.85 23 0 16-16 24.84-25.74 24.84-7.3 0-25.73-8.83-25.73-24.84 0-2.55.29-19.57.84-21.92l49.78-1m4.75-6.1-4.87.1-49.79 1-4.66.1-1.06 4.54c-.82 3.56-1 23.09-1 23.28 0 20.34 22.24 30.84 31.73 30.84 6.61 0 14.39-3 20.31-7.75 7.37-5.95 11.43-14.15 11.43-23.09 0-.2-.17-20.76-1-24.32l-1.1-4.74Z" class="cls-4"/><path d="M132.31 216a7.88 7.88 0 0 1-6.31-3l-7.23-9.33a2 2 0 0 0-1.06-.69l-7.1-1.82a7.91 7.91 0 0 1-5.21-4.13 9.7 9.7 0 0 1-.06-8c2.88-7 13.62-20 26.53-20 10 0 19.21 6.48 27.39 19.25a8.77 8.77 0 0 1 .83 8 8.14 8.14 0 0 1-5.83 4.88l-7.84 1.84a2 2 0 0 0-1.15.76l-6.5 9a8 8 0 0 1-6.46 3.24" class="cls-15"/><path d="M131.9 172c11.33 0 19.68 9.78 24.86 17.87 2.12 3.31.69 7.51-3.14 8.38l-7.87 1.8a4.93 4.93 0 0 0-2.91 1.93l-6.51 9a4.95 4.95 0 0 1-7.93.14l-7.23-9.32a5 5 0 0 0-2.68-1.77l-7.1-1.82c-3.61-.92-4.67-4.67-3.25-8.11 2.43-5.87 12.24-18.11 23.76-18.11m0-6c-6.55 0-13.23 2.91-19.31 8.41a40.6 40.6 0 0 0-10 13.41 12.68 12.68 0 0 0 .15 10.52 10.82 10.82 0 0 0 7.14 5.69l6.76 1.74 7 9a10.87 10.87 0 0 0 8.65 4.25 11 11 0 0 0 8.89-4.55l6.27-8.69 7.48-1.71a11.1 11.1 0 0 0 8-6.66 11.8 11.8 0 0 0-1.09-10.81C153.05 172.93 143 166 131.9 166Z" class="cls-4"/><path d="M136.6 180.59c2.05 0 8.82 5.75 11.17 10.34" style="fill:none;stroke:#fff;stroke-width:7px;stroke-linecap:round;stroke-linejoin:round"/><path d="M109.23 202.56h-4.67v-3.44S111 228.49 132 228.49s28.8-30.85 28.8-30.85v4.92l-14.17 1.78-13.75 14-12.77-11.56Z" class="cls-4"/><path d="m135.6 217 9.84-13.23 13.38-3.4 5.69 5.67a13.4 13.4 0 0 1 .65 18.3 13.4 13.4 0 0 1-18.57 1.6Z" style="stroke:#012442;stroke-miterlimit:10;fill:#e02d5c;stroke-width:4px"/><path d="m155.62 214.64-10.18-9.85" style="fill:none;stroke:#012442;stroke-linecap:round;stroke-linejoin:round;stroke-width:4px"/></svg>