<svg xmlns="http://www.w3.org/2000/svg" viewBox="0 0 262.17 298.96"><defs><clipPath id="clip-path"><path d="M-795.86-469a30.4 30.4 0 0 0 29.54-22.68 5.89 5.89 0 0 0-5.9-7.18l-47.48.16a5.89 5.89 0 0 0-5.86 7.21 30.4 30.4 0 0 0 29.7 22.49" class="cls-1"/></clipPath><clipPath id="clip-path-2"><path d="M-766.83-489.89a28 28 0 0 0 1.19-5.81 4.06 4.06 0 0 0-4.12-4.4l-52.41.18a4.07 4.07 0 0 0-4.09 4.42 27.8 27.8 0 0 0 1.22 5.8Z" class="cls-1"/></clipPath><clipPath id="clip-path-3"><path d="M-794.63-468.89c-14 .05-19.94-6.77-19.94-6.77 4.65-3.3 11.82-5.43 19.89-5.46 7 0 14.66 1.55 19.27 4.1 0 0-5.19 8.08-19.22 8.13" class="cls-1"/></clipPath><clipPath id="clip-path-4"><path d="M-769.75-500.1a4.07 4.07 0 0 1 4.11 4.4c-.14 1.34-2.16 10.1-10.32 19.4-1.67 2-7.21 7.37-18.68 7.41-2.34 0-10.64-.56-15.32-3.44-6.75-4.17-12.54-9.82-15-17.36a22.8 22.8 0 0 1-1.24-5.8 4.22 4.22 0 0 1 4.09-4.43l52.4-.18m0-7.27-52.39.19a11.54 11.54 0 0 0-11.53 11.62 27.5 27.5 0 0 0 1.63 8.15c2.77 8.38 8.85 15.51 18.11 21.23 7.31 4.51 18.81 4.56 19.3 4.56h.07c14.35 0 21.77-6.95 24.35-10 9-10.27 11.74-20.36 12-23.38a11.17 11.17 0 0 0-2.95-8.65 11.74 11.74 0 0 0-8.58-3.71" class="cls-1"/></clipPath><clipPath id="clip-path-5"><circle cx="173.82" cy="138.35" r="28.57" class="cls-2"/></clipPath><clipPath id="clip-path-6"><circle cx="85.29" cy="138.35" r="28.57" class="cls-2"/></clipPath><style>.cls-1,.cls-11,.cls-2,.cls-20{fill:none}.cls-1{clip-rule:evenodd}.cls-9{fill:#012442}.cls-11,.cls-20{stroke:#012442;stroke-miterlimit:10}.cls-11{stroke-linecap:round;stroke-width:8px}.cls-12{fill:#fff}.cls-15{fill:#228931}.cls-18{fill:#1a5faa}.cls-20{stroke-width:6px}.cls-21{fill:#c16b16}</style></defs><g id="Camada_4" data-name="Camada 4"><circle cx="131.09" cy="173.93" r="123.33" style="fill:#bc3b85"/><path d="m173.3 199.92-42.3 1.15-42.28-1.15C41.78 205.79 28.87 242 28.87 242 63.48 296 122 297.73 132 297.73c8.72 0 67.63 1.41 101.15-56.72.02-.01-12.89-35.22-59.85-41.09" style="fill:#2ecc56"/><path d="M63.56 279.21a149.4 149.4 0 0 1 3.91-22.35 3.61 3.61 0 0 0-1.66-4h-.07a3.6 3.6 0 0 0-5.33 2.14 150 150 0 0 0-3.51 18.34q3.38 2.88 6.66 5.87M196.44 281.14q3.48-2.59 6.85-5.34a154.6 154.6 0 0 0-4.13-23.8 3.59 3.59 0 0 0-5.14-2.27l-.08.05a3.57 3.57 0 0 0-1.8 4.07 155 155 0 0 1 4.3 27.29" class="cls-9"/><path d="M49 219s-10.78 29.65 82.43 29.65c99.31 0 82.44-31.74 82.44-31.74S116.82 164.75 49 219" style="fill:#17a535"/><path d="M232.17 242s-12.91-35.22-59.87-41.09l-42.3-1.84-42.28 1.85C40.78 206.79 30.87 240 30.87 240" class="cls-11"/></g><g id="Camada_3" data-name="Camada 3"><ellipse cx="107.97" cy="59.95" class="cls-12" rx="6.23" ry="6.95" transform="rotate(-52.4 108.189 60.233)"/><ellipse cx="123.86" cy="73.01" class="cls-12" rx="3.9" ry="4.34" transform="rotate(-52.42 123.867 73.015)"/><path d="M217.25 101.15c-4.75-26.61-31.32-45.33-85.05-45.33-52.7 0-84.4 13.18-87.28 42.45-2.06 20.93-11 105.52-11.06 106.38-2.54 33.37 45.18 55 99 55s95.83-22.58 95.83-55c-.02-.88-11.42-103.39-11.44-103.5" style="fill:#f7c434"/><path d="M217.25 101.15c-4.75-26.61-31.32-45.33-85.05-45.33-52.7 0-84.4 13.18-87.28 42.45-2.06 20.93-11 105.52-11.06 106.38-2.54 33.37 45.18 55 99 55s95.83-22.58 95.83-55c-.02-.88-11.42-103.39-11.44-103.5Z" style="fill:none;stroke:#012442;stroke-miterlimit:10;stroke-linecap:round;stroke-width:9px"/><path d="M114.29 77.65S93.11 61.23 83.34 22.33c0 0 23.63-.87 50.48 41.49s-19.53 13.83-19.53 13.83" class="cls-15"/><path d="M141.23 77.65s21.19-16.42 31-55.32c0 0-23.63-.87-50.47 41.49s19.47 13.83 19.47 13.83" class="cls-15"/><path d="M128.61 93.69s-33.73-6-55.69-44.95c0 0 24.41 3.61 42.71 14.85 0 0-5.54-21.77 14-51.16 0 0 17.21 20.59 17.21 49.12 0 0 16.06-12.81 45.35-8.49-.02 0-14.76 24.21-63.58 40.63" style="fill:#3aaf4e"/><path d="M129.61 12.43a83.6 83.6 0 0 1 13.25 25.19c16.07-14.9 28-15.3 29.22-15.3h.1a127.8 127.8 0 0 1-13.28 33.24 66.5 66.5 0 0 1 21.43-3.39 81.4 81.4 0 0 1 11.84.89s-14.74 24.21-63.56 40.63c0 0-33.73-6-55.69-44.95a144.5 144.5 0 0 1 23.17 5.89 128.3 128.3 0 0 1-12.75-32.3h.11c1.33 0 15.13.47 33.17 19.18a89.2 89.2 0 0 1 13-29.07m0-8h-.43A8 8 0 0 0 123 8a106 106 0 0 0-10.17 19.16C97.53 15.05 86 14.32 83.45 14.32h-.4a8.08 8.08 0 0 0-7.47 9.94 145 145 0 0 0 5.74 17.94c-4.26-.94-7-1.35-7.23-1.38a8 8 0 0 0-1.17-.09 8 8 0 0 0-7 11.93c23.55 41.7 59.72 48.62 61.25 48.9a8.4 8.4 0 0 0 1.41.12 7.9 7.9 0 0 0 2.55-.42c51-17.15 67.18-43 67.85-44a8 8 0 0 0-5.67-12.07 89 89 0 0 0-13-1q-3.57 0-7.05.31a143 143 0 0 0 6.66-20.21 8.06 8.06 0 0 0-7.47-9.94h-.39c-2.2 0-12.27.58-25.84 10.22A85.7 85.7 0 0 0 135.75 7.3a8 8 0 0 0-6.14-2.87Z" class="cls-9"/><circle cx="173.82" cy="138.35" r="28.57" class="cls-12"/><path d="M190.66 109.86a28.58 28.58 0 0 0-25.87 16.44l19.49 12.54L164.11 149a28.57 28.57 0 1 0 26.55-39.14" class="cls-18" style="clip-path:url(#clip-path-5)"/><circle cx="173.82" cy="138.35" r="30" class="cls-11"/><circle cx="85.29" cy="138.35" r="28.57" class="cls-12"/><path d="M104 109.86a28.56 28.56 0 0 0-25.9 16.44l19.48 12.54L77.42 149A28.57 28.57 0 1 0 104 109.86" class="cls-18" style="clip-path:url(#clip-path-6)"/><circle cx="85.29" cy="138.35" r="30" class="cls-11"/><path d="M154.87 199.45a16.8 16.8 0 0 0 4.13-4.64 14 14 0 0 0-.86-15.48 9.7 9.7 0 0 0-4.63-3.48c-2.57-.84-5.4-.24-7.9.76s-10.84 4.28-17.43 4.28-14.16-3.27-16.66-4.28-5.33-1.6-7.9-.76a9.7 9.7 0 0 0-4.62 3.48 14 14 0 0 0-.86 15.48 17.9 17.9 0 0 0 4.13 4.64c10.81 8.67 26.47 8.66 26.47 8.66a44.64 44.64 0 0 0 26.13-8.66" class="cls-12"/><path d="M154.87 199.45a16.8 16.8 0 0 0 4.13-4.64 14 14 0 0 0-.86-15.48 9.7 9.7 0 0 0-4.63-3.48c-2.57-.84-5.4-.24-7.9.76s-10.84 4.28-17.43 4.28-14.16-3.27-16.66-4.28-5.33-1.6-7.9-.76a9.7 9.7 0 0 0-4.62 3.48 14 14 0 0 0-.86 15.48 17.9 17.9 0 0 0 4.13 4.64c10.81 8.67 26.47 8.66 26.47 8.66a44.64 44.64 0 0 0 26.13-8.66ZM109.63 174.75v27.02M121.94 178.17v27.02M136.28 179.78v27.02M148.67 178.17v27.02" class="cls-20"/><path d="m200.68 200.74 5.95-7.63a3.5 3.5 0 0 0-5.52-4.31l-4.87 6.25-4.87-6.25a3.5 3.5 0 0 0-5.52 4.31l6 7.63-6 7.63a3.49 3.49 0 0 0 .61 4.91 3.44 3.44 0 0 0 2.15.74 3.48 3.48 0 0 0 2.76-1.35l4.87-6.24 4.87 6.24a3.5 3.5 0 0 0 5.52-4.3ZM176.28 212.76a3.49 3.49 0 0 0-4.91.61l-4.87 6.24-4.87-6.24a3.5 3.5 0 1 0-5.52 4.3l5.95 7.63-5.95 7.63a3.5 3.5 0 0 0 .61 4.92 3.46 3.46 0 0 0 2.15.74 3.51 3.51 0 0 0 2.76-1.35l4.87-6.24 4.87 6.25a3.5 3.5 0 1 0 5.52-4.31l-5.95-7.63 5.95-7.63a3.49 3.49 0 0 0-.61-4.92M74 187.72a3.49 3.49 0 0 0-4.91.61l-4.87 6.24-4.87-6.24a3.5 3.5 0 1 0-5.52 4.3l5.95 7.63-5.95 7.63a3.5 3.5 0 0 0 5.52 4.31l4.89-6.2 4.87 6.25a3.5 3.5 0 0 0 5.52-4.31l-5.95-7.63 5.95-7.63a3.49 3.49 0 0 0-.63-4.96M103.15 213.2a3.5 3.5 0 0 0-4.91.6l-4.87 6.25-4.87-6.25a3.5 3.5 0 0 0-5.5 4.31l6 7.63-6 7.63a3.5 3.5 0 1 0 5.52 4.3l4.87-6.24 4.87 6.24a3.5 3.5 0 0 0 5.52-4.3l-6-7.63 6-7.63a3.49 3.49 0 0 0-.63-4.91M140.15 223.2a3.5 3.5 0 0 0-4.91.6l-4.87 6.25-4.87-6.25a3.5 3.5 0 0 0-5.52 4.31l6 7.63-6 7.63a3.5 3.5 0 1 0 5.52 4.3l4.87-6.24 4.87 6.24a3.5 3.5 0 0 0 5.52-4.3l-5.95-7.63 5.95-7.63a3.49 3.49 0 0 0-.61-4.91" class="cls-21"/></g></svg>