<svg xmlns="http://www.w3.org/2000/svg" xml:space="preserve" id="Camada_1" x="0" y="0" version="1.1" viewBox="0 0 262.2 299"><style>.st1{fill:#fcf3de}.st3{fill:#012442}.st5{fill:#ffe861}.st7{fill:#e5e393}</style><circle cx="130.5" cy="175.4" r="123.3" style="fill:#af4e81"/><path d="m174.5 205-42.3 1.3-42.3-1c-46.9 6.1-57.7 43.3-57.7 43.3 48.4 57.6 90.3 48.4 100.3 48.4 8.7 0 54 6.9 102-51.1 0 0-13-35.2-60-40.9" class="st1"/><path d="M70.9 232.4c43 29.5 103 15.5 146.8-6.3-13.9-20.4-62.5-23.3-88.4-19.8-23.3-2.1-108.1-.7-58.4 26.1" style="fill:#c4af8a"/><path d="M233.5 250.9c-1.6 0-3.1-1-3.7-2.6-.5-1.3-12.8-32.8-56.4-38.2l-42.1 1.3h-.1l-42-1C45.8 216 36.4 245.5 36 246.8c-.6 2.1-2.9 3.3-5 2.7s-3.3-2.8-2.7-5c.4-1.5 11.1-35.9 60.1-42.1h.3l42.5 1 42.5-1.3h.3c48.9 5.9 62.7 41.9 63.3 43.4.8 2.1-.3 4.4-2.4 5.1-.5.2-.9.3-1.4.3" class="st3"/><path d="M186.2 284.1c-39.4 0-74.9-12.3-98.7-23.3-28.4-13.1-46.2-26.8-46.9-27.3-1.7-1.4-2.1-3.9-.7-5.6s3.9-2.1 5.6-.7c.7.5 71 54.2 153 48.5 2.2-.2 4.1 1.5 4.3 3.7s-1.5 4.1-3.7 4.3c-4.4.2-8.6.4-12.9.4" class="st3"/><path d="M115.2 270.8c-1.9 0-3-.1-3.3-.1-2.2-.2-3.8-2.1-3.6-4.3s2.1-3.8 4.3-3.6c.5 0 46.2 3.1 98.4-43.6 1.6-1.5 4.2-1.3 5.6.3 1.5 1.6 1.3 4.2-.3 5.6-47.4 42.4-89.2 45.7-101.1 45.7" class="st3"/><path d="M42.2 186.7s-12.1 15.4-14.4 24.8c0 0 16.4 21.1 32.9 24.6 0 0 1.2-18.8 9.4-25.8" class="st1"/><path d="m64.4 241.1-4.5-1c-17.7-3.8-34.5-25.2-35.2-26.1l-1.2-1.5.5-1.9c2.5-10.1 14.7-25.7 15.2-26.3 1.4-1.7 3.9-2 5.6-.7 1.7 1.4 2 3.9.7 5.6-3 3.8-10.5 14.3-13.1 21.5 3.6 4.2 14.1 15.8 25 20.3.3-1.7.6-3.8 1.1-5.9 2-8.2 5-14.2 9.1-17.7 1.7-1.4 4.2-1.2 5.6.4 1.4 1.7 1.2 4.2-.4 5.6-5.7 4.9-7.7 18.3-8 23z" class="st3"/><path d="M130.6 8.2c59.1 0 107.1 47.9 107.1 107.1v1.2c0 59.1-47.9 107.1-107.1 107.1-59.1 0-107.1-47.9-107.1-107.1v-1.2c.1-59.2 48-107.1 107.1-107.1" style="fill:#39b579"/><circle cx="81.4" cy="109.4" r="34.2" class="st5"/><path d="M81.4 147.4c-21 0-38-17.1-38-38s17.1-38 38-38 38.1 17 38.1 37.9-17.1 38.1-38.1 38.1m0-68.4C64.7 79 51 92.6 51 109.3s13.6 30.3 30.3 30.3 30.3-13.6 30.3-30.3S98.2 79 81.4 79" class="st3"/><circle cx="172.8" cy="105.3" r="30.3" class="st5"/><path d="M172.8 139.6c-18.9 0-34.3-15.4-34.3-34.2 0-18.9 15.4-34.3 34.3-34.3S207 86.5 207 105.4c0 18.8-15.4 34.2-34.2 34.2m0-60.8c-14.6 0-26.6 11.9-26.6 26.6 0 14.6 11.9 26.5 26.6 26.5s26.6-11.9 26.6-26.5c-.1-14.7-12-26.6-26.6-26.6" class="st3"/><circle cx="172.1" cy="104.7" r="10" class="st3"/><path d="M35.8 117.4s68.6 39 164.4 8.6l26.7 23c0 .1-120.8 69-191.1-31.6" class="st1"/><path d="M139.3 176c-34.1 0-75.3-11.5-106.6-56.4l-9.8-13.9 14.8 8.4c.2.1 17.2 9.6 45.5 15.4 26 5.3 67.3 8.4 115.9-7l2-.7 32.5 28-4.7 2.7c-1.2.7-31.3 17.7-70.7 22.4-6 .6-12.3 1.1-18.9 1.1m-91-48.7c13.7 15.8 30 27.3 48.3 33.9 18.2 6.6 38.6 8.6 60.7 6 28.8-3.5 52.9-14 62.8-18.9l-20.7-17.9c-49.4 15.2-91.4 12-118 6.5-13.9-2.9-25.1-6.5-33.1-9.6" class="st3"/><path d="M105.7 41.7c50 15.2 92.6 44.6 132 78.1 0-1.2.1-2.2.1-3.4v-1.2c-.1-58.8-48.2-107-107.2-107-23.7 0-46.8 8-65.5 22.6 13.5 3.6 27.1 6.8 40.6 10.9" class="st1"/><path d="m241.5 128.1-6.3-5.4c-32.4-27.4-76.5-61-130.7-77.4-8.4-2.6-17.1-4.8-25.5-7-4.9-1.2-10-2.6-14.9-3.9l-7.3-1.9 6-4.7C82 12.6 106.1 4.4 130.6 4.4c61.2 0 110.9 49.7 110.9 110.9v12.8M106.8 38c52 15.7 94.8 46.8 127 73.5-2-55.2-47.5-99.5-103.2-99.5-20.1 0-39.9 6-56.6 17.1 2.4.6 4.7 1.2 7 1.8 8.4 2.3 17.2 4.5 25.8 7.1" class="st3"/><path d="M24.7 140.2c5.9 26.4 38.1 81.3 103 81.3 76.5 0 96.9-55.7 96.9-55.7l7.9-32.5S197.6 175 131 172.8s-96.3-55.7-96.3-55.7z" class="st1"/><path d="M127.7 225.4c-37 0-61.9-17.4-76.4-31.9-17.8-18-27.4-38.8-30.4-52.4l-.3-1.2 13.6-31.5 3.7 6.8c.1.1 7.4 13.2 22.6 26.1 20.2 17.4 43.9 26.7 70.5 27.6 63.8 2.2 98-37.6 98.4-38.1l10.5-12.5-11.8 48.9c-.2.6-5.6 15-20.7 29.3-13.7 13.2-38.9 28.9-79.7 28.9m-99-84.8c3 12.1 11.9 31.2 28 47.4 13.4 13.5 36.6 29.6 71 29.6 70.9 0 91.9-49.6 93.2-53l4.7-19.6c-4.3 3.6-10 7.8-17 12-16 9.5-42.4 20.6-77.8 19.4-35.5-1.2-60.6-16.8-75.5-29.7-9.6-8.3-16.2-16.5-20-21.8z" class="st3"/><path d="M33.3 65.5s42.8 5.7 94.6 27.2c55 22.9 97 62.5 97 62.5 1.6 5.1 2.5 10.4 2.5 15.7-.1 6 22.8-29.1 26.9-46.6 2.7-11.4-62.9-100-186.8-107.8 0 0-18.4 10.9-28.1 28.8-3.4 6-7.5 11.6-6.2 18.4z" class="st1"/><path d="M227.9 175.4c-.3 0-.5 0-.8-.1-1.8-.2-3.7-1.7-3.6-4.5 0-4.6-.7-9.1-2-13.5-5.8-5.3-45.2-40.2-95.1-61.1-50.6-21.1-93.2-26.9-93.6-27l-2.9-.4-.7-4.5c-1.2-7.1 2.1-13 5.1-18.1.5-.9 1.1-1.8 1.5-2.8 10.1-18.6 28.7-29.8 29.5-30.2l1.1-.6 1.2.1c42.5 2.7 82.2 14.9 117.8 36.1 36.1 21.5 55.8 45.2 62.6 54.4 5.3 7.1 11.2 16.6 10 22-2.5 10.6-10.8 25.2-14.1 30.9-10.4 17.6-14 19.3-16 19.3M36.6 62.2c10.6 1.7 48.7 8.7 92.7 27.1 55 22.9 97.7 62.8 98.1 63.2l.7.7.3 1c1 2.8 1.6 5.8 2 8.6 6.4-9.2 17.2-27.7 20-39.2.1-4.1-13.3-27.5-45.9-52.4-27.1-20.7-72.7-46.4-136.2-50.7-3.8 2.5-17.9 12.3-25.7 26.7-.6 1-1.1 1.9-1.6 2.9-2.6 4.2-4.7 8-4.4 12.1" class="st3"/><path d="M74.9 191.4c-14.5 0-23.5-1.2-24-1.2-2.1-.3-3.6-2.2-3.4-4.3.3-2.1 2.2-3.6 4.3-3.4.8.1 78.3 9.3 147-28.6 1.8-1.1 4.2-.4 5.2 1.5 1.1 1.8.4 4.2-1.5 5.2-37.1 20.5-76.3 27.5-102.7 29.7-9.3.8-17.8 1.1-24.9 1.1M33.6 167.9l-10.8-22.2S6.5 165.2 11 170.9s22.6-3 22.6-3" class="st3"/><path d="m64.4 241.1-4.5-1c-17.7-3.8-34.5-25.2-35.2-26.1l-1.2-1.5.5-1.9c2.5-10.1 14.7-25.7 15.2-26.3 1.4-1.7 3.9-2 5.6-.7 1.7 1.4 2 3.9.7 5.6-3 3.8-10.5 14.3-13.1 21.5 3.6 4.2 14.1 15.8 25 20.3.3-1.7.6-3.8 1.1-5.9 2-8.2 5-14.2 9.1-17.7 1.7-1.4 4.2-1.2 5.6.4 1.4 1.7 1.2 4.2-.4 5.6-5.7 4.9-7.7 18.3-8 23z" class="st3"/><path d="M226.9 58.9s-9-13.5-14.7-14.7c-5.4-1-148.8 2.2-193.2 107.6-1 2.4-7.7 18.4-8 15.8l-2.9-52.5c-1-10.9 4.4-21.9 11.5-30.3 21.4-25.5 74.9-66.3 165.6-67 0 0 21.4 1.2 42.8 31.6.1 0 3.4 6.2-1.1 9.5" class="st1"/><path d="M11.3 171.8h-.7c-1.8-.2-3.3-1.7-3.5-3.6v-.3l-2.9-52.5c-.9-10.7 3.5-22.4 12.4-33C29.9 66.6 81.2 14.9 185.2 14h.2c1 .1 23.5 1.6 45.8 33.2l1.4 2.1-.3.5c1.3 4 1.2 9-3.2 12.3l-3.3 2.4-2.3-3.4c-3.8-5.8-9.8-12.6-12.2-13.1-2.8-.4-39.4.2-81 14.1-23.6 8-44.3 18.6-61.4 31.8-21 16.2-36.7 36.2-46.6 59.4-.5 1.2-2.2 5.4-3.9 9-2.8 6.6-4.2 9.5-7.1 9.5M185.1 21.7c-39.6.4-75.6 8.4-107 23.8-30.3 15-47.8 32.6-55.6 41.9-4.3 5.3-11.6 15.8-10.6 27.5v.1l2.1 38.7c.5-1.2 1-2.3 1.3-3.3C39 94.3 90.2 67.3 129 54.6c42.2-13.9 80.2-14.8 84-14 1.8.4 3.6 1.4 5.5 2.9-16.8-19.7-32.1-21.7-33.4-21.8" class="st3"/><path d="M91.6 121.7c-1 0-1.9-.4-2.7-1.1l-21-20.2c-1.5-1.4-1.6-3.9-.1-5.5 1.4-1.5 3.9-1.6 5.5-.1l21 20.2c1.5 1.4 1.6 3.9.1 5.5-.6.8-1.7 1.2-2.8 1.2" class="st3"/><path d="M71 122.6c-1 0-1.9-.4-2.6-1.1-1.5-1.4-1.6-3.8-.2-5.5l20.4-21.8c1.4-1.5 3.8-1.6 5.5-.2 1.5 1.4 1.6 3.8.2 5.5l-20.4 21.8c-.9.9-1.9 1.3-2.9 1.3" class="st3"/><path d="M93.7 172.7c1.1 7.9 7.3 14.9 15.2 18.9s17.3 5.4 26.4 5c9.5-.4 24.5-2.5 32.5-6.9 7.5-4.2 18-15 8.4-26.3-6.3-7.5-20.2-1.8-28.8-3.5-11.2-2.2-21.1-8.9-33.1-8.5-13 .5-22.2 10.1-20.6 21.3" style="fill:#897245"/><path d="M129.6 194.4q.3-1.05.3-2.1v-4.1c.2-4.6-3.5-8.5-8.2-8.7-4.6-.2-8.5 3.5-8.7 8.2v4.7c0 .8.1 1.6.4 2.3q7.95-.3 16.2-.3" class="st7"/><path d="M116 194.6c-.5-.7-.7-1.4-.7-2.3v-4.1c-.1-3.4 2.5-6.1 5.9-6.3 3.4-.1 6.1 2.5 6.3 5.9v4.6q0 1.2-.6 2.1h2.6c.8 0 1.5.1 2.3.4.2-.8.4-1.6.4-2.5v-4.1c-.2-6-5.1-10.6-11-10.5-5.7.2-10.3 4.7-10.5 10.5v4.1c0 .9.1 1.6.3 2.5 1.7-.2 3.3-.3 5-.3" class="st3"/><path d="M165.6 194.9q.3-1.05.3-2.1v-4.1c0-4.6-3.7-8.4-8.4-8.4-4.6 0-8.4 3.7-8.4 8.4v4.2c0 .8.1 1.6.4 2.4 5.3-.4 10.7-.4 16.1-.4" class="st7"/><path d="M152 195c-.5-.7-.7-1.4-.7-2.3v-4.1c0-3.4 2.7-6 6-6s6 2.7 6 6v4.2q0 1.2-.6 2.1h2.6c.8 0 1.5.1 2.3.4.2-.8.4-1.6.4-2.5v-4.1c0-6-4.8-10.8-10.8-10.8s-10.8 4.8-10.8 10.8v4.1c0 .9.1 1.6.3 2.5 2.1-.2 3.7-.2 5.3-.3" class="st3"/><path d="M101 155.8q-.3 1.05-.3 2.1v4.1c.2 4.6 4 8.3 8.7 8.2 4.4-.2 8-3.7 8.2-8.2v-4.1c0-.8-.1-1.6-.4-2.3-5.5.2-10.9.2-16.2.2" class="st7"/><path d="M114.4 155.6c.5.7.7 1.4.7 2.3v4.1c.1 3.4-2.5 6.1-5.9 6.3-3.4.1-6.1-2.5-6.3-5.9v-4.6q0-1.2.6-2.1h-2.6c-.8 0-1.5-.1-2.3-.4-.2.8-.4 1.6-.3 2.5v4.1c0 6 4.8 10.8 10.8 10.8s10.8-4.8 10.8-10.8v-4.1c0-.9-.1-1.6-.3-2.5-1.8.2-3.5.3-5.2.3" class="st3"/><path d="M120.1 155.4q-.3 1.05-.3 2.1v4.1c.2 4.6 4 8.3 8.7 8.2 4.4-.2 8-3.7 8.2-8.2v-4.1c0-.8-.1-1.6-.4-2.3-5.5.2-10.9.2-16.2.2" class="st7"/><path d="M133.6 155.2c.5.7.7 1.4.7 2.3v4.1c-.1 3.4-3 6-6.3 5.9-3.2-.1-5.8-2.7-5.9-5.9v-4.1q0-1.2.6-2.1h-2.6c-.8 0-1.5-.1-2.3-.4-.2.8-.4 1.6-.3 2.5v4.1c0 6 4.8 10.8 10.8 10.8s10.8-4.8 10.8-10.8v-4.1c0-.9-.1-1.6-.4-2.5-1.7.1-3.5.2-5.1.2" class="st3"/><path d="M152.3 159.4q-.3 1.05-.3 2.1v4.1c.2 4.6 4 8.3 8.7 8.2 4.4-.2 8-3.7 8.2-8.2v-4.1c0-.8-.1-1.6-.4-2.4-5.4.3-10.7.3-16.2.3" class="st7"/><path d="M165.9 159.2c.5.7.7 1.4.7 2.3v4.1c-.1 3.4-3 6-6.3 5.9-3.2-.1-5.8-2.7-5.9-5.9v-4.1q0-1.2.6-2.1h-2.7c-.8 0-1.5-.1-2.3-.4-.2.8-.4 1.6-.4 2.5v4.1c.2 6 5.1 10.6 11 10.5 5.7-.2 10.3-4.7 10.5-10.5v-4.1c0-.9-.1-1.6-.4-2.5-1.5.1-3.2.2-4.8.2" class="st3"/><path d="M132.6 201.6c-9.8 0-18.6-1.9-25.6-5.5-9.6-4.9-16-13.1-17.3-21.8-.9-6 .9-12 4.9-16.7 4.6-5.5 11.7-8.6 19.5-8.9 8.2-.3 15.2 2.3 22 4.8 4.1 1.5 8.1 3 12.2 3.7 2.6.5 6 .2 9.7-.1 7.6-.7 16.1-1.4 21.5 4.9 3.8 4.5 5.4 9.7 4.4 14.9-1.4 7.8-8.2 14-14 17.3-9.4 5.2-26 7.1-34.5 7.4zm-35.3-28.3c.9 6.2 5.9 12.4 13.2 16 6.6 3.4 15.2 4.9 24.7 4.6 10-.4 23.9-2.5 31-6.4 4.4-2.5 9.3-7.1 10.2-12 .6-2.9-.4-5.7-2.8-8.5-2.8-3.3-8.7-2.8-15-2.2-4 .4-8.2.8-11.8 0-4.7-.9-9.1-2.5-13.3-4.1-6.4-2.3-12.4-4.6-19.1-4.3-5.6.2-10.7 2.4-13.8 6.2-2.7 3-3.9 6.7-3.3 10.7" class="st3"/></svg>