<svg xmlns="http://www.w3.org/2000/svg" xmlns:xlink="http://www.w3.org/1999/xlink" xml:space="preserve" id="Camada_1" x="0" y="0" version="1.1" viewBox="0 0 262.2 299"><style>.st2{fill:#012442}.st3{fill:#ffbb71}.st5{fill:#f29b3b}.st10{fill:#efc03c}.st11{fill:#f7cf81}.st12{fill:#fff}</style><g id="Camada_4"><circle cx="131.2" cy="171" r="123.3" style="fill:#52d89b"/><defs><circle id="SVGID_1_" cx="130.9" cy="171" r="123.3"/></defs><clipPath id="SVGID_2_"><use xlink:href="#SVGID_1_" style="overflow:visible"/></clipPath><g style="clip-path:url(#SVGID_2_)"><path d="M223.2 296.5c-12.5 0-23.7-7.9-26.6-19.4-9.3-37.2-33-47.3-34-47.7.4.2.6.2.6.2L183 183c5.2 1.9 51.2 19.9 66.9 83 3.4 13.5-5.9 26.8-20.6 29.9-2 .4-4 .6-6.1.6" class="st2"/><path d="M224.4 288.4c-8.3 0-15.8-5.2-17.7-13-10.6-42.7-44.2-57.5-44.5-57.7-9.2-3.8-13.3-13.6-9.2-22s14.9-12.1 24.1-8.4c2 .8 50.3 21.2 65.1 80.7 2.2 9-3.9 17.9-13.7 20-1.3.3-2.7.4-4.1.4" class="st3"/><path d="M40.7 297.3c-2 0-4.1-.2-6.1-.6-14.7-3.1-23.9-16.5-20.6-29.9 15.7-63.1 65.7-84.7 70.8-86.6l19.8 46.6c-1.2 1.1-2.3 2.2-3.3 3.4-1 .4-24.8 10.5-34 47.7-2.9 11.6-14.2 19.4-26.6 19.4" class="st2"/><path d="M39.4 289.3c-1.4 0-2.7-.1-4.1-.4-9.8-2-16-11-13.7-19.9 14.8-59.4 64.9-80.7 66.9-81.5l20.3 26.9.3.3c-1.4.6-41.4 19.1-52 61.7-1.8 7.6-9.3 12.9-17.7 12.9" class="st3"/><path id="peito" d="M203.9 294.2s7.6-85.6-43.8-112.2l-56.4 2.2c-45.1 15.9-42.6 110-42.6 110z" class="st3"/><path d="M69.4 245.2c-1.7-1-3.9-.5-4.9 1.2-.2.3-.3.6-.4.9-2.8 10.7-5.1 25.2-5.1 44 .1 1.9 1.7 3.4 3.6 3.3 1.9.1 3.5-1.4 3.6-3.3 0-18 2.2-32 4.9-42.2.4-1.5-.3-3.1-1.7-3.9M197.6 245.2c-1.5.8-2.2 2.5-1.8 4.1 2.6 10.2 4.8 24.1 4.9 42.2.1 1.9 1.7 3.4 3.6 3.3 1.9.1 3.5-1.4 3.6-3.3 0-18.8-2.3-33.3-5.1-44-.5-1.9-2.5-3.1-4.4-2.6-.2 0-.5.1-.8.3" class="st2"/></g><path d="m54.8 208.2 32.1 12.5s.8 41.5 42.3 41.5 49.3-41.5 49.3-41.5l39.9-13.8z" style="fill:#e28f3b"/></g><g id="Camada_3"><path d="M27.1 170.6h206.2c7.1 0 12.8 5.7 12.8 12.8v4.1c0 10.2-8.2 18.5-18.4 18.5H32.8c-10.2 0-18.5-8.3-18.5-18.5v-4.1c0-7 5.8-12.8 12.8-12.8" class="st5"/><path d="M223.5 211.7H37c-13.2 0-28-14.2-28-33.2v-2.1c0-6.3 4.8-11.5 10.6-11.5h221.2c5.8 0 10.6 5.2 10.6 11.5v2.1c0 19-14.7 33.2-27.9 33.2M19.6 176.4v2.1c0 10 7.6 21.7 17.3 21.7h186.6c9.8 0 17.3-11.7 17.3-21.7v-2.1z" class="st2"/><path d="M24 154.8c-4.2 2.6-6.9 7.2-7 12.1.3 7.4 8.1 13.3 15 11.4 6-1.6 10.3-7.8 16.5-8.3 8.1-.7 14.4 8.8 22.6 8.6 8.6-.2 12.8-9.3 21.6-8.3 5.9.6 9.2 5.1 13.3 6.8 17.2 6.9 17.3-13.6 32.7-4.7 2.4 1.4 9.7 6.8 16.7 4.7 4.2-1.3 8.8-6.5 13.3-7 12.5-1.4 15.1 8.5 23.8 8.8 8.1.2 12.3-9.4 20.5-8.8 6.1.5 10.5 6.7 16.4 8.3 6.9 1.9 14.7-4.1 15.1-11.4 0 0 0-8.9-7.8-13z" style="fill:#a1e25d"/><path d="M192.8 181.7h-.3c-4.5-.1-7.6-2.4-10.5-4.5-3.5-2.6-6.8-4.9-12.9-4.2-1.9.2-4.1 1.8-6.3 3.3-2 1.5-4.2 2.8-6.5 3.6-7.3 2.2-14.4-2.2-17.8-4.3q-.6-.3-.9-.6c-6.4-3.7-9-1.6-13 1.4-4.2 3.3-9.5 7.3-19.4 3.4-1.8-.8-3.5-1.8-5-3-2.4-1.7-4.7-3.3-7.7-3.6-3.7-.4-6.5 1.5-9.7 3.6s-6.8 4.6-11.6 4.7-8.7-2.3-12.5-4.7c-3.4-2.1-6.7-4.2-10-3.9-2.7.2-5.2 2-7.8 3.8s-5.1 3.6-8.2 4.4c-4.4 1.1-9.1-.1-12.5-3-3.4-2.7-5.5-6.7-5.8-11.1.1-6 3.2-11.6 8.4-14.8l.6-.4 214-.8.5.3c9.2 4.8 9.3 15.1 9.3 15.6-.2 4.4-2.3 8.5-5.8 11.2-3.5 2.9-8.1 4.1-12.6 3-3.1-.9-5.7-2.7-8.2-4.4-2.6-1.9-5.1-3.6-7.8-3.8-3.1-.3-5.7 1.6-8.7 3.8-3.1 2.3-6.6 5-11.3 5M171.1 167c6.5 0 10.5 2.9 13.8 5.4 2.7 1.9 4.8 3.5 7.7 3.5s5.6-1.8 8.5-3.9c3.3-2.5 7-5.3 12.1-4.8 4 .4 7.2 2.6 10.3 4.7 2 1.6 4.2 2.8 6.6 3.7 5.4 1 10.6-2.6 11.6-8 0-.3.1-.5.1-.8 0-.1-.1-6.7-5.7-9.9l-211.4.8c-3.1 2.1-5 5.5-5.1 9.2.2 2.6 1.5 5.1 3.7 6.7 2.2 1.9 5.2 2.7 8.1 2 2.4-.8 4.6-2.1 6.6-3.6 3.1-2.2 6.2-4.4 10.3-4.7 5-.4 9.1 2.1 13 4.6 3.2 2 6.3 3.9 9.5 3.9h.2c3.4-.1 6.1-1.9 8.9-3.8 3.5-2.4 7.5-5.1 13-4.5 4.3.5 7.4 2.6 10.1 4.5q1.8 1.35 3.9 2.4c7.2 2.9 10.6.3 14.5-2.7 4.2-3.2 9.3-7.2 18.6-1.8.3.2.7.4 1.1.7 2.8 1.7 8.5 5.3 13.7 3.8 1.8-.7 3.5-1.7 5.1-2.9 2.7-1.9 5.5-3.8 8.6-4.2.8-.2 1.7-.3 2.6-.3" class="st2"/><path d="M130.8 243.6c-18.8-.1-34-15.3-34.1-34.1v-49.9c0-18.7 15.3-12.3 34.1-12.3 18.7 0 34.1-6.4 34.1 12.3v49.8c-.1 18.9-15.3 34.1-34.1 34.2" style="fill:#e02d5c"/><path d="M130.8 247.6c-20.9-.1-38-17.1-38.1-38v-49.9c0-6.2 1.5-10.6 4.6-13.5 5.1-4.7 13-4.1 22.1-3.4 3.6.3 7.4.6 11.4.6 3.9 0 7.7-.3 11.4-.6 9.1-.7 16.9-1.3 22 3.4 3.1 2.9 4.6 7.3 4.6 13.5v49.8c0 21-17.1 38-38 38.1m-20.4-97.3c-3.4 0-6.1.4-7.6 1.8-1.4 1.3-2.1 3.8-2.1 7.6v49.8c0 16.5 13.5 30 30.1 30.1 16.5-.1 30-13.5 30-30.1v-49.8c0-3.8-.7-6.3-2.1-7.6-2.6-2.4-8.8-1.9-16-1.3-3.6.3-7.7.6-12 .6s-8.4-.3-12-.6c-2.9-.2-5.8-.5-8.3-.5" class="st2"/><path d="M130.1 192.6c-2.3 0-4-1.8-4-4 .2-14.1.2-27.1 0-40.9 0-2.2 1.7-4 4-4 2.2 0 4 1.8 4 4 .2 13.9.2 26.9 0 41.1 0 2-1.8 3.8-4 3.8M130.1 209.5c-2.2 0-4-1.8-4-4v-4c0-2.2 1.8-4 4-4s4 1.8 4 4v4c0 2.2-1.8 4-4 4" class="st2"/><path d="M28 120.9h206c8.5 0 15.3 6.9 15.3 15.3v2.7c0 8.5-6.9 15.3-15.3 15.3H28c-8.5 0-15.3-6.9-15.3-15.3v-2.7c0-8.5 6.9-15.3 15.3-15.3" style="fill:#603116"/><path d="M234 157.1H28.1c-9.9 0-18-8.8-18-19.5s8.1-19.6 18-19.6H234c9.9 0 18 8.8 18 19.6s-8.1 19.5-18 19.5M28.1 123.8c-7 0-12.7 6.2-12.7 13.8s5.7 13.8 12.7 13.8H234c7 0 12.7-6.2 12.7-13.8s-5.7-13.8-12.7-13.8z" style="fill:#001e40"/><path d="m41.9 119.4 32.3 30.7 34.8-30.7s-66.3-.9-67.1 0" class="st10"/><path d="m74.2 153.8-36.1-34.3 2-2.2c1-1.1 1.6-1.7 68.9-.8l7.3.1zm-25.6-31.9 25.7 24.4 27.3-24.2c-18.5-.2-41.9-.3-53-.2" class="st2"/><path d="m155.8 119.4 32.3 30.7 34.7-30.7s-66.2-.9-67 0" class="st10"/><path d="m188 153.8-36.1-34.3 2-2.2c1-1.1 1.6-1.7 68.9-.8l7.3.1zm-25.5-31.9 25.7 24.4 27.3-24.2c-18.5-.2-42-.3-53-.2" class="st2"/><path d="M243.7 99.2c0 19.8-27.5 19.5-111.9 19.5-81.1 0-111.8 3.8-111.8-19.5 0-40.9 50.1-74.1 111.9-74.1s111.8 33.2 111.8 74.1" class="st5"/><path d="M131.9 39.5c58.1 0 105.8 26.1 111.3 64 .4-1.4.5-2.8.5-4.3 0-40.9-50.1-74.1-111.8-74.1S20 58.3 20 99.2c0 1.5.2 3.1.5 4.6 5.2-38 53.1-64.3 111.4-64.3" class="st11"/><path d="M80.5 125.2c-34.1 0-52.5-1.3-61-10.6-3.5-3.8-5.3-8.8-5.3-14.9 0-44 49.7-79.9 117.2-79.9 64.6 0 117.1 35.8 117.1 79.9 0 16.5-14.2 20.8-28.1 22.8C203.1 125 176 125 135 125h-3.6c-10.8 0-20.8.1-29.8.1-7.7.1-14.7.1-21.1.1m50.8-93.8c-58.8 0-106.6 30.7-106.6 68.4 0 3.9 1.1 5.7 2.1 6.8 7 7.6 32.4 7.4 74.5 7.1 9.1-.1 101-.1 117.5-2.5 18.9-2.7 18.9-7.9 18.9-11.4.2-37.7-47.6-68.4-106.4-68.4" class="st2"/><path d="m66.1 82.5-.7-.3c-1.1-.5-1.5-1.8-1.1-2.9L68.6 68c.4-1 1.5-1.6 2.5-1.3h.1l.7.3c1 .5 1.5 1.8 1.1 2.9l-4.2 11.3c-.3 1-1.5 1.6-2.5 1.3-.1.1-.1 0-.2 0M83.1 99.2l-.7-.3c-1.1-.5-1.6-1.8-1.1-2.9l4.2-11.3c.4-1 1.5-1.6 2.5-1.3h.1l.7.3c1.1.5 1.6 1.8 1.2 2.9L85.7 98c-.3 1.1-1.5 1.6-2.5 1.3 0 0-.1 0-.1-.1M92.8 69.4l-.8-.3c-1.1-.5-1.5-1.8-1.1-2.9l4.3-11.3c.4-1 1.5-1.6 2.5-1.2h.1l.7.3c1.1.5 1.5 1.8 1.1 2.9l-4.2 11.3c-.3 1-1.5 1.6-2.5 1.3-.1 0-.1-.1-.1-.1M108.3 86.1l-.7-.3c-1.1-.5-1.6-1.8-1.1-2.9l4.2-11.3c.4-1 1.5-1.6 2.5-1.3h.1l.7.3c1.1.5 1.5 1.8 1.1 2.9L111 84.9c-.3 1-1.5 1.6-2.5 1.3-.1-.1-.1-.1-.2-.1M128.1 99.2l-.7-.3c-1.1-.5-1.6-1.8-1.1-2.9l4.3-11.3c.4-1 1.5-1.6 2.5-1.3h.1l.7.3c1.1.5 1.6 1.8 1.2 2.9L130.7 98c-.3 1.1-1.5 1.6-2.5 1.3 0 0-.1 0-.1-.1M137.8 69.4l-.7-.3c-1.1-.5-1.5-1.8-1.1-2.9l4.3-11.3c.4-1 1.5-1.6 2.5-1.3h.1l.7.3c1.1.5 1.5 1.8 1.1 2.9l-4.3 11.3c-.3 1-1.5 1.6-2.5 1.3-.1.1-.1 0-.1 0M153.3 86.1l-.7-.3c-1.1-.5-1.6-1.8-1.1-2.9l4.3-11.3c.4-1 1.5-1.6 2.5-1.3h.1l.7.3c1.1.5 1.5 1.8 1.1 2.9L156 84.9c-.3 1-1.5 1.6-2.5 1.3-.1-.1-.1-.1-.2-.1M170.4 99.2l-.7-.3c-1.1-.5-1.5-1.8-1.1-2.9l4.2-11.3c.4-1 1.5-1.6 2.5-1.3h.1l.7.3c1.1.5 1.5 1.8 1.1 2.9L173.1 98c-.3 1.1-1.5 1.6-2.5 1.3-.1 0-.1 0-.2-.1M180.1 69.4l-.7-.3c-1.1-.5-1.5-1.8-1.1-2.9l4.2-11.3c.4-1 1.5-1.6 2.5-1.3h.1l.7.3c1.1.5 1.5 1.8 1.1 2.9l-4.2 11.3c-.4 1-1.5 1.6-2.5 1.3 0 .1-.1 0-.1 0M195.7 86.1l-.7-.3c-1.1-.5-1.5-1.8-1.1-2.9l4.2-11.3c.4-1 1.5-1.6 2.5-1.3h.1l.7.3c1.1.5 1.6 1.8 1.1 2.9l-4.2 11.3c-.4 1-1.5 1.6-2.5 1.3z" class="st11"/><circle cx="216.1" cy="49.7" r="27.1" class="st12"/><path d="M216.1 81.6c-17.7 0-32-14.3-32.1-31.9 0-17.7 14.3-32 31.9-32.1h.1c17.6 0 31.9 14.2 32 31.9s-14.2 32-31.9 32.1m0-54.2c-12.4.3-22.1 10.5-21.8 22.8.3 11.9 9.9 21.5 21.8 21.8h.1c12.3 0 22.2-10 22.2-22.3-.1-12.4-10-22.3-22.3-22.3" class="st2"/><circle cx="215.5" cy="49.1" r="8.9" class="st2"/><circle cx="46.6" cy="53.1" r="27.1" class="st12"/><path d="M46.6 85.1c-17.7 0-32-14.3-32.1-31.9 0-17.7 14.3-32 31.9-32.1h.1c17.6 0 31.9 14.3 32 31.9.1 17.7-14.2 32-31.9 32.1m0-54.3c-12.4.3-22.1 10.5-21.8 22.8.3 11.9 9.9 21.5 21.8 21.8h.1c12.3 0 22.2-10 22.2-22.3V53c-.1-12.3-10.1-22.2-22.3-22.2" class="st2"/><circle cx="46" cy="52.6" r="8.9" class="st2"/><ellipse cx="146.6" cy="221.3" class="st12" rx="5.6" ry="5.1" transform="rotate(-37.58 146.58 221.316)"/><ellipse cx="133.7" cy="231.9" class="st12" rx="3.5" ry="3.2" transform="rotate(-37.58 133.693 231.91)"/></g></svg>