<svg xmlns="http://www.w3.org/2000/svg" xmlns:xlink="http://www.w3.org/1999/xlink" xml:space="preserve" id="Camada_1" x="0" y="0" version="1.1" viewBox="0 0 262.2 299"><style>.st2{fill:#012442}.st3{fill:#ffbb71}.st9{fill:#178ffc}.st10{fill:#fff}</style><circle cx="130.8" cy="172.6" r="123.3" style="fill:#e02d5c"/><defs><circle id="SVGID_1_" cx="130.6" cy="172.6" r="123.3"/></defs><clipPath id="SVGID_2_"><use xlink:href="#SVGID_1_" style="overflow:visible"/></clipPath><g style="clip-path:url(#SVGID_2_)"><path d="M222.9 298.1c-12.5 0-23.7-7.9-26.6-19.4-9.3-37.2-33-47.3-34-47.7l.6.2 19.8-46.6c5.2 1.8 51.2 19.9 66.9 83 3.4 13.5-5.9 26.9-20.6 29.9-2.1.4-4.1.6-6.1.6" class="st2"/><path d="M224.1 290c-8.3 0-15.8-5.2-17.7-13-10.6-42.7-44.2-57.5-44.5-57.7-9.2-3.8-13.3-13.6-9.2-22s14.9-12.1 24.1-8.4c2.1.8 50.3 21.2 65.1 80.7 2.2 9-3.9 17.9-13.7 19.9-1.4.3-2.8.5-4.1.5" class="st3"/><path d="M40.3 298.9c-2 0-4.1-.2-6.1-.6-14.7-3.1-23.9-16.5-20.6-29.9 15.7-63.1 65.7-84.8 70.8-86.6l19.8 46.6c-1.2 1.1-2.3 2.2-3.3 3.4-1 .4-24.8 10.5-34 47.7-2.9 11.6-14.2 19.4-26.6 19.4" class="st2"/><path d="M39.1 290.9c-1.4 0-2.7-.1-4.1-.4-9.8-2-16-11-13.7-19.9 14.8-59.4 64.9-80.6 66.9-81.5l20.3 26.9.3.3c-1.4.6-41.4 19.1-52 61.7-1.9 7.6-9.4 12.9-17.7 12.9" class="st3"/><path id="peito" d="M203.5 303.8s7.6-93.6-43.8-120.2l-56.4 2.2c-45.1 15.9-42.6 118.1-42.6 118.1z" class="st3"/><path d="M69 246.8c-1.7-1-3.9-.4-4.9 1.3-.2.3-.3.6-.4.9-2.8 10.7-5.1 25.2-5.1 44 .1 1.9 1.7 3.4 3.6 3.3 1.9.1 3.6-1.4 3.6-3.3 0-18 2.2-32 4.9-42.2.4-1.5-.2-3.2-1.7-4M197.2 246.8c-1.5.8-2.2 2.5-1.8 4.1 2.6 10.1 4.8 24.1 4.9 42.1.1 1.9 1.7 3.4 3.6 3.3 1.9.1 3.6-1.4 3.6-3.3 0-18.8-2.3-33.3-5.1-44-.5-1.9-2.5-3.1-4.4-2.6-.2.1-.5.2-.8.4" class="st2"/><g style="opacity:.75"><path d="M129.1 302.6c12.3-.5 24-2.7 31.6-13.2 10.1-14 11.2-30.7 8.2-47.2-.5-2.9 1.2-4.9 4-5.2 17.2-2.1 34.9-3.4 52.2-1.4l2.9.4c-20-33.6-49.7-46.1-51.3-46.8-3.2-1.3-6.7-1.7-10.1-1.3q-3.3-2.4-6.9-4.2l-56.4 2.2c-4.5 1.6-8.6 4-12.1 7.2l-3-3.9c-1.5.6-28.7 12.1-49 41.6 6 5.2 14.8 5.8 23 5.5 10.7-.3 21.4-2.3 32-.6 2.2.6 3.5 2.9 2.9 5.1-7.1 17.6-4.8 36.9 9.2 50.4 6.1 5.8 13.6 9.9 21.7 11.9.4-.4.7-.4 1.1-.5" style="fill:#e57a45"/></g></g><path d="M216 30.6h-21.3l-4.8 17.2L178 30.6h-43.5l-2.8 12-3.5-12H77.5l-6.4 12-8.2-12H45.4v113.1H216z" style="fill:#c47b49"/><path d="m218.2 28.8-24.6-1.7-4 11.9-8.9-10.3H74.6L70.2 34l-5.6-5.2H44.1v22.3h31.2c3.1 0 5.7 2.5 5.8 5.6v13.5c0 5 3.7 9.3 8.6 10 5.4.8 10.4-3 11.2-8.4.1-.4.1-.8.1-1.2V56.7c0-3.1 2.6-5.6 5.7-5.6h20.2c3.8-.1 6.9 3 7 6.8v12.2c0 5 3.7 9.3 8.6 10 5.4.8 10.4-3 11.2-8.4.1-.4.1-.8.1-1.2V57.4c.1-3.5 2.9-6.3 6.4-6.3h5.3c3.9-.1 7.1 3.1 7.2 7v6.1c.1 3.2 2.7 5.8 5.9 5.7 3-.1 5.5-2.5 5.7-5.5v-6.3c0-3.9 3.2-7 7.2-7h26.6z" style="fill:#ffce00"/><path d="M216 30.6v113.1H45.4V30.6h17.5l8.2 12 6.5-12h50.6l3.5 12 2.8-12H178l12 17.2 4.7-17.2zm8-8h-35.4l-1.6 5.9-.2.7-2.2-3.2-2.4-3.4H72.8l-2.3 4.2-.2.4-.8-1.1-2.4-3.5H37.4v129.1H224z" class="st2"/><path d="M130.4 289.3c-6 0-11.4-3.1-16-9.2-6-7.9-7.4-15.9-5.1-29.6l4.2-29.7H59c-12.9 0-23.4-10.3-23.4-22.9V144H226v53.9c0 12.6-10.5 22.9-23.4 22.9h-54.4l5.2 29.6c2.1 10.5 1.3 24.5-7.6 32.3-5.1 4.3-10.4 6.6-15.4 6.6" style="fill:#00a4ff"/><path d="M221.9 147.9v49.9c0 10.4-8.7 18.9-19.4 18.9h-59.2l6 34.3c2.1 10.2.8 22.3-6.3 28.5-3.2 2.8-7.6 5.7-12.6 5.7-4.1 0-8.6-2-12.9-7.6-4.7-6.2-6.7-12.5-4.3-26.6l4.9-34.3H59c-10.7 0-19.4-8.5-19.4-18.9v-49.9zm8-8H31.5v57.9c0 14.8 12.3 26.9 27.4 26.9h50l-3.6 25.1c-2.5 14.7-.8 23.9 5.9 32.7s14.2 10.8 19.2 10.8c6 0 12.2-2.6 17.9-7.7 10.1-9 11.2-24.5 8.9-36l-4.3-24.9h49.7c15.1 0 27.4-12.1 27.4-26.9z" class="st2"/><path d="M158.6 148.3h56.2c1.2 3.7 1.6 7.6 1.1 11.4-1.7 15.7-16.2 27.1-32.4 25.4s-27.9-15.8-26.2-31.5c.3-1.8.7-3.6 1.3-5.3M99.8 148.3H43.5c-1.2 3.7-1.6 7.6-1.2 11.4 1.7 15.7 16.2 27.1 32.4 25.4s27.9-15.8 26.2-31.5c-.1-1.8-.5-3.6-1.1-5.3" class="st9"/><ellipse cx="184.3" cy="149.7" class="st10" rx="26.1" ry="25.4"/><path d="M184.3 178.1c-16.1 0-29.1-12.7-29.1-28.4s13.1-28.4 29.1-28.4 29.2 12.7 29.2 28.4c0 15.6-13.1 28.4-29.2 28.4m0-50.9c-12.8 0-23.1 10.1-23.1 22.4 0 12.4 10.4 22.4 23.1 22.4 12.8 0 23.2-10.1 23.2-22.4s-10.4-22.4-23.2-22.4" class="st2"/><ellipse cx="75.3" cy="149.2" class="st10" rx="26.2" ry="25.4"/><path d="M75.3 177.6c-16.1 0-29.1-12.7-29.1-28.4s13.1-28.4 29.1-28.4c16.1 0 29.2 12.7 29.2 28.4s-13.1 28.4-29.2 28.4m0-50.8c-12.8 0-23.1 10.1-23.1 22.4 0 12.4 10.4 22.4 23.1 22.4s23.2-10.1 23.2-22.4c0-12.4-10.4-22.4-23.2-22.4" class="st2"/><path id="olho" d="M59.5 150.4c1 8.4 8.6 14.3 16.9 13.4 8.3-.7 14.5-8 13.8-16.4v-.1c-1-8.4-8.6-14.3-16.9-13.4-8.3.7-14.5 8-13.8 16.5q0-.15 0 0" class="st2"/><path id="olho-2" d="M168.9 150.6c1 8.3 8.6 14.3 16.9 13.4 8.3-.7 14.5-8 13.8-16.4v-.1c-1-8.4-8.6-14.3-16.9-13.4-8.3.7-14.5 8-13.8 16.3z" class="st2"/><path d="m155.2 125.2 54.5-15.4c2.4-.6 3.8-3.1 3.2-5.4l-3-11.5c-.7-2.5-3.3-3.9-5.7-3.2h-.1l-54.5 15.4c-2.4.6-3.8 3.1-3.2 5.4l3 11.5c.7 2.5 3.3 4 5.8 3.2q0 .15 0 0M106.8 125.2l-54.5-15.4c-2.4-.6-3.8-3.1-3.2-5.4l3-11.5c.7-2.5 3.2-3.9 5.7-3.3h.2l54.5 15.4c2.4.6 3.8 3.1 3.2 5.4l-3 11.5c-.7 2.5-3.3 3.9-5.7 3.3-.1.1-.1.1-.2 0" class="st2"/><path d="M155.3 193.7c1.7-1.3 3.1-2.8 4.1-4.6 2.9-4.9 2.5-11-.9-15.5-1.2-1.6-2.8-2.8-4.6-3.5-2.6-.8-5.4-.2-7.9.8s-10.8 4.3-17.4 4.3-14.2-3.3-16.7-4.3-5.3-1.6-7.9-.8c-1.9.7-3.5 1.9-4.6 3.5-3.4 4.5-3.7 10.6-.9 15.5 1.1 1.8 2.5 3.3 4.1 4.6 10.8 8.7 26.5 8.6 26.5 8.6 9.4 0 18.6-3 26.2-8.6" class="st10"/><path d="M129.1 205.4c-.8 0-16.9-.1-28.4-9.3a20.7 20.7 0 0 1-4.8-5.4c-3.5-6-3.1-13.4 1-18.9 1.5-2.1 3.6-3.6 6-4.5 3-1 6.3-.7 10 .8l.5.2c2.8 1.2 9.4 3.8 15 3.8 2.8 0 7.9-.7 16.3-4.1 3.7-1.5 7.1-1.8 9.9-.8 2.5.9 4.6 2.5 6.1 4.6 4.1 5.5 4.5 12.8 1 18.8-1.3 2.1-2.9 4-4.9 5.5h-.1c-7.8 6-17.4 9.2-27.6 9.3m-22.5-32.7c-.6 0-1.2.1-1.7.2-1.2.4-2.3 1.3-3.1 2.4-2.7 3.6-3 8.4-.7 12.2.9 1.4 2 2.7 3.4 3.8 9.8 7.9 24.5 8 24.6 8 8.8-.1 17.2-2.8 24.3-8 1.4-1 2.5-2.3 3.4-3.8 2.2-3.8 2-8.6-.7-12.1-.8-1.2-1.9-2-3.2-2.5-1.4-.5-3.4-.2-5.8.7-7.5 3-13.7 4.5-18.5 4.5-6.8 0-14.1-3-17.3-4.3l-.5-.2q-2.4-.9-4.2-.9" class="st2"/><path d="M107 169h6v27h-6zM119.3 172.4h6v27h-6zM133.7 174h6v27h-6zM146.1 172.4h6v27h-6z" class="st2"/></svg>