<svg xmlns="http://www.w3.org/2000/svg" xmlns:xlink="http://www.w3.org/1999/xlink" xml:space="preserve" id="Camada_1" x="0" y="0" version="1.1" viewBox="0 0 262.2 299"><style>.st2{fill:#012442}.st3{fill:#4f7e9e}.st4{fill:#2c506d}.st6{fill:#33ffc5}</style><g id="Camada_4"><circle cx="131" cy="175.2" r="123.3" style="fill:#e02d5c"/><defs><circle id="SVGID_1_" cx="130.5" cy="175.9" r="123.3"/></defs><clipPath id="SVGID_2_"><use xlink:href="#SVGID_1_" style="overflow:visible"/></clipPath><g style="clip-path:url(#SVGID_2_)"><path d="M217.8 301.5c-12.5 0-23.7-7.9-26.6-19.4-9.3-37.2-33-47.3-34-47.7l.6.2 19.8-46.6c5.2 1.9 51.2 19.9 66.9 83 3.4 13.5-5.9 26.9-20.6 29.9-2 .4-4.1.6-6.1.6" class="st2"/><path d="M219 293.4c-8.3 0-15.8-5.2-17.7-13-10.6-42.7-44.2-57.5-44.5-57.7-9.2-3.8-13.3-13.6-9.2-22s14.9-12.1 24.1-8.4c2 .8 50.3 21.2 65.1 80.7 2.2 9-3.9 17.9-13.7 19.9-1.4.3-2.7.5-4.1.5" class="st3"/><path d="M35.2 302.3c-2 0-4.1-.2-6.1-.6-14.7-3.1-23.9-16.5-20.6-29.9 15.7-63.1 65.6-84.7 70.8-86.6l19.8 46.6s-3.7 3.6-3.4 3.4c-1 .4-24.8 10.5-34 47.7-2.8 11.5-14 19.4-26.5 19.4" class="st2"/><path d="M34 294.2c-1.4 0-2.7-.1-4.1-.4-9.8-2-15.9-11-13.7-19.9 14.8-59.4 64.9-80.6 66.9-81.5l20.3 26.9.3.3c-1.4.6-41.4 19.1-52 61.7-1.9 7.7-9.4 12.9-17.7 12.9" class="st3"/><path id="peito" d="M193.8 301.5s7.6-85.6-43.8-112.2l-56.4 2.2c-45.1 15.9-42.6 110-42.6 110z" class="st3"/><path d="M37 229.8c64.6 58.2 163.5 31.5 182.7 4.8-13.7-24.2-45.9-49-63.9-41.9-9.9-9.7-64.6 3.4-72.5-.2-2.5 1.9-18.1-1.4-46.3 37.3" class="st4"/><path d="M63.9 250.1c-1.7-1-3.9-.5-4.9 1.2-.2.3-.3.6-.4.9-2.8 10.7-5.1 25.2-5.1 44.1.1 1.9 1.7 3.4 3.6 3.3 1.9.1 3.6-1.4 3.7-3.3 0-18 2.2-32 4.9-42.2.4-1.5-.3-3.1-1.8-4M192.1 254.1c-1.5.8-2.2 2.5-1.8 4.1 2.6 10.2 4.8 24.1 4.8 42.2.1 1.9 1.7 3.4 3.6 3.3 1.9.1 3.6-1.4 3.6-3.3 0-18.8-2.3-33.3-5.1-44-.5-1.9-2.5-3.1-4.4-2.6-.1.1-.4.2-.7.3" class="st2"/></g></g><g id="Camada_3"><path d="M241.9 198.7c0-.6 1.2-64.9-7.6-95.2l-.1-.2-.1-.2c-.2-.4-23.8-37.1-41.3-55.6l29-21.5-4.3.1c-.3 0-18.5-14.4-51.4-11.5-30.4 2.6-54.5 0-95.2 21.5l-.4.1-.2.3c-.3.3-28 33-45.6 70-4.1 8.7-7 18.9-8.6 30.6q-1.95 15.15-1.5 30.3c.6 18.4 3.3 38.2 3.3 38.3l.1.5.4.3c.5.4 46.6 34.1 118.3 34.1 37.5 0 64.5-11.2 80.5-20.5 17.4-10.2 24-20.2 24.3-20.6l.3-.4v-.4z" class="st4"/><path d="M38.2 193.5s6.5-67.9 13.3-80.3c4.4-8.1 64.2-27.4 77.5-28.6 13.3-1.1 60.9 12.4 78.6 27.1 0 0 15.5 66 8.9 88.5 0 0-25.8 16.9-89.7 19.4-.1 0-63.2-6.2-88.6-26.1" class="st2"/><path d="m213.1 110.4-.4-1.9-1.5-1.2c-18.3-15.1-67.6-22-82.7-20.7-8.4.7-28.6 5.8-43.4 11-36.2 12.7-38.6 17-39.5 18.6-6 11-10.7 52.3-13 76l-.4 4 2.5 1.9c26.4 20.6 88.8 27 91.5 27.3h.8c64.6-2.5 91.4-19.6 92.5-20.3l1.8-1.1.6-2c7-23.9-8.2-88.9-8.8-91.6m-1.6 86c-21.3 11.9-63.1 16.5-84.6 17.4-3.5-.4-58.3-6.5-82.8-23.1 3.2-31.7 8.3-67.2 12.2-74.6 4.4-5.4 58.6-24.6 73.1-25.8 11.2-1 55 11.1 73.1 24.7 1 4.6 4 18.3 6.4 33.5 4.4 28 3.9 41.5 2.6 47.9" class="st3"/><path d="M158.2 23c19.9 0 39.8 1.5 59.4 4.6l-26.9 19.8c17.7 18.1 42.2 56.5 42.2 56.5 6.2 21.4 7.4 59.4 7.6 80.3.1 10.3-4.5 20.1-12.5 26.4-15.3 12-45 28.9-91.3 28.9-45.7 0-80.6-13.6-100.1-23.5-10.7-5.4-17.1-16.9-16.2-29 1.8-25.4 6.1-69.3 15-85.4 19.9-36.1 36-62 36-62C96.3 26.5 129.6 23 158.2 23m0-8.6c-38 0-68.5 5.8-90.7 17.4-1.4.7-2.5 1.8-3.3 3.1-.2.2-16.5 26.4-36.2 62.3-9.2 16.7-13.8 57.6-16 89-1.1 15.6 7.1 30.4 20.9 37.4C54.7 234.7 90.4 248 136.7 248c21.6 0 41.8-3.5 60.2-10.5 13-4.8 25.2-11.6 36.2-20.2 10.1-8 16-20.3 15.9-33.4-.2-21.3-1.5-60.2-8-82.7-.2-.8-.6-1.6-1-2.3-.9-1.4-19.7-30.8-36.6-50.4l19.1-14c3.8-2.8 4.7-8.2 1.9-12.1-1.3-1.8-3.3-3.1-5.5-3.5-20-3-40.3-4.6-60.7-4.5" class="st2"/><path d="M38.2 193.5s6.5-67.9 13.3-80.3c4.4-8.1 64.2-27.4 77.5-28.6 13.3-1.1 60.9 12.4 78.6 27.1 0 0 15.5 66 8.9 88.5 0 0-25.8 16.9-89.7 19.4-.1 0-63.2-6.2-88.6-26.1" class="st2"/><path d="M54.3 115.1s42.3-28 111-41.6c0 0 20.9 4.3 25.3 8.1" style="fill:none;stroke:#012442;stroke-width:9;stroke-linecap:round;stroke-linejoin:round"/><path d="M200.9 56.6c-.7 0-1.3-.2-1.9-.5-.2-.1-23.4-11.9-38.9-15.5-2.3-.5-3.7-2.9-3.2-5.2s2.8-3.8 5.1-3.3c16.6 3.8 39.8 15.7 40.8 16.2 2.1 1.1 2.9 3.7 1.9 5.8-.7 1.5-2.1 2.5-3.8 2.5" class="st2"/><path d="M68.5 116s28.6 2.1 44.6 20.2c0 0-10.3 21.1-29.8 14.5-19.5-6.4-14.8-34.7-14.8-34.7M187.5 116s-28.6 2.1-44.6 20.2c0 0 10.3 21.1 29.8 14.5 19.5-6.4 14.8-34.7 14.8-34.7" class="st6"/><path d="M38.5 110.2s52.4-33.1 97.4-42.1L146.3 41l-33 2.9s13.8-11.2 24.9-13.4l-56 12.8c-3.2.7-6.1 2.7-7.8 5.6-7.2 11.6-26.4 43.2-35.9 61.3" class="st3"/><path d="M174.8 200.6s-4 .1-4 0c-.3-1.9.9-7.3-.5-8.8-1.4-3.2-13.9-1.3-16.5-1.8-5.3-.1-3.8 7.3-4 10.6 0 .1-11.2 0-11.2 0-.3-3.4 1.9-11.6-3.8-11.5h-13.2c-2.2 0-4 1.8-4 4v7.6h-9.8c-.2-3.3 1.3-10.7-4-10.6h-13c-2.2-.1-4 1.7-4.1 3.9v.2l.2 6.5c0 .1-2.4 0-2.5 0-12.2.2-14.6-29.7-18-38.5 1.8.4 4.3 1 7.2 1.7.8 3.4-1.8 14.4 3.9 14.7 2.6-.2 13.8 2.5 15.7.2 2.2-1.6 1-9.2 1.3-11.5 2.9.3 6 .7 9 .9l.3 9.1c.1 2.2 1.8 3.9 4 3.9h12.6c5.7.1 3.6-8.6 4-11.9 10.3.5 9-3.1 8.9 8 0 2.2 1.8 4 4 4H150c5.9.2 3.6-9.9 4.2-13.2 2.9-.3 6-.7 9-1 .3 3.5-1.9 13.6 4.4 12.9l12.7-1.2c2-.2 3.5-1.8 3.6-3.8l.3-11.5c2-.5 4.1-.9 6.1-1.4-2 9.8-2.6 38.7-15.5 38.5" class="st6"/></g></svg>