<svg xmlns="http://www.w3.org/2000/svg" id="Camada_6" data-name="Camada 6" viewBox="0 0 262.17 298.96"><defs><clipPath id="clip-path"><path d="M254.25 124.74C254 56.63 270.27 1.87 130.48 1.87-.16 1.87 7.35 57.54 7.6 125.65c.06 15.72-.06 34 0 50a123.33 123.33 0 0 0 246.65-.91c-.05-15.74.06-33.95 0-50" style="fill:none;clip-rule:evenodd"/></clipPath><style>.cls-12{fill:none}.cls-5{fill:#012442}.cls-7{fill:#33b1ff}.cls-8{fill:#9cecff}.cls-9{fill:#f7f5a1}.cls-10{fill:#f45687}.cls-12{stroke:#012442;stroke-miterlimit:10;stroke-width:6px}</style></defs><circle cx="130.93" cy="174.91" r="123.33" style="fill:#853fbc"/><g style="clip-path:url(#clip-path)"><path d="m242.27 236.71 8 3.12c3.58-51.77-20.51-98.55-20.51-98.55h17.32c-6-80.47-35.19-94.3-35.19-94.3C191.17 32 159.28 32 159.28 32c0-5.08 10.36-10.87 10.36-10.87-18.73-5.25-32.43-.37-39.34 3.32-6.91-3.69-20.61-8.57-39.34-3.32 0 0 10.36 5.79 10.36 10.87 0 0-31.89 0-52.58 14.95 0 0-29.22 13.83-35.19 94.3h17.32s-25 46.78-21.47 98.55l8.93-3.12L.42 332h259.77Z" style="fill:#fff"/><path d="M264.86 336H-4.25l17.68-94.1-7.54 2.81-.32-4.62C2.66 198.11 16 159.91 24 145.29H9.4l.32-4.29c5.79-78 33.36-95.46 37.06-97.45 15.65-11.19 36.8-14.31 47.6-15.17a34.3 34.3 0 0 0-5.23-3.66l-8.57-4.82L90 17.28c18.64-5.22 32.73-.92 40.34 2.74 7.61-3.66 21.71-8 40.34-2.74L180 19.9l-8.56 4.79a33.8 33.8 0 0 0-5.23 3.66c10.8.87 32 4 47.59 15.17 3.7 2 31.27 19.43 37.06 97.45l.32 4.32h-14.61c8 14.62 20.41 52.82 17.5 94.83l-.31 4.62-6.59-2.81ZM5.09 328h250.43l-18.14-76.51 9.26-16.59c1.44-47.91-19.82-91-20.1-91.4l-4-6.24h20.31c-6.35-72.61-32.37-86.5-32.63-86.64l-.28-.13-.28-.2C190.2 36.21 159.58 36 159.28 36h-3.85v-4c0-3.26 2.1-6.28 4.62-8.74a46.9 46.9 0 0 0-28 4.77l-1.75.97-1.75-.94a46.8 46.8 0 0 0-28-4.77c2.52 2.46 4.62 5.48 4.62 8.74v4h-3.85c-.3 0-31 .2-50.4 14.25l-.28.2-.32.15c-.22.12-26.24 14-32.59 86.62H38l-4 6.24c-.29.44-22.51 43.49-21.07 91.4l10.23 16.59Z" class="cls-5"/><path d="M226.86 171.14a36.9 36.9 0 0 0-10.49-10.33c-5.15-3.34-8.14-9.32-7.43-14.89s5.2-10.92 11.16-13.16l4.14-1.55.2-4.28c1.26-26.23-19.26-53-47.74-62.36l-5.79-1.9-2.6 5.33c-3 6.07-9.43 12.21-15.62 11.64-12-1.13-19.39-4.62-23.5-7.35a21 21 0 0 1-6-5.58l-3-5.26-5.71 2.34c-6 2.43-10.29 7.38-12.41 14.11A21.37 21.37 0 0 1 91.25 68l-2.6-5.34-5.8 1.9c-28.47 9.33-49 36.13-47.74 62.36l.21 4.28 4.14 1.55c6 2.24 10.44 7.53 11.16 13.16s-2.28 11.55-7.43 14.89a36.9 36.9 0 0 0-10.49 10.34c-6.2 9.4-12.94 21.87-10 35.08l1.36 6.1 6.39-1c1.49-.22 2.91-.47 4.29-.73A57 57 0 0 0 52 256.44l5 4.77 4.82-4.94a24.6 24.6 0 0 1 4-3.37 36 36 0 0 0 17.47 12.87c7 2.29 15 3.35 25.2 3.35a26.3 26.3 0 0 1 16.93 6.13l5.15 5.22 4.94-5.41c2.93-3.22 8.29-5.17 16.38-6 1.95-.19 4-.33 5.95-.46 6.06-.41 12.34-.83 18.55-2.86a35.85 35.85 0 0 0 17.41-12.84 25.5 25.5 0 0 1 4 3.37l4.81 4.94 5-4.77a57 57 0 0 0 17.23-45.83c1.38.26 2.8.51 4.28.73l6.4 1 1.36-6.1c2.91-13.24-3.82-25.7-10.02-35.1" style="fill:#b4ddfc"/><path d="M108.43 252.4c-7.78 0-15.7-.62-23-3-7.78-2.54-13.7-8.6-17.15-15.37a31.14 31.14 0 0 0-11.46 7.6C43.3 228.71 38.62 209.55 43 192.27c-4.74.73-8.87 1.71-13.62 2.43-2.33-10.45 3-21 9.07-30.16a30.1 30.1 0 0 1 8.53-8.4C54.3 151.42 58.43 143 57.41 135S50.24 119.61 42 116.49c-1.15-24 18-47.6 43.11-55.82 3.89 8.1 12.69 14.13 22.42 15.4 0 0 0-12.4 9.61-16.34 0 0 7.78 13.79 34.88 16.34 9.79.92 18.54-7.3 22.48-15.4 25.1 8.22 44.26 31.83 43.11 55.82-8.3 3.12-14.43 10.46-15.46 18.5s3.11 16.43 10.4 21.15a29.8 29.8 0 0 1 8.53 8.4c6 9.17 11.41 19.71 9.07 30.16-4.75-.72-8.87-1.7-13.62-2.43 4.4 17.28-.27 36.44-13.78 49.36a31.26 31.26 0 0 0-11.47-7.6c-3.44 6.77-9.36 12.83-17.15 15.37-7.3 2.38-15.27 2.24-23 3s-15.89 2.77-20.82 8.17a32.47 32.47 0 0 0-21.88-8.17" class="cls-7"/><path d="m130.42 265.83-2.78-2.83a29.08 29.08 0 0 0-19.21-7c-9.82 0-17.51-1-24.19-3.19a33.46 33.46 0 0 1-17.53-14.11 26.5 26.5 0 0 0-7.22 5.4l-2.59 2.67-2.69-2.57a54.2 54.2 0 0 1-15.84-47.46l-1.44.28c-2.21.42-4.5.86-6.95 1.24l-3.44.52-.74-3.28c-2.71-12.13 3.69-23.9 9.56-32.81A33.6 33.6 0 0 1 45 153.2c6.11-4 9.65-11.11 8.8-17.78s-6.14-13-13.14-15.62l-2.28-.8-.11-2.3c-1.2-24.93 18.41-50.44 45.6-59.35l3.12-1 1.4 2.87c2.91 6 8.94 10.69 15.92 12.63.89-4.74 3.55-12.13 11.4-15.33l3.07-1.26 1.6 2.83c.28.47 7.46 12.2 32 14.51 7.7.73 15.28-6.18 18.79-13.37l1.39-2.88 3.13 1c27.19 8.91 46.8 34.42 45.6 59.35l-.11 2.3-2.23.84c-7 2.63-12.29 8.91-13.14 15.62s2.68 13.82 8.8 17.78a33.5 33.5 0 0 1 9.58 9.44c5.88 8.9 12.28 20.68 9.56 32.81l-.73 3.28-3.44-.52c-2.45-.38-4.74-.82-7-1.24l-1.44-.28a54.2 54.2 0 0 1-15.84 47.46l-2.69 2.57-2.59-2.67a26.7 26.7 0 0 0-7.21-5.4 33.48 33.48 0 0 1-17.54 14.11c-5.82 1.9-11.9 2.31-17.77 2.7-2 .14-4 .27-6 .47-8.93.88-15 3.17-18.43 7Zm-60.37-36.37 1.53 3c3.36 6.6 8.84 11.55 15 13.57 5.89 1.92 12.83 2.82 21.82 2.82a37.1 37.1 0 0 1 21.73 6.94c4.77-3.76 11.55-6 20.59-6.93 2.1-.2 4.22-.35 6.28-.48 5.65-.39 11-.75 15.92-2.35 6.19-2 11.67-7 15-13.57l1.53-3 3.21 1.3a35.9 35.9 0 0 1 9.89 5.81A47.57 47.57 0 0 0 213 193.12l-1.33-5.19 5.48.84c2.45.37 4.74.81 6.95 1.24 1 .19 2 .38 2.94.55.4-8.55-4.5-17.26-9-24.11a26.2 26.2 0 0 0-7.48-7.36c-8.49-5.5-13.2-15.13-12-24.54 1.09-8.6 7.07-16.38 15.47-20.39-.14-20.29-15.84-40.67-37.73-49.09-5 8.12-14.18 15.52-24.57 14.53-21.12-2-31.4-10.54-35.51-15.18-4.85 3.91-5 11.56-5 11.65v4l-4.22-.49a33.84 33.84 0 0 1-23.65-14.52c-21.91 8.41-37.62 28.8-37.77 49.1C54 118.17 60 126 61.06 134.55c1.2 9.41-3.51 19-12 24.54a26.1 26.1 0 0 0-7.48 7.36c-4.52 6.85-9.42 15.56-9 24.11 1-.17 2-.36 2.94-.55 2.22-.43 4.51-.87 7-1.24l5.47-.84-1.32 5.19a47.59 47.59 0 0 0 10.34 43.45 36 36 0 0 1 9.9-5.81Z" class="cls-5"/><path d="m207.39 105.8-.37-3.54h-68.68a20.5 20.5 0 0 1-2.5-5.36 6.48 6.48 0 0 0-6.14-4.47 6.48 6.48 0 0 0-6.14 4.47 20.5 20.5 0 0 1-2.5 5.36H52.39L52 105.8c-.07.66-1.61 16.41 7.83 27.6 5.37 6.36 13.08 9.91 22.92 10.54.89.05 1.76.08 2.62.08 23.08 0 32.19-16 34.3-29.48l4.23-4.38 1-.62c.86-.55 2.86-2.21 4.82-6.56 2 4.35 4 6 4.82 6.56l1 .62 4.24 5.47C141.83 129.15 150.94 144 174 144c.85 0 1.72 0 2.62-.08 9.83-.63 17.54-4.18 22.91-10.54 9.47-11.17 7.93-26.92 7.86-27.58" class="cls-8"/><path d="M76.54 192.7c-1.53 2.45-5.23 11-6.32 13.67a8.8 8.8 0 0 0-.87 3.71c.15 2.95 2.89 5.06 5.54 6.37a32.3 32.3 0 0 0 9.55 3 7.5 7.5 0 0 0 3.85-.18 7.75 7.75 0 0 0 3.37-3.27c2.11-3.18 5-10.22 6.15-13.85" class="cls-9"/><path d="M86.29 223.15a16 16 0 0 1-2.37-.2 35.5 35.5 0 0 1-10.6-3.3c-6-3-7.4-6.73-7.53-9.39a12.1 12.1 0 0 1 1.12-5.26c.94-2.3 4.82-11.35 6.6-14.21a3.57 3.57 0 0 1 6.06 3.77c-1.31 2.1-4.88 10.26-6 13.14a6.1 6.1 0 0 0-.6 2.17c0 1 1.41 2.3 3.55 3.36a28.5 28.5 0 0 0 8.48 2.66 5.3 5.3 0 0 0 2 0c.61-.24 1.4-1.42 1.69-1.87 1.84-2.77 4.58-9.43 5.74-13a3.57 3.57 0 0 1 6.79 2.22c-1.29 3.95-4.29 11.26-6.58 14.71a11.1 11.1 0 0 1-5 4.58 8.9 8.9 0 0 1-3.35.62M207.39 115.64l-.39-3.54h-68.65c-1.11-1.54-3.35-5.71-4.66-15.13v-.25a4 4 0 0 0-3.43-4.41h-1.1700000000000002a4 4 0 0 0-3.44 4.41v.25c-1.3 9.42-3.55 13.59-4.65 15.13H52.39l-.39 3.54c-.07.66-1.61 16.41 7.83 27.6 5.37 6.36 13.08 9.91 22.92 10.54.89.05 1.76.08 2.62.08 23.08 0 32.19-20.34 34.3-33.85h4.23l1-.63c.86-.54 2.86-2.21 4.82-6.56 2 4.35 4 6 4.82 6.56l1 .63h4.24c2.1 13.51 11.21 33.85 34.3 33.85.85 0 1.72 0 2.62-.08 9.83-.63 17.54-4.18 22.91-10.54 9.39-11.19 7.85-26.94 7.78-27.6" class="cls-5"/><path d="M83.26 145.89c-7.58-.48-13.42-3.08-17.35-7.71C61 132.36 60 124.5 59.81 120h51.79c-1.6 8.49-7.69 27.21-28.34 25.89M193.49 138.18c-3.93 4.63-9.76 7.23-17.35 7.71-20.68 1.33-26.69-17.41-28.34-25.88h51.79c-.14 4.49-1.17 12.35-6.1 18.17" class="cls-9"/><path d="M71.31 116.87a14.6 14.6 0 0 0-1.55 6.55 14.75 14.75 0 1 0 27.94-6.55ZM160.5 116.87a14.75 14.75 0 1 0 26.39 0Z" class="cls-5"/><path d="m134 205.52 7.46 18.76s6.36 14.92 28.25 7.43S181 205.52 181 205.52l-5.27-10.72" class="cls-10"/><path d="M158.41 236.82c-14.64 0-19.63-11.22-19.69-11.36l-7.49-18.83a3 3 0 0 1 5.6-2.23l7.46 18.77c.19.41 5.67 12.13 24.48 5.69 5.84-2 9.54-5 11-8.9 2.3-6.09-1.42-12.88-1.45-13l-.09-.16-5.23-10.67a3 3 0 0 1 5.41-2.66l5.24 10.65c.57 1 5 9.54 1.8 18-2.14 5.67-7.08 9.86-14.7 12.47a38.1 38.1 0 0 1-12.34 2.23" class="cls-5"/><path d="M162.71 219.79a3 3 0 0 1-2.81-1.92l-5.41-14a3 3 0 1 1 5.61-2.18l5.41 14a3 3 0 0 1-1.72 3.9 2.9 2.9 0 0 1-1.08.2" class="cls-5"/><path d="M67.56 174.39v9.54s54.41 26.87 121.07 1l-3.71-13.7 15.57 11.53s-47.31 50-145.51 4.94l7.19-11.3Z" class="cls-8"/><path d="M129.9 208.53c-32.1 0-63.29-7.59-77.94-19.6l-1.57-1.28.66-1.73c.15-.39 3.79-9.75 10.42-14.71a4.35 4.35 0 0 1 5.25.17 2.62 2.62 0 0 1-.21 4.25c-3.7 2.77-6.38 7.73-7.61 10.35 16.41 12 51.87 18.63 85.75 16 24.37-1.92 43.26-8.57 52.24-18.33a26.2 26.2 0 0 0-10.27-11.3 2.67 2.67 0 0 1-.8-4.21 4.31 4.31 0 0 1 5.19-.65 31.47 31.47 0 0 1 13.59 15.9l.41 1.3-.92 1.12c-9.9 12.08-30.75 20-58.72 22.16-5.13.37-10.32.56-15.47.56" class="cls-5"/><path d="M164.93 157.09c-1.23-8.72-6.73-15.41-15.9-19.35-13.95-6-31.3-11.86-45.2-3.15-18.12 11.41-12.36 27.68-10.71 31.82 3 7.69 17.12 8.71 32.75 8.79 1.64 0 6.29.14 7.93 0 8.64-.51 23.95-2.44 29.41-9.67a9.9 9.9 0 0 0 1.72-8.44" class="cls-5"/><path d="M107.49 154.43c-2.24 1.49-3.24 9.93-.49 11.33-5.13.35-4.52 1.07-6.62-2-4.49-6.6.92-16.2 4.36-19.95 5.07-5.51 16.05-7.27 25-1.61h.24c9.52-2.39 18.89 2.1 24 7.62 3.44 3.74 4.86 7.8 3.8 10.87-.85 2.48-3.29 4.22-7.08 5.07 1.25-2.47.25-5.91-1.73-8.18s-4.63-3-6.73-1.51a16.24 16.24 0 0 0-4.17 6.84c-1.15 3.13-1.9 5.22-8.19 5.08-6.28.13-7.84-1.41-8.21-4.52-1.07-8.47-5.35-14.87-14.18-9.04" class="cls-10"/><path d="M113.2 190.15c-2.46 0-11.47-4-11.47-6.47l7-22.43a4.49 4.49 0 0 1 4.47-4.48c2.46 0 5.48 2 5.48 4.48l4.94 19c0 2.43-7.96 9.9-10.42 9.9" style="fill:#31ff93"/><path d="M113.2 156.77a4.5 4.5 0 0 1 4.48 4.48l4 16.43c1.73 7.11-6 8.47-8.48 8.47-2.46 0-10.87-1.36-8.47-9.47l4-15.43a4.49 4.49 0 0 1 4.47-4.48m0-6a10.49 10.49 0 0 0-10.43 9.56l-3.83 14.75c-1.57 5.46 0 9.2 1.67 11.39 4.13 5.52 11.74 5.68 12.59 5.68s8.18-.15 12.31-5.4a11.81 11.81 0 0 0 2-10.49l-3.87-15.88a10.49 10.49 0 0 0-10.44-9.61" class="cls-5"/></g><path d="M195.82 55.47s21.4 13.21 29.59 27.76c0 0 20.9-18.56 19.06-27.42s-18.12-23.67-28.92-22.74-19.73 22.4-19.73 22.4" class="cls-7"/><path d="M195.82 55.47s21.4 13.21 29.59 27.76c0 0 20.9-18.56 19.06-27.42s-18.12-23.67-28.92-22.74-19.73 22.4-19.73 22.4Z" class="cls-12"/><path d="M65.47 53.66s-21.4 13.21-29.59 27.75c0 0-20.9-18.55-19.06-27.41s18.12-23.67 28.92-22.74 19.73 22.4 19.73 22.4" class="cls-7"/><path d="M65.47 53.66s-21.4 13.21-29.59 27.75c0 0-20.9-18.55-19.06-27.41s18.12-23.67 28.92-22.74 19.73 22.4 19.73 22.4Z" class="cls-12"/><path d="M51.83 64.81A3 3 0 0 1 49 62.65c-1.77-6-9.74-12.92-12.65-15.06a3 3 0 0 1 3.55-4.84c.5.37 12.16 9 14.85 18.21a3 3 0 0 1-2 3.73 3.1 3.1 0 0 1-.92.12M210.38 67.63a3 3 0 0 0 2.88-2.15c1.77-6 9.73-12.92 12.65-15.07a3 3 0 0 0-3.55-4.83c-.5.36-12.16 9-14.86 18.21a3 3 0 0 0 2 3.72 3 3 0 0 0 .88.12" class="cls-5"/></svg>