<svg xmlns="http://www.w3.org/2000/svg" xml:space="preserve" id="Camada_1" x="0" y="0" version="1.1" viewBox="0 0 262.2 299"><style>.st0{fill:#f9b800}.st1{fill:#2ecc56}.st2{fill:#012442}.st5{fill:#fff}</style><g id="Camada_3"><circle cx="131.1" cy="173.9" r="123.3" class="st0"/><path d="m173.3 199.9-42.3 1.2-42.3-1.1c-46.9 5.8-59.8 42-59.8 42 34.6 54 93.1 55.7 103.1 55.7 8.7 0 67.6 1.4 101.1-56.7.1 0-12.8-35.2-59.8-41.1" class="st1"/><path d="M63.6 279.2c.7-7.5 2-15 3.9-22.4.4-1.6-.3-3.2-1.7-4h-.1c-1.7-1-3.9-.5-4.9 1.2-.2.3-.3.6-.4.9-1.5 6-2.7 12.2-3.5 18.3 2.3 2.1 4.5 4 6.7 6M196.4 281.1c2.3-1.7 4.6-3.5 6.9-5.3-.8-8-2.1-16-4.1-23.8-.5-1.9-2.5-3.1-4.4-2.6-.3.1-.5.2-.8.3l-.1.1c-1.5.8-2.2 2.5-1.8 4.1 2.3 8.9 3.7 18 4.3 27.2" class="st2"/><path d="M49 219s-10.8 29.6 82.4 29.6c99.3 0 82.4-31.7 82.4-31.7s-97-52.1-164.8 2.1" style="fill:#17a535"/><path d="M232.2 246c-1.6 0-3.2-1-3.8-2.6-.5-1.3-12.8-33-56.5-38.5l-42-1.8-41.9 1.8c-43.4 5.5-53 35-53.4 36.2-.6 2.1-2.9 3.3-5 2.7s-3.3-2.9-2.7-5c.4-1.5 11.2-35.8 60.2-41.9h.3l42.5-1.9h.2l42.6 1.9c48.8 6.1 62.6 42.2 63.1 43.7.8 2.1-.3 4.4-2.4 5.1-.3.2-.8.3-1.2.3" class="st2"/><path d="M175.6 33.1c-2.9 1.3-5.5 3.1-7.9 5.2-.5.4-1.2.4-1.6-.1l-.1-.1c-3.4-4.7-8.2-8.1-12.4-12.1-7.4-1.7-15-2.7-22.7-2.7 0 .3-1.6.3-1.6 0 0 0-25.6 3.9-28.1 5.4-2 1.2-8 5.2-10.5 5.1-.3.2-.6.4-1 .4v.2c-.4 1.2-1.6 1.9-2.8 1.5l-5.1-1.5c-31 14.5-65.7 48-65.7 124.8 0 44 33.7 69.4 66.2 69.6h104.5c32.5-.2 60.2-33.2 60.2-66.8.1-79.1-39.8-115-71.4-128.9" style="fill:#f23b36"/><path d="M172.8 232.9H92.3c-26.6 0-49-8.2-63.2-23C16.9 197.1 11 179.5 12 159.1c1.8-35.2 8.3-62.9 20.1-84.6C41.8 56.9 55 43.1 72.5 32.6c5.3-3.2 13-3 19.2.1 10.1-12 32.1-13.4 41.7-13.4 17.9 0 29.9 9.3 34.8 13.5l1.2-.6c3.6-1.6 10.9-3.6 18.9.1 18.5 8.6 31 20.4 40.6 38.4 10.8 20.1 17.8 48.1 22.2 88.1 2.1 19.2-3.3 37.2-15.3 50.5-13.9 15.4-35.6 23.6-63 23.6M81.4 38.3c-1.9 0-3.6.4-4.8 1.1-16.5 10-28.3 22.3-37.3 38.9-11.2 20.6-17.5 47.2-19.2 81.2-.9 18.5 4.1 33.6 14.9 44.9 12.6 13.2 33 20.5 57.4 20.5h80.5c25 0 44.7-7.2 57-20.9 10.4-11.6 15.1-27.3 13.3-44.3-9.1-81.7-29-106.5-58.3-120.1-6.2-2.9-11.8-.4-13.7.6l-.3.8-2.1.6c-2.2.6-3.5-.6-4.9-1.9-3.5-3.1-14.3-12.5-30.6-12.5-7 0-30.2.9-37 12.6-.3.5-1 1.7-2.7 2.1l-1.6.5-1.9-1.2c-2.4-2-5.7-2.9-8.7-2.9" class="st2"/><path d="m190.8 144.4-.4 15.3c0 .9-.7 1.7-1.7 1.8l-14.5 1.5c-1 .1-1.9-.7-2-1.7v-13.6q-7.95 1.2-15.6 1.8l-.4 13.2c0 1-.8 1.8-1.8 1.8h-14.6c-1 0-1.8-.8-1.8-1.8v-12c-5.4.2-10.6.2-15.6.1v11.9c0 1-.8 1.8-1.8 1.8h-14.5c-1 0-1.8-.8-1.8-1.8l-.4-12.9c-5.6-.4-10.8-1-15.6-1.6v12.9c0 1-.8 1.8-1.8 1.9h-.2l-14.5-1.5c-.9-.1-1.6-.9-1.7-1.8l-.4-14.7c-9.4-1.9-14.7-3.6-14.7-3.6l8.7 33.5c2.7 10.4 8.9 17.2 15.8 17.2h5.6l-.7-10.1c0-1 .8-1.9 1.8-1.9h15.3c1 0 1.8.8 1.8 1.9v10.3H120v-11.4c0-1 .8-1.8 1.8-1.9H137c1 0 1.8.8 1.8 1.8v.1l-.3 11.3h18.4v-10.3c0-1 .8-1.9 1.8-1.9h15.2c1 0 1.9.8 1.9 1.8v.1l-.3 10.3h7.3c7.9 0 14.8-9 16.7-21.7l4.2-29c-4.3 1.1-8.6 2.1-12.9 2.9" class="st0"/><path d="M205.2 129.7c-3.7 1.2-2.2 5.8-3.4 9.5-4.4 1.1-9.1 2.1-13.5 3.1 0 0-.4 16.7-.5 16.6s-12.8 1.3-12.8 1.2v-15.5c-6.9 1-14 1.8-20.9 2.5l-.4 14.7c0 .1-12.8 0-12.8 0s.1-13.9 0-13.9c-7 .3-14.1.2-21 .1v13.8c0 .1-12.8 0-12.8 0s-.4-14.5-.5-14.5c-6-.4-12-1-17.9-1.8 0 0-3.1-.5-3.1-.4v15c0 .1-12.8-1.2-12.8-1.3l-.5-16c-5.8-1.2-14.3-3.2-15.7-3.7-1.4-2.6-.6-9.8-5.2-9.4-1.4.3-2.4 1.8-2 3.2v.1c2 7.7 11.5 42.6 11.5 42.6 4.2 16.3 14 20.8 26.8 19.2 0 0-.4-12.1-.3-12.1h13.4c.1 0 0 12.2.1 12.2h22c.1 0 0-13.2 0-13.2h13.4l-.4 13.2h23.9c.1 0-.1-12.2 0-12.2H173c.1 0-.4 12.1-.3 12.1 15.6 1.8 26.1-3.5 29.4-24 0 0 4.9-30.9 6.1-38.1.2-1.5-.8-2.9-2.3-3.1-.2.1-.5.1-.7.1m-22.4 59.9h-4.6c-.4-2.1 1-8.3-.5-10.1-1.6-3.7-16-1.4-18.9-2-6.1-.1-4.3 8.4-4.6 12.1 0 .1-12.9 0-12.9 0-.3-3.9 2.2-13.3-4.3-13.2h-15.2c-2.5 0-4.6 2-4.6 4.6v8.7H106c-.3-3.8 1.5-12.3-4.6-12.2h-15c-2.5-.1-4.6 1.9-4.7 4.5v.2l.2 7.5c0 .1-2.8 0-2.8 0-14 .2-16.7-34-20.6-44.2 2 .4 4.9 1.2 8.3 1.9.9 3.9-2 16.6 4.5 16.9 3-.2 15.8 2.9 18 .3 2.6-1.8 1.2-10.6 1.5-13.2 3.4.3 6.8.8 10.3 1l.3 10.5c.1 2.5 2.1 4.4 4.6 4.4h14.5c6.6.2 4.2-9.9 4.6-13.7 11.8.6 10.3-3.5 10.2 9.1 0 2.5 2 4.6 4.6 4.6h14.5c6.8.2 4.2-11.3 4.9-15.2 3.4-.4 6.9-.8 10.3-1.2.4 4-2.2 15.6 5 14.8l14.6-1.4c2.3-.2 4-2.1 4.1-4.4l.4-13.1c2.3-.6 4.7-1 7-1.6-2.5 11.4-3.1 44.5-17.9 44.4M82.7 58.8q-.75 0-1.5-.3c-2-.8-3-3.2-2.2-5.2 2.7-6.6 6.2-12.8 10.5-18.4 1.3-1.8 3.8-2.1 5.6-.8s2.1 3.8.8 5.6c-3.9 5.1-7.1 10.7-9.5 16.6-.7 1.6-2.2 2.5-3.7 2.5M178.7 59.8c-1.6 0-3.1-1-3.7-2.6-5.5-14.4-11.3-18.3-11.3-18.3-1.9-1.1-2.5-3.6-1.3-5.5 1.1-1.9 3.6-2.5 5.5-1.4.8.5 8.1 5.2 14.6 22.3.8 2.1-.2 4.4-2.3 5.2q-.9.3-1.5.3M80.4 231.5c-.5 0-.9-.1-1.4-.2-10.9-4-20.3-13.1-25.9-25-.9-2-.1-4.4 1.9-5.3s4.4-.1 5.3 1.9c4.7 10 12.5 17.6 21.4 20.8 2.1.8 3.1 3.1 2.4 5.1-.5 1.6-2 2.7-3.7 2.7M182.8 231.5c-1.6 0-3.2-1-3.8-2.6-.8-2.1.3-4.4 2.4-5.1 8.9-3.2 16.7-10.8 21.4-20.8.9-2 3.3-2.9 5.3-1.9 2 .9 2.9 3.3 1.9 5.3-5.6 11.9-15 21-25.9 25-.4 0-.9.1-1.3.1" class="st2"/><path d="m143.1 129.4-9.9-14.9c-.6-.9-1.7-1.1-2.6-.5-.2.1-.4.3-.5.5l-9.4 14.9M60.2 83.4l51.8 22.4s-2.8 26.2-27.1 24.8-32.4-29.1-24.7-47.2" class="st0"/><path d="M86.8 134.1c-.7 0-1.4 0-2.1-.1-10.5-.6-19.4-5.9-24.9-14.8-6.6-10.6-7.8-25.6-2.9-37.2l1.4-3.3 57.5 24.8-.3 2.6c-1.1 9.9-8.5 28-28.7 28m-24.6-46c-2.6 9-1.3 19.6 3.5 27.4 3.1 4.9 8.9 10.9 19.4 11.5 16.7 1 21.6-13.2 23-19.1z" class="st2"/><path d="M46.3 74.2c-1.3 1.9-.8 4.6 1.1 5.9.2.1.4.3.7.4l64.3 28.8c.5.2 1.1.4 1.6.5 2.6-4 4.4-8.3 5.5-12.9.4-1.9-.4-3.8-2.1-4.7l-56.7-31c-1.6-.9-3.7-.6-5 .7-3.8 3.6-6.4 7.9-9.4 12.3" class="st2"/><path d="m203 84.3-51.9 22.4s2.9 26.2 27.1 24.8 32.4-29.1 24.8-47.2" class="st0"/><path d="M176.3 135c-20.3 0-27.7-18.1-28.7-27.9l-.3-2.6 57.5-24.8 1.4 3.3c4.9 11.6 3.7 26.6-2.9 37.2-5.5 8.9-14.4 14.1-24.9 14.8zM155 108.8c1.3 5.9 6.3 20.1 23 19.1 10.5-.6 16.3-6.6 19.4-11.5 4.9-7.8 6.2-18.4 3.6-27.5z" class="st2"/><path d="M216.8 75.1c1.3 2 .8 4.6-1.1 5.9-.2.1-.4.3-.7.4l-64.4 28.8c-.5.2-1.1.4-1.6.5-2.6-3.9-4.4-8.3-5.5-12.9-.4-1.9.4-3.8 2.1-4.7l56.7-31c1.6-.9 3.7-.6 5 .7 3.9 3.6 6.5 7.9 9.5 12.3" class="st2"/><path d="M116.2 8.5s6.2 10.7 3.6 18c0 0-8 6.8-9.8 13.1 0 0 16.9 15.1 39.8 0-1.6-8.9-14.7-15.1-14.9-15.4-.8-1.8-2-16.9-5.1-19.7.2 0-8.7-1-13.6 4" class="st1"/><path d="M130.6 113.6c.6 0 1.2.3 1.5.8l8 12.1c.6.8.3 2-.5 2.6-.3.2-.7.3-1 .3H123c-1 0-1.8-.8-1.8-1.8 0-.4.1-.7.3-1l7.6-12.1c.3-.6.9-.9 1.5-.9m0-6c-2.7 0-5.2 1.4-6.6 3.7l-7.6 12.1c-2.3 3.7-1.2 8.5 2.5 10.8 1.2.8 2.7 1.2 4.1 1.2h15.6c4.3 0 7.8-3.5 7.8-7.9 0-1.5-.5-3.1-1.3-4.3l-8-12.1c-1.4-2.2-3.8-3.5-6.5-3.5M129.3 49.3c-3.3 0-6.3-.5-8.7-1.1-7.7-2.1-12.3-6.2-12.5-6.3l-1.4-1.3.5-1.8c1.7-6 7.9-12 10-13.9 1.2-4.9-2.1-12.3-3.6-14.8l-1.1-2 1.6-1.6c5.7-5.9 16-5.3 17.3-4.6l.3.2.2.2c2.7 2.4 3.9 8.8 5.1 16.8.2 1.1.4 2.4.5 3.2 3.7 2.1 13.7 8.1 15.2 16.8l.3 1.9-1.6 1.1c-8.2 5.5-15.8 7.2-22.1 7.2m-15.6-10.7c4.3 2.9 16.6 9.2 32.7-.3-1.5-3.6-5.6-7.2-12.1-11-1-.6-1.5-.8-1.9-1.6l-.2-.3c-.4-.9-.6-2.2-1.1-5.4-.5-2.9-1.6-10-2.8-12.6-1.8 0-5.5.2-8.3 1.9 1.9 3.9 4.9 11.8 2.6 18.2l-.3.8-.6.5c-1.7 1.5-6.1 5.8-8 9.8" class="st2"/><ellipse cx="104" cy="51.9" class="st5" rx="6.2" ry="7" transform="rotate(-52.418 103.972 51.944)"/><ellipse cx="119.9" cy="65" class="st5" rx="3.9" ry="4.3" transform="rotate(-52.418 119.864 65.006)"/></g></svg>