<svg xmlns="http://www.w3.org/2000/svg" id="Camada_2" data-name="Camada 2" viewBox="0 0 262.17 298.96"><defs><clipPath id="clip-path"><circle cx="130.83" cy="175.2" r="123.33" style="fill:none"/></clipPath><style>.cls-10,.cls-13,.cls-14,.cls-6{fill:none}.cls-4{fill:#a465d1}.cls-10,.cls-12,.cls-13,.cls-14,.cls-6{stroke:#012442}.cls-13,.cls-14,.cls-6{stroke-linecap:round}.cls-10,.cls-12,.cls-6{stroke-miterlimit:10}.cls-6{stroke-width:8px}.cls-7{fill:#8447ba}.cls-9{fill:#fff}.cls-10{stroke-width:6px}.cls-11{fill:#012442}.cls-12{fill:#f7c434}.cls-12,.cls-14{stroke-width:4px}.cls-13,.cls-14{stroke-linejoin:round}.cls-13{stroke-width:7px}</style></defs><circle cx="130.83" cy="175.11" r="123.33" style="fill:#f29b3b"/><g style="clip-path:url(#clip-path)"><path d="M218.13 300.74c-12.47 0-23.72-7.85-26.61-19.44-9.28-37.2-33-47.33-34-47.74a6 6 0 0 0 .59.22l19.83-46.56c5.19 1.85 51.15 19.87 66.88 83 3.36 13.45-5.85 26.84-20.56 29.91a30.4 30.4 0 0 1-6.13.61M35.54 301.57a29.7 29.7 0 0 1-6.1-.63C14.73 297.87 5.52 284.48 8.88 271c15.72-63.11 65.64-84.74 70.83-86.59L99.53 231s-3.73 3.54-3.35 3.38c-1 .42-24.76 10.54-34 47.74-2.92 11.6-14.18 19.45-26.64 19.45" class="cls-4"/><path id="peito" d="M199.13 301.75s7.63-85.64-43.82-112.23l-56.43 2.24c-45.06 15.93-42.59 110.06-42.59 110.06Z" style="fill:#24a8b5"/><path d="m158.08 233.78 19.83-46.56c5.19 1.85 51.15 19.87 66.88 83 3.36 13.45-5.85 26.84-20.56 29.91a30.4 30.4 0 0 1-6.1.63M35.54 301.57a29.7 29.7 0 0 1-6.1-.63C14.73 297.87 5.52 284.48 8.88 271c15.72-63.11 65.64-84.74 70.83-86.59L99.53 231" class="cls-6"/></g><path d="M235.39 111.78a47.6 47.6 0 0 0-11.17-6.22 5.26 5.26 0 0 1-3.2-6.38 10.5 10.5 0 0 1-.84-1.29c-2.35-4.24-.87-10-.76-14.51.16-6.68-.37-13.18-4.23-18.84a4.19 4.19 0 0 1-.6-4c-14.72-15.72-39.4-26.57-82.54-26.57-42.28 0-66.42 8.9-82.42 23.77-2.08 13.49-1.72 29.26-9.08 41.15-3.47 5.61-7.22 11-12.22 15.39-4.63 4-9.61 7.54-13.68 12.12-3.28 18-2.33 37.94 6.2 60.58C33.42 220.35 72 252 132.77 252s106.49-30.9 108.36-65a317.6 317.6 0 0 0-4.13-73.59c-.55-.55-1.08-1.09-1.61-1.63" class="cls-4"/><path d="M200 219.94c-11.8 5.42-22.79 9.43-35.54 11.31s-25.25 3.64-38 3.27c-24.32-.7-47.58-5.79-69.47-16.31-9.42-4.52-17.69-11.21-25.73-17.81-2.28-1.86-4.45-3.83-6.56-5.86 15.54 30 52.48 56.5 108.07 56.5C189 251 232.24 224.63 240 193.69a152.2 152.2 0 0 1-40 26.25" class="cls-7"/><path d="M196.22 83.15c-13.43-25.5-3.41-50-64.17-50-59.59 0-73.78 17.38-88.69 45-5.14 9.51 1.4 11.32-1.68 25.33-.36 1.64-21.84 16-25.4 28.88-3.37 12.17-1.61 35.37 4.57 54.44C31.83 220.61 72 252 132.77 252s100.75-31.79 108.36-65.3c5.61-24.71 4.73-40 1.08-58.45-3.3-16.72-40.88-35.41-45.99-45.1Z" style="fill:none;stroke:#012442;stroke-miterlimit:10;stroke-width:9px"/><ellipse cx="87.91" cy="86.64" class="cls-4" rx="47.9" ry="49.23"/><path d="M110.7 97c-5.9-1.7-12.81-1.41-18.93-1.83-13.89-1-20.48-.9-30.12 3.58a29.8 29.8 0 0 0 27.29 17.85c11.24 0 22.16-8.5 27.23-17.69A31.6 31.6 0 0 0 110.7 97" class="cls-7"/><path d="M82.4 92.85a72 72 0 0 0-20.59 3.48 46 46 0 0 1-1.26-10.73 29.24 29.24 0 0 1 58.48 0 36.1 36.1 0 0 1-1.56 10.52C106.38 92.41 94 92.36 82.4 92.85" class="cls-9"/><path d="M62.52 97.93c8.7-3.27 27.09-7.66 53.37-.74" class="cls-10"/><path d="M90.11 87.26a135 135 0 0 0 8.24-17.45A18.38 18.38 0 0 0 74.67 96l32.52-2.3a18.3 18.3 0 0 0 1.54-7.33 18.6 18.6 0 0 0-.7-5c-5.98 1.97-11.95 3.63-17.92 5.89" class="cls-11"/><circle cx="88.94" cy="86.81" r="29.79" class="cls-10"/><path d="M37.8 177.28C35.73 198.61 43 200.73 49.5 202c7.15 1.36 14.24-.85 16.31-21.69ZM67.63 180.41c-.71 21.49 6.67 24.48 13.22 24.94 7.21.51 14.14-2.52 14.87-23.53ZM126.83 183.46c-1.44 21.45-9.08 23.69-15.65 23.5-7.23-.22-13.81-3.93-12.45-24.9Z" class="cls-12"/><path d="M50.19 116.16C29.85 90.14 40.57 49.9 72.77 40a48.35 48.35 0 0 1 29.32.46" class="cls-13"/><circle cx="220.88" cy="135.55" r="12.69" class="cls-7"/><circle cx="44.19" cy="142.17" r="12.5" class="cls-7"/><circle cx="231.24" cy="154.38" r="4.76" class="cls-7"/><circle cx="65.81" cy="153.69" r="6.17" class="cls-7"/><ellipse cx="172.04" cy="86.64" class="cls-4" rx="47.9" ry="49.23"/><path d="M209.76 116.16c20.48-26.19 9.45-66.55-23-76.29a48 48 0 0 0-28 .27" class="cls-13"/><path d="M119.26 134.13c-8-8.63-15.9-6.79-18.33-3.79-3.87 4.78 2.38 16.76 22.52 18.76a1.24 1.24 0 0 0 1.35-1.26 21.43 21.43 0 0 0-5.54-13.71" class="cls-11"/><path d="M123.54 127.28c-5.6-6.07-12.24-9.27-18.74-9.09a14.92 14.92 0 0 0-11.09 5c-2.82 3.49-3.31 8.45-1.3 13.27" class="cls-14"/><path d="M144.31 133.59c8-8.64 15.9-6.79 18.33-3.79 3.86 4.77-2.38 16.75-22.53 18.76a1.24 1.24 0 0 1-1.35-1.27 21.36 21.36 0 0 1 5.55-13.7" class="cls-11"/><path d="M140 126.73c5.6-6.07 12.24-9.26 18.74-9.09a14.92 14.92 0 0 1 11.09 5c2.83 3.49 3.31 8.45 1.3 13.27" class="cls-14"/><path d="M217 177.28c2.06 21.33-5.21 23.45-11.71 24.69-7.15 1.36-14.24-.85-16.31-21.69ZM187.16 180.41c.71 21.49-6.67 24.48-13.22 24.94-7.21.51-14.13-2.52-14.87-23.53ZM128 183.46c1.45 21.45 9.09 23.69 15.65 23.5 7.23-.22 13.81-3.93 12.45-24.9Z" class="cls-12"/><path d="M40.33 164s-4.86 6.8-3.78 11.19S143.4 189.37 220 178.85c0 0 2.16-5-2.7-12.73" class="cls-13"/><circle cx="192.45" cy="145.53" r="4.76" class="cls-7"/><path d="M118.28 50.88a4.44 4.44 0 0 1-4.21-5.88c3.5-10.41 11-30.88 15.28-29.17s11.68 19.38 15.48 29a4.43 4.43 0 0 1-4.13 6.07Z" style="stroke:#012442;stroke-miterlimit:10;fill:#f7c434;stroke-width:5px"/><path d="M193.6 96.81c-5.89-1.7-12.81-1.41-18.92-1.83-13.89-1-20.48-.9-30.13 3.57a29.8 29.8 0 0 0 27.3 17.86c11.23 0 22.15-8.51 27.22-17.69a31 31 0 0 0-5.47-1.91" class="cls-7"/><path d="M165.26 92a72 72 0 0 0-20.59 3.48 46.7 46.7 0 0 1-1.25-10.73 29.24 29.24 0 0 1 58.47 0 36.5 36.5 0 0 1-1.55 10.52c-11.09-3.71-23.44-3.76-35.08-3.27" class="cls-9"/><path d="M145.39 97.08c8.7-3.27 27.09-7.66 53.37-.74" class="cls-10"/><path d="M173 86.41A133 133 0 0 0 181.21 69a18.37 18.37 0 0 0-23.67 26.18l32.52-2.3a18.3 18.3 0 0 0 1.53-7.34 18.1 18.1 0 0 0-.7-5c-5.97 1.95-11.89 3.63-17.89 5.87" class="cls-11"/><circle cx="171.81" cy="85.96" r="29.79" class="cls-10"/></svg>