<svg xmlns="http://www.w3.org/2000/svg" xml:space="preserve" id="Camada_1" x="0" y="0" version="1.1" viewBox="0 0 262.2 299"><style>.st1{fill:#e02d5c}.st2{fill:#af1545}.st3{fill:#012442}.st4{fill:#52d89b}.st5{fill:#fff}</style><circle cx="131.1" cy="173.1" r="123.3" style="fill:#23db57"/><path d="m174.7 205.1-42.3 1.3-42.3-1c-46.9 6-57.7 43.3-57.7 43.3 48.4 57.6 90.3 48.4 100.3 48.4 8.7 0 54 6.9 102-51.1 0 0-13-35.2-60-40.9" class="st1"/><path d="M50.4 224.7S81.3 277.2 133 277c51.5-.2 82.2-55 82.2-55s-97.1-51.8-164.8 2.7" class="st2"/><path d="M233.7 251c-1.6 0-3.2-1-3.8-2.6-.5-1.4-12.9-32.8-56.4-38.3l-42.1 1.3h-.1l-42-1c-43.6 5.7-53 36.1-53.1 36.4-.6 2.1-2.8 3.3-5 2.7-2.1-.6-3.3-2.8-2.7-5 .4-1.5 11.1-35.9 60.1-42.1h.3l42.5 1 42.5-1.3h.3c48.9 5.9 62.7 41.9 63.3 43.5.8 2.1-.3 4.4-2.4 5.1-.5.2-.9.3-1.4.3" class="st3"/><path d="M234.8 122.1c.2 58.3-46.7 139.8-103.1 140-49.2.2-102.9-78.9-103.2-137.3S72.4 21 130.7 20.8s103.9 42.9 104.1 101.3" class="st1"/><path d="M132.5 266.1c-22.1 0-48.8-17.6-71.7-47.3-22.7-29.4-36.3-63.8-36.4-92 0-29.4 10.7-56.8 30.4-77.1 19.8-20.5 46.8-31.8 76-31.9h.4c29 0 56 11.1 75.8 31.4 19.8 20.2 30.8 47.5 30.9 76.9.1 28.2-12.9 62.7-34.9 92.2-22.2 29.9-48.5 47.7-70.2 47.8zm-1.4-240.3h-.3c-27 .1-51.9 10.6-70.2 29.5-18.2 18.8-28.1 44.2-28 71.5.1 26.5 13.1 59.1 34.7 87.1 21 27.2 46 44.1 65.3 44.1h.1c19-.1 43.4-17.1 63.8-44.6 21-28.2 33.4-60.9 33.3-87.4-.1-27.3-10.3-52.6-28.6-71.3-18.3-18.6-43.2-28.9-70.1-28.9" class="st3"/><path d="M89.8 32.2S61.7 48.7 72.4 80.4c0 0 10.5-17.7 28.1-21.2 0 0 3.6 23.5 47.1 32.7 0 0-7.1-23.4-3.7-37.5 0 0 27.3 16.8 53.1-7.9-.1-.1-51-41.5-107.2-14.3" class="st4"/><path d="m153.3 97.2-6.6-1.4C111.8 88.3 101 71.9 97.8 64 84.3 68.8 76 84.1 75.9 84.3l-4.4 8.2-3-8.8C57 49.5 87.3 29 87.6 28.8l.5-.3c24-11.6 50.8-12.7 77.7-3.3 20.2 7.1 33.1 17.5 33.7 18l4.2 3.4-4.5 3c-19.7 13.3-42.7 11.1-52.1 9.4-1.3 13 4.2 31.4 4.2 31.6zm-49.5-42.8.6 4.2c.1.8 3.7 18.7 37.6 27.9-1.9-8.3-4.5-22.7-2-33.1l1-4 4 1.1c.3.1 23.9 6.3 44.7-4.4-5.3-3.5-14.7-9.1-26.8-13.3-25-8.7-48.9-7.7-71.1 2.9-2.3 1.6-20.2 14.8-17.6 36.9 5.1-6.5 13.8-14.9 25.5-17.3z" class="st3"/><path d="M118.6 33.1c-1.8-7.2-5-14-9.4-19.9 0 0 5.2-13.1 20.8-4.5 0 0 6.5 11.8 2.9 25.2" class="st4"/><path d="M132.9 37.9c-.3 0-.7 0-1-.1-2.1-.6-3.4-2.8-2.8-4.9 2.6-9.5-.8-18.3-2.1-21.2-3.7-1.8-6.8-2.3-9.3-1.4-1.7.6-3 1.8-3.7 2.8 4 5.8 6.8 12.2 8.5 19.1.5 2.1-.8 4.3-2.9 4.8s-4.3-.8-4.8-2.9c-1.6-6.7-4.6-12.9-8.7-18.4l-1.4-1.8.8-2.1c.3-.7 2.8-6.7 9.5-9.1 5-1.8 10.7-1 17 2.5l1 .6.6 1c.3.5 7.3 13.3 3.3 28.2-.6 1.7-2.2 2.9-4 2.9" class="st3"/><circle cx="76.5" cy="141.3" r="24.1" class="st5"/><circle cx="181.6" cy="139.8" r="24.1" class="st5"/><circle cx="55.4" cy="104.5" r="5.3" class="st2"/><circle cx="123.6" cy="121.3" r="5.3" class="st2"/><circle cx="86.8" cy="182.4" r="5.3" class="st2"/><circle cx="171.4" cy="188" r="5.3" class="st2"/><circle cx="209.4" cy="169.1" r="5.3" class="st2"/><circle cx="215.6" cy="101" r="5.3" class="st2"/><circle cx="94.1" cy="87.3" r="5.3" class="st2"/><circle cx="184.4" cy="71.8" r="5.3" class="st2"/><circle cx="54.4" cy="173.2" r="5.3" class="st2"/><circle cx="134.9" cy="169.4" r="5.3" class="st2"/><circle cx="88.7" cy="224.7" r="5.3" class="st2"/><circle cx="166.8" cy="225.6" r="5.3" class="st2"/><circle cx="129.9" cy="245.7" r="5.3" class="st2"/><circle cx="174.6" cy="102.9" r="5.3" class="st2"/><circle cx="126.8" cy="211.7" r="5.3" class="st2"/><path d="M76.5 169.4c-15.5 0-28.1-12.6-28.1-28.1s12.6-28.1 28.1-28.1 28.1 12.6 28.1 28.1-12.6 28.1-28.1 28.1m0-48.1c-11.1 0-20.1 9-20.1 20.1s9 20.1 20.1 20.1 20.1-9 20.1-20.1-9-20.1-20.1-20.1M181.6 167.8c-15.5 0-28.1-12.6-28.1-28.1s12.6-28.1 28.1-28.1 28.1 12.6 28.1 28.1c0 15.6-12.6 28.1-28.1 28.1m0-48.1c-11.1 0-20.1 9-20.1 20.1s9 20.1 20.1 20.1 20.1-9 20.1-20.1-9-20.1-20.1-20.1" class="st3"/><path d="M108.7 174.5c0-12.9 10-8.6 22.4-8.7s22.4-4.4 22.4 8.5-9.9 23.3-22.3 23.4-22.4-10.3-22.5-23.2" class="st5"/><path d="M131.2 201.7c-14.5 0-26.4-12.2-26.4-27.2 0-4.7 1.2-8.1 3.6-10.3 3.8-3.6 9.5-3.1 15.5-2.7 2.3.2 4.8.3 7.3.3s4.9-.2 7.2-.4c6-.5 11.7-.9 15.6 2.6 2.4 2.2 3.6 5.6 3.6 10.3 0 7.3-2.7 14.1-7.6 19.3-5 5.2-11.7 8.1-18.8 8.1m-18.5-27.2c0 10.6 8.3 19.2 18.4 19.2h.1c4.9 0 9.5-2 13-5.6 3.5-3.7 5.4-8.5 5.4-13.7 0-2.2-.4-3.8-1.1-4.4-1.3-1.2-5.5-.8-9.5-.5-2.4.2-5 .4-7.8.4s-5.5-.2-7.9-.4c-4-.3-8.2-.6-9.5.6-.7.6-1.1 2.2-1.1 4.4M76.2 140.7l10.4-9.7c-5.4-5.8-14.4-6-20.2-.7-5.8 5.4-6 14.4-.7 20.2 5.4 5.8 14.4 6 20.2.7 1-.9 1.9-2 2.6-3.2zM181.2 139.7l10.4-9.8c-5.4-5.8-14.4-6-20.2-.7-5.8 5.4-6 14.4-.7 20.2 5.4 5.8 14.4 6 20.2.7 1-.9 1.9-2 2.6-3.2z" class="st3"/></svg>