<svg xmlns="http://www.w3.org/2000/svg" xml:space="preserve" id="Camada_1" x="0" y="0" version="1.1" viewBox="0 0 262.2 299"><style>.st1{fill:#ffdf5a}.st3{fill:#012442}.st5{fill:#897245}.st6{fill:#fff}.st8{fill:#39b579}.st9{fill:#e02d5c}</style><circle cx="131.1" cy="172.7" r="123.3" style="fill:#af4e81"/><path d="m175.5 203-42.3 1.3-42.3-1c-46.9 6-57.7 43.3-57.7 43.3 48.4 57.6 90.3 48.4 100.3 48.4 8.7 0 54 6.9 102-51.1 0 0-13.1-35.2-60-40.9" class="st1"/><path d="M136.1 295c4.3-4.1 8.2-8.5 11.7-13.3 7.6-11.4 15.4-22.6 22.8-34.1 8.4-12.9 14.5-27.6 23-40.5-5.9-2-12-3.3-18.2-4l-42.3 1.3-42.3-1c-5.1.6-10.1 1.8-15 3.3.5 8-1.5 15.9-2.8 24.1-.8 4.9-1.2 10.3 1.7 14.7 3.1 4.7 9.1 8.1 14.3 9.9 3.4 1.1 7 1.4 10.3 2.8 4.3 1.8 7.5 5 10.1 8.8 6.1 8.6 8.3 19 12 28.7 5.6 0 9.7-.5 12-.6.8-.1 1.6-.1 2.7-.1" style="fill:#f9c138"/><path d="M234.5 248.9c-1.6 0-3.2-1-3.8-2.6-.5-1.4-12.9-32.8-56.4-38.3l-42.1 1.3h-.1l-42-1c-43.6 5.7-53 36.1-53.1 36.4-.6 2.1-2.8 3.3-5 2.7-2.1-.6-3.3-2.8-2.7-5 .4-1.5 11.1-35.9 60.1-42.1h.3l42.5 1 42.5-1.3h.3c48.9 5.9 62.7 41.9 63.3 43.5.8 2.1-.3 4.4-2.4 5.1-.5.2-1 .3-1.4.3" class="st3"/><path d="m206.5 150.6 46.9-80S220 7.9 133.8 7.9C54.9 7.9 22.9 46.3 13.2 63.1c-2.6 4.4-2.5 9.9.3 14.2l46.1 73.8c-.2 2.9-.8 5.7-1.7 8.4-2 6.3-.8 13.7 6.2 16.4 3.4 1.4 7.3 1.1 10.4-.8L95 208c-.8 4-3.5 8-5.2 11.9-.5.9-.9 1.8-1.1 2.8-.3.9-.4 1.8-.4 2.8-.4 4.2.6 8.1 4.2 11.1 4.4 3.7 11 3.7 15.9 1 1.3-.7 2.5-1.6 3.5-2.6l22.7 36.4 48.4-81.7c3.3 4.3 9.3 5.6 14.2 3 6.2-3.4 5.6-10.9 4.5-19.2-2-14.1 5.2-22.2 4.8-22.9" style="fill:#ffbb71"/><path d="M240.1 93.4c-4.1-2.1-8.2-8.4-12.2-10.6-13-7-19.2-22-34-26.2-23.8-5.5-48.5-13.3-73.7-9.2-6.5.1-41 9.7-42.5 11.3-17 6.6-32.8 16-47.5 26.3-1.7 1.3-3.5 2.7-5.2 4l-3 2.1 37.5 60.1c-.2 2.9-.8 5.7-1.7 8.4-2 6.3-.8 13.7 6.3 16.4 3.4 1.4 7.3 1.1 10.4-.8L95 208c-.8 4-3.5 8-5.2 11.9-.5.9-.9 1.8-1.1 2.8-.3.9-.4 1.8-.4 2.8-.4 4.2.6 8.1 4.2 11.1 4.4 3.7 11 3.7 15.9 1 1.3-.7 2.5-1.6 3.5-2.6l22.7 36.4 48.4-81.7c3.3 4.3 9.3 5.6 14.2 3 6.2-3.4 5.6-10.9 4.5-19.2-1.9-14 5.3-22.1 4.9-22.8z" class="st1"/><path d="M23.9 96.9c-.8 0-1.6-.3-2.4-.8-1.8-1.3-2.2-3.8-.9-5.6.4-.5 9.4-12.6 29-24.8C67.4 54.6 98 41.4 141.9 41.4c37.8 0 71.3 16 99.4 47.6 1.5 1.6 1.3 4.2-.3 5.6-1.6 1.5-4.2 1.3-5.6-.3-26.5-29.8-58-44.9-93.4-44.9-80.2 0-114.4 45.5-114.8 45.9-.9 1-2.1 1.6-3.3 1.6" class="st3"/><path d="M131.1 203.2c-6.2-4.4-14.6-5.2-21 .7s-6.9 16.2-1.6 21.8c4.2 4.4 5 2.8 12.1-4.4l5.6 8.8c.6.8 1.7 1.1 2.5.5.1-.1.2-.1.3-.2l6.6-6.2c.7-.7.8-1.8.1-2.6-.1-.1-.2-.2-.4-.3l-8.5-5.8c8.3-5.9 10.3-8.1 4.3-12.3" class="st5"/><path d="M127.6 233.4c-1.4 0-2.8-.7-3.6-1.9l-3.9-6.2c-3.5 3.6-5.4 5.4-8 5.3-2.3 0-4.1-1.7-5.5-3.2-2.9-3-4.4-7.3-4.3-11.9.1-5.1 2.3-10 6-13.4 6.7-6.3 16.1-6.6 24.2-1 2.1 1.5 4.5 3.6 4.5 6.4s-2.2 5.1-6 7.9l5.6 3.8c.2.2.5.4.8.7.8.8 1.2 1.9 1.1 3.1s-.5 2.2-1.4 3l-6.6 6.2c-.2.2-.4.3-.6.5-.6.5-1.4.7-2.3.7m-6.6-16.1 6.8 10.7 5.4-5.1-10.8-7.4 2.9-2.1c1.7-1.2 6.7-4.8 6.7-5.9 0 0-.1-.7-2.4-2.3-4.8-3.4-12-5-17.8.5-2.7 2.5-4.3 6.2-4.4 9.9-.1 3.2 1 6.3 2.9 8.3 1.4 1.5 1.9 1.6 1.9 1.7.7-.1 2.8-2.3 4.9-4.5.5-.5 1-1.1 1.6-1.6zm12.8 5.1" class="st3"/><path d="M88.1 70.8c-4.8-3.6-11.4-4.4-16.5.2s-5.7 12.6-1.7 17.1c3.2 3.5 3.9 2.3 9.6-3.2l4.2 7c.4.7 1.3.9 2 .4.1 0 .1-.1.2-.1l5.3-4.8c.6-.5.6-1.5.1-2-.1-.1-.2-.2-.3-.2l-6.6-4.7c6.7-4.5 8.3-6.2 3.7-9.7" class="st5"/><path d="M84.9 95.1c-1.3 0-2.6-.6-3.3-1.8L79 88.9c-2.5 2.5-4.1 3.8-6.2 3.7-2-.1-3.5-1.5-4.7-2.8-5-5.6-4.1-15.2 1.9-20.6 5.5-5 13.2-5.1 19.6-.3 1.7 1.3 3.7 3.1 3.6 5.6-.1 2.3-1.7 4-4.5 6.1l3.7 2.6c.2.1.4.3.6.5.7.8 1.1 1.8 1.1 2.8 0 1.1-.5 2-1.3 2.7L87.5 94c-.2.1-.3.3-.5.4-.6.5-1.4.7-2.1.7M80 80.9l5.1 8.6 3.4-3-8.5-6.1 3-2c1.3-.9 4.6-3.1 5.1-4.1-.1-.2-.5-.7-1.6-1.5-3.5-2.6-8.9-4-13.3 0-4 3.6-4.7 10-1.5 13.6.6.7.9 1 1.1 1.1.7-.4 2.2-1.8 3.6-3.2zm8.2-6.5" class="st3"/><path d="M182.5 65.1c-5.2-3.7-12.2-4.4-17.5.6s-5.8 13.6-1.4 18.2c3.5 3.7 4.2 2.3 10.1-3.7l4.6 7.3c.5.7 1.4.9 2.1.4.1 0 .1-.1.2-.2l5.5-5.2c.6-.6.7-1.5.1-2.2-.1-.1-.2-.2-.3-.2l-7.1-4.8c7-4.9 8.7-6.7 3.7-10.2" class="st5"/><path d="M179.6 90.7c-1.3 0-2.6-.6-3.4-1.8l-3-4.7c-2.7 2.7-4.3 4.2-6.5 4.2-2.1 0-3.6-1.5-4.9-2.8-2.6-2.7-3.9-6.7-3.6-10.9.3-4.1 2.1-8.1 5.1-10.9 5.7-5.4 13.8-5.7 20.6-.8 1.8 1.3 3.9 3.1 3.9 5.7 0 2.4-1.7 4.3-4.6 6.6l4.2 2.8c.2.1.5.4.7.6 1.5 1.6 1.4 4.2-.2 5.7l-5.5 5.2c-.1.1-.3.3-.5.4-.7.5-1.5.7-2.3.7m-.6-4.8c0 .1-.1.1 0 0m-4.9-9.7 5.7 9 3.8-3.6-9.1-6.2 2.9-2.1c1.4-1 5-3.5 5.4-4.6-.1-.2-.5-.7-1.8-1.6-3.8-2.7-9.6-4-14.3.4-2 1.9-3.3 4.7-3.5 7.6-.2 2.8.6 5.4 2.3 7.1.7.8 1.1 1.1 1.3 1.2.7-.4 2.3-2 3.8-3.6zm10.4 4.5" class="st3"/><path d="m134.6 279-23.8-38.2c-.2.1-.4.2-.5.3-6.6 3.7-15 3.1-20.4-1.5-4.2-3.5-6.1-8.4-5.6-14.3 0-1.2.2-2.5.6-3.6.3-1.3.8-2.5 1.4-3.7l1.8-3.6c1.1-2 2.1-4 2.7-5.8L73 180.3c-3.4 1-7.1.9-10.4-.5-9.4-3.7-11.1-13.4-8.5-21.4.7-2.1 1.1-4.2 1.4-6.3L10.1 79.5c-3.5-5.6-3.6-12.6-.3-18.4 4.5-7.7 15.1-22.6 35.7-35.3C69.2 11.3 98.9 3.9 133.8 3.9c33.1 0 62.5 8.5 87.6 25.2 19.9 13.3 31 28 34.8 33.7 1.7 2.6 1.9 6 .3 8.7l-46.2 80.6c-.2.7-.6 1.4-.9 2-1.5 2.8-5.1 9.2-3.8 18.8 1 7.3 2.5 18.3-6.5 23.3-4.9 2.7-10.6 2.4-15.1-.3zm-22-50.4 21.8 35 48.1-81.1 3.6 4.7c2.2 2.8 6 3.6 9.1 1.9 3.5-2 3.6-6.7 2.5-15.2-1.6-11.4 2.4-19.5 4.4-23l-.1-.2 47.7-83.2v-.2c-6.2-9.3-41.1-55.4-115.8-55.4-33.4 0-61.7 7-84.1 20.7-19.3 11.8-29 25.4-33.1 32.5-1.8 3.2-1.8 7 .2 10.1l46.8 74.9-.1 1.3c-.2 3.2-.9 6.4-1.9 9.4-.5 1.4-2.5 9 3.9 11.5 2.3.9 4.8.7 6.9-.5l3.4-2.1 23.4 37.5-.3 1.6c-.7 3.3-2.3 6.4-3.8 9.4-.6 1.2-1.2 2.3-1.7 3.4l-.2.4q-.45.75-.6 1.5l-.1.4c-.2.5-.2 1-.2 1.5v.4c-.3 3.4.6 5.8 2.8 7.7 2.9 2.4 7.7 2.7 11.4.6 1-.5 1.9-1.2 2.7-2zm90.5-75.9" class="st3"/><g id="boca"><path d="M131.6 179.2c12.6 0 22.8-10.3 22.8-22.9l-45.7.2c0 12.5 10.2 22.7 22.9 22.7" class="st3"/><path d="M153.3 163.1c.8-2.5 1.1-5.2 1-7.8l-45.7.2c-.1 2.7.3 5.3 1.1 7.8z" class="st6"/><path d="M132.5 179.2c-10.5 0-14.9-5.2-14.9-5.2 3.5-2.5 8.9-4.2 14.9-4.2 5.3 0 11 1.2 14.4 3.1 0 .1-3.9 6.3-14.4 6.3" style="fill:#ef5b70"/></g><path d="M151.1 155.3c1.7 0 3.1 1.4 3.1 3.1v.3c-.1 1-1.6 7.8-7.7 14.9-1.2 1.5-5.4 5.7-14 5.7-1.8 0-8-.4-11.5-2.6-5.1-3.2-9.4-7.5-11.3-13.3q-.75-2.1-.9-4.5c-.1-1.8 1.3-3.3 3-3.4zm.1-5.6-39.3.1c-4.8.1-8.7 4.1-8.6 8.9.1 2.1.5 4.3 1.2 6.3 2.1 6.4 6.6 11.9 13.6 16.3 5.5 3.5 14.1 3.5 14.5 3.5h.1c10.8 0 16.3-5.3 18.2-7.7 6.7-7.9 8.8-15.6 9-17.9.5-4.8-3-9-7.8-9.5z" class="st3"/><path d="m181.642 164.964 2.604-6.497 7.24 2.901-2.604 6.498zM45.462 89.061l2.604-6.497 7.24 2.901-2.604 6.498zM86.174 175.167l2.604-6.497 7.24 2.901-2.604 6.498zM126.883 135.245l2.604-6.497 7.24 2.901-2.604 6.498zM130.772 242.477l2.604-6.497 7.24 2.901-2.604 6.498z" class="st8"/><path d="M183.8 188.4c-5.7-7.3-16.3-8.6-23.6-2.9s-8.6 16.3-2.9 23.6c2.3 2.9 5.5 5 9.1 5.9 4.6-9.6 10.8-18.2 17.4-26.6" class="st9"/><path d="m167.8 218-2-.5c-4.1-1-7.8-3.5-10.4-6.8-6.6-8.4-5.1-20.5 3.3-27.1 4.1-3.2 9.1-4.6 14.2-4s9.7 3.2 12.9 7.3l1.2 1.5-1.2 1.5c-5.8 7.4-12.4 16.3-17.1 26.2zm2.7-33.5c-3.2 0-6.3 1.1-8.8 3-6.2 4.9-7.3 13.9-2.4 20.1 1.5 1.9 3.6 3.5 5.8 4.4 4.4-8.8 10.1-16.7 15.4-23.5-2.2-2.2-5.1-3.6-8.3-3.9-.5-.1-1.1-.1-1.7-.1" class="st3"/><circle cx="127.9" cy="72.4" r="16.8" class="st9"/><path d="M127.9 91.7c-10.7 0-19.3-8.7-19.3-19.3S117.3 53 127.9 53c10.7 0 19.3 8.7 19.3 19.3s-8.6 19.4-19.3 19.4m0-33.7c-7.9 0-14.3 6.4-14.3 14.3s6.4 14.3 14.3 14.3 14.3-6.4 14.3-14.3S135.8 58 127.9 58" class="st3"/><circle cx="178.8" cy="145.9" r="16.8" class="st9"/><path d="M178.8 165.3c-10.7 0-19.3-8.7-19.3-19.3s8.7-19.3 19.3-19.3 19.3 8.7 19.3 19.3-8.7 19.3-19.3 19.3m0-33.7c-7.9 0-14.3 6.4-14.3 14.3s6.4 14.3 14.3 14.3 14.3-6.4 14.3-14.3-6.4-14.3-14.3-14.3" class="st3"/><path d="M220.2 73.5c-1.2-1-2.5-2-3.8-3l-3.2-2.3-6-4.2c-6.4 6.8-6 17.4.7 23.8s17.4 6 23.8-.7c.5-.5 1-1.1 1.4-1.7-4.1-4.2-8.4-8.2-12.9-11.9" class="st9"/><path d="M219.5 94.8c-4.8 0-9.5-1.7-13.2-5.2-3.8-3.5-5.9-8.3-6.1-13.5s1.7-10.1 5.2-13.8l1.5-1.6 1.8 1.2c1.9 1.3 4 2.7 6 4.2l3.2 2.4c1.3 1.1 2.6 2.1 3.9 3.1 4.6 3.8 9 7.8 13.1 12l1.5 1.5-1.2 1.7c-.5.7-1 1.3-1.6 1.9-3.8 4.1-9 6.1-14.1 6.1m-11.8-27.4c-1.7 2.5-2.6 5.5-2.5 8.6.1 3.8 1.7 7.4 4.5 10 5.7 5.4 14.6 5.1 20.1-.4-3.5-3.5-7.3-6.9-11.1-10-1.2-1-2.5-2-3.7-3l-3.1-2.3c-1.5-1.1-2.9-2-4.2-2.9" class="st3"/><circle cx="82.1" cy="145.6" r="16.8" class="st9"/><path d="M82.1 164.9c-10.7 0-19.3-8.7-19.3-19.3s8.7-19.3 19.3-19.3 19.3 8.7 19.3 19.3-8.6 19.3-19.3 19.3m0-33.7c-7.9 0-14.3 6.4-14.3 14.3s6.4 14.3 14.3 14.3 14.3-6.4 14.3-14.3-6.4-14.3-14.3-14.3M144.6 96.7h59c3.8.1 6.8 3.3 6.7 7.1 0 .4-.1.8-.1 1.2l-5.1 27.7c-.5 3.2-3.3 5.6-6.6 5.6h-48c-3.2 0-5.9-2.3-6.5-5.5l-5.9-27.7c-.9-3.7 1.4-7.4 5.1-8.3.4 0 .9-.1 1.4-.1" class="st3"/><path d="M58.1 96.7h59.1c3.8.1 6.8 3.3 6.7 7.1 0 .4-.1.8-.1 1.2l-5.2 27.7c-.5 3.2-3.3 5.6-6.6 5.6H64c-3.2 0-5.9-2.3-6.5-5.5l-5.9-27.7c-.9-3.7 1.4-7.4 5.2-8.3.4 0 .8-.1 1.3-.1" class="st3"/><path d="M93.4 115.8h-6.2v-9.5c0-.8-.6-1.4-1.4-1.5h-7.4c-.8 0-1.4.7-1.4 1.5v9.5h-6.2v-9.5c0-.8-.6-1.4-1.4-1.5H62c-.8 0-1.4.7-1.4 1.5v9.2c0 .8.6 1.4 1.4 1.5h6.2v9.5c0 .8.6 1.4 1.4 1.5H77c.8 0 1.4-.7 1.4-1.5V117h6.2v9.5c0 .8.6 1.4 1.3 1.5h7.4c.8 0 1.4-.7 1.4-1.5v-9.2c.1-.8-.5-1.5-1.3-1.5M179.8 113.8h-6.2v-9.5c0-.8-.6-1.4-1.4-1.5h-7.4c-.8 0-1.4.7-1.4 1.5v9.5h-6.2v-9.5c0-.8-.6-1.4-1.4-1.5h-7.4c-.8 0-1.4.7-1.4 1.5v9.2c0 .8.6 1.4 1.4 1.5h6.2v9.5c0 .8.6 1.4 1.4 1.5h7.4c.8 0 1.4-.7 1.4-1.5V115h6.3v9.5c0 .8.6 1.4 1.4 1.5h7.4c.8 0 1.4-.7 1.4-1.5v-9.2c-.1-.8-.7-1.5-1.5-1.5" class="st6"/><path d="M118.9 104.8h23.3v-8h-27.3s3.3 8.6 4 8" class="st3"/></svg>