<svg xmlns="http://www.w3.org/2000/svg" id="Camada_10" data-name="Camada 10" viewBox="0 0 262.17 298.96"><defs><clipPath id="clip-path"><circle cx="130.93" cy="175.63" r="123.33" style="fill:none"/></clipPath><style>.cls-8{fill:none}.cls-4{fill:#012442}.cls-5{fill:#bfe6ef}.cls-6{fill:#75c2d3}.cls-7{fill:#fafdff}.cls-8{stroke:#012442;stroke-linecap:round;stroke-linejoin:round;stroke-width:9px}.cls-9{fill:#00ffda}.cls-11{fill:#fff}</style></defs><circle cx="130.93" cy="175.09" r="123.33" style="fill:#2ecc56"/><g style="clip-path:url(#clip-path)"><path d="M223.23 301.18c-12.47 0-23.73-7.86-26.62-19.44-9.27-37.21-33-47.33-34-47.74.39.16.6.22.6.22L183 187.66c5.19 1.84 51.16 19.87 66.89 83 3.35 13.46-5.86 26.85-20.57 29.91a29.5 29.5 0 0 1-6.09.61" class="cls-4"/><path d="M224.43 293.1c-8.32 0-15.82-5.23-17.75-13-10.64-42.71-44.15-57.53-44.49-57.66-9.18-3.77-13.28-13.63-9.16-22s14.89-12.14 24.07-8.38c2.05.84 50.29 21.24 65.1 80.66 2.24 9-3.9 17.9-13.71 19.94a20 20 0 0 1-4.06.44" class="cls-5"/><path d="M40.63 302a30.2 30.2 0 0 1-6.09-.63c-14.71-3.06-23.92-16.45-20.54-29.9 15.73-63.11 65.65-84.74 70.84-86.59l19.82 46.56a46 46 0 0 0-3.35 3.39c-1 .41-24.76 10.54-34 47.74C64.36 294.15 53.1 302 40.63 302" class="cls-4"/><path d="M39.43 293.93a19.4 19.4 0 0 1-4.06-.42c-9.81-2-15.95-11-13.71-19.94 14.81-59.42 64.87-80.65 66.92-81.49L108.89 219l.3.28c-1.38.59-41.39 19.06-52 61.69-1.94 7.73-9.45 12.96-17.76 12.96" class="cls-5"/><path id="peito" d="M213.92 306.84s-2.37-93.64-53.82-120.23l-56.43 2.24c-45.06 15.93-52.59 118.06-52.59 118.06Z" class="cls-5"/><path d="M40.07 259.55a56.9 56.9 0 0 1 20.45-14 7.84 7.84 0 0 1 4.51-.76c1.91.42 3.27 2.1 4.27 3.79 3.88 6.55 4.82 14.79 9.91 20.45a2.52 2.52 0 0 0 1.69 1c1 0 1.68-1.09 2.09-2l7.24-16.73c.73-1.68 1.59-3.51 3.25-4.29 2-.93 4.27 0 6.33.68a39.9 39.9 0 0 0 15.19 2.13c3-.16 7-2.08 6-5-.61-1.83-2.88-2.4-4.8-2.71a225.4 225.4 0 0 1-65.33-21.06c-1-.52-2.27-1.06-3.34-.58a4 4 0 0 0-1.43 1.39c-7 9.81-11 14.36-15.81 25.42M223.48 260.52a56.9 56.9 0 0 0-20.45-14 7.83 7.83 0 0 0-4.51-.76c-1.91.42-3.27 2.1-4.27 3.79-3.88 6.55-4.82 14.79-9.91 20.45a2.53 2.53 0 0 1-1.69 1c-1 0-1.68-1.1-2.09-2.05l-7.24-16.73c-.73-1.68-1.59-3.51-3.25-4.29-2-.93-4.27 0-6.33.68a39.9 39.9 0 0 1-15.21 2.18c-3-.16-7-2.08-6-5 .61-1.83 2.88-2.4 4.8-2.71a225.6 225.6 0 0 0 65.34-21.06c1-.53 2.26-1.06 3.33-.58a3.8 3.8 0 0 1 1.43 1.39c7 9.8 11 14.36 15.81 25.42" class="cls-6"/></g><path d="M202.7 230.37c22.79-9.3 39.55-26 39.55-54.89 0-20.7-1.43-37.58-7.73-58.85 0 0-29.32-37-57.28-56.14l13.7-10.26c10.29 24.07 56.52 27.94 56.52 27.94s-26.4-25.86-34.22-52.81c-13.73-8.46-79.48-11.46-128.82 3.91-14.31 4.46-40 46.41-50.19 64.51-9 16-15.18 59.13-15.18 84.42 0 23.77 17.08 39.28 39.94 48.92" class="cls-5"/><path d="M32.16 100.45a244.7 244.7 0 0 1 47.48-47.34 66.6 66.6 0 0 1 7.5-5.06 59.3 59.3 0 0 1 14-5.25c12-3.1 24.41-4.46 36.76-5.77 25.77-2.71 51.64-5.19 77.55-4.75.65-3.54-1.92-7-5.13-8.63s-6.94-1.75-10.53-1.83c-34.24-.82-68.79.25-102.32 7.53-6.47 1.42-13.1 3.11-18.8 6.65-4.45 2.73-8.2 6.46-11.9 10.15a162 162 0 0 0-12.4 13.38c-8.56 10.71-14.28 23.53-17.86 36.81" class="cls-7"/><path d="M202.7 230.37c22.79-9.3 39.55-26 39.55-54.89 0-20.7-1.43-37.58-7.73-58.85 0 0-29.32-37-57.28-56.14l13.7-10.26c10.29 24.07 56.52 27.94 56.52 27.94s-26.4-25.86-34.22-52.81c-13.73-8.46-79.48-11.46-128.82 3.91-14.31 4.46-23.06 39.09-50.19 64.51-13.38 12.54-15.18 59.13-15.18 84.42 0 23.77 17.08 39.28 39.94 48.92" class="cls-8"/><path d="M177.24 60.49a208 208 0 0 1 22.27-17.14" class="cls-8"/><path d="M210.76 187.24c-2.06-3.81-10.27-11.85-13.58-11.64-4.41.29-6.44 6-10.59 7.53-3.36 1.22-7-.67-9.89-2.75s-5.86-4.57-9.42-4.68c-7.63-.25-12.65 10.23-20.24 9.4-6-.66-10.67-8.6-16.51-9.83v-.16c-.22 0-.42 0-.63.08s-.42-.07-.63-.08v.16c-5.85 1.23-10.53 9.17-16.52 9.83-7.58.83-12.61-9.65-20.24-9.4-3.56.11-6.53 2.59-9.42 4.68s-6.53 4-9.88 2.75c-4.16-1.5-6.19-7.24-10.6-7.53-3.31-.21-12.52 7.83-14.58 11.64-.79 1.48-.45 5.29.32 6.78.86 1.68 3.13 2.08 5 1.71s3.57-1.3 5.44-1.53c4.86-.59 8.92 3.53 11.7 7.55s5.51 8.66 10.22 10.05c6.85 2 13.7-4 20.84-3.58 7.91.45 13.2 8.33 20.46 11.52 2.43 1.06 13.34 1.06 15.77 0 7.26-3.19 12.55-11.07 20.46-11.52 7.14-.4 14 5.62 20.84 3.58 4.68-1.39 7.46-6 10.23-10.05s6.85-8.14 11.7-7.55c1.87.23 3.59 1.16 5.45 1.53s4.12 0 5-1.71c.75-1.49.1-5.3-.7-6.78" class="cls-7"/><path d="M209.76 185.24c-2.06-3.81-10.27-13.85-13.58-13.64-4.41.29-6.44 6-10.59 7.53-3.36 1.22-7-.67-9.89-2.75s-5.86-4.57-9.42-4.68c-7.63-.25-12.65 10.23-20.24 9.4-6-.66-10.67-8.6-16.51-9.83v-.16c-.22 0-.42 0-.63.08s-.42-.07-.63-.08v.16c-5.85 1.23-10.53 9.17-16.52 9.83-7.58.83-12.61-9.65-20.24-9.4-3.56.11-6.53 2.59-9.42 4.68s-6.53 4-9.88 2.75c-4.16-1.5-6.19-7.24-10.6-7.53-3.31-.21-11.52 9.83-13.58 13.64-.79 1.48-1.45 3.29-.68 4.78.86 1.68 3.13 2.08 5 1.71s3.57-1.3 5.44-1.53c4.86-.59 8.92 3.53 11.7 7.55s5.51 8.66 10.22 10.05c6.85 2 13.7-4 20.84-3.58 7.91.45 13.2 8.33 20.46 11.52 2.43 1.06 13.34 1.06 15.77 0 7.26-3.19 12.55-11.07 20.46-11.52 7.14-.4 14 5.62 20.84 3.58 4.68-1.39 7.46-6 10.23-10.05s6.85-8.14 11.7-7.55c1.87.23 3.59 1.16 5.45 1.53s4.12 0 5-1.71c.75-1.49.1-3.3-.7-4.78" class="cls-4"/><path d="M42.61 148c4.33 17.22 31.46 18 48.68 13.68a32.15 32.15 0 1 0-15.68-62.41c-17.23 4.33-37.33 31.46-33 48.73" class="cls-6"/><path d="M44 141.26c4.33 17.22 31.46 18 48.69 13.68A32.16 32.16 0 1 0 77 92.57C59.81 96.91 39.7 124 44 141.26" class="cls-4"/><path d="M86.23 144a21.27 21.27 0 1 1 21.27-21.3A21.29 21.29 0 0 1 86.23 144m0-35.84a14.57 14.57 0 1 0 14.57 14.54 14.59 14.59 0 0 0-14.57-14.57Z" class="cls-9"/><circle cx="86.91" cy="119.37" r="5.82" class="cls-5"/><path d="M109.94 227.64c5.21 8.05 16.33 9.88 25.83 8.57a25.9 25.9 0 0 0 9-2.65c6.62-3.64 10-18.45 10.65-26 .15-1.71.21-3.5 1.11-5s3.52-3 4.88-2c-8-7.68-22.69-10.78-32.86-4.6-5.28-2.29-8.88-3.27-14.63-3.05-5.36.2-13.85 1.84-16 7.08 10.25-.25 7.49 20.66 12.02 27.65" style="fill:#dd527e"/><path d="M141.05 192.73a30.17 30.17 0 0 1 20.38 7.89 1.7 1.7 0 0 0-1.06-.33 5.32 5.32 0 0 0-3.82 2.34c-.9 1.46-1 3.25-1.11 5-.66 7.52-4 22.33-10.65 26a25.9 25.9 0 0 1-9 2.65 41 41 0 0 1-5.55.39c-8 0-16.06-2.44-20.28-9-4.49-6.93-1.81-27.59-11.82-27.59h-.23c2.2-5.24 10.69-6.88 16-7.08h1.51c4.91 0 8.32 1 13.12 3.08a23.9 23.9 0 0 1 12.48-3.29m0-6a30.9 30.9 0 0 0-12.78 2.67 33.4 33.4 0 0 0-12.82-2.46h-1.74c-4 .16-17.42 1.38-21.35 10.76a6 6 0 0 0 5.53 8.32h.23c1.36 1.3 2.36 7.79 2.85 10.94.81 5.29 1.58 10.27 3.93 13.91 4.89 7.54 13.88 11.7 25.32 11.7a47 47 0 0 0 6.36-.44 32.4 32.4 0 0 0 11.11-3.34c11.47-6.32 13.64-29.72 13.73-30.71v-.55c0-.28 0-.62.09-.94a6 6 0 0 0 4-10.32 36 36 0 0 0-24.55-9.57Z" class="cls-4"/><path d="M147.32 213.72H147a3 3 0 0 1-2.69-3.28c.13-1.33.23-2.78.31-4.56a3 3 0 1 1 6 .28 99 99 0 0 1-.33 4.87 3 3 0 0 1-2.97 2.69M131.13 231.74a20.7 20.7 0 0 1-5.88-.86 3 3 0 0 1 1.71-5.75c5.69 1.69 11.67-.18 14.54-4.56a3 3 0 1 1 5 3.29 18.22 18.22 0 0 1-15.37 7.88" class="cls-11"/><path d="M213.13 146.84c-4.33 17.22-31.46 18-48.68 13.68a32.15 32.15 0 0 1 15.68-62.36c17.23 4.33 37.33 31.46 33 48.68" class="cls-6"/><path d="M211.71 140.15c-4.33 17.22-31.46 18-48.69 13.68a32.16 32.16 0 0 1 15.69-62.37c17.22 4.34 37.29 31.47 33 48.69" class="cls-4"/><path d="M148.07 121.53a21.27 21.27 0 1 1 21.26 21.27 21.29 21.29 0 0 1-21.26-21.27m6.69 0A14.58 14.58 0 1 0 169.33 107a14.59 14.59 0 0 0-14.57 14.53" class="cls-9"/><circle cx="168.65" cy="118.2" r="5.82" class="cls-5"/></svg>