<svg xmlns="http://www.w3.org/2000/svg" viewBox="0 0 262.17 298.96"><defs><clipPath id="clip-path"><path d="M-1108.9-464.29a30.39 30.39 0 0 0 29.54-22.71 5.9 5.9 0 0 0-5.9-7.19l-47.48.16a5.9 5.9 0 0 0-5.86 7.22 30.37 30.37 0 0 0 29.7 22.48" class="cls-1"/></clipPath><clipPath id="clip-path-2"><path d="M-1079.87-485.2a28.5 28.5 0 0 0 1.19-5.81 4.07 4.07 0 0 0-4.13-4.39l-52.41.17a4.06 4.06 0 0 0-4.08 4.43 28 28 0 0 0 1.22 5.8Z" class="cls-1"/></clipPath><clipPath id="clip-path-3"><path d="M-1107.68-464.19c-14 0-19.93-6.78-19.93-6.78 4.64-3.29 11.82-5.42 19.89-5.46 7 0 14.66 1.55 19.27 4.11 0 0-5.19 8.08-19.23 8.13" class="cls-1"/></clipPath><clipPath id="clip-path-4"><path d="M-1082.79-495.4a4.07 4.07 0 0 1 4.11 4.39c-.14 1.35-2.17 10.1-10.32 19.41-1.67 2-7.22 7.37-18.68 7.41-2.34 0-10.63-.56-15.31-3.45-6.76-4.16-12.55-9.81-15-17.36a23 23 0 0 1-1.25-5.8 4.23 4.23 0 0 1 4.1-4.42l52.4-.18m0-7.27-52.4.18a11.55 11.55 0 0 0-11.52 11.62 27.3 27.3 0 0 0 1.63 8.16c2.76 8.38 8.85 15.5 18.11 21.23 7.31 4.51 18.81 4.56 19.29 4.56h.08c14.35 0 21.77-6.95 24.35-10 9-10.28 11.74-20.36 12-23.38a11.16 11.16 0 0 0-3-8.65 11.72 11.72 0 0 0-8.58-3.71" class="cls-1"/></clipPath><style>.cls-1,.cls-10,.cls-15,.cls-16{fill:none}.cls-1{clip-rule:evenodd}.cls-8{fill:#012442}.cls-10,.cls-15,.cls-16,.cls-18{stroke:#012442}.cls-10,.cls-15,.cls-16{stroke-linecap:round}.cls-10,.cls-18{stroke-miterlimit:10}.cls-10,.cls-15{stroke-width:8px}.cls-11{fill:#ef6237}.cls-12{fill:#c94020}.cls-16,.cls-18{stroke-width:7px}.cls-15,.cls-16{stroke-linejoin:round}.cls-18{fill:#fff}</style></defs><g id="Camada_4" data-name="Camada 4"><circle cx="131.09" cy="173.93" r="123.33" style="fill:#bc3b85"/><path d="m173.3 199.92-42.3 1.15-42.28-1.15C41.78 205.79 28.87 242 28.87 242 63.48 296 122 297.73 132 297.73c8.72 0 67.63 1.41 101.15-56.72.02-.01-12.89-35.22-59.85-41.09" style="fill:#2ecc56"/><path d="M63.56 279.21a149.4 149.4 0 0 1 3.91-22.35 3.61 3.61 0 0 0-1.66-4h-.07a3.6 3.6 0 0 0-5.33 2.14 150 150 0 0 0-3.51 18.34q3.38 2.88 6.66 5.87M196.44 281.14q3.48-2.59 6.85-5.34a154.6 154.6 0 0 0-4.13-23.8 3.59 3.59 0 0 0-5.14-2.27l-.08.05a3.57 3.57 0 0 0-1.8 4.07 155 155 0 0 1 4.3 27.29" class="cls-8"/><path d="M49 219s-10.78 29.65 82.43 29.65c99.31 0 82.44-31.74 82.44-31.74S116.82 164.75 49 219" style="fill:#17a535"/><path d="M232.17 242s-12.91-35.22-59.87-41.09l-42.3-1.84-42.28 1.85C40.78 206.79 30.87 240 30.87 240" class="cls-10"/></g><g id="Camada_3" data-name="Camada 3"><path d="M227.49 136.56c.18 58.35-57.69 115.56-95.15 115.72-38 .16-95.78-50.15-96-108.5S80.7 32.2 130.73 32c52.27-.24 96.58 46.23 96.76 104.56" class="cls-11"/><path d="M227.49 136.56c.18 58.35-57.69 115.56-95.15 115.72-38 .16-95.78-50.15-96-108.5S80.7 32.2 130.73 32c52.27-.24 96.58 46.23 96.76 104.56Z" class="cls-10"/><ellipse cx="131.85" cy="161.11" class="cls-12" rx="75.01" ry="31.7"/><ellipse cx="131.85" cy="153.43" rx="75.01" ry="24" style="stroke:#012442;stroke-miterlimit:10;fill:#f7c434;stroke-width:7px"/><path d="M78.89 151.7s47 19.2 105.43 0" style="stroke:#012442;stroke-linecap:round;stroke-miterlimit:10;fill:#f7c434;stroke-width:7px"/><path d="m43.47 150.68-30.13-1.8s-.1 26.25 23.39 57.85l17.52-22.19Z" class="cls-11"/><path d="m43 147.73-29.61 1.15s-.1 26.25 23.39 57.85l20-19.59" class="cls-15"/><path d="m18.04 170.12 19.77-6.55M27.71 187.49l15.84-10.77" class="cls-16"/><path d="M95.26 45.61s23.74 4.78 34.66 40.24l4.2-.1s11.44-31 32.58-41.92c.69-.36-40.7-18-71.44 1.78" class="cls-12"/><path d="m218.62 150.68 30.13-1.8s.1 26.25-23.39 57.85l-17.52-22.19Z" class="cls-11"/><path d="m219.14 147.73 29.61 1.15s.1 26.25-23.39 57.85l-20-19.59" class="cls-15"/><path d="m244.05 170.12-19.77-6.55M234.38 187.49l-15.84-10.77" class="cls-16"/><path d="M99.09 219.74a3.68 3.68 0 0 1-2.76-1.19l-15.26-17.21a2.84 2.84 0 0 1 .6-4.32 3.84 3.84 0 0 1 4.92.53l15.26 17.22a2.84 2.84 0 0 1-.61 4.32 3.8 3.8 0 0 1-2.15.65" class="cls-12"/><path d="M83.82 219.74a3.8 3.8 0 0 1-2.15-.65 2.84 2.84 0 0 1-.6-4.32l15.26-17.22a3.82 3.82 0 0 1 4.91-.53 2.84 2.84 0 0 1 .61 4.32l-15.26 17.21a3.7 3.7 0 0 1-2.77 1.19M137.09 230.3a3.68 3.68 0 0 1-2.76-1.19l-15.26-17.21a2.85 2.85 0 0 1 .6-4.33 3.85 3.85 0 0 1 4.92.54l15.26 17.21a2.84 2.84 0 0 1-.61 4.32 3.8 3.8 0 0 1-2.15.66" class="cls-12"/><path d="M121.82 230.3a3.8 3.8 0 0 1-2.15-.66 2.84 2.84 0 0 1-.6-4.32l15.26-17.21a3.84 3.84 0 0 1 4.91-.54 2.85 2.85 0 0 1 .61 4.33l-15.26 17.21a3.7 3.7 0 0 1-2.77 1.19M178.09 218.86a3.68 3.68 0 0 1-2.76-1.19l-15.26-17.21a2.84 2.84 0 0 1 .6-4.32 3.84 3.84 0 0 1 4.92.53l15.26 17.22a2.84 2.84 0 0 1-.61 4.32 3.8 3.8 0 0 1-2.15.65" class="cls-12"/><path d="M162.82 218.86a3.8 3.8 0 0 1-2.15-.65 2.84 2.84 0 0 1-.6-4.32l15.26-17.22a3.82 3.82 0 0 1 4.91-.53 2.84 2.84 0 0 1 .61 4.32l-15.26 17.21a3.7 3.7 0 0 1-2.77 1.19" class="cls-12"/><path d="m118.26 16 11.66 69.81a2.12 2.12 0 0 0 4.2-.1l8.4-69.14s-7.82-4.44-24.26-.57" style="fill:#f7c434"/><path d="M130.89 14.44c7.84 0 11.63 2.17 11.63 2.17l-8.4 69.14a2.12 2.12 0 0 1-4.2.1L118.26 16a54.6 54.6 0 0 1 12.63-1.6m0-7a62 62 0 0 0-14.25 1.79l-6.36 1.52 1.08 6.45L123 87a9.12 9.12 0 0 0 18-.4l8.4-69.15.56-4.61-4-2.31c-.91-.51-5.88-3.09-15.11-3.09Z" class="cls-8"/><path d="M40.7 140.09a48.82 48.82 0 0 0 32.87-18l-29.74-9.39s-3.13 17.21-3.13 27.39" class="cls-12"/><ellipse cx="52.48" cy="97.54" class="cls-18" rx="29.18" ry="28.35"/><path id="olho" d="M44.18 98.06A8.86 8.86 0 0 0 54 105.8a8.74 8.74 0 0 0 8-9.5 8.86 8.86 0 0 0-9.78-7.74 8.74 8.74 0 0 0-8.04 9.5" class="cls-8"/><path d="M223.57 140.09a48.8 48.8 0 0 1-32.87-18l29.73-9.39s3.14 17.21 3.14 27.39" class="cls-12"/><ellipse cx="209.48" cy="97.54" class="cls-18" rx="29.18" ry="28.35"/><path id="olho-2" d="M201.18 98.06a8.86 8.86 0 0 0 9.82 7.74 8.74 8.74 0 0 0 8-9.5 8.86 8.86 0 0 0-9.78-7.74 8.74 8.74 0 0 0-8.04 9.5" class="cls-8" data-name="olho"/></g></svg>