<svg xmlns="http://www.w3.org/2000/svg" viewBox="0 0 262.17 298.96"><defs><style>.cls-9{fill:none;stroke-linecap:round;stroke:#012442}.cls-8{fill:#fff}.cls-9{stroke-width:6px}.cls-7{fill:#012442}.cls-9{stroke-linejoin:round}.cls-10{fill:#ef89c9}.cls-11{fill:#efc03c}</style></defs><g id="Camada_4" data-name="Camada 4"><circle cx="131.13" cy="172.27" r="123.33" style="fill:#00c9ff"/><path d="m173.72 204.28-42.28 1.3-42.28-1c-46.94 6-57.71 43.3-57.71 43.3 48.38 57.63 90.26 48.39 100.33 48.35 8.71 0 54 6.89 102-51.09-.04.01-13.08-35.14-60.06-40.86" style="fill:#e02d5c"/><path d="M49.49 226.57s30.84 58.43 82.62 58.21c51.53-.21 82.24-61.21 82.24-61.21s-97.24-57.57-164.86 3" style="fill:#af1545"/><path d="M232.74 246.15s-13-35.17-60-40.86l-42.27 1.3-42.29-1c-46.93 6-56.73 39.29-56.73 39.29" style="fill:none;stroke-linecap:round;stroke:#012442;stroke-miterlimit:10;stroke-width:8px"/></g><g id="Camada_3" data-name="Camada 3"><path d="M196.83 231.73c-10-6.64-7.27-26.72-7.27-26.72-1.2 1.1-45.9 1.89-56.08 2.05-10.18-.16-54.88-.95-56.09-2.05 0 0 2.73 20.08-7.26 26.72s-7.52 24.14 7.11 26.45c.4.06 29.57 9.65 57.54 9.65s54.54-9.59 54.93-9.65c14.64-2.31 17.11-19.8 7.12-26.45Z" style="stroke:#012442;stroke-miterlimit:10;fill:#fff;stroke-width:6px"/><path d="M232.61 200.36c-.77-9.69-8.38-18.07-19.07-22.19 8.23-11 13-23.85 13-37.55 0-41.28-42.86-74.75-95.74-74.75S35 99.34 35 140.62c0 14.22 5.08 27.51 13.9 38.82-9.14 4.43-15.46 12.14-16.16 20.92-1.23 15.45 14.46 28.28 34 28.28 4.4 0 8.61-3.83 12.47-7.9C82 217.8 88 219.37 88 223l5.64 9.75c1.38 3.89 3.73 4.49 6.91 4.49h65.64c3.18 0 5.59-.6 6.91-4.49l4.28-9.75c0-3.66 6-5.23 8.79-2.29 3.86 4.07 8.06 7.9 12.46 7.9 19.52.03 35.2-12.8 33.98-28.25Z" style="stroke:#012442;stroke-miterlimit:10;stroke-width:8px;fill:#fff"/><path d="M250.55 129.52a15.41 15.41 0 0 1-14.75 7.28c-14.06-1.12-11.93-18 2.13-50.38 7.66-17.67-44.31-81.22-106.41-80.1l-1 2.72V6.32C68.47 5.2 16.5 68.75 24.16 86.42c14.06 32.43 16.19 49.26 2.13 50.38a15.44 15.44 0 0 1-14.76-7.28 2.05 2.05 0 0 0-3.77 1c.15 13.76 10.32 27.53 10.32 27.53H244s10.17-13.77 10.33-27.53a2.06 2.06 0 0 0-3.78-1" class="cls-7"/><path d="M88.45 207.25c-17.58 0-31.89-13.2-31.89-29.42s14.31-29.43 31.89-29.43c17 0 35.65 18.4 35.65 35.15 0 16.37-17.9 23.7-35.65 23.7" class="cls-7"/><path d="M88.45 151.4c16 0 32.65 17.56 32.65 32.15s-16.69 20.7-32.65 20.7-28.89-11.83-28.89-26.43S72.5 151.4 88.45 151.4m0-6c-19.23 0-34.89 14.55-34.89 32.42s15.66 32.43 34.89 32.43 38.65-8.26 38.65-26.7c0-8.52-4.52-18.15-12.08-25.77-7.81-7.87-17.49-12.38-26.57-12.38" class="cls-8"/><path d="M173.73 205.12c-17.74 0-35.64-7.33-35.64-23.7 0-16.75 18.65-35.14 35.64-35.14 17.58 0 31.89 13.2 31.89 29.42s-14.31 29.42-31.89 29.42" class="cls-7"/><path d="M173.73 149.28c16 0 28.89 11.83 28.89 26.42s-12.94 26.42-28.89 26.42-32.65-6.1-32.65-20.7 16.69-32.14 32.65-32.14m0-6c-9.08 0-18.76 4.51-26.56 12.37-7.57 7.62-12.09 17.26-12.09 25.77 0 18.45 19.41 26.7 38.65 26.7s34.89-14.54 34.89-32.42-15.62-32.42-34.89-32.42" class="cls-8"/><path d="m147.72 205.4-8.18-12.28a8.12 8.12 0 0 0-7.64-4.91h-.15a8.06 8.06 0 0 0-7.59 5.17l-7.27 12.27a6.8 6.8 0 0 0 .52 5.67 7.92 7.92 0 0 0 4.75 3.68 9.1 9.1 0 0 0 2.48.35 8.7 8.7 0 0 0 3.71-.83 7.57 7.57 0 0 0 4-4.29l.08.2a8.13 8.13 0 0 0 7.64 4.92 8.8 8.8 0 0 0 2.75-.44 7.86 7.86 0 0 0 4.6-3.83 6.8 6.8 0 0 0 .3-5.68" class="cls-7"/><path d="M110.55 236.67v-12.46M132.61 236.67v-12.46M154.66 236.67v-12.46" class="cls-9"/><ellipse cx="58.53" cy="208.52" class="cls-10" rx="10.68" ry="6.78"/><ellipse cx="205.07" cy="208.52" class="cls-10" rx="10.68" ry="6.78"/><ellipse cx="89.91" cy="178.29" class="cls-11" rx="17.94" ry="16.4"/><ellipse cx="89.6" cy="177.55" class="cls-7" rx="8.51" ry="7.78"/><ellipse cx="172.17" cy="175.7" class="cls-11" rx="17.94" ry="16.4"/><ellipse cx="172.83" cy="175.7" class="cls-7" rx="8.51" ry="7.78"/><path d="M135.56 148.2V7.14a5 5 0 0 0-10 0V148.2ZM197 79.94l-12.08-.23 1.8 11.29 3.28-3.59.62.64a1.54 1.54 0 0 1 .38 1.65c-3.24 7.75-8.78 9.52-12.13 9.83V70.34h11v-5.63h-9.71a7.31 7.31 0 0 0 3.14-5.88 7.21 7.21 0 0 0-6.79-7.38 7 7 0 0 0-5.19 2 7.37 7.37 0 0 0 .95 11.24h-9v5.63h10.45v29.21c-3.35-.31-8.9-2.08-12.13-9.83a1.54 1.54 0 0 1 .32-1.65l1.25-1.28L167.1 91l1.82-11.27-12.08.23 2.95 3.17-3.11 3.19a2.55 2.55 0 0 0-.61 2.54c1.14 3.7 5.87 15.77 19.1 15.77a9 9 0 0 0 1.09 0h1.17c13.23 0 18-12.07 19.1-15.77l.45-1.46-3.54-3.63Zm-17.64-21.25a3.15 3.15 0 1 1-3.15-3.22 3.19 3.19 0 0 1 3.15 3.22" class="cls-11"/><ellipse cx="56.11" cy="74.58" class="cls-8" rx="6.23" ry="6.95" transform="rotate(-52.4 56.177 74.847)"/><ellipse cx="72" cy="87.65" class="cls-8" rx="3.9" ry="4.34" transform="rotate(-52.42 72.007 87.649)"/></g></svg>