<svg xmlns="http://www.w3.org/2000/svg" viewBox="0 0 262.17 298.96"><defs><clipPath id="clip-path"><circle cx="130.19" cy="175.47" r="123.33" class="cls-1"/></clipPath><clipPath id="clip-path-2"><path d="m78.7 190.84 102.23-12.52s15 42.58-42.58 48.43-59.65-35.91-59.65-35.91" class="cls-1"/></clipPath><style>.cls-1,.cls-10{fill:none}.cls-4{fill:#012442}.cls-5{fill:#ffbb71}.cls-9{fill:#ffd9b6}.cls-10,.cls-15{stroke:#012442;stroke-linecap:round;stroke-miterlimit:10;stroke-width:8px}.cls-12{fill:#fff1d2}.cls-14{fill:#ffea55}.cls-15{fill:#57dbff}</style></defs><g id="Camada_4" data-name="Camada 4"><circle cx="130.7" cy="174.74" r="123.33" style="fill:#3ec63e"/><g style="clip-path:url(#clip-path)"><path d="M217.49 301c-12.47 0-23.73-7.85-26.61-19.44-9.28-37.2-33-47.32-34-47.74.38.16.59.23.59.23l19.83-46.57c5.19 1.85 51.15 19.87 66.88 83 3.36 13.45-5.85 26.84-20.56 29.91a29.7 29.7 0 0 1-6.13.61" class="cls-4"/><path d="M218.69 292.94c-8.31 0-15.82-5.24-17.74-13-10.65-42.72-44.16-57.53-44.49-57.67-9.18-3.76-13.29-13.62-9.17-22s14.9-12.15 24.07-8.38c2 .84 50.29 21.24 65.11 80.66 2.23 9-3.91 17.89-13.72 19.94a20 20 0 0 1-4.06.45" class="cls-5"/><path d="M34.9 301.84a29.7 29.7 0 0 1-6.1-.63c-14.71-3.06-23.92-16.45-20.56-29.91 15.76-63.1 65.64-84.74 70.83-86.59l19.82 46.57a44 44 0 0 0-3.35 3.39c-1 .41-24.76 10.53-34 47.74-2.92 11.59-14.18 19.43-26.64 19.43" class="cls-4"/><path d="M33.7 293.77a20.3 20.3 0 0 1-4.07-.42c-9.8-2.05-15.94-11-13.71-19.94C30.73 214 80.8 192.76 82.85 191.92l20.3 26.92.31.27c-1.39.6-41.39 19.06-52 61.7-1.95 7.72-9.46 12.96-17.76 12.96" class="cls-5"/><path id="peito" d="M193.49 301s7.63-85.63-43.82-112.23L93.24 191c-45.06 15.92-42.6 110-42.6 110Z" class="cls-5"/><path d="M36.74 229.36c64.57 58.23 163.52 31.49 182.73 4.84-13.73-24.22-45.93-49-63.87-41.91-9.89-9.68-64.63 3.36-72.5-.25-2.57 1.96-18.1-1.34-46.36 37.32" style="fill:#d69451"/><path d="M63.65 249.7a3.61 3.61 0 0 0-5.33 2.18c-2.79 10.7-5.1 25.23-5.11 44a3.5 3.5 0 0 0 3.64 3.34 3.49 3.49 0 0 0 3.64-3.33c0-18 2.24-32 4.88-42.18a3.6 3.6 0 0 0-1.66-4ZM191.84 253.69a3.61 3.61 0 0 0-1.8 4.08c2.64 10.18 4.84 24.09 4.85 42.16a3.49 3.49 0 0 0 3.64 3.33 3.5 3.5 0 0 0 3.64-3.34c0-18.8-2.31-33.31-5.1-44a3.59 3.59 0 0 0-5.14-2.26Z" class="cls-4"/></g></g><g id="Camada_3" data-name="Camada 3"><path d="M129.34 252.87c-23.89 0-40.14-11.3-42.31-12.89-34.17-36-44.71-82.21-47.52-114.66a258.7 258.7 0 0 1 1.89-61.4c27.32-21.7 56.8-32.7 87.63-32.7 47.24 0 83.9 26.12 92.06 32.43a554.6 554.6 0 0 1-4.22 76.35c-6.92 52.85-21.43 87.23-42 99.42-15 8.92-30.35 13.44-45.57 13.44Z" style="fill:#e02d5c"/><path d="M129 36.22c26.75 0 49.83 8.78 64.48 16.14a159 159 0 0 1 22.61 13.79 550 550 0 0 1-4.22 73.33c-3.07 23.36-7.65 43.17-13.63 58.86-7 18.35-15.7 30.73-25.91 36.79-14.24 8.45-28.71 12.74-43 12.74a70.44 70.44 0 0 1-39-11.67 160.8 160.8 0 0 1-33.45-54.54 215.5 215.5 0 0 1-12.38-56.48A257.5 257.5 0 0 1 46 66.64c26-20.19 53.89-30.42 83-30.42m0-10c-28 0-59.85 8.74-92.23 35 0 0-21.77 110.52 46.89 182.53 0 0 17.86 14.14 45.65 14.14 13.89 0 30.26-3.54 48.13-14.14C231.05 211.91 226 61.2 226 61.2s-40.94-35-97-35Z" style="fill:#ff76a0"/><path d="M149.48 28.3c-1.6.52-36.25-.5-39 .1-3.47.75-9.91 2.13-11 3.08l-.21.19-.27.13-29.49 12.36c10.74 6.94 44.8 34.46 48.66 81.11 0 1 .92 23.92-10.54 34.66l-2.5 2.35 25.65 8L153.23 158l-1.77-1.88c-.13-.14-12.94-13.91-15.35-31-3.14-22.25 11-69.48 43-86.1Z" class="cls-9"/><path d="M129.21 262.34a85.8 85.8 0 0 1-19.77-2.3c-17.51-4.16-28.1-12.43-28.54-12.78l-.47-.43C60.36 225.78 35.32 187.7 30 125.84 26.86 89 32.16 61.48 32.39 60.33l.31-1.6 1.27-1c51.66-41.87 102-39.61 135.08-30.35C204.76 37.34 228 57 229 57.78l1.51 1.28.07 2a560 560 0 0 1-4.22 80.06c-7.42 56.73-23.07 92.55-46.55 106.49-18.99 11.24-36.35 14.73-50.6 14.73m-42.51-22a71.8 71.8 0 0 0 25.23 11c20.92 4.85 42.2 1 63.24-11.52 20.66-12.27 35.26-46.78 42.2-99.8a554 554 0 0 0 4.21-76.67 167.2 167.2 0 0 0-55.28-27.42 134.3 134.3 0 0 0-58.43-3.46C84.55 36.37 62 46.85 40.94 63.65A259.3 259.3 0 0 0 39 125.34c2.83 32.54 13.4 78.88 47.7 115.02Z" class="cls-4"/><circle cx="76.1" cy="125.74" r="26.78" class="cls-9"/><circle cx="76.1" cy="125.74" r="26.78" class="cls-10"/><circle cx="179.59" cy="118.34" r="26.78" class="cls-9"/><circle cx="179.59" cy="118.34" r="26.78" class="cls-10"/><path d="m188 175.82-2-5.68-115.14 14.11.34 7A46.52 46.52 0 0 0 87 221.82c10 8.62 23.72 13 40.71 13a113 113 0 0 0 11.41-.6c21.89-2.22 37.06-9.75 45.07-22.39 10.48-16.56 4.09-35.22 3.81-36.01" class="cls-4"/><g style="clip-path:url(#clip-path-2)"><path d="m87 204.93.33-.77a5.4 5.4 0 0 1 9.51-.82 5.4 5.4 0 0 0 9.51-.81c.45-1.05.91-2.14 1.37-3.23a5.4 5.4 0 0 1 9.52-.84l.32.49a5.4 5.4 0 0 0 9.51-.81l1.12-2.63a5.4 5.4 0 0 1 9.52-.84l1.18 1.83a5.4 5.4 0 0 0 9.51-.81l.39-.92a5.41 5.41 0 0 1 9.52-.82v.08a5.4 5.4 0 0 0 9.51-.8l1-2.32a5.4 5.4 0 0 1 9.52-.83l.15.23a5.4 5.4 0 0 0 9.51-.81c2.13-5 4.52-10.79 5.79-13.89a5.3 5.3 0 0 0-2.05-6.55 10.47 10.47 0 0 0-6.45-1.33l-8 .79a10.87 10.87 0 0 0-5.28 1.93 5.52 5.52 0 0 1-4.05 1.07 11.8 11.8 0 0 0-2.86-.06l-8 .79a11.2 11.2 0 0 0-4.34 1.32 5.1 5.1 0 0 1-3.58.56 11.1 11.1 0 0 0-3.58-.2l-8 .79a10.85 10.85 0 0 0-4.71 1.55 5.24 5.24 0 0 1-4.3.51 11.1 11.1 0 0 0-4.35-.4l-8 .79a10.5 10.5 0 0 0-5.75 2.29 5.74 5.74 0 0 1-4.4 1.34 11.3 11.3 0 0 0-2.6 0l-8 .79a11 11 0 0 0-4.25 1.28 5.05 5.05 0 0 1-3.51.53 11.7 11.7 0 0 0-3.62-.21l-8 .79a10.56 10.56 0 0 0-6.09 2.59 5.34 5.34 0 0 0-.74 6.78l8 12.41a5.4 5.4 0 0 0 9.72-.83" class="cls-12"/><path d="M234.17 161.84c-.44-3.11-4.21-5.15-8.42-4.55l-6.92 1c-3.53.5-6.24 2.7-6.76 5.23-1.14-2.37-4.42-3.8-8-3.29l-6.92 1c-4.2.6-7.26 3.61-6.81 6.72l13.58 19.18c.78-.76 7.14-18.36 8.37-21.76l13.34 18.84c.83-.88 8.54-22.37 8.54-22.37" style="fill:#f9df9b"/><path d="M193.83 201.92c-.7 1.64-1.44 3.39-2.16 5.11a5 5 0 0 1-8.84.78l-2.73-4.24a5 5 0 0 0-8.82.74c-.63 1.48-1.3 3.05-1.95 4.61a5 5 0 0 1-8.83.78l-1.13-1.7a5 5 0 0 0-8.82.75c-.55 1.29-1.12 2.64-1.69 4a5 5 0 0 1-8.83.78l-2-3.08a5 5 0 0 0-8.81.74l-1 2.29a5 5 0 0 1-8.82.76l-.85-1.32a5 5 0 0 0-8.82.75c-.51 1.18-1 2.43-1.56 3.67a5 5 0 0 1-8.83.78l-1-1.47a5 5 0 0 0-8.81.73c-.1.25-.21.49-.31.73a5 5 0 0 1-8.83.76 5 5 0 0 0-8.81.74c-2.27 5.29-4.9 11.7-6.2 14.86a5 5 0 0 0 1.6 5.89 10.18 10.18 0 0 0 7 1.7l8-.79a11.3 11.3 0 0 0 3.89-1.09 4.76 4.76 0 0 1 2.94-.46 11.3 11.3 0 0 0 3.15.12l8-.79a10.9 10.9 0 0 0 5.41-2 4.9 4.9 0 0 1 3.75-1 11.7 11.7 0 0 0 3 .1l8-.79a11.2 11.2 0 0 0 4.33-1.33 5.1 5.1 0 0 1 3.58-.56 11.2 11.2 0 0 0 3.59.2l8-.79a10.85 10.85 0 0 0 4.71-1.55 5.27 5.27 0 0 1 4.3-.51 11.3 11.3 0 0 0 4.35.41l8-.79a10.6 10.6 0 0 0 5.89-2.42 5.08 5.08 0 0 1 4.08-1.24 11.2 11.2 0 0 0 2.78 0l8-.79a10.9 10.9 0 0 0 5-1.7 5.12 5.12 0 0 1 4.67-.5 11.1 11.1 0 0 0 4.95.6l8-.79a10 10 0 0 0 6.9-3.46 4.87 4.87 0 0 0 .12-5.62l-8.59-13.32a5 5 0 0 0-8.95.72" class="cls-12"/></g><path d="m60.87 73.09-4.61 19.13 20.3-4.74zM37.62 96.68c-.08 4-.21 8.1-.31 12.15l3 5 11-17.71ZM98.73 79.06l-15 9.15 17.71 11-.74-17c-.61-1.03-1.29-2.09-1.97-3.15M89.69 178.79l4.61-19.13-20.31 4.74zM114.63 145.31l-4.42-7.22-11 17.71 10.91-.48c1.34-3.32 3.08-6.65 4.51-10.01M50 173.93l16.78-10.26-17.7-11.01z" class="cls-14"/><path d="m131 173.46-29.74-9.3 5-4.69c10.76-10.08 10-31.9 9.92-33C111.7 72.31 65.8 47.21 65.34 47l3.75-7.07c2 1.09 50.25 27.31 55.07 85.95v.1c0 1 1 20.91-8.23 34.42l14.19 4.43 13.69-7.5c-4.37-5.67-11.76-17-13.65-30.35-3.44-24.3 12.06-79.92 52.73-95.17l2.81 7.49c-35.26 13.22-50.87 63.56-47.62 86.56 2.32 16.45 14.7 29.78 14.82 29.91l3.54 3.76Z" class="cls-4"/><path d="m194.85 64.74 4.61 19.13-20.3-4.74zM222.1 88.33c.08 4.15.2 8 .31 12.15l-7 5-11-17.71ZM157 70.71l15 9.16-17.71 11 .74-17c.6-1.04 1.28-2.1 1.97-3.16M166.03 170.45l-4.6-19.14 20.3 4.74zM142.09 137l4.42-7.22 11 17.71-10.91-.49c-1.34-3.39-3.08-6.68-4.51-10M205.72 165.59l-16.78-10.27 17.7-11.01z" class="cls-14"/><circle cx="75.61" cy="126.04" r="12.78" class="cls-15"/><circle cx="179.87" cy="118.7" r="12.78" class="cls-15"/></g></svg>