<svg xmlns="http://www.w3.org/2000/svg" xmlns:xlink="http://www.w3.org/1999/xlink" xml:space="preserve" id="Camada_1" x="0" y="0" version="1.1" viewBox="0 0 262.2 299"><style>.st2{fill:#012442}.st3{fill:#ffbb71}.st5{fill:#3ec63e}.st6{fill:#b2f9b2}.st7{fill:#dda568}.st10{fill:#f9df9b}.st11{fill:#e02d5c}</style><g id="Camada_4"><circle cx="130.7" cy="174.7" r="123.3" style="fill:#a85ae0"/><defs><circle id="SVGID_1_" cx="130.2" cy="175.5" r="123.3"/></defs><clipPath id="SVGID_2_"><use xlink:href="#SVGID_1_" style="overflow:visible"/></clipPath><g style="clip-path:url(#SVGID_2_)"><path d="M217.5 301c-12.5 0-23.7-7.9-26.6-19.4-9.3-37.2-33-47.3-34-47.7.4.2.6.2.6.2l19.8-46.6c5.2 1.9 51.2 19.9 66.9 83 3.4 13.5-5.9 26.8-20.6 29.9-2 .4-4.1.6-6.1.6" class="st2"/><path d="M218.7 292.9c-8.3 0-15.8-5.2-17.7-13-10.6-42.7-44.2-57.5-44.5-57.7-9.2-3.8-13.3-13.6-9.2-22s14.9-12.1 24.1-8.4c2 .8 50.3 21.2 65.1 80.7 2.2 9-3.9 17.9-13.7 19.9-1.4.4-2.7.5-4.1.5" class="st3"/><path d="M34.9 301.8c-2 0-4.1-.2-6.1-.6-14.7-3.1-23.9-16.4-20.6-29.9C24 208.2 73.8 186.6 79 184.7l19.8 46.6c-1.2 1.1-2.3 2.2-3.3 3.4-1 .4-24.8 10.5-34 47.7-2.9 11.6-14.1 19.4-26.6 19.4" class="st2"/><path d="M33.7 293.8c-1.4 0-2.7-.1-4.1-.4-9.8-2-15.9-11-13.7-19.9 14.8-59.4 64.9-80.6 66.9-81.5l20.3 26.9.3.3c-1.4.6-41.4 19.1-52 61.7-1.9 7.6-9.4 12.9-17.7 12.9" class="st3"/><path id="peito" d="M193.5 301s7.6-85.6-43.8-112.2L93.2 191c-45.1 15.9-42.6 110-42.6 110z" class="st3"/><path d="M36.7 229.4c64.6 58.2 163.5 31.5 182.7 4.8-13.7-24.2-45.9-49-63.9-41.9-9.9-9.7-64.6 3.4-72.5-.2-2.5 1.9-18-1.4-46.3 37.3" style="fill:#d69451"/><path d="M63.7 249.7c-1.7-1-3.9-.5-4.9 1.3-.2.3-.3.6-.4.9-2.8 10.7-5.1 25.2-5.1 44 .1 1.9 1.7 3.4 3.6 3.3 1.9.1 3.6-1.4 3.6-3.3 0-18 2.2-32 4.9-42.2.4-1.5-.3-3.2-1.7-4M191.8 253.7c-1.5.8-2.2 2.5-1.8 4.1 2.6 10.2 4.8 24.1 4.9 42.2.1 1.9 1.7 3.4 3.6 3.3 1.9.1 3.6-1.4 3.6-3.3 0-18.8-2.3-33.3-5.1-44-.5-1.9-2.5-3.1-4.4-2.6-.2 0-.4.1-.8.3" class="st2"/></g></g><g id="Camada_3"><path d="M58.9 120.2s-20.5-4.4-26.6-4.7c-4.1-.2-18.1 11.8-18.1 11.8s10.6 12 17.4 15.3l29.4-3.5z" class="st5"/><path d="m27.6 116.6 6.4 11.2-6.6 11.6 5.3 1.8 9.9.3 3.2-12.8-5.1-12z" class="st6"/><path d="m31.3 144.7-.4-.2c-7.1-3.4-17.6-15.2-18-15.7l-1.5-1.7 1.7-1.4c3.4-2.9 14.9-12.4 19.4-12.3 6.2.3 26.1 4.1 27 4.3l1.4.3 3.2 24.1zm-14.2-17.2c3 3.3 10 10.4 14.9 13l27.6-2.3-2.2-16.6c-4.7-.9-20.1-3.7-25.1-4-2-.2-9.1 4.8-15.2 9.9" class="st2"/><path d="M32.5 129.6c-.1-1.2 24.5-4.1 24.5-4.1 1.2-.1 2.2.8 2.3 1.9.1 1.2-.8 2.2-1.9 2.3 0 0-24.8 1-24.9-.1" class="st2"/><path d="M60.3 100.3S41.6 90.2 35.7 88.2c-3.9-1.3-20.3 6.3-20.3 6.3s7.4 14.6 13.3 19.7l29.2 4.9z" class="st5"/><path d="m30.9 88 3.6 12.7-9.1 9.3 4.6 3.2 9.5 3.1 6.1-11.5-2.1-13z" class="st6"/><path d="m27.8 116.2-.4-.3c-6-5.3-13.4-19.7-13.7-20.3l-1-2 1.9-.9c4-1.9 17.3-7.8 21.6-6.4 5.9 2 24.3 11.3 25.1 11.7l1.3.6-2.6 24.2zm-9.6-20.6c2.2 4 7.2 12.8 11.3 16.7l27.2 5.5 1.8-16.7c-4.3-2.2-18.5-9.2-23.3-10.9-1.9-.6-9.9 2.2-17 5.4" class="st2"/><path d="M32.5 102.5c.2-1.1 24.6 2.9 24.6 2.9 1.2.2 2 1.3 1.8 2.5-.2 1.1-1.2 1.8-2.3 1.7h-.2c.1 0-24.1-6-23.9-7.1" class="st2"/><path d="M60.7 136.5s-20.7 3.4-26.5 5.4c-3.9 1.3-13.4 17.8-13.4 17.8s13.7 7.4 21.1 8l26.6-14.1z" class="st5"/><path d="m30.1 144.6 9.5 8.2-2.7 13.4 5.5-.3 9.4-3.3-.8-13.3-8.5-9.4z" class="st6"/><path d="M42.2 169.7h-.5c-7.7-.6-21.2-7.9-21.8-8.2l-1.9-1 1.1-1.9c2.3-4 10.2-17.2 14.5-18.7 5.9-2 25.9-5.8 26.7-5.9l1.4-.3L72 155.2zm-18.7-10.9c3.9 1.9 12.6 6.1 18 6.7l25.2-12.3-7.2-14.8c-4.7.9-20 3.9-24.9 5.5-1.7.5-6.9 7.8-11.1 14.9" class="st2"/><path d="M33.6 154.3c-.4-1 21.8-12.9 21.8-12.9 1-.5 2.2-.1 2.7.8 0 0 0 .1.1.1.5 1.1-.1 2.4-1.2 2.9 0 .1-23 10.1-23.4 9.1" class="st2"/><path d="M200.8 120.2s20.5-4.4 26.6-4.7c4.1-.2 18.1 11.8 18.1 11.8s-10.6 12-17.4 15.3l-29.4-3.5z" class="st5"/><path d="m232.1 116.6-6.4 11.2 6.6 11.6-5.3 1.8-9.9.3-3.2-12.8 5.1-12z" class="st6"/><path d="m195.8 142 3.2-24.1 1.4-.3c.8-.2 20.8-4 27-4.3 4.4-.2 15.9 9.3 19.4 12.3l1.7 1.4-1.5 1.7c-.4.5-10.9 12.3-18 15.7l-.4.2zm31.7-24.4c-5.1.2-20.4 3.1-25.1 4l-2.3 16.6 27.6 2.3c4.9-2.6 11.8-9.7 14.9-13-6.1-5.1-13.2-10.1-15.1-9.9" class="st2"/><path d="M225.2 129.6c.1-1.2-24.5-4.1-24.5-4.1-1.2-.1-2.2.8-2.4 1.9-.1 1.2.8 2.2 1.9 2.3.1 0 24.9 1 25-.1" class="st2"/><path d="M199.4 100.3s18.8-10.1 24.7-12.1c3.9-1.3 20.3 6.3 20.3 6.3s-7.4 14.6-13.2 19.7l-29.2 4.9z" class="st5"/><path d="m228.8 88-3.6 12.7 9.1 9.3-4.6 3.2-9.5 3.1-6.1-11.5 2.1-13z" class="st6"/><path d="m199.7 122.8-2.5-24.2 1.3-.6c.8-.4 19.1-9.7 25.1-11.7 4.2-1.4 17.6 4.5 21.6 6.4l1.9.9-1 2c-.3.6-7.7 15-13.7 20.3l-.4.3zm24.9-32.6c-4.9 1.6-19 8.7-23.3 10.9l1.7 16.7 27.2-5.5c4.1-3.9 9.2-12.7 11.3-16.7-7.1-3.2-15.1-6-16.9-5.4" class="st2"/><path d="M225.2 102.5c-.2-1.1-24.6 2.9-24.6 2.9-1.2.2-2 1.3-1.8 2.5.2 1.1 1.2 1.8 2.3 1.7h.2c-.1 0 24.1-6 23.9-7.1" class="st2"/><path d="M199 136.5s20.7 3.4 26.5 5.4c3.9 1.3 13.4 17.8 13.4 17.8s-13.7 7.4-21.1 8l-26.6-14.1z" class="st5"/><path d="m229.6 144.6-9.5 8.2 2.7 13.4-5.5-.3-9.4-3.3.9-13.3 8.4-9.4z" class="st6"/><path d="m187.6 155.1 10.4-21.5 1.4.3c.8.2 20.8 3.9 26.7 5.9 4.2 1.5 12.1 14.7 14.5 18.7l1.1 1.9-1.9 1c-.6.3-14.1 7.6-21.8 8.2h-.5zm37.3-11.3c-4.9-1.7-20.2-4.6-24.8-5.5l-7.2 14.8 25.2 12.3c5.4-.6 14.1-4.8 18-6.7-4.1-7-9.3-14.3-11.2-14.9" class="st2"/><path d="M226.1 154.3c.5-1-21.8-12.9-21.8-12.9-1-.5-2.2-.1-2.8.9 0 0 0 .1-.1.1-.4 1.1.1 2.4 1.2 2.9.1 0 23.1 10 23.5 9" class="st2"/><path d="M172.3 25.6c-4.6 8.3-8.8 15.3-10.5 18.4s-2.5-7.5-2.9-19.3c-21-1-42-.9-63 .2l-4.7 26.5-4-26.1c-12.6.8-26.1 1.9-40.5 3.6l27.4 208.6 41 7.5 2.3-23.7 11.4 37.5 47.8-6.2 4.6-38.7 5.7 23.7 9.1-3.7 18.2-202.3s-13.9-3.8-41.9-6" class="st7"/><path d="m115.9 206.4-3.4 35-35.9-6.6L50 31.9c11.7-1.3 23.4-2.3 34.7-3l6.2 40.6 7.4-41.4c11.1-.5 22-.8 32.5-.8 8.7 0 17.2.2 25.3.6.7 17.2 1.9 19.9 5.2 19.9 1.3 0 2.5-.8 3-2.1.7-1.3 1.9-3.3 3.4-5.9 1.8-3 3.9-6.7 6.2-10.8 19.8 1.6 32.2 4 37.2 5.1l-17.8 197.5-4.4 1.8-8.7-36.1-6.2 52.4-43.3 5.6z" class="st7"/><path d="M130.8 30.5c7.7 0 15.3.1 22.6.4.2 3.3 7 21.9 7.9 23.2 1.1 0 12.2-17.4 14.1-20.8 10.9.9 21.8 2.3 32.5 4.4l-17.3 191.7-3.9-17.1-7.6-31.6-3.8 32.4-3.9 33.7-38.7 5-9.9-32.5-8.5-28-2.8 29.3-1.6 17-30.7-5.6L53.3 34.7c9.8-1 19.5-1.9 29-2.5l3.1 20.4 5.3 34.8 6.2-34.6 3.9-21.6c10.2-.5 20.4-.7 30-.7m.1-6.4c-10.6 0-22.2.3-34.9.9l-4.8 26.5-4-26.1c-12.6.8-26.1 1.9-40.5 3.6l27.4 208.6 41 7.5 2.3-23.7 11.4 37.5 47.8-6.2 4.6-38.7 5.7 23.7 9.1-3.7 18.2-202.3s-14-3.8-41.9-5.9c-4.6 8.3-8.8 15.3-10.5 18.4-.2.3-.4.5-.5.5-1.3 0-1.9-9.3-2.4-19.8-8.4-.4-17.8-.7-28.2-.7z" style="fill:#ffd9b6"/><path d="M130.8 24.1c10.3 0 19.7.3 28.2.7.4 10.4 1.1 19.8 2.4 19.8.2 0 .3-.2.5-.5 1.7-3.1 5.9-10.1 10.5-18.4 27.9 2.2 41.9 5.9 41.9 5.9L196 233.9l-9.1 3.7-5.7-23.7-4.6 38.8-47.9 6.2-11.4-37.5-2.3 23.7-41-7.5L46.7 29q21.6-2.4 40.5-3.6l4 26.1L95.9 25c12.6-.6 24.3-.9 34.9-.9m0-8.8c-11.4 0-23.3.3-35.3.9-1.5.1-3 .6-4.3 1.4-1.2-.6-2.5-1-3.9-1h-.6c-13.3.8-27.1 2-40.9 3.6-4.8.5-8.3 4.9-7.7 9.7v.2l27.3 208.6c.5 3.8 3.4 6.8 7.1 7.5l41 7.5c.5.1 1 .1 1.6.1 1 0 2-.2 2.9-.5l2.4 8c1.1 3.7 4.5 6.2 8.4 6.2.4 0 .8 0 1.1-.1l47.9-6.3c4-.5 7.1-3.7 7.6-7.7l.9-7.3h.7c1.1 0 2.3-.2 3.3-.7l9.1-3.7c3-1.2 5.1-4.1 5.4-7.3L223 32.3c.4-4.2-2.3-8.1-6.4-9.2-.6-.2-15.1-4-43.5-6.2h-.7c-2.4 0-4.7 1-6.4 2.7-1.6-2.1-4-3.5-6.6-3.6-9.2-.4-18.8-.6-28.6-.7" class="st2"/><path d="m61.5 58 65.4 23.3 72.2-17.5-4-18.2L128.4 63 65.2 41.7z" style="fill:#ffea55"/><path d="m125.4 105.4-4.6 23.9h21.3l-6.1-23.6z" class="st10"/><path d="m125.4 105.4 10.6.3 6.1 23.7h-21.3zm-4.9-5.6-.9 4.7-4.6 23.9-1.3 6.6 7 9.3H142l7.4-9.3-1.8-6.9-6.1-23.7-1.1-4.1-4.4-.1-10.7-.3z" class="st2"/><path d="M197.1 153.4c-4.7-5.1-11.6-7.5-18.4-6.5l-98.2 15.7c-6 1-11.4 4.5-14.7 9.7-3.5 5.4-4.9 12-3.8 18.3l2.9 17.7c1.9 11.5 11 19.8 21.6 19.8h1.2l92.6-5.4c10.8-.6 19.5-9.7 20.7-21.5l2.7-28c.8-7.1-1.6-14.4-6.6-19.8" class="st11"/><path d="m82.5 177.4 98.2-15.7c5.4-.9 10.1 4.1 9.5 10l-2.7 27.9c-.4 4.5-3.8 8-7.9 8.2L87 213.3c-4.2.3-7.9-3-8.7-7.5l-2.9-17.7c-.7-5.1 2.4-10 7.1-10.7" class="st2"/><defs><path id="SVGID_3_" d="M178.1 203.7c2.5-.2 4.4-2.2 4.5-4.7l2.6-27.1c.2-1.6-.4-3.2-1.5-4.4-.9-.9-2.1-1.5-3.3-1.5-.2 0-.5 0-.7.1l-95.3 15.2c-1.3.2-2.5 1-3.2 2.1-.8 1.2-1.1 2.6-.8 4l2.8 17.1c.3 2.5 2.5 4.4 5 4.3z"/></defs><clipPath id="SVGID_4_"><use xlink:href="#SVGID_3_" style="overflow:visible"/></clipPath><g style="clip-path:url(#SVGID_4_)"><path d="M87.8 164.9H93c3.1 0 5.7 2.6 5.7 5.7v15.3c0 3.1-2.6 5.7-5.7 5.7h-5.2c-3.1 0-5.7-2.6-5.7-5.7v-15.3c0-3.1 2.5-5.7 5.7-5.7M108.6 162.5h5.2c3.1 0 5.7 2.6 5.7 5.7v15.3c0 3.1-2.6 5.7-5.7 5.7h-5.2c-3.1 0-5.7-2.6-5.7-5.7v-15.3c0-3.1 2.5-5.7 5.7-5.7M129.4 160.1h5.2c3.1 0 5.7 2.6 5.7 5.7V181c0 3.1-2.6 5.7-5.7 5.7h-5.2c-3.1 0-5.7-2.6-5.7-5.7v-15.3c0-3.1 2.5-5.6 5.7-5.6M150.1 157.7h5.2c3.1 0 5.7 2.6 5.7 5.7v15.3c0 3.1-2.6 5.7-5.7 5.7h-5.2c-3.1 0-5.7-2.6-5.7-5.7v-15.3c0-3.2 2.6-5.7 5.7-5.7M170.9 154.8h5.2c3.1 0 5.7 2.6 5.7 5.7v15.3c0 3.1-2.6 5.7-5.7 5.7h-5.2c-3.1 0-5.7-2.6-5.7-5.7v-15.3c0-3.1 2.6-5.7 5.7-5.7M176.1 217.6h-5.2c-3.1 0-5.7-2.6-5.7-5.7v-15.3c0-3.1 2.6-5.7 5.7-5.7h5.2c3.1 0 5.7 2.6 5.7 5.7v15.3c0 3.2-2.6 5.7-5.7 5.7M155.3 220h-5.2c-3.1 0-5.7-2.6-5.7-5.7V199c0-3.1 2.6-5.7 5.7-5.7h5.2c3.1 0 5.7 2.6 5.7 5.7v15.3c0 3.2-2.5 5.7-5.7 5.7M134.5 222.4h-5.2c-3.1 0-5.7-2.6-5.7-5.7v-15.3c0-3.1 2.6-5.7 5.7-5.7h5.2c3.1 0 5.7 2.6 5.7 5.7v15.3c0 3.2-2.5 5.7-5.7 5.7M113.8 224.9h-5.2c-3.1 0-5.7-2.6-5.7-5.7v-15.3c0-3.1 2.6-5.7 5.7-5.7h5.2c3.1 0 5.7 2.6 5.7 5.7v15.3c0 3.1-2.6 5.7-5.7 5.7M93 227.7h-5.2c-3.1 0-5.7-2.6-5.7-5.7v-15.3c0-3.1 2.6-5.7 5.7-5.7H93c3.1 0 5.7 2.6 5.7 5.7V222c0 3.2-2.6 5.7-5.7 5.7" class="st10"/></g><path d="M169.4 243.1c-1.5 0-2.9-.1-4.4-.4-7.2-1.3-12-5.7-13.2-12.1-1.7-8.5-4.9-16.7-9.4-24.2l-.5-.7v-1c-.1-1.5-.3-9.4 2.6-13.1 3.6-4.7 16.9-3.9 19.6-3.1.9-.1 1.8-.3 2.7-.7 3.4-1.1 8.6-2.7 13.2 1.7 3 2.8 15.7 32 9.5 43.7-3.5 6.6-12.3 9.9-20.1 9.9" class="st2"/><path d="M86.6 231.4c-12.1 0-22.3-9.4-24.5-22.5l-2.9-17.7c-1.2-7.2.3-14.6 4.3-20.7 3.7-5.9 9.8-9.9 16.6-11.1l98.2-15.7c7.7-1.2 15.5 1.5 20.8 7.3 5.6 6.1 8.4 14.3 7.5 22.5l-2.7 27.9c-1.3 13.4-11.1 23.7-23.4 24.4l-92.6 5.4c-.5.2-.9.2-1.3.2m95.3-81.5c-.9 0-1.9.1-2.8.2l-98.2 15.7c-5.2.9-9.9 4-12.7 8.4-3.1 4.7-4.2 10.4-3.3 15.9l2.9 17.7c1.6 10 9.5 17.2 18.7 17.2h1l92.6-5.4c9.4-.5 16.9-8.4 17.9-18.7l2.7-28c.6-6.3-1.5-12.6-5.8-17.2-3.2-3.6-8-5.7-13-5.8" class="st2"/><path d="M184 209.5c-2.6-8.4-6-15.4-6.9-16.3-2.8-2.6-6.2-1.6-9.1-.7 4.6 8 3.4 18.8 3.4 19.3l-.8 6.8-2-6.5c-2.1-6.7-5.7-12.8-10.7-17.8-1.2-.3-6.2-1.2-12.2 2.9-1.3.9-.2 4.8.5 6.5 4.8 8 8.2 16.7 10 25.9 1.1 5.9 6.5 7.8 9.6 8.3 7.9 1.4 17.2-1.9 20-7.1 1.9-3.7 1.3-11.2-1.8-21.3" class="st11"/><path d="m139.5 89.9 25.8 37.8c4.9 7.1 15.5 9.4 24.3 2.9l29.6-43.3c3-11.1-5.3-19.4-15-19.4h-55c-11.8 3.4-14.9 14.4-9.7 22" class="st2"/><path d="M152.6 75h51.5c2.8 0 5.3 1.4 6.8 3.7 1.4 2.3 1.3 5.2-.2 7.3l-25.8 37.7c-2.6 3.6-7.7 4.4-11.3 1.8q-1.05-.75-1.8-1.8L146.1 86c-1.5-2.2-1.6-5.1-.2-7.3 1.4-2.4 4-3.8 6.7-3.7m43.5 11.8h-35.4l17.7 26z" class="st11"/><path d="m44.3 89.9 25.8 37.8c4.9 7.1 15.5 9.4 24.3 2.9L124 87.2c3-11.1-5.3-19.4-15-19.4H54c-11.7 3.5-14.8 14.5-9.7 22.1" class="st2"/><path d="M57.5 75H109c2.8 0 5.3 1.4 6.8 3.7 1.4 2.3 1.3 5.2-.2 7.3l-25.8 37.7c-2.6 3.6-7.7 4.4-11.3 1.8q-1.05-.75-1.8-1.8L50.9 86c-1.5-2.2-1.6-5.1-.2-7.3 1.4-2.4 4-3.8 6.8-3.7m43.4 11.8H65.5l17.7 26z" class="st11"/></g></svg>