<svg xmlns="http://www.w3.org/2000/svg" viewBox="0 0 262.17 298.96"><defs><clipPath id="clip-path"><circle cx="130.76" cy="175.25" r="123.33" style="fill:none"/></clipPath><style>.cls-10{fill:none}.cls-4{fill:#012442}.cls-5{fill:#b167e5}.cls-6{fill:#7a43aa}.cls-10{stroke:#012442;stroke-miterlimit:10}.cls-8{fill:#ead7ff}.cls-9{fill:#f7c434}.cls-10{stroke-linecap:round;stroke-width:7px}.cls-11{fill:#fff}.cls-12{fill:#00c9ff}.cls-14{fill:#a4f2ff}.cls-15{fill:#ada5b5}</style></defs><g id="Camada_4" data-name="Camada 4"><circle cx="130.7" cy="174.74" r="123.33" style="fill:#3ec63e"/><g style="clip-path:url(#clip-path)"><path d="M218.06 300.79c-12.47 0-23.73-7.85-26.62-19.43-9.27-37.21-33-47.33-34-47.74l.6.22 19.82-46.57c5.19 1.85 51.16 19.88 66.89 83 3.35 13.46-5.86 26.85-20.57 29.91a29.5 29.5 0 0 1-6.12.61" class="cls-4"/><path d="M219.26 292.72c-8.32 0-15.82-5.24-17.75-13-10.64-42.71-44.15-57.53-44.49-57.67-9.18-3.76-13.28-13.62-9.16-22s14.89-12.14 24.07-8.38c2 .84 50.29 21.24 65.1 80.66 2.24 9-3.9 17.89-13.71 19.94a20 20 0 0 1-4.06.45" class="cls-5"/><path d="M35.46 301.63a30.2 30.2 0 0 1-6.09-.63c-14.71-3.07-23.92-16.46-20.57-29.92C24.53 208 74.45 186.34 79.64 184.5l19.82 46.56a46 46 0 0 0-3.35 3.39c-1 .41-24.76 10.54-34 47.74-2.92 11.58-14.18 19.44-26.65 19.44" class="cls-4"/><path d="M34.26 293.55a19.4 19.4 0 0 1-4.06-.42c-9.81-2-15.95-11-13.71-19.94 14.81-59.42 64.87-80.65 66.92-81.49l20.31 26.92.3.28c-1.38.59-41.39 19.06-52 61.69-1.94 7.73-9.45 12.96-17.76 12.96" class="cls-5"/><path id="peito" d="M194.05 300.81s7.64-85.64-43.82-112.24l-56.43 2.25c-45.06 15.92-42.59 110.06-42.59 110.06Z" class="cls-5"/><path d="M64.21 249.49a3.59 3.59 0 0 0-5.32 2.17c-2.8 10.7-5.11 25.23-5.12 44a3.49 3.49 0 0 0 3.64 3.34 3.49 3.49 0 0 0 3.64-3.33c0-18 2.23-32 4.88-42.17a3.59 3.59 0 0 0-1.66-4Z" class="cls-4"/><path d="M50.37 246.61c1.55 1.28 9.23 6.74 2.74 2.28 2.32 1.59 4.53 3.36 6.85 5a149 149 0 0 0 14.32 8.83c2 1.08 4.07 2.08 6.13 3.06a31.5 31.5 0 0 1 3.92 1.6A107 107 0 0 0 98 271.24c1.59.34 3.19.59 4.79.91l1.53.24 1.76.23c4.41 0 4 .28 2.77.29l.56.07a147 147 0 0 0 17.19.54c4.68-.11 9.31-.7 14-1.09.39 0 1.22-.11 2.67-.2 1.48-.25 3-.48 4.43-.75q3.93-.71 7.81-1.58a242 242 0 0 0 33.15-10c1.17-.44 2.32-.9 3.48-1.35-.18-1.16-.38-2.33-.59-3.51.58 1 1.15 2 1.71 3.07l.35-.14c.38-.15 1-.33 1.56-.49 1.8-.66 3.57-1.71 5.27-2.49 4.07-1.88 8.11-3.86 12.11-5.89q5-2.53 9.94-5.28c.79-.83 1.59-1.66 2.37-2.51-20-35.74-51.25-49-52.89-49.63a19.73 19.73 0 0 0-15.76.38 65 65 0 0 0-5.94-3.51l-56.47 2.27a39 39 0 0 0-8.06 4l-2.33-3.09c-1.49.61-28.48 12.06-48.74 41.22 5.14 4.63 10.33 9.24 15.7 13.66" class="cls-6"/><path d="M192.41 249.48a3.57 3.57 0 0 0-1.8 4.07c2.63 10.18 4.84 24.09 4.84 42.16a3.5 3.5 0 0 0 3.65 3.29 3.49 3.49 0 0 0 3.64-3.33c0-18.8-2.32-33.32-5.11-44a3.58 3.58 0 0 0-5.14-2.27Z" class="cls-4"/></g></g><g id="Camada_3" data-name="Camada 3"><path d="M235.18 196.82c-1.43-36.85-19.34-101-42.26-114.63-19.08-11.35-50.32-15.62-60.28-16.74 0-.22 0-.34.05-.32l-1.6.16-1.61-.16v.34c-10.08 1.13-41.17 5.41-60.17 16.72C46.33 95.84 28.42 160 27 196.82c-1.42 36.54 54.26 63 104.1 62.62 49.83.39 105.5-26.08 104.08-62.62" class="cls-5"/><path d="M233.86 190.34c-8.68 30.76-58.07 52-102.77 51.67-44.71.34-94.1-20.91-102.78-51.67-.69 5.4-1.14 1.8-1.32 6.48-1.42 36.54 54.26 63 104.1 62.62 49.84.39 105.51-26.08 104.09-62.62-.18-4.68-.63-1.08-1.32-6.48" class="cls-6"/><path d="M234.62 195.08c-1.44-36.85-19.34-101-42.27-114.63-19.07-11.35-53.06-15.62-63-16.74 0-.22-37.85 3.25-59.72 16.74-22.69 14-41.75 77.78-43.18 114.63-1.42 36.54 54.25 63 104.09 62.63 49.82.38 105.46-26.09 104.08-62.63Z" style="fill:none;stroke:#012442;stroke-miterlimit:10;stroke-width:8px"/><path d="M53.26 105.16s-15.94 28.3-19.51 66.6c-2.67 28.6 27.88 32.16 52 25.05 38.31-11.29 38.55-54 34-74.18s-38.25-26.7-66.49-17.47" class="cls-8"/><path d="M19.18 86.43a2.78 2.78 0 0 1 5.17-1.49c3.25 5.66 9.87 11.14 23.22 12.11 29.15 2.12 44.29-4.88 63.83 9.14s12.64 47.36 4.1 52.41S58 142.28 58 142.28s-22.89-7.53-30.28-24.35c0 0 9 2.78 16.33 2-.05-.02-24.16-8.7-24.87-33.5" class="cls-6"/><path d="M114.69 161.53c-3.79.87-11.88.24-32-6.87-12.61-4.46-24.41-9.54-25.63-10.07-1.91-.65-22.22-7.81-30.6-23.47a3.48 3.48 0 0 1 .5-3.94 3.46 3.46 0 0 1 3.42-1.07c.79.19 1.77.42 2.87.63a45 45 0 0 1-6.5-5.74c-6.56-7.08-13.17-19.29-8.45-37.81a2.78 2.78 0 0 1 3.27-2 2.76 2.76 0 0 1 2.21 2.63 20.9 20.9 0 0 0 4.48 12.48c4 4.88 10.59 7.68 19.49 8.33a222 222 0 0 0 23.4.23c15.39-.44 27.54-.79 41.69 9.37 9.25 6.64 14.2 18.4 13.59 32.27-.5 11-4.56 21.25-9.67 24.27a7.4 7.4 0 0 1-2.07.76M32.6 121.65c8.58 12.36 25.94 18.22 26.14 18.28l.26.07c23.52 10.25 50.62 19.2 55.3 16.45 3.13-1.85 6.79-10.11 7.24-20.23.25-5.76-.36-20-11.53-28-12.84-9.22-23.7-8.89-38.72-8.46a224 224 0 0 1-23.9-.25c-10.34-.75-18.07-4.17-23-10.16a23.3 23.3 0 0 1-2.76-4.23c-.12 23.67 22.11 32.07 23.21 32.47a5.56 5.56 0 0 1-5.84 4.87 52 52 0 0 1-6.4-.81m-8.77-50" class="cls-4"/><circle cx="83.79" cy="148.9" r="33.02" class="cls-9"/><circle cx="83.97" cy="148.9" r="34.76" class="cls-10"/><path d="M208.92 105.16s15.94 28.3 19.51 66.6c2.66 28.6-27.89 32.16-52 25.05-38.3-11.29-38.54-54-34-74.18s38.24-26.7 66.49-17.47" class="cls-8"/><path d="M243 86.43a2.78 2.78 0 0 0-5.17-1.49c-3.26 5.66-9.83 11.14-23.23 12.11-29.14 2.12-44.29-4.88-63.82 9.14s-12.65 47.36-4.11 52.41 57.54-16.32 57.54-16.32 22.89-7.53 30.28-24.35c0 0-9 2.78-16.32 2 0-.02 24.11-8.7 24.83-33.5" class="cls-6"/><path d="M145.41 160.73c-5.11-3-9.17-13.23-9.66-24.27-.62-13.87 4.33-25.63 13.58-32.27C163.48 94 175.64 94.38 191 94.82a222 222 0 0 0 23.4-.23c8.91-.65 15.46-3.45 19.49-8.33a20.9 20.9 0 0 0 4.48-12.48 2.76 2.76 0 0 1 2.21-2.63 2.78 2.78 0 0 1 3.27 2c4.72 18.52-1.89 30.73-8.45 37.81a45.3 45.3 0 0 1-6.51 5.76c1.1-.21 2.07-.44 2.86-.63a3.49 3.49 0 0 1 3.43 1.07 3.49 3.49 0 0 1 .49 3.94c-8.37 15.66-28.68 22.82-30.6 23.47-1.22.53-13 5.61-25.62 10.07-20.11 7.11-28.19 7.74-32 6.87a7.5 7.5 0 0 1-2.04-.78m77.78-38.27a5.55 5.55 0 0 1-5.86-4.87c1.09-.4 23.33-8.8 23.21-32.47a24 24 0 0 1-2.77 4.23c-4.91 6-12.65 9.41-23 10.16a224 224 0 0 1-23.9.25c-15-.43-25.87-.75-38.66 8.44-11.18 8-11.79 22.28-11.54 28 .46 10.12 4.11 18.38 7.25 20.23 4.68 2.75 31.77-6.2 55.29-16.45l.22-.09c.19-.06 17.55-5.92 26.14-18.28a52 52 0 0 1-6.38.85m15.14-50.83" class="cls-4"/><circle cx="178.38" cy="148.9" r="33.02" class="cls-9"/><circle cx="178.2" cy="148.9" r="34.76" class="cls-10"/><circle cx="84.05" cy="149.08" r="19.34" class="cls-4"/><circle cx="178.33" cy="149.08" r="19.34" class="cls-4"/><circle cx="86.28" cy="143.71" r="6.45" class="cls-11"/><circle cx="175.66" cy="142.99" r="6.45" class="cls-11"/><path d="M108.4 188.63s-1 32.88 24 32.88 24-36.09 24-36.09Z" class="cls-6"/><path d="M151.44 180.07a27.5 27.5 0 0 1 .64 5.94c0 12.93-8.79 23.41-19.64 23.41s-19.65-10.48-19.65-23.42a27.5 27.5 0 0 1 .65-5.94h38m5.63-7h-49.26l-1.21 5.49a34.4 34.4 0 0 0-.81 7.45c0 16.77 12 30.41 26.65 30.41s26.64-13.64 26.64-30.41a35 35 0 0 0-.8-7.45z" class="cls-4"/><path d="M113.44 180.07a27.5 27.5 0 0 0-.65 5.94c0 12.93 8.8 23.41 19.65 23.41s19.64-10.48 19.64-23.41a27.5 27.5 0 0 0-.64-5.94Z" class="cls-9"/><path d="M116.4 183.25a4.09 4.09 0 0 1-1.88-6.55 22.27 22.27 0 0 1 17.54-8.25 25.4 25.4 0 0 1 18.37 8.06 4.08 4.08 0 0 1-1.79 6.77l-6 1.45a3.78 3.78 0 0 0-2.23 1.55l-5 7.28a3.67 3.67 0 0 1-6.06.11l-5.51-7.53a3.8 3.8 0 0 0-2.05-1.42Z" class="cls-9"/><path d="M132.06 168.45a25.4 25.4 0 0 1 18.37 8.06 4.08 4.08 0 0 1-1.8 6.77l-6 1.44a3.84 3.84 0 0 0-2.23 1.56l-5 7.28a3.66 3.66 0 0 1-6.06.11l-5.51-7.53a3.8 3.8 0 0 0-2.05-1.42l-5.42-1.47a4.09 4.09 0 0 1-1.88-6.55 22.27 22.27 0 0 1 17.54-8.25m0-7a29.08 29.08 0 0 0-22.92 10.77 11.15 11.15 0 0 0-2.06 10.54 10.81 10.81 0 0 0 7.48 7.25l4.32 1.17 4.86 6.63a10.65 10.65 0 0 0 17.48-.31l4.28-6.27 4.78-1.15a10.9 10.9 0 0 0 7.86-7.6 11.13 11.13 0 0 0-2.7-10.86 32.3 32.3 0 0 0-23.38-10.17" class="cls-4"/><ellipse cx="128.09" cy="66.97" class="cls-4" rx="42.77" ry="12.46"/><path d="m87.93 14.35 14.54 48.37s23 9.62 52.1 0l13.67-48.47Z" class="cls-4"/><ellipse cx="128.09" cy="14.43" class="cls-4" rx="40.3" ry="5.79"/><path d="M106.54 64.18a82.5 82.5 0 0 0 44.07-.37l3.28-12.1a106.7 106.7 0 0 1-51.21.32Z" class="cls-12"/><path d="m119.87 20.09 3.91 29.74s8.61.78 14.09 0l2.35-30.53Z" style="fill:#205e84"/><circle cx="203.48" cy="187.65" r="21.91" class="cls-12"/><path d="M188.59 203.71c10.62-9.92 21.56-19.48 32.66-28.85a22 22 0 0 0-7.46-6.52Q198.9 182 184.08 195.82a8 8 0 0 1-.69.55 22 22 0 0 0 5.2 7.34M195.18 207.92a21.6 21.6 0 0 0 8.3 1.64 21.91 21.91 0 0 0 21.91-21.91 21.6 21.6 0 0 0-.78-5.77q-14.98 12.7-29.43 26.04" class="cls-14"/><path d="M203.48 212.56a24.91 24.91 0 1 1 24.91-24.91 24.93 24.93 0 0 1-24.91 24.91m0-43.82a18.91 18.91 0 1 0 18.91 18.91 18.93 18.93 0 0 0-18.91-18.91" class="cls-4"/><path d="M131.87 225.22s-19.74 13.08-17.74 18.21c3.15 8.08 22.83 9.24 32.3 3.92 7.74-4.35-14.56-22.13-14.56-22.13M111.7 86.48S128 97.3 131.13 115.3c0 0 6.26-21.3 20.35-28.34Z" class="cls-8"/><circle cx="204.78" cy="231.09" r="6.21" class="cls-15"/><path d="M204.78 239.3a8.22 8.22 0 1 1 8.21-8.21 8.22 8.22 0 0 1-8.21 8.21m0-12.43a4.22 4.22 0 1 0 4.21 4.22 4.22 4.22 0 0 0-4.21-4.22" class="cls-4"/><circle cx="214.78" cy="241.09" r="6.21" class="cls-15"/><path d="M214.78 249.3a8.22 8.22 0 1 1 8.21-8.21 8.22 8.22 0 0 1-8.21 8.21m0-12.43a4.22 4.22 0 1 0 4.21 4.22 4.22 4.22 0 0 0-4.21-4.22" class="cls-4"/><path d="M228.78 247.3a6.2 6.2 0 0 0 3.46-1.05c.82-1.09 1.65-2.18 2.46-3.28a6.1 6.1 0 0 0 .29-1.88 6.21 6.21 0 1 0-6.21 6.21" class="cls-15"/><path d="M230.1 249.18c2.21-3.13 4.67-6.14 6.8-9.29a8.28 8.28 0 1 0-6.8 9.29m-5.53-8.09a4.21 4.21 0 1 1 4.21 4.21 4.22 4.22 0 0 1-4.21-4.21" class="cls-4"/><circle cx="204.78" cy="217.09" r="6.21" class="cls-15"/><path d="M204.78 225.3a8.22 8.22 0 1 1 8.21-8.21 8.22 8.22 0 0 1-8.21 8.21m0-12.43a4.22 4.22 0 1 0 4.21 4.22 4.22 4.22 0 0 0-4.21-4.22" class="cls-4"/></g></svg>