<svg xmlns="http://www.w3.org/2000/svg" id="Camada_4" data-name="Camada 4" viewBox="0 0 262.17 298.96"><defs><clipPath id="clip-path"><circle cx="131.1" cy="175.2" r="123.33" style="fill:none"/></clipPath><style>.cls-16{fill:none}.cls-11,.cls-16,.cls-9{stroke:#012442}.cls-16,.cls-9{stroke-linecap:round;stroke-linejoin:round}.cls-8{fill:#b79f69}.cls-9{fill:#d6bf85}.cls-16,.cls-9{stroke-width:8px}.cls-11{stroke-miterlimit:10}.cls-11,.cls-18{fill:#fff}.cls-11{stroke-width:7px}.cls-12{fill:#012442}.cls-15{fill:#ffed9f}</style></defs><circle cx="131.07" cy="175.07" r="123.33" style="fill:#00c9ff"/><g style="clip-path:url(#clip-path)"><path d="M214.6 154.65a242 242 0 0 1 30.65 45.77 45.3 45.3 0 0 0-18.64 1 144.5 144.5 0 0 1 21 43.05 74.7 74.7 0 0 0-18.54-2c14.68 25.5 21.11 62.74 21.11 62.74H18.89S25.32 268 40 242.49a74.6 74.6 0 0 0-18.54 2 144.8 144.8 0 0 1 21-43.05 45.3 45.3 0 0 0-18.64-1 242 242 0 0 1 30.66-45.77Z" style="fill:#9e6638"/><path d="M41.78 203.76A144 144 0 0 0 29 225.32c4.19-1.06 8.48-1.86 12.62-3.09a1 1 0 0 1 1.16.48 78.1 78.1 0 0 0 31.52 34.07l.18-.23c.82-1 2.28.43 1.46 1.46a23 23 0 0 0-2 3 12.2 12.2 0 0 0-1 10.71c1.52 3.74 4.72 6.65 7.94 8.94 8.72 6.18 19.4 9.63 29.67 12.2a144 144 0 0 0 15.25 3 61 61 0 0 0 11.05.71 76.4 76.4 0 0 0 19.85-3.87 70.9 70.9 0 0 0 19.69-9.9 50.6 50.6 0 0 0 14.47-16 44.8 44.8 0 0 0 5.6-21.92 1.07 1.07 0 0 1 .76-1 81 81 0 0 0 12-5.2 58.3 58.3 0 0 0 16.37-13 60.5 60.5 0 0 0 7.46-11q-3.3-5.62-7.09-10.93a45.3 45.3 0 0 1 18.64-1A242 242 0 0 0 213.89 157H53.8a241.6 241.6 0 0 0-30.66 45.77 45.3 45.3 0 0 1 18.64.99" style="fill:#845029"/><path d="M215 153.1a242 242 0 0 1 30.65 45.77 45.1 45.1 0 0 0-18.64 1 144.9 144.9 0 0 1 21 43.05 74.7 74.7 0 0 0-18.55-2c14.69 25.5 21.12 62.73 21.12 62.73H19.28s6.43-37.23 21.12-62.73a74.8 74.8 0 0 0-18.55 2 145.1 145.1 0 0 1 21-43.05 45.1 45.1 0 0 0-18.64-1A241.6 241.6 0 0 1 54.9 153.1Z" style="fill:none;stroke:#012442;stroke-linecap:round;stroke-linejoin:round;stroke-width:9px"/></g><path d="M220.09 120.27c-11.05.35-34 .8-44.9.69C178 79.18 172.29 42 121 44.39 76.15 46.62 73.68 85.45 75.87 121h-9.53c-12.27.67-39.6-10.07-45.13 15-4.21 30.51 21.68 44.07 34.38 49.47 0 0 4.61 61.83 70.12 61.83 80.81-4.58 74.92-35.38 80.76-69.69 28.17-5.07 39.53-53.71 13.62-57.34" style="fill:#e5cf9e"/><path d="M166.47 167.61c-5.84 34.31 40.05 55.11-40.76 59.69-65.51 0-40.12-61.83-40.12-61.83-35.21 17.61-64.85-12.08-63.5-32.66a28 28 0 0 0-.88 3.12c-4.21 30.58 21.68 44.14 34.38 49.54 0 0-12.52 65.23 70.12 61.83 80.81-4.58 83.83-28.61 80.76-69.69C227.41 173.84 239 146 233 130.47c-.25 20.81-14.43 43.37-66.53 37.14" class="cls-8"/><path d="M83.73 54.93C51.33 57.46 43 27 42.35 21 32.07 27.41 27 40.16 27.13 52.3S32 76.08 37.81 86.76 51.06 108 62.17 112.82M178.51 57.2c37.57 1.43 40.52-21.25 41.38-34 10.28 6.45 15.39 19.21 15.22 31.35s-4.9 23.79-10.68 34.45-13.25 21.23-24.36 26.06" class="cls-9"/><path d="M220.09 120.27c-11.05.35-34 .8-44.9.69C178 79.18 172.29 42 121 44.39 76.15 46.62 73.68 85.45 75.87 121h-9.53c-12.27.67-39.6-10.07-45.13 15-4.21 30.51 21.68 44.07 34.38 49.47 0 0-10.71 68.39 70.12 61.83 80.81-4.58 80.2-27.39 80.76-69.69 28.17-5.07 39.53-53.71 13.62-57.34Z" style="fill:none;stroke:#012442;stroke-width:8px;stroke-miterlimit:10"/><path d="M75.87 101c-.1-1.71-.2-3.43-.28-5.15-.1 1.7-.17 3.42-.21 5.15ZM175.19 101h.53c0-1.76-.11-3.51-.22-5.23-.09 1.69-.19 3.44-.31 5.23" class="cls-8"/><ellipse cx="56.77" cy="119.23" class="cls-11" rx="31.75" ry="31.95" transform="rotate(-47.13 56.768 119.234)"/><path id="olho" d="M33.08 120.65a14.49 14.49 0 0 0 15.82 12.9 14.29 14.29 0 0 0 12.82-15.74 14.51 14.51 0 0 0-15.83-12.9 14.28 14.28 0 0 0-12.81 15.74" class="cls-12"/><ellipse cx="192.31" cy="119.23" class="cls-11" rx="31.95" ry="31.75" transform="rotate(-42.87 192.308 119.228)"/><path id="olho-2" d="M216 120.65a14.5 14.5 0 0 1-15.83 12.9 14.29 14.29 0 0 1-12.81-15.74 14.5 14.5 0 0 1 15.83-12.9A14.29 14.29 0 0 1 216 120.65" class="cls-12" data-name="olho"/><path d="m27 104.34 61 13.94S91.12 83 70.48 80.56C51.43 78.33 36.92 80 25.12 98.88c-1.35 2.12-.58 4.92 1.88 5.46Z" style="stroke:#012442;fill:#d6bf85;stroke-width:8px;stroke-miterlimit:10"/><path d="M145.26 90.1c-.39-.47 10.79 14.43 17.29 15.68 0 0 9.87-17.41 18.23-21.47 7.12 3.49 13.48 15 13.48 15 4.61-2.64 7.83-8 8.62-12.8 5.59 2.29 12.5 8.82 16.14 13.18.84-44.29-37.18-50.47-69.79-51.63 0 0-5.62-8.63.47-22.24-32-3.08-40.13 20.76-40.13 20.76-27.85-8.07-47.11.56-47.11.56 4.07 3.44 11 12.57 11 12.57C56.6 65.74 45 74.21 40.38 83.89c5.69-3.43 22.19-5.89 31.38-4.09-1.77 3-1.82 17.51 1.49 22.4 4.76-4.48 18.23-9 22.88-9.18.75 19.8 8.65 33.57 28.49 37.5-3.32-4.2 2.22-24.34 2.22-24.34a94.5 94.5 0 0 1 16.1 7.85s7.06-8.43 2.32-23.93" style="fill:#fcc438"/><path d="M69.27 61.3C54.67 67.2 44.56 75 40.38 83.89c5.31-3.21 20.06-5.59 29.47-4.4C68.17 74 68.2 65 69.27 61.3M215.68 78.55c-3.83-4.23-9.86-9.64-14.84-11.68-.79 4.75-4 10.16-8.62 12.79 0 0-6.36-11.49-13.48-15-8.36 4.06-18.23 21.46-18.23 21.46-6.28-1.2-16.92-15.15-17.29-15.67C147.9 86 140.9 94.4 140.9 94.4a94.8 94.8 0 0 0-16.09-7.86s-5.55 20.15-2.23 24.34c-19.84-3.88-27.74-17.7-28.49-37.49-4.65.13-18.12 4.69-22.88 9.17l-.21-.31c-1 5.24-.52 15.89 2.23 20 4.76-4.48 14.23-9 18.88-9.18.75 19.8 12.65 33.57 32.49 37.5-3.32-4.2 2.22-24.34 2.22-24.34a94.5 94.5 0 0 1 16.1 7.85s7-8.43 2.32-23.92c.36.51 11 14.46 17.28 15.67 0 0 9.88-17.41 18.24-21.47 7.12 3.49 13.48 15 13.48 15 4.61-2.64 7.83-8 8.62-12.8 5.59 2.29 12.5 8.82 16.14 13.18a54.8 54.8 0 0 0-3.32-21.19" class="cls-15"/><path d="M145.26 90.1c-.39-.47 10.79 14.43 17.29 15.68 0 0 9.87-17.41 18.23-21.47 7.12 3.49 13.48 15 13.48 15 4.61-2.64 7.83-8 8.62-12.8 5.59 2.29 12.5 8.82 16.14 13.18.84-44.29-37.18-50.47-69.79-51.63 0 0-5.62-8.63.47-22.24-32-3.08-40.13 20.76-40.13 20.76-27.85-8.07-47.11.56-47.11.56 4.07 3.44 11 12.57 11 12.57C56.6 65.74 45 74.21 40.38 83.89c5.69-3.43 22.19-5.89 31.38-4.09-1.77 3-1.82 17.51 1.49 22.4 4.76-4.48 13.23-9 17.88-9.18.75 19.8 13.65 33.57 33.49 37.5-3.32-4.2 2.22-24.34 2.22-24.34a94.5 94.5 0 0 1 16.1 7.85s7.06-8.43 2.32-23.93" class="cls-16"/><path d="M182.14 245.79c1.27-10.21 1.35-30.65.24-41v-.39c0-.26.08-.5.11-.74 1-7.11-13.09-60.86-33-68.71-5.87-2.31-13.75-3.47-21.64-3.47s-15.77 1.16-21.63 3.47c-19.87 7.85-33.95 61.6-33 68.71.86 6.24 4.26 17.4 17.3 22.07l.67.24.24.67c2.29 6.41 2.9 23.58 1.71 30.19-.15.86-.33 1.72-.52 2.58-.67 3.14-1.41 6.6-.87 10.09 1 6.55 6.16 12.21 14.93 16.38a68.4 68.4 0 0 0 29.14 6.5 66 66 0 0 0 8.12-.49 43.3 43.3 0 0 0 15-4.34c8.82-4.66 19.97-15.63 23.2-41.76" style="fill:#f9ebcd"/><path d="M154.26 168.49c-3.6.12-7.61.23-10.15 2.79-3.75 3.76-2.39 11-6.71 14.13-2 1.44-16.28 1.44-18.28 0-4.31-3.1-3-10.37-6.7-14.13-2.54-2.56-6.56-2.67-10.16-2.79 0 0-1-9 4.47-10.67s33.94-5.1 44.69-.34c4.52 2 2.84 11.01 2.84 11.01" class="cls-8"/><path d="M154.26 168.49c-3.6.12-7.61.23-10.15 2.79-3.75 3.76-2.39 11-6.71 14.13-2 1.44-16.28 1.44-18.28 0-4.31-3.1-3-10.37-6.7-14.13-2.54-2.56-6.56-2.67-10.16-2.79" class="cls-16"/><path d="M157.34 225.33a30.3 30.3 0 0 1-5.21.74c-15 7.64-25.49-9.65-25.49-9.65-2.51 9.25-19.91 11.28-19.91 11.28 3.5 8.18.24 33.05 4.58 37.38 3.33 3.32 7.92 4.48 12.31 5.49 8.15 1.88 16.87 3.62 24.6.18 8.24-3.67 13.75-12.75 16.13-22.27 1-4.1 2.05-21.08 2.53-27a34.8 34.8 0 0 1-9.54 3.85" class="cls-12"/><path d="M183.87 204.59c0-.27.09-.53.12-.77 1-7.44-12.91-62-33.9-70.31-12-4.75-32.35-4.75-44.37 0-21 8.28-34.93 62.87-33.9 70.31.83 6 4.26 18.25 18.27 23.27 2.21 6.17 2.82 23 1.66 29.43-.16.86-.34 1.73-.53 2.61-.68 3.18-1.45 6.79-.88 10.55 1.09 7.06 6.54 13.12 15.78 17.5a69.9 69.9 0 0 0 29.78 6.65 68 68 0 0 0 8.3-.5 44.9 44.9 0 0 0 15.47-4.5c9.11-4.78 20.65-16.09 24-42.86 1.25-10.41 1.33-30.97.2-41.38m-104.13-1.84c-.48-5.4 12.57-55.35 28.91-61.8 10.08-4 28.43-4 38.5 0 8.53 3.37 16.15 18.56 21.43 33.09.32.87.63 1.75.93 2.62.18.51.35 1 .52 1.51a130 130 0 0 1 5.77 26.12c-1.59 8.11-7.23 17-24.32 17-13.06 0-18-5.84-19.83-10.75a4 4 0 0 0-7.49 0c-1.84 4.91-6.78 10.75-19.84 10.75-18.19.03-23.41-10.08-24.58-18.54m76.22 79a37.1 37.1 0 0 1-12.74 3.65 61.84 61.84 0 0 1-33.67-5.4c-4.69-2.23-10.46-6-11.3-11.49-.35-2.32.21-4.92.79-7.68.21-1 .41-1.9.58-2.86 1.12-6.2.9-22.71-.59-28.88a52 52 0 0 0 5.29.27c12.6 0 19.65-4.59 23.58-9.41 3.93 4.82 11 9.41 23.58 9.41s20.4-4.17 25.17-9.34c0 5-.34 20-1 25-3 24.53-13.65 33.54-19.65 36.72Z" class="cls-12"/><path d="M121.67 248.53a11.6 11.6 0 0 0-6-.62 2.26 2.26 0 0 0-1.92 2.47l.92 9.42a3.11 3.11 0 0 0 1.62 2.41 33 33 0 0 0 3.16 1.48 2.36 2.36 0 0 0 3.22-2.16l.23-11.1a2 2 0 0 0-1.23-1.9M136.9 248.81a10.56 10.56 0 0 0-6.64.51 1.76 1.76 0 0 0-1.11 1.59l-.25 12.45a2.36 2.36 0 0 0 2 2.4 34 34 0 0 0 3.67.29 2.37 2.37 0 0 0 2.45-2.17l1.11-13.24a1.77 1.77 0 0 0-1.23-1.83M153.18 249.46c-2.55-.89-4.81-.43-7 .1a2.18 2.18 0 0 0-1.67 1.94l-.95 11.39a2.37 2.37 0 0 0 2.8 2.52c4-.74 4.74-1.85 4.74-1.85l2.68-11.43c.22-1.13.48-2.3-.6-2.67" class="cls-18"/><circle cx="98.14" cy="186.86" r="4.47" class="cls-8"/><circle cx="93.67" cy="204.6" r="4.47" class="cls-8"/><circle cx="111.2" cy="200.12" r="4.47" class="cls-8"/><circle cx="156.73" cy="186.86" r="4.47" class="cls-8"/><circle cx="161.2" cy="204.6" r="4.47" class="cls-8"/><circle cx="143.67" cy="200.12" r="4.47" class="cls-8"/></svg>